<?xml version="1.0" standalone="no"?>
<!DOCTYPE svg PUBLIC "-//W3C//DTD SVG 1.1//EN" "http://www.w3.org/Graphics/SVG/1.1/DTD/svg11.dtd" >
<svg>
<metadata>
Created by FontForge 20120731 at Fri Sep 17 16:50:16 2021
 By ffonts
Sweet Hansan (c) 7NTypes. 2019. All Rights Reserved
</metadata>
<defs>
<font id="SweetHansan-Italic" horiz-adv-x="1215" >
  <font-face 
    font-family="Sweet Hansan"
    font-weight="400"
    font-style="italic"
    font-stretch="normal"
    units-per-em="2048"
    panose-1="2 0 5 0 0 0 0 9 0 0"
    ascent="1638"
    descent="-410"
    x-height="886"
    cap-height="1590"
    bbox="-390 -1033 7826 2017"
    underline-thickness="150"
    underline-position="-142"
    slope="-12"
    unicode-range="U+001D-E010"
  />
<missing-glyph horiz-adv-x="1024" 
 />
    <glyph glyph-name=".notdef" horiz-adv-x="1024" 
 />
    <glyph glyph-name="uni0000" horiz-adv-x="0" 
 />
    <glyph glyph-name="uni0000" horiz-adv-x="0" 
 />
    <glyph glyph-name="CR" horiz-adv-x="508" 
 />
    <glyph glyph-name="space" unicode=" " horiz-adv-x="508" 
 />
    <glyph glyph-name="space" unicode="&#xa0;" horiz-adv-x="508" 
 />
    <glyph glyph-name="exclam" unicode="!" horiz-adv-x="511" 
d="M304 287c-48 0 -72 29 -72 88c0 21 3 45 9 73c7 32 16 64 25 96c10 39 19 77 28 116c45 192 91 384 136 575l68 304c11 50 24 98 40 143c18 55 48 90 90 107c13 5 25 8 36 8c25 0 45 -14 58 -41c5 -10 7 -25 7 -46c0 -37 -8 -91 -23 -164c-16 -73 -54 -224 -113 -452
c-56 -210 -104 -410 -144 -601c-13 -58 -26 -104 -39 -137s-38 -55 -76 -65c-11 -3 -21 -4 -30 -4zM199 -122c-21 0 -40 9 -57 28c-18 21 -27 43 -27 66c0 7 1 14 2 21c5 24 19 47 44 68c29 25 57 37 85 37c7 0 21 -2 41 -7c21 -4 36 -22 47 -53c3 -7 4 -15 4 -23
c0 -5 -1 -11 -2 -16c-5 -21 -18 -44 -39 -67c-32 -36 -65 -54 -98 -54z" />
    <glyph glyph-name="quotedbl" unicode="&#x22;" horiz-adv-x="219" 
d="M452 997c-11 0 -21 2 -32 5c-30 11 -45 33 -45 67c0 11 1 22 4 35c4 21 19 64 44 129c9 23 17 44 22 62c20 59 36 103 80 151c26 27 52 40 79 40c45 0 68 -25 68 -74c0 -15 -2 -32 -6 -51l-2 -11c-19 -87 -43 -164 -72 -231c-36 -81 -83 -122 -140 -122zM200 1026
c-11 0 -21 2 -32 5c-34 11 -51 27 -52 50v10c0 19 2 36 5 53c3 12 10 36 21 72c35 115 65 190 90 223c20 27 39 42 56 45c18 3 30 4 35 4c23 0 44 -8 61 -24c13 -12 19 -27 19 -46c0 -6 -1 -13 -2 -20l-10 -47c-11 -50 -27 -102 -48 -156s-41 -93 -58 -118
c-35 -48 -62 -51 -85 -51z" />
    <glyph glyph-name="numbersign" unicode="#" horiz-adv-x="1544" 
d="M719 496c99 0 167 10 204 31c25 15 51 53 79 115c6 13 9 21 10 25v2c0 2 -1 3 -4 3c-7 0 -17 -3 -50 -10c-99 -17 -151 -28 -158 -32c-6 -3 -15 -14 -27 -33c-23 -37 -41 -70 -54 -101zM734 -80c-13 0 -23 5 -30 14c-12 13 -23 9 -26 14c-8 13 -12 28 -12 45
c0 9 1 18 3 27c7 31 28 78 64 139c37 62 57 103 61 123c1 1 1 3 1 4c0 13 -13 19 -40 19c-26 0 -56 -3 -89 -9c-29 -5 -49 -11 -60 -16c-23 -11 -63 -66 -120 -165c-11 -19 -19 -34 -25 -44c-50 -80 -100 -120 -151 -120c-7 0 -15 1 -22 4c-29 13 -44 37 -44 71
c0 10 1 21 4 33c4 19 12 39 23 58c28 45 46 67 70 118l-56 -10c-30 -6 -60 -9 -90 -9c-19 0 -38 3 -56 8c-40 10 -60 30 -60 61c0 6 1 12 2 19c4 20 17 40 39 59c53 47 155 77 305 92l57 5c9 19 28 53 57 100c4 7 6 13 7 16v1c0 2 -2 3 -5 3c-125 -28 -208 -42 -251 -42h-29
c-16 0 -33 6 -51 18c-13 9 -20 22 -20 41c0 7 1 14 2 21c9 35 24 62 46 80s50 30 85 37s69 14 102 20c52 9 106 20 161 34c13 3 26 6 39 8c36 4 66 9 90 48c86 145 142 241 167 288c52 97 105 145 158 145c9 0 18 -1 27 -4c32 -9 49 -26 52 -50v-8c0 -10 -1 -20 -3 -31
c-6 -29 -25 -70 -56 -122c-59 -101 -101 -170 -125 -207c34 3 73 9 116 20c41 10 69 15 85 15c9 0 11 -4 24 15c36 52 72 109 109 170c43 73 86 136 127 190c21 27 45 48 73 64c21 13 41 19 59 19c5 0 15 -2 28 -5s22 -21 26 -56v-8c0 -9 -1 -17 -2 -26
c-13 -60 -52 -135 -117 -226l-62 -89c0 -1 2 -2 5 -2c5 0 18 3 37 6c25 3 53 8 84 15c63 13 109 20 136 20c47 0 74 -20 82 -59c1 -6 2 -12 2 -18s-1 -12 -2 -18c-4 -17 -14 -33 -30 -46c-55 -45 -117 -72 -184 -82c-21 -3 -66 -9 -133 -17c-81 -10 -124 -17 -129 -20
c-21 -13 -47 -49 -77 -108c-8 -15 -19 -28 -20 -36v-1c0 -3 3 -4 8 -4c13 0 45 6 97 18c73 17 129 25 168 25c69 0 103 -22 103 -65c0 -7 -1 -15 -3 -23c-13 -61 -74 -102 -185 -122c-5 -5 -99 -21 -281 -50c-18 -2 -30 -8 -37 -17c-31 -44 -62 -98 -93 -162
c-58 -116 -107 -191 -147 -226c-21 -18 -44 -27 -68 -27z" />
    <glyph glyph-name="dollar" unicode="$" horiz-adv-x="1078" 
d="M638 182c2 0 5 1 8 2c46 13 89 32 130 55c41 24 72 59 91 106l4 15c3 13 4 26 4 37c0 63 -46 114 -150 121c-28 -77 -51 -154 -69 -229c-10 -47 -16 -73 -19 -78c-2 -5 -3 -9 -4 -13c-1 -3 -1 -5 -1 -8c0 -5 2 -8 6 -8zM548 725c11 0 19 2 25 6c14 9 30 55 47 138
c16 75 24 125 25 151c-33 -19 -66 -46 -97 -82c-50 -57 -79 -102 -86 -137c-1 -5 -2 -9 -2 -14c0 -12 4 -23 12 -33c15 -19 41 -29 76 -29zM441 -222c-8 0 -16 1 -25 4c-37 9 -58 26 -61 50c-1 5 -1 11 -1 16c0 11 1 22 4 33l8 38c1 9 2 16 2 23c0 5 0 10 -1 14
c-6 18 -47 30 -123 36c-11 1 -20 3 -27 4c-81 16 -121 49 -121 98c0 7 1 14 3 22c3 15 9 30 19 47c22 39 48 59 79 59h25c16 -1 40 -7 72 -20c42 -17 78 -25 107 -25c14 0 25 7 34 22c5 7 18 53 40 136s33 126 33 127c4 11 7 21 9 31c1 5 1 10 1 15c0 4 7 16 -22 23
c-65 12 -111 22 -137 31s-49 26 -70 52c-27 34 -41 72 -41 113c0 14 2 29 5 44c1 3 5 20 12 52c8 33 34 79 77 140c75 105 153 185 236 238c29 19 72 44 127 73c15 8 28 32 39 71c9 34 26 66 49 96s48 45 73 45c13 0 25 -4 37 -12c25 -15 38 -31 41 -47c1 -5 1 -10 1 -16
c0 -9 -1 -18 -3 -28c-2 -9 -3 -17 -3 -24c0 -5 1 -10 2 -14c7 -19 39 -35 98 -50c51 -13 87 -45 107 -96c8 -20 12 -40 12 -61c0 -11 -1 -23 -4 -34c-3 -10 -6 -20 -10 -29c-24 -50 -57 -75 -100 -75c-27 0 -54 20 -80 59l-22 28c-16 21 -32 32 -47 32c-6 0 -11 -2 -15 -7
c-14 -16 -31 -74 -52 -173l-31 -139c-7 -33 -13 -59 -16 -78c45 -7 85 -16 119 -28c29 -11 60 -29 93 -56c34 -27 56 -55 65 -84c14 -45 21 -88 21 -130c0 -27 -3 -53 -8 -79c-10 -49 -34 -97 -71 -145c-51 -65 -113 -115 -186 -152c-30 -15 -74 -31 -131 -48
c-53 -16 -83 -25 -90 -28c-6 -3 -11 -7 -14 -14c-2 -3 -10 -27 -25 -70c-11 -34 -28 -62 -50 -84c-17 -17 -38 -26 -63 -26z" />
    <glyph glyph-name="percent" unicode="%" horiz-adv-x="1149" 
d="M65 -168c-9 0 -18 2 -27 5c-36 11 -54 34 -54 67c0 7 1 15 3 24c9 39 47 102 114 191c77 103 134 175 170 218c23 26 44 52 64 79c111 145 274 335 489 570c67 73 122 133 163 181c35 42 72 83 111 124c71 76 124 114 161 114c23 0 39 -13 50 -40c7 -21 11 -38 11 -52
c0 -5 0 -10 -1 -14c0 -1 -1 -7 -4 -16c-2 -9 -15 -28 -38 -56c-85 -105 -178 -210 -278 -313c-152 -157 -315 -347 -489 -570c-32 -41 -65 -82 -99 -123c-89 -108 -149 -189 -182 -242c-60 -98 -115 -147 -164 -147zM802 -40c-37 0 -73 11 -108 34c-46 31 -69 74 -69 130
c0 15 2 32 5 50c13 63 46 122 98 177c34 37 74 65 121 83c33 13 64 19 95 19c13 0 32 -2 59 -7c27 -4 52 -25 74 -63c21 -36 31 -72 31 -109c0 -14 -1 -28 -4 -42c-1 -5 -6 -22 -14 -52s-38 -70 -90 -121c-67 -66 -133 -99 -198 -99zM844 139c1 0 6 0 13 1c8 1 21 11 39 32
c19 21 30 42 35 64c1 5 2 12 2 23c0 10 -10 15 -29 15c-48 0 -86 -35 -95 -74c-1 -6 -2 -12 -2 -17c0 -21 12 -44 37 -44zM473 911c-37 0 -73 11 -109 34c-47 30 -70 73 -70 130c0 16 2 33 6 52c4 17 12 42 25 73s37 66 72 103s76 65 122 82c33 13 65 20 96 20
c12 0 32 -2 59 -7c27 -4 52 -25 73 -63c20 -36 30 -72 30 -109c0 -14 -1 -28 -4 -42c-1 -5 -5 -22 -13 -52s-38 -70 -91 -121c-70 -67 -135 -100 -196 -100zM513 1091h14c8 1 22 12 42 33c7 8 14 20 21 35c5 10 9 19 11 28c1 5 1 12 1 21v1c0 11 -9 17 -28 17
c-48 0 -87 -35 -95 -74c-1 -7 -2 -13 -2 -18c0 -20 11 -43 36 -43z" />
    <glyph glyph-name="ampersand" unicode="&#x26;" horiz-adv-x="1364" 
d="M455 152c62 0 131 20 206 59c41 22 81 45 119 69c45 29 68 49 70 59v4c0 25 -42 94 -125 207l-19 34c-30 53 -57 80 -80 80c-37 0 -99 -49 -159 -118c-78 -89 -125 -169 -140 -239c-3 -13 -4 -26 -4 -39c0 -21 4 -41 13 -58c19 -39 58 -58 119 -58zM762 1029
c5 0 13 5 23 14c48 45 92 99 133 161c37 58 62 115 74 171c3 15 5 29 5 42c0 27 -6 54 -18 79c-15 31 -42 46 -80 46l-9 -1c-63 -10 -105 -66 -127 -169c-11 -55 -17 -115 -17 -182c0 -107 5 -161 16 -161zM1222 -82h-3c-48 0 -119 70 -212 211l-20 33c-9 15 -17 22 -25 22
c-9 0 -43 -20 -102 -61c-35 -24 -70 -47 -105 -68c-111 -69 -220 -103 -327 -103c-25 0 -57 2 -96 7c-38 5 -76 24 -114 59c-64 59 -98 126 -101 201v15c0 29 3 57 9 85c25 120 97 238 214 354c30 30 66 60 107 90c70 51 107 85 110 102c1 7 2 18 2 33c0 37 -5 98 -14 182
c-5 37 -7 74 -7 109c0 55 5 107 16 157c15 69 43 135 84 198c71 107 155 171 252 192c20 4 40 6 59 6c71 0 134 -31 187 -93c47 -55 70 -115 70 -182c0 -10 -1 -20 -2 -31c-2 -21 -5 -42 -9 -63c-13 -58 -38 -122 -76 -191c-47 -87 -107 -165 -180 -236s-111 -113 -114 -126
c-1 -1 -1 -3 -1 -5c0 -37 59 -136 178 -299c9 -13 18 -19 25 -19c4 0 8 2 13 5c37 25 73 58 108 101c67 79 121 119 160 119c11 0 23 -3 35 -8c33 -15 49 -37 49 -65c0 -6 -1 -12 -2 -18c-11 -51 -64 -120 -161 -207c-29 -27 -59 -55 -88 -86c27 -63 66 -123 117 -179
c52 -57 78 -100 78 -130c0 -3 0 -7 -1 -10c-5 -25 -20 -47 -44 -68s-47 -32 -69 -33z" />
    <glyph glyph-name="quotesingle" unicode="'" horiz-adv-x="313" 
d="M389 1055c-20 0 -39 8 -58 24c-16 14 -24 37 -24 70c0 9 1 19 2 29c4 39 10 76 18 113c12 56 15 78 20 105c4 18 10 39 17 63s22 44 43 61c13 11 31 16 52 16c49 0 78 -17 88 -52c3 -13 5 -29 5 -48c0 -29 -4 -65 -13 -108c-3 -15 -6 -35 -9 -61c-2 -21 -5 -43 -10 -64
c-3 -16 -5 -59 -49 -104c-27 -29 -55 -44 -82 -44z" />
    <glyph glyph-name="parenleft" unicode="(" horiz-adv-x="688" 
d="M555 -213c-20 0 -40 4 -61 13c-91 41 -163 103 -216 186c-52 83 -79 176 -82 280v32c0 86 9 173 28 261c32 151 76 289 132 412c81 179 200 338 356 478c123 111 224 166 301 166c39 0 63 -14 71 -43c1 -6 2 -12 2 -19c0 -6 -1 -12 -2 -19c-3 -16 -11 -31 -24 -46
c-33 -39 -80 -78 -142 -117c-146 -93 -267 -231 -362 -415c-64 -123 -110 -248 -137 -376c-1 -5 -8 -41 -21 -109c-5 -24 -7 -50 -7 -78c0 -53 8 -113 25 -182c15 -63 34 -107 57 -131s49 -42 78 -55c33 -14 68 -41 104 -80c16 -17 24 -36 24 -57c0 -6 -1 -12 -2 -19
c-3 -16 -12 -30 -27 -42c-31 -27 -63 -40 -95 -40z" />
    <glyph glyph-name="parenright" unicode=")" horiz-adv-x="636" 
d="M91 -227c-17 0 -33 7 -47 20c-17 17 -26 36 -26 56c0 5 1 10 2 15c7 32 27 67 60 105c74 85 142 173 203 264c76 114 128 229 156 346l16 71c20 94 31 189 34 286v26c0 155 -39 292 -118 413c-8 13 -18 26 -29 37c-28 29 -42 54 -42 76c0 4 0 8 1 11c2 11 8 23 17 36
c31 43 62 65 91 65c41 0 82 -27 125 -81c52 -65 87 -132 105 -203c7 -29 17 -57 29 -84c3 -8 7 -32 14 -73c9 -57 14 -115 14 -176c0 -97 -12 -200 -35 -308c-25 -119 -60 -228 -103 -325c-34 -77 -86 -166 -156 -267c-69 -101 -134 -183 -194 -247c-24 -26 -52 -45 -83 -57
c-11 -4 -23 -6 -34 -6z" />
    <glyph glyph-name="asterisk" unicode="*" horiz-adv-x="174" 
d="M344 1010c-11 0 -22 7 -35 22c-5 7 -8 21 -8 44c0 11 1 23 2 36c-56 -55 -102 -82 -137 -82c-18 0 -27 6 -27 18c0 2 0 4 1 6c5 25 40 69 104 133c-31 -3 -59 -5 -86 -5c-23 0 -38 7 -47 21c-4 6 -6 12 -6 19c0 2 0 4 1 7c1 6 6 14 13 25s29 20 65 27l76 13
c-19 24 -32 41 -37 52s-8 22 -8 31c0 3 0 7 1 10c1 8 5 15 10 21c10 11 22 17 37 17c20 0 48 -18 85 -53l10 36c16 59 40 88 72 88c1 0 5 -1 12 -2s12 -10 13 -27c1 -8 1 -16 1 -23c0 -19 -2 -37 -5 -55c71 62 120 93 148 93c11 0 17 -5 17 -16c0 -3 0 -6 -1 -10
c-5 -27 -42 -76 -109 -145c9 0 29 0 61 -1s59 -10 82 -29c7 -5 10 -11 10 -17v-3c-3 -16 -23 -29 -58 -38c-18 -5 -53 -10 -106 -15c29 -41 44 -71 44 -91c0 -3 0 -5 -1 -7c-4 -20 -20 -30 -48 -30c-7 0 -15 1 -24 3c-11 3 -31 19 -59 47c-4 -19 -8 -36 -13 -52
c-13 -45 -29 -68 -50 -68z" />
    <glyph glyph-name="plus" unicode="+" horiz-adv-x="1438" 
d="M650 -98l-22 1c-35 9 -53 31 -54 66c0 30 3 60 9 89c31 143 68 296 112 458c9 32 19 54 23 71c1 5 1 9 1 14s-1 12 -3 20c-1 8 -20 12 -55 12c-53 -1 -106 -4 -159 -10c-57 -7 -113 -10 -169 -10c-34 0 -68 2 -102 5c-29 3 -54 14 -75 32c-13 12 -20 27 -20 44
c0 5 1 11 2 17l1 5c18 66 59 99 122 99l101 -1c63 0 126 3 190 9c61 6 104 9 131 9c53 0 83 4 90 11c4 4 17 52 38 145c41 183 71 297 91 341c4 7 12 16 23 27c36 34 65 51 87 51c8 0 15 -4 22 -13c13 -16 27 -15 34 -46c3 -13 4 -27 4 -44c0 -32 -5 -71 -15 -117
c-15 -70 -35 -152 -62 -247c-12 -41 -19 -65 -21 -73c-1 -3 -1 -7 -2 -12v-1c0 -5 5 -8 16 -8l19 1c14 2 32 3 55 4c23 0 52 3 71 3c36 0 72 2 109 6c22 2 46 4 72 5c18 1 35 2 50 3c35 4 68 6 101 6c65 0 104 -6 118 -18c7 -6 14 -22 23 -49c3 -8 4 -16 4 -24
c0 -5 -1 -10 -2 -15c-7 -34 -30 -60 -68 -77c-25 -11 -63 -19 -115 -22s-101 -6 -148 -7c-179 -3 -296 -11 -351 -22c-16 -35 -39 -125 -70 -268c-30 -139 -53 -239 -70 -301c-21 -83 -54 -136 -97 -159c-13 -7 -26 -10 -39 -10z" />
    <glyph glyph-name="comma" unicode="," horiz-adv-x="310" 
d="M-32 -337c-19 0 -39 9 -59 27c-14 13 -21 31 -21 54c0 9 1 19 3 30c11 51 48 123 113 216c14 21 32 52 55 94c29 58 61 106 96 143c20 7 32 27 65 27c53 0 79 -26 79 -78v-2c-5 -41 -8 -64 -9 -70c-5 -21 -13 -43 -26 -66c-12 -23 -37 -64 -75 -124
c-9 -13 -19 -29 -28 -48c-21 -37 -45 -74 -72 -112c-26 -38 -55 -66 -86 -83c-11 -5 -23 -8 -35 -8z" />
    <glyph glyph-name="hyphen" unicode="-" horiz-adv-x="780" 
d="M176 379c-22 0 -48 3 -77 8s-45 31 -48 76c0 6 1 12 2 18c5 23 19 43 40 60c29 23 67 37 114 42c37 4 76 6 118 6c65 0 152 11 240 14c55 1 97 4 126 7c20 2 40 3 59 3c22 0 47 -3 76 -8s45 -31 48 -76v-6c0 -4 0 -8 -1 -12c-5 -23 -19 -43 -40 -60
c-29 -23 -67 -37 -114 -42c-37 -4 -76 -6 -118 -6c-65 0 -152 -11 -240 -14c-55 -1 -97 -4 -126 -7c-20 -2 -40 -3 -59 -3z" />
    <glyph glyph-name="hyphen" unicode="&#xad;" horiz-adv-x="780" 
d="M176 379c-22 0 -48 3 -77 8s-45 31 -48 76c0 6 1 12 2 18c5 23 19 43 40 60c29 23 67 37 114 42c37 4 76 6 118 6c65 0 152 11 240 14c55 1 97 4 126 7c20 2 40 3 59 3c22 0 47 -3 76 -8s45 -31 48 -76v-6c0 -4 0 -8 -1 -12c-5 -23 -19 -43 -40 -60
c-29 -23 -67 -37 -114 -42c-37 -4 -76 -6 -118 -6c-65 0 -152 -11 -240 -14c-55 -1 -97 -4 -126 -7c-20 -2 -40 -3 -59 -3z" />
    <glyph glyph-name="period" unicode="." horiz-adv-x="379" 
d="M162 -63c-25 0 -49 7 -74 21c-37 21 -59 46 -64 77c-1 6 -1 12 -1 19c0 12 1 25 4 38c15 71 50 122 104 152c36 21 73 31 111 31c3 0 15 0 36 -1s43 -15 65 -42c19 -23 29 -49 29 -78c0 -9 -1 -19 -3 -29c-3 -11 -11 -33 -24 -66s-46 -65 -97 -96
c-28 -17 -57 -26 -86 -26z" />
    <glyph glyph-name="slash" unicode="/" horiz-adv-x="740" 
d="M68 -148c-13 0 -25 3 -36 10c-21 13 -31 33 -31 60c0 9 1 20 4 31c9 41 29 86 60 137c85 137 167 275 247 414c9 16 19 31 30 46c12 17 22 34 30 49c64 129 258 411 581 845c34 45 69 76 106 91c8 3 15 5 22 5c25 0 44 -23 56 -68c2 -6 3 -12 3 -19s-1 -15 -3 -23
c-13 -63 -80 -172 -200 -326c-24 -30 -43 -55 -57 -75c-193 -273 -374 -551 -545 -834c-22 -37 -43 -75 -64 -115c-29 -56 -59 -108 -90 -157c-18 -27 -41 -47 -69 -60c-15 -7 -30 -11 -44 -11z" />
    <glyph glyph-name="zero" unicode="0" horiz-adv-x="1045" 
d="M471 194c23 0 51 9 84 27c28 15 49 29 62 41c73 64 131 138 174 222c41 81 81 170 119 265c31 77 54 149 69 218c8 38 12 75 12 112c0 18 -1 36 -3 53c-5 40 -20 69 -43 88c-9 7 -19 10 -32 10c-21 0 -48 -10 -79 -29c-82 -51 -156 -128 -223 -231s-121 -212 -162 -327
c-25 -68 -43 -131 -55 -188c-9 -39 -14 -76 -15 -111v-14c0 -49 13 -88 40 -115c13 -14 31 -21 52 -21zM445 -5c-17 0 -35 2 -52 5c-157 32 -216 122 -219 249v15c0 59 7 124 22 194c23 105 57 208 103 311c23 53 60 121 109 206s92 149 129 193s79 87 124 130
c91 87 178 131 261 131c15 0 30 -2 45 -5c65 -12 113 -35 146 -70c55 -58 82 -136 82 -235c0 -45 -6 -93 -17 -146c-3 -18 -14 -62 -33 -131s-56 -162 -111 -280s-109 -214 -163 -289c-37 -51 -80 -99 -129 -144c-101 -89 -200 -134 -297 -134z" />
    <glyph glyph-name="one" unicode="1" horiz-adv-x="836" 
d="M189 -5c-36 0 -66 5 -91 16c-23 9 -34 29 -34 58c0 9 1 20 4 32c12 54 49 85 110 92c30 4 56 6 79 6c25 0 43 4 54 12c11 9 22 36 31 81c15 88 54 279 117 574l50 222c5 23 7 38 7 45c0 3 0 4 -1 4c-8 0 -27 -20 -60 -31c-12 -5 -24 -7 -36 -7c-8 0 -32 -4 -43 27
c-2 7 -3 13 -3 20c0 5 0 9 1 13c9 39 54 93 136 162c21 17 36 31 45 41c34 39 71 58 110 58c23 0 45 -8 64 -25c17 -16 25 -41 25 -74c0 -7 0 -15 -1 -24c-4 -32 -9 -61 -14 -88c-9 -42 -25 -110 -50 -204c-27 -106 -53 -216 -77 -329c-4 -17 -14 -68 -29 -151l-38 -172
c-8 -39 -13 -75 -16 -108v-3c0 -19 18 -29 53 -29c20 0 59 6 118 17c11 2 22 3 32 3c20 0 39 -6 57 -17c15 -10 23 -27 23 -51c0 -9 -1 -19 -3 -30c-17 -81 -90 -122 -217 -122l-112 1c-73 0 -132 -3 -177 -10c-35 -5 -73 -8 -114 -9z" />
    <glyph glyph-name="two" unicode="2" horiz-adv-x="1014" 
d="M258 -15c-21 0 -47 1 -79 3c-31 2 -59 13 -83 34c-25 22 -38 45 -38 70c0 5 1 11 2 16c1 6 7 20 16 41c17 38 116 139 297 302c80 71 157 145 231 222c75 77 146 168 215 272c41 62 66 113 74 152c2 10 3 20 3 30c0 18 -5 37 -16 58c-10 21 -43 38 -98 49
c-13 3 -26 4 -38 4c-64 0 -127 -27 -189 -81c-48 -43 -92 -65 -132 -65c-20 0 -38 11 -53 33c-7 9 -10 20 -10 32c0 5 1 11 2 16c22 84 80 150 175 198c91 46 177 69 260 69c58 0 116 -15 173 -44s97 -79 120 -151c8 -26 12 -53 12 -80c0 -19 -2 -38 -6 -58
c-1 -5 -7 -59 -62 -158c-97 -174 -247 -358 -452 -551l-113 -105c-58 -54 -88 -85 -89 -92v-1c0 -8 24 -12 73 -12c32 0 95 3 189 10c48 3 103 5 164 5c105 0 157 -27 157 -81c0 -7 -1 -14 -2 -21c-13 -64 -71 -99 -174 -104c-33 -1 -64 -2 -95 -2l-102 1l-32 -1
c-132 -7 -232 -10 -300 -10z" />
    <glyph glyph-name="three" unicode="3" horiz-adv-x="1159" 
d="M466 -14c-203 0 -323 20 -362 60c-13 13 -19 30 -19 50c0 8 1 16 3 25c1 7 4 15 8 24c24 50 59 75 106 75c13 0 26 -1 40 -4c89 -20 172 -30 249 -30c65 0 130 9 194 26c32 9 72 24 121 45c49 22 94 48 136 79c51 37 80 73 88 110c1 5 2 10 2 15c0 25 -15 50 -44 75
c-49 42 -105 65 -168 70c-25 2 -50 3 -75 3c-40 0 -81 -2 -122 -7c-49 -5 -92 -8 -128 -8c-17 0 -39 1 -66 4s-47 18 -62 46c-5 11 -8 22 -8 33c0 5 0 9 1 14c11 50 78 102 201 156c107 47 220 110 293 207c30 39 48 71 53 96c1 3 1 7 1 11c0 11 -3 23 -8 37
c-10 24 -47 36 -111 36c-113 0 -199 -34 -257 -101c-25 -29 -53 -54 -85 -75c-18 -12 -36 -18 -54 -18c-14 0 -28 5 -41 14c-21 15 -32 35 -32 59c0 6 1 12 2 19c9 44 33 86 72 127c113 117 255 175 426 175c5 0 33 0 84 -1s103 -31 156 -92c37 -42 56 -87 56 -134
c0 -14 -2 -28 -5 -43c0 -3 -4 -21 -13 -56c-8 -34 -40 -85 -97 -152c-47 -56 -82 -93 -104 -110c-15 -12 -22 -20 -23 -25v-1c0 -4 12 -9 36 -15c144 -31 243 -94 298 -188c19 -34 29 -70 29 -109c0 -18 -2 -37 -6 -56c-16 -77 -57 -147 -123 -209
c-65 -62 -142 -114 -231 -156c-88 -41 -170 -70 -245 -86c-47 -10 -103 -15 -166 -15z" />
    <glyph glyph-name="four" unicode="4" horiz-adv-x="1146" 
d="M799 -112c-29 0 -53 15 -70 46c-4 7 -6 19 -6 35c0 25 5 62 15 109c17 81 45 189 84 322c7 24 12 39 13 44c2 6 4 12 5 17c1 7 2 12 2 17c0 8 5 22 -30 22c-31 0 -102 -7 -212 -22c-109 -14 -202 -21 -277 -21c-27 0 -54 3 -80 10c-61 15 -91 46 -91 91c0 8 1 16 3 25
c10 49 56 123 139 223c227 269 370 444 428 527c31 44 65 86 102 125c35 37 72 55 111 55c55 0 82 -18 82 -54c0 -6 -1 -13 -2 -20c-2 -8 -5 -17 -10 -26c-67 -137 -217 -314 -438 -566c-83 -94 -126 -150 -129 -167v-4c0 -11 14 -17 41 -17c15 0 35 2 60 5c15 2 41 5 80 8
c167 13 259 24 274 35c7 5 17 28 30 71c11 36 42 154 95 354c40 154 72 252 96 294c33 56 68 84 103 84c49 0 73 -30 73 -90c0 -21 -3 -46 -9 -75c-9 -39 -18 -77 -29 -112c-21 -66 -42 -142 -65 -228c-15 -55 -31 -110 -48 -165c-16 -50 -26 -86 -31 -107
c-1 -5 -2 -10 -2 -13c0 -11 3 -17 30 -21c17 -3 41 -13 73 -30c16 -8 24 -15 24 -22v-1c0 -4 -6 -7 -7 -12l2 -3c7 -13 10 -24 10 -33c0 -3 0 -5 -1 -8c-2 -11 -12 -27 -29 -48c-33 -40 -61 -38 -88 -38c-30 -1 -53 -8 -68 -22c-15 -13 -29 -53 -43 -118
c-22 -104 -42 -195 -61 -274c-32 -135 -82 -202 -149 -202z" />
    <glyph glyph-name="five" unicode="5" horiz-adv-x="1128" 
d="M271 -127c-15 0 -35 2 -60 5s-41 23 -50 58c-3 15 -5 28 -5 40c0 7 1 14 2 21c4 17 14 33 30 50c17 17 48 28 95 31c39 3 75 6 110 7c41 1 83 4 126 8c183 17 308 88 373 213c13 24 22 48 27 71c3 13 4 27 4 40c0 23 -4 45 -13 66c-32 76 -93 116 -183 119h-41
c-48 0 -99 -11 -153 -34c-63 -27 -116 -40 -157 -40c-13 0 -33 2 -58 5c-47 6 -70 35 -70 87c0 15 2 31 6 50c12 57 30 122 54 197c13 41 33 106 60 197c32 105 51 173 58 206c3 14 4 29 4 46c0 10 0 20 -1 31v17c0 21 2 40 5 57c8 39 24 62 48 71s53 14 88 14
c100 0 197 3 291 9c101 7 209 10 326 10c26 0 47 0 63 1c30 0 60 -4 89 -12c30 -8 47 -31 50 -70c1 -5 1 -9 1 -13c0 -8 -1 -16 -3 -23c-5 -25 -20 -46 -43 -61c-29 -19 -81 -28 -156 -28c-19 0 -39 1 -59 2l-65 -1c-77 -5 -150 -7 -218 -7c-39 0 -77 2 -115 5
c-22 1 -46 2 -72 2c-9 0 -17 -4 -24 -13c-9 -11 -29 -77 -59 -198c-39 -157 -64 -250 -75 -277c-5 -14 -9 -26 -11 -35c-1 -5 -1 -10 -1 -14c0 -7 2 -13 5 -16s8 -4 17 -4c16 0 42 5 78 14c56 15 109 22 160 22c37 0 85 -6 144 -19c59 -12 115 -52 167 -120
c43 -55 65 -114 65 -178v-8c0 -30 -3 -62 -10 -95c-26 -122 -76 -216 -151 -281l-36 -31c-95 -83 -201 -136 -319 -157c-84 -15 -163 -24 -237 -28c-12 -1 -25 -2 -38 -4c-21 -3 -42 -5 -63 -5z" />
    <glyph glyph-name="six" unicode="6" horiz-adv-x="1145" 
d="M566 116c16 0 41 4 75 12c35 9 76 33 124 72c49 40 91 85 127 135c49 69 82 139 97 212c4 17 6 34 6 50c0 49 -18 92 -53 129c-31 33 -71 50 -118 50c-87 0 -180 -47 -279 -141c-54 -51 -97 -107 -129 -166c-18 -33 -30 -65 -37 -97c-3 -17 -5 -37 -5 -61
c0 -12 1 -32 2 -59c2 -27 30 -60 85 -100c33 -24 68 -36 105 -36zM529 -82c-61 0 -111 10 -151 30c-31 15 -62 38 -95 69c-75 69 -112 152 -113 249v8c0 41 5 84 14 127c11 55 30 112 56 170c169 383 398 667 687 852c51 33 106 58 164 73c27 7 54 11 80 11
c62 0 110 -19 144 -56c21 -23 31 -47 31 -71c0 -5 -1 -11 -2 -17c-4 -19 -16 -37 -35 -54c-23 -21 -45 -32 -65 -32c-44 0 -83 24 -128 24c-41 0 -99 -28 -175 -84c-60 -44 -116 -92 -168 -145s-84 -96 -97 -130c27 5 50 9 71 14c53 13 93 19 122 19c26 0 55 -4 86 -12
c161 -41 242 -144 242 -308c0 -10 0 -20 -1 -31c-1 -25 -4 -49 -9 -73c-4 -19 -9 -37 -15 -55c-44 -143 -122 -270 -233 -383c-61 -62 -129 -111 -203 -147c-66 -32 -135 -48 -207 -48z" />
    <glyph glyph-name="seven" unicode="7" horiz-adv-x="1003" 
d="M190 -96c-9 0 -17 1 -26 4c-39 14 -58 36 -58 65c0 5 1 11 2 16c0 1 3 12 8 32c6 21 24 51 53 90c67 93 150 210 247 351c45 67 69 105 71 114v3c0 14 -24 22 -73 24c-35 2 -67 9 -96 20c-27 11 -40 32 -40 64c0 10 1 21 4 33c13 59 64 89 155 89c16 0 45 -2 88 -7
c19 -3 36 -4 51 -4c22 0 44 4 66 12c23 9 53 41 92 96c58 84 121 165 188 242c61 69 94 117 100 144c1 3 1 5 1 7c0 7 -3 13 -8 16s-24 5 -57 5l-328 -2c-54 0 -106 3 -157 8c-31 3 -56 15 -75 35c-11 11 -16 25 -16 40c0 5 1 11 2 17c2 7 5 15 10 24c17 35 41 57 72 67
c31 11 63 16 95 16l80 1c53 0 127 -1 222 -4l88 -2c63 0 128 6 195 6c111 0 166 -32 166 -96c0 -9 -1 -18 -3 -28c-1 -7 -7 -25 -17 -52c-14 -39 -66 -111 -155 -216l-85 -99c-77 -90 -128 -162 -151 -217h66c36 0 67 -8 94 -25c17 -11 26 -27 26 -48c0 -7 -1 -15 -3 -23
c-9 -45 -36 -75 -81 -89c-34 -11 -77 -16 -130 -16c-74 0 -119 -7 -136 -22c-56 -50 -164 -203 -324 -459c-35 -57 -63 -100 -84 -130c-48 -68 -94 -102 -139 -102z" />
    <glyph glyph-name="eight" unicode="8" horiz-adv-x="1194" 
d="M509 -16c87 0 178 23 273 69c53 25 89 66 110 122c3 9 6 18 8 27c2 10 3 20 3 29c0 43 -25 90 -82 143c-21 21 -57 49 -108 84c-27 19 -43 29 -49 29c-33 0 -91 -27 -172 -80c-33 -21 -57 -39 -74 -53c-56 -51 -90 -106 -103 -166c-4 -19 -6 -31 -6 -38
c2 -54 18 -94 49 -120c37 -31 87 -46 151 -46zM735 732c51 29 107 74 168 133c62 59 111 113 146 160c50 67 83 139 99 216c4 18 6 36 6 53c0 45 -14 84 -43 119c-22 27 -48 40 -77 40c-51 0 -107 -30 -170 -90c-106 -101 -173 -217 -201 -349c-6 -27 -9 -55 -9 -84
c0 -19 2 -47 6 -82c5 -35 30 -74 75 -116zM482 -221c-57 0 -122 12 -194 37c-71 25 -122 76 -152 153c-18 47 -27 95 -27 144c0 29 3 57 9 86c4 17 15 53 34 110s74 122 166 196c10 7 62 39 156 95c25 16 39 27 40 33v4c0 18 -13 58 -40 121c-19 44 -29 90 -29 139
c0 27 3 55 9 83c3 14 7 28 11 42c36 130 95 251 177 364c50 70 109 130 176 179c77 56 156 84 239 84c93 0 167 -28 220 -83s80 -131 81 -228v-9c0 -37 -4 -72 -11 -107c-28 -130 -119 -276 -274 -439c-61 -64 -129 -112 -186 -173c11 -16 25 -30 42 -43
c65 -51 113 -102 144 -155c26 -44 39 -96 39 -157c0 -29 -3 -59 -9 -91c-13 -63 -60 -146 -131 -202c-63 -51 -131 -90 -202 -119c-108 -43 -204 -64 -288 -64z" />
    <glyph glyph-name="nine" unicode="9" horiz-adv-x="1152" 
d="M573 779h7c89 6 204 93 343 260c108 133 166 217 173 252c1 3 1 7 1 10c0 13 -6 25 -18 34c-33 27 -71 40 -112 40c-37 0 -76 -11 -117 -33c-63 -33 -121 -83 -173 -149c-79 -100 -129 -200 -150 -300c-4 -19 -6 -36 -6 -51c0 -42 17 -63 52 -63zM398 -153
c-97 0 -180 23 -250 70c-38 25 -66 57 -85 94c-8 16 -12 33 -12 50c0 9 1 18 3 27c3 14 8 28 17 43c27 45 53 67 79 67c31 0 65 -19 100 -57c58 -62 126 -93 204 -93c64 0 133 21 208 64c136 77 222 199 258 366c16 78 36 179 60 304l7 30c1 6 2 11 2 14c0 4 -1 6 -3 6
c-10 0 -33 -19 -68 -57c-23 -24 -47 -45 -71 -64c-113 -91 -215 -136 -305 -136c-24 0 -48 4 -71 11c-88 27 -138 78 -150 151c-3 21 -5 42 -5 64c0 30 3 61 10 93c22 103 70 211 145 323c59 90 132 170 219 240c97 79 202 119 315 119c35 0 63 -3 86 -10s46 -16 67 -29
c21 -12 51 -24 88 -36c50 -15 77 -38 82 -67c1 -5 1 -11 1 -16c0 -14 -2 -29 -5 -46c-4 -17 -10 -37 -17 -59c-33 -102 -71 -254 -114 -456c-20 -93 -34 -163 -41 -208s-15 -91 -25 -138c-7 -33 -18 -78 -33 -135c-25 -97 -93 -201 -204 -311c-91 -89 -192 -152 -305 -188
c-63 -20 -126 -30 -187 -30z" />
    <glyph glyph-name="colon" unicode=":" horiz-adv-x="498" 
d="M234 -63c-25 0 -49 7 -74 21c-37 21 -59 46 -64 77c-1 6 -1 12 -1 19c0 12 1 25 4 38c15 71 50 122 104 152c36 21 73 31 111 31c3 0 15 0 36 -1s43 -15 65 -42c19 -23 29 -49 29 -78c0 -9 -1 -19 -3 -29c-3 -11 -11 -33 -24 -66s-46 -65 -97 -96
c-28 -17 -57 -26 -86 -26zM377 613c-25 0 -49 7 -73 21c-38 21 -59 46 -64 77c-1 6 -1 12 -1 19c0 12 1 25 4 38c15 71 50 122 103 152c37 21 74 31 112 31c3 0 15 0 36 -1s43 -15 65 -42c19 -23 28 -49 28 -77c0 -10 -1 -20 -3 -30c-2 -11 -10 -33 -23 -66s-46 -65 -97 -96
c-28 -17 -57 -26 -87 -26z" />
    <glyph glyph-name="semicolon" unicode=";" horiz-adv-x="481" 
d="M352 613c-25 0 -49 7 -73 21c-38 21 -59 46 -64 77c-1 6 -1 12 -1 19c0 12 1 25 4 38c15 71 50 122 103 152c37 21 74 31 112 31c3 0 15 0 36 -1s43 -15 65 -42c19 -23 28 -49 28 -77c0 -10 -1 -20 -3 -30c-2 -11 -10 -33 -23 -66s-46 -65 -97 -96
c-28 -17 -57 -26 -87 -26zM86 -337c-19 0 -39 9 -59 27c-14 13 -21 31 -21 54c0 9 1 19 3 30c11 51 49 123 114 216c13 21 31 52 54 94c29 58 62 106 97 143c19 7 32 27 64 27c53 0 79 -26 79 -78v-2c-3 -35 -6 -57 -8 -66c-5 -22 -13 -45 -26 -69c-13 -23 -38 -65 -76 -125
c-47 -79 -80 -132 -99 -160c-26 -38 -55 -66 -87 -83c-11 -5 -22 -8 -35 -8z" />
    <glyph glyph-name="semicolon" unicode="&#x37e;" horiz-adv-x="481" 
d="M352 613c-25 0 -49 7 -73 21c-38 21 -59 46 -64 77c-1 6 -1 12 -1 19c0 12 1 25 4 38c15 71 50 122 103 152c37 21 74 31 112 31c3 0 15 0 36 -1s43 -15 65 -42c19 -23 28 -49 28 -77c0 -10 -1 -20 -3 -30c-2 -11 -10 -33 -23 -66s-46 -65 -97 -96
c-28 -17 -57 -26 -87 -26zM86 -337c-19 0 -39 9 -59 27c-14 13 -21 31 -21 54c0 9 1 19 3 30c11 51 49 123 114 216c13 21 31 52 54 94c29 58 62 106 97 143c19 7 32 27 64 27c53 0 79 -26 79 -78v-2c-3 -35 -6 -57 -8 -66c-5 -22 -13 -45 -26 -69c-13 -23 -38 -65 -76 -125
c-47 -79 -80 -132 -99 -160c-26 -38 -55 -66 -87 -83c-11 -5 -22 -8 -35 -8z" />
    <glyph glyph-name="less" unicode="&#x3c;" horiz-adv-x="892" 
d="M783 -46l-14 -1c-15 0 -31 2 -48 6c-31 7 -92 55 -181 146c-151 151 -234 232 -251 243c-13 9 -40 33 -79 73c-29 29 -52 59 -69 88c-11 18 -16 38 -16 59c0 9 1 19 3 30c1 3 1 4 2 5c16 52 55 87 79 115c28 35 60 67 96 95c75 57 156 124 243 201c44 39 78 70 101 92
c47 47 97 94 148 142c149 141 248 211 297 211c16 0 27 -7 34 -21c5 -12 8 -26 8 -41c0 -11 -2 -24 -5 -37l-8 -25c-9 -26 -37 -64 -85 -114c-75 -76 -201 -192 -378 -347c-57 -49 -111 -95 -163 -137c-87 -70 -137 -113 -149 -129c0 -18 69 -86 208 -205
c31 -27 64 -59 98 -97c39 -44 74 -78 107 -101c71 -51 107 -98 107 -141c0 -5 -1 -11 -2 -16c-3 -16 -11 -33 -23 -50c-19 -27 -39 -42 -60 -44z" />
    <glyph glyph-name="equal" unicode="=" horiz-adv-x="957" 
d="M377 762h-60c-71 5 -111 28 -119 71c-1 5 -1 10 -1 15s0 9 1 14c6 26 27 50 64 71c30 17 71 28 124 31c45 3 90 4 136 4s82 1 109 3c53 5 148 8 287 8c53 0 96 -4 130 -11c49 -11 73 -35 73 -71c0 -7 -1 -15 -3 -22c-7 -36 -31 -63 -70 -81c-35 -16 -158 -24 -369 -24
c-45 0 -102 -2 -169 -5c-45 -2 -89 -3 -133 -3zM428 447c-100 0 -169 5 -207 15c-48 13 -72 37 -72 72c0 5 1 11 2 18c14 63 78 96 193 99l84 1c49 0 85 0 107 -1c76 0 167 8 263 8c17 0 45 -1 85 -2s76 -11 109 -32c19 -13 29 -31 29 -54c0 -7 -1 -15 -2 -22
c-3 -12 -8 -23 -16 -33c-23 -28 -48 -46 -74 -53c-37 -11 -204 -16 -501 -16z" />
    <glyph glyph-name="greater" unicode="&#x3e;" horiz-adv-x="854" 
d="M123 -46c-25 0 -46 17 -62 50c-4 9 -6 18 -6 27c0 6 1 12 2 19c12 58 82 149 210 272c18 17 33 32 44 44c145 155 276 284 393 385c15 13 28 23 40 32c31 22 47 40 50 54c1 2 1 4 1 6c0 14 -11 32 -32 54c-19 19 -39 38 -58 56c-36 33 -70 69 -102 109
c-12 15 -9 8 -21 19c-105 103 -171 181 -200 234c-6 11 -9 24 -9 38c0 7 1 14 2 21c3 11 9 28 19 51s33 39 70 47c5 1 10 2 15 2c33 0 71 -24 114 -73c137 -152 253 -274 348 -365c69 -65 103 -121 103 -167c0 -7 -1 -13 -2 -19c-10 -45 -57 -102 -141 -171
c-97 -79 -187 -159 -268 -241c-115 -115 -209 -216 -282 -301c-29 -34 -62 -70 -99 -107s-73 -61 -108 -72c-7 -3 -14 -4 -21 -4z" />
    <glyph glyph-name="question" unicode="?" horiz-adv-x="640" 
d="M295 331c-27 0 -45 3 -54 10c-17 12 -25 34 -25 66c0 17 2 36 7 59c1 4 4 18 10 43c7 25 19 60 36 106s32 82 45 109c25 55 52 100 80 133c29 34 70 69 123 106c43 30 86 63 128 99c42 37 71 76 88 117c2 6 4 12 5 17c1 7 2 13 2 19c0 29 -13 58 -40 87
c-20 22 -41 33 -62 33c-5 0 -16 -2 -33 -6c-16 -3 -40 -19 -72 -48c-17 -15 -33 -22 -49 -22c-29 0 -53 15 -72 44c-3 5 -6 9 -9 12c-5 7 -8 14 -8 21c0 3 0 6 1 9l5 13c43 120 133 180 269 180c49 -1 93 -13 133 -36c54 -33 94 -77 121 -133c16 -33 24 -68 24 -105
c0 -21 -2 -42 -7 -64c-17 -82 -61 -157 -130 -224c-75 -74 -152 -139 -229 -195c-35 -25 -61 -53 -78 -82c-22 -38 -42 -92 -59 -162l-2 -12c-18 -85 -52 -198 -148 -194zM212 -60c-5 0 -19 2 -40 7c-21 4 -40 24 -56 61c-6 13 -9 27 -9 41c0 7 1 15 2 22c4 18 14 35 29 52
c36 39 70 58 101 58c6 0 19 -3 40 -8s37 -25 49 -61c3 -11 5 -23 5 -35c0 -8 -1 -16 -2 -24c-4 -17 -12 -35 -25 -52c-30 -41 -61 -61 -94 -61z" />
    <glyph glyph-name="at" unicode="@" horiz-adv-x="1517" 
d="M686 278c37 3 91 44 160 125c35 43 56 76 61 101c2 9 3 17 3 22c0 7 -2 10 -5 10c-15 0 -37 -13 -65 -40c-28 -26 -55 -56 -82 -90c-46 -59 -71 -98 -76 -119v-4c0 -3 1 -5 4 -5zM554 -368c-31 0 -82 5 -153 16c-214 34 -321 145 -321 333c0 42 5 88 16 137
c5 25 12 50 19 75c43 150 104 282 182 396c79 115 181 226 307 334c116 99 241 166 375 201c55 14 108 21 161 21c76 0 148 -16 217 -47c150 -69 225 -179 225 -332c0 -37 -4 -76 -13 -118c-17 -77 -46 -157 -88 -240c-71 -136 -156 -233 -255 -291
c-42 -25 -86 -38 -133 -38c-14 0 -28 2 -43 6c-49 12 -81 31 -97 56c-16 26 -26 50 -30 72c-3 22 -9 33 -18 33c-11 0 -41 -23 -90 -70c-31 -30 -63 -58 -96 -83c-46 -35 -89 -53 -129 -53c-27 0 -54 10 -79 30c-39 31 -59 67 -59 108c0 10 1 20 3 30c16 74 59 156 128 246
c65 85 130 154 195 205c71 57 135 85 192 85c1 0 17 -1 46 -2s57 -40 83 -118c6 -19 12 -29 17 -32c6 -3 9 -16 9 -38c0 -19 -2 -45 -7 -78c-7 -47 -10 -84 -10 -113c0 -41 7 -66 20 -73c5 -3 10 -4 16 -4c29 0 81 47 133 132c44 72 74 144 89 215c6 29 9 56 9 81
c0 105 -52 175 -157 211c-35 13 -72 19 -109 19c-123 0 -250 -48 -379 -144c-77 -57 -149 -131 -218 -222c-68 -91 -123 -186 -166 -285c-21 -52 -37 -102 -47 -149c-9 -45 -14 -83 -14 -114c0 -10 0 -19 1 -28c9 -74 62 -124 161 -151c50 -13 98 -20 143 -20
c47 0 94 11 143 33c70 32 122 48 156 48c5 0 15 -1 31 -2s29 -16 39 -45c4 -9 6 -19 6 -28c0 -5 -1 -11 -2 -16c-3 -11 -10 -26 -22 -44c-11 -18 -31 -36 -59 -55c-27 -19 -54 -33 -80 -43c-84 -31 -167 -47 -248 -47z" />
    <glyph glyph-name="A" unicode="A" 
d="M534 530c11 0 58 4 141 11c11 1 30 2 55 2c39 0 79 -4 114 -4c22 0 43 1 64 3c9 1 19 -3 23 14c5 22 7 56 7 102c0 43 -2 97 -6 161c-3 36 -4 72 -4 107c0 14 0 28 1 42c1 21 1 41 1 62s0 41 -1 62c-1 10 -1 15 -1 16c-10 0 -75 -85 -194 -256c-9 -13 -46 -66 -113 -159
c-69 -96 -104 -150 -107 -161c1 -1 8 -2 20 -2zM86 -19c-3 0 -12 2 -26 5c-13 3 -26 16 -37 39c-7 15 -11 31 -11 49c0 9 1 19 3 29c10 46 71 148 182 306l128 185c144 208 291 412 442 612c11 15 24 30 38 46c18 20 33 38 45 55c66 95 127 143 184 143c28 0 55 -15 81 -45
c22 -26 33 -66 33 -119c0 -54 -2 -104 -6 -149c-6 -62 -9 -125 -9 -190c0 -41 1 -83 4 -125c1 -31 4 -134 8 -311c2 -68 3 -128 3 -179c0 -110 -4 -184 -12 -221c-2 -7 -6 -19 -11 -37s-16 -37 -33 -57s-41 -30 -72 -30c-35 0 -58 12 -70 36c-9 19 -14 48 -14 85
c0 23 2 48 5 77l5 53c1 9 1 17 1 25c0 32 -7 54 -20 65s-61 17 -146 17c-65 0 -145 -4 -241 -11l-40 -2c-67 -1 -112 -10 -133 -27c-27 -21 -57 -61 -91 -119c-20 -32 -41 -64 -62 -95c-49 -73 -92 -110 -128 -110z" />
    <glyph glyph-name="B" unicode="B" horiz-adv-x="1371" 
d="M542 51c261 0 441 53 540 160c33 35 55 78 66 128c4 19 6 38 6 55c0 63 -27 113 -82 149c-75 50 -163 75 -264 75c-66 0 -136 -7 -211 -22c-56 -11 -94 -30 -115 -59c-13 -19 -29 -70 -47 -154l-20 -98c-16 -74 -26 -116 -29 -127s-6 -21 -8 -30s-3 -17 -3 -24
c0 -9 1 -16 4 -23c7 -20 62 -30 163 -30zM553 834c47 9 145 55 293 138c57 31 108 67 153 107c49 43 79 91 91 146c3 14 4 27 4 39c0 73 -73 116 -178 116c-133 0 -217 -14 -250 -41c-13 -11 -27 -48 -40 -111c-5 -25 -14 -75 -25 -149c-3 -16 -6 -36 -11 -60
c-7 -29 -16 -66 -23 -99c-9 -40 -13 -69 -14 -86zM517 -151l-50 1c-51 2 -95 6 -132 12c-37 5 -70 16 -100 33s-49 29 -57 37c-11 9 -17 25 -17 50c0 17 3 38 8 63c67 312 116 527 146 645c27 107 51 214 74 320c17 83 28 144 33 184s12 80 21 121c1 7 5 23 11 50
s22 57 48 89c65 81 234 122 509 122c86 -3 158 -33 215 -90c32 -33 53 -69 62 -108c7 -33 11 -64 11 -95c0 -26 -3 -51 -8 -76c-29 -138 -132 -258 -308 -361c0 -1 0 -1 -1 -1c-17 -9 -27 -17 -28 -23v-1c0 -4 4 -7 13 -10c17 -6 32 -10 46 -12c23 -4 50 -12 80 -25
c55 -23 103 -50 144 -79s72 -73 93 -130c18 -51 27 -102 27 -151c0 -28 -3 -56 -9 -83c-11 -51 -42 -118 -94 -202c-51 -83 -154 -153 -309 -209c-61 -23 -133 -40 -214 -51c-98 -13 -169 -20 -214 -20z" />
    <glyph glyph-name="C" unicode="C" horiz-adv-x="1114" 
d="M585 -99c-127 0 -236 51 -326 152c-63 72 -95 159 -95 262v3c1 73 9 145 24 217c86 404 284 703 593 897c102 64 209 96 321 96c92 0 170 -27 235 -81c12 -10 23 -26 33 -47c7 -20 11 -37 11 -51c0 -5 0 -9 -1 -13c-3 -14 -12 -34 -27 -60s-38 -39 -69 -39
c-23 0 -50 12 -81 36c-43 32 -96 48 -157 48c-67 0 -133 -20 -197 -59c-111 -69 -200 -152 -265 -251c-93 -139 -155 -284 -188 -437c-7 -33 -15 -80 -24 -143c-3 -19 -4 -38 -4 -56c0 -41 7 -78 20 -113c42 -107 127 -161 255 -161c59 0 121 22 186 67c66 45 117 67 152 67
c9 0 41 3 58 -32c11 -21 16 -41 16 -60c0 -6 -1 -12 -2 -18c-5 -21 -22 -44 -52 -68c-100 -80 -209 -129 -326 -148c-32 -5 -62 -8 -90 -8z" />
    <glyph glyph-name="D" unicode="D" horiz-adv-x="1277" 
d="M390 64h6c53 5 118 26 195 65s140 76 189 110c67 47 126 103 177 169c94 123 156 257 187 403c5 25 13 69 23 134c3 20 4 40 4 60c0 47 -7 96 -22 147c-20 65 -44 113 -99 153c-75 54 -160 81 -255 81c-33 0 -60 -7 -82 -20c-25 -15 -41 -37 -50 -65
c-7 -20 -13 -39 -17 -58c-9 -49 -19 -98 -29 -147c-42 -199 -90 -397 -143 -596c-62 -233 -97 -368 -105 -404c-1 -5 -1 -9 -1 -12v-6c1 -9 8 -14 22 -14zM275 -156c-35 0 -64 12 -87 35s-35 48 -37 75v7c0 22 3 47 9 76c46 217 93 409 140 578c36 127 64 237 84 331l38 184
c13 62 27 124 42 187c14 60 34 111 61 154c23 39 68 68 135 86c70 19 136 28 197 28c51 0 113 -10 185 -29s145 -70 220 -154c38 -42 63 -84 75 -126c24 -83 36 -166 36 -251c0 -64 -7 -128 -21 -193c-24 -111 -70 -231 -137 -360c-46 -88 -97 -163 -154 -224
c-161 -171 -373 -296 -634 -376c-62 -19 -113 -28 -152 -28z" />
    <glyph glyph-name="E" unicode="E" horiz-adv-x="1074" 
d="M307 -93c-54 0 -88 5 -102 16c-27 20 -31 44 -51 72c-9 13 -14 34 -14 61c0 25 4 55 11 92c6 28 15 61 27 100c19 66 33 109 41 129c22 55 35 91 39 110c1 3 1 6 1 9c0 19 -18 40 -34 47c-10 5 -15 14 -15 26c0 3 0 7 1 10c2 11 7 23 15 36c23 41 45 65 64 72
c23 9 40 23 50 44c13 25 24 56 35 92c59 208 93 329 100 362c3 15 5 28 5 39c0 27 -8 46 -24 57c-8 5 -12 11 -12 19l1 5c25 79 90 126 196 140l90 11c69 8 140 20 213 35c99 21 186 32 262 32c11 0 31 -1 61 -3c30 -1 51 -16 64 -43c7 -16 11 -31 11 -45
c0 -7 -1 -13 -2 -19c-11 -50 -51 -80 -120 -90c-45 -7 -93 -11 -143 -14c-57 -3 -118 -9 -185 -18c-97 -14 -158 -28 -181 -41s-56 -106 -97 -281c-5 -23 -17 -58 -35 -107c-11 -32 -20 -62 -26 -90c-1 -3 -1 -7 -2 -11v-1c0 -3 6 -5 17 -5c29 0 70 5 122 15
c52 11 98 16 139 16c15 0 33 -1 56 -3s39 -10 50 -24c-1 -3 -1 -7 -1 -10c0 -7 1 -13 4 -20c4 -11 6 -21 6 -32c0 -7 -1 -13 -2 -20c-1 -5 -5 -15 -10 -30s-20 -29 -46 -42c-21 -10 -91 -21 -210 -33c-103 -11 -165 -22 -184 -33c-17 -9 -36 -44 -57 -105
c-37 -108 -67 -216 -90 -323c40 0 86 2 138 6c123 9 241 24 352 45c9 1 19 3 30 6c32 7 57 11 76 11c21 0 37 -5 49 -16c25 -22 38 -45 38 -70c0 -5 0 -10 -1 -15c-12 -55 -62 -91 -149 -108c-57 -11 -122 -21 -193 -30c-51 -6 -91 -9 -118 -10s-53 -3 -79 -6
c-82 -11 -142 -17 -181 -17z" />
    <glyph glyph-name="F" unicode="F" horiz-adv-x="1064" 
d="M202 -114c-9 0 -23 -3 -39 24c-14 24 -21 48 -21 73c0 5 0 9 1 13c1 13 4 27 7 40c3 17 8 35 13 52c18 67 36 142 54 227c26 123 48 218 67 285c37 139 73 277 108 416c41 164 66 261 75 292c9 34 20 64 33 90c29 59 103 94 222 107c58 6 149 13 273 20
c96 5 152 9 168 12c32 5 64 7 96 7c9 0 27 -1 53 -2s45 -17 58 -47c1 -2 1 -9 2 -20c1 -5 1 -11 1 -16c0 -11 0 -29 -3 -38c-17 -59 -106 -90 -268 -91c-23 0 -42 -1 -57 -2c-17 -1 -42 -3 -74 -4c-161 -8 -260 -19 -297 -33c-9 -3 -17 -18 -23 -45l-11 -41
c-23 -95 -41 -165 -55 -210c-17 -59 -31 -111 -41 -157c-5 -26 -8 -48 -8 -67v-11c12 -1 25 -1 38 -1c47 0 139 10 278 30c99 15 170 22 212 22c9 0 21 -1 36 -3c15 -1 26 -11 33 -30s11 -37 11 -52c0 -7 -1 -14 -2 -20c-3 -17 -15 -34 -34 -53c-33 -32 -108 -54 -223 -65
c-110 -10 -186 -16 -229 -19c-102 -4 -161 -16 -177 -37c-20 -27 -56 -162 -108 -405c-3 -16 -6 -32 -8 -47c-4 -24 -9 -49 -14 -74c-5 -26 -12 -45 -19 -57c-25 -41 -52 -61 -81 -61c-32 0 -38 -2 -47 -2z" />
    <glyph glyph-name="G" unicode="G" horiz-adv-x="1308" 
d="M1015 -127c-17 0 -38 9 -63 28c-14 10 -21 29 -21 57c0 6 0 13 1 20c1 4 1 7 1 10c0 11 -3 17 -9 17c-9 0 -34 -9 -77 -28c-67 -30 -137 -45 -208 -45c-11 0 -39 1 -86 4c-47 2 -101 19 -164 52c-74 38 -128 86 -161 145c-41 73 -62 159 -62 257c0 55 7 114 20 177
c33 151 105 316 218 493c61 97 135 186 221 267c65 62 140 115 225 159c101 52 196 78 285 78c71 0 134 -22 189 -66c27 -21 44 -50 53 -89c3 -10 4 -20 4 -30c0 -8 -1 -16 -3 -24c-4 -19 -14 -37 -30 -52c-31 -30 -58 -45 -81 -45s-45 14 -68 43c-31 39 -72 59 -122 59
c-43 0 -89 -13 -140 -38c-118 -59 -220 -144 -307 -255c-123 -159 -204 -329 -243 -510c-3 -16 -9 -46 -17 -91c-2 -12 -3 -24 -3 -37c0 -37 8 -78 23 -125c20 -65 76 -120 140 -145c43 -16 30 -10 65 -18c25 -5 51 -8 78 -8c15 0 38 2 68 5c31 3 66 18 106 44
c55 35 100 80 137 133c32 46 61 98 86 157c8 19 13 33 15 42c1 3 1 5 1 8c0 5 -1 9 -3 14c-8 15 -48 24 -119 25c-29 0 -53 0 -73 -1l-76 -1c-28 0 -58 3 -90 10c-31 7 -48 28 -50 65c0 11 1 21 3 32c3 15 8 46 45 63c35 17 71 27 108 30c29 2 78 3 148 4
c70 0 138 -3 203 -10c66 -7 105 -20 117 -39c13 -22 20 -46 20 -72c0 -12 -1 -25 -4 -38c-5 -24 -26 -90 -63 -197c-51 -141 -82 -241 -95 -300c-7 -36 -11 -68 -18 -97l-5 -23c-7 -29 -20 -56 -40 -79s-46 -35 -79 -35z" />
    <glyph glyph-name="H" unicode="H" horiz-adv-x="1368" 
d="M1012 -151c-48 0 -72 35 -72 104c0 31 5 68 14 113c16 75 36 155 60 239c20 69 36 130 47 183c7 33 10 63 11 91c-17 3 -32 5 -45 5c-14 0 -32 -2 -55 -6c-30 -6 -95 -10 -194 -11c-177 -3 -278 -14 -303 -31c-9 -6 -29 -68 -59 -186c-25 -99 -41 -167 -49 -203l-19 -93
c-6 -31 -15 -63 -26 -98s-29 -63 -56 -84c-16 -13 -36 -20 -60 -20c-16 0 -34 3 -54 10c-19 7 -29 29 -29 66c0 22 3 49 10 82c9 41 19 83 31 124c5 17 9 30 11 40c14 57 29 113 44 169c23 83 40 149 50 197c4 19 6 33 6 42v9c0 7 1 15 3 23c3 15 11 37 26 67
c32 65 56 135 73 209c23 99 52 210 87 333c49 169 99 275 152 319c12 9 23 14 34 14c10 0 21 -5 34 -14c25 -18 37 -49 37 -92c0 -20 -3 -43 -8 -68c-11 -51 -30 -117 -56 -197c-12 -35 -22 -68 -29 -97c-24 -110 -45 -187 -63 -231c-11 -29 -18 -50 -21 -63
c-1 -5 -2 -10 -2 -14c0 -5 1 -11 4 -16s20 -7 51 -7c32 0 65 2 99 5c27 2 94 5 203 8c144 5 224 17 241 38c5 7 15 32 28 73c62 197 102 339 120 425c7 34 17 71 28 111c28 104 70 156 126 156l4 -1c52 -8 78 -42 78 -101c0 -18 -2 -38 -7 -61c-39 -181 -96 -393 -173 -637
c-69 -223 -122 -418 -157 -585c-24 -113 -38 -179 -41 -196c-5 -23 -12 -47 -23 -73c-10 -27 -30 -46 -61 -58c-19 -8 -35 -12 -50 -12z" />
    <glyph glyph-name="I" unicode="I" horiz-adv-x="832" 
d="M180 -169h-66c-42 2 -69 26 -82 72c-2 8 -3 16 -3 24c0 6 1 12 2 18c2 9 6 18 12 26c36 51 88 55 140 55c19 0 36 1 50 4c31 6 52 26 62 61c5 15 8 29 11 42l72 351c30 143 66 285 108 424c32 105 63 223 93 353c4 17 6 32 6 45c0 15 -3 26 -8 35c-7 12 -22 18 -46 18
c-15 0 -29 -2 -44 -2s-31 2 -48 7c-16 5 -26 23 -29 54v6c0 4 0 8 1 13c7 29 16 51 29 66l18 15c23 20 80 37 172 51c95 14 180 21 254 21c88 0 132 -12 141 -60c2 -7 3 -14 3 -21s-1 -15 -3 -22c-2 -10 -6 -20 -13 -30c-25 -37 -52 -58 -81 -63c-19 -3 -36 -5 -53 -5l-41 1
c-24 0 -41 -19 -51 -56c-39 -184 -83 -363 -132 -536c-26 -92 -61 -235 -104 -429c-7 -34 -17 -72 -28 -115c-8 -32 -15 -63 -22 -92c-7 -37 -13 -73 -17 -107c23 -5 49 -7 78 -7c22 0 46 1 71 4c32 3 62 4 89 4c29 0 54 -8 75 -24c15 -11 22 -28 22 -50c0 -9 -1 -18 -3 -28
c-14 -65 -80 -99 -199 -102c-38 -1 -112 -5 -221 -12c-62 -4 -134 -7 -215 -9z" />
    <glyph glyph-name="J" unicode="J" horiz-adv-x="1122" 
d="M297 -135c-31 0 -71 4 -122 11s-94 36 -129 87c-9 13 -14 30 -14 50c0 10 1 21 4 33c2 11 7 25 14 41c15 32 61 46 93 46c26 0 54 -10 85 -30c38 -23 77 -35 117 -35c183 3 324 92 422 268c40 71 74 147 102 228c57 165 106 330 146 497c14 60 28 126 43 197
c5 24 8 43 8 58s-3 24 -8 29c-8 7 -25 11 -51 11c-43 0 -113 -7 -209 -20c-83 -11 -158 -16 -227 -16c-87 0 -132 26 -136 77v9c0 5 0 11 1 17c7 29 29 54 67 73c49 25 191 43 428 54c92 4 143 16 194 16c14 0 33 -1 58 -4s48 -23 71 -61c18 -30 27 -67 27 -111
c0 -23 -2 -47 -7 -73l-19 -93c-9 -44 -20 -87 -32 -129c-7 -24 -13 -46 -17 -65c-44 -196 -104 -391 -179 -584c-23 -60 -56 -125 -98 -196c-87 -145 -191 -248 -313 -309c-102 -51 -208 -76 -319 -76z" />
    <glyph glyph-name="K" unicode="K" horiz-adv-x="1091" 
d="M918 -128l-32 1c-37 6 -120 86 -249 239c-121 147 -191 221 -210 221c-2 0 -4 -1 -6 -3c-3 -6 -14 -50 -31 -132c-29 -135 -47 -213 -56 -234c-11 -29 -31 -50 -60 -64c-17 -9 -34 -13 -49 -13c-10 0 -20 2 -30 7c-32 15 -48 38 -48 69v2c0 20 2 41 7 62
c30 143 70 310 120 503c7 27 13 54 20 83c14 61 30 119 47 174c20 63 37 129 52 196c12 57 26 113 41 167c14 49 26 96 35 141c27 123 55 200 84 233c20 22 43 33 68 33h21c38 -1 57 -32 57 -92c0 -20 -2 -43 -6 -70c-6 -36 -13 -74 -22 -114c-27 -128 -68 -280 -121 -456
c-5 -26 -8 -42 -8 -48c0 -2 0 -3 1 -3c9 0 67 53 172 160c257 263 402 413 435 452c63 74 114 111 153 111c25 0 49 -9 70 -27c11 -9 17 -22 17 -39c0 -5 -1 -11 -2 -17c-13 -57 -93 -164 -241 -319c-123 -128 -292 -291 -507 -488c-13 -13 -29 -26 -48 -40s-29 -25 -31 -34
v-2c0 -8 6 -18 18 -30c53 -51 102 -103 149 -157c10 -11 42 -42 95 -95c133 -130 200 -225 200 -284c0 -5 -1 -10 -2 -15c-2 -11 -6 -21 -12 -31c-18 -31 -48 -47 -91 -47z" />
    <glyph glyph-name="L" unicode="L" horiz-adv-x="1023" 
d="M438 -64c-66 0 -124 7 -173 22c-67 20 -101 70 -101 149c0 25 3 53 10 84c11 53 29 120 53 200c9 28 37 130 86 307c48 171 83 303 104 396c30 133 57 228 82 285c16 37 36 63 61 78c11 7 24 11 37 11c15 0 32 -6 49 -17c21 -15 32 -39 32 -72v-9c-3 -31 -7 -59 -12 -84
c-31 -145 -91 -370 -181 -676c-25 -83 -62 -221 -113 -415c-1 -7 -2 -14 -2 -20c0 -9 2 -17 5 -24c4 -7 27 -11 68 -12l77 -1c91 0 188 11 280 11c46 0 91 -3 135 -8c25 -3 43 -15 55 -35c9 -15 13 -30 13 -45c0 -6 -1 -12 -2 -19c-9 -45 -29 -72 -60 -81
c-20 -7 -42 -10 -65 -10h-17c-136 0 -280 -15 -421 -15z" />
    <glyph glyph-name="M" unicode="M" horiz-adv-x="1765" 
d="M236 -81l-20 1c-39 7 -60 28 -63 65c-1 8 -1 16 -1 25c0 18 2 36 6 54c2 10 4 20 7 29c39 141 82 316 129 526c43 183 73 316 91 401c27 152 43 243 50 272c9 41 20 81 34 118c23 59 60 89 111 89c19 0 39 -8 60 -24c35 -28 70 -95 103 -201c7 -24 14 -44 21 -59
c62 -147 107 -274 135 -382c11 -45 24 -86 39 -123c7 -21 13 -39 16 -52c7 -25 20 -48 24 -48c5 0 67 66 188 197c39 43 113 128 220 255c31 36 57 68 79 96c45 58 92 115 143 170c13 13 27 29 42 48c46 55 81 90 106 107c13 9 25 13 37 13c21 0 55 -20 74 -56
c2 -5 3 -12 3 -23c0 -33 -10 -96 -29 -189c-14 -67 -40 -179 -77 -337c-57 -239 -87 -368 -91 -388c-29 -133 -48 -240 -59 -319c-2 -14 -5 -29 -8 -45c-8 -33 -18 -91 -54 -146c-23 -33 -52 -49 -89 -49c-49 0 -74 36 -74 108c0 30 4 66 13 109l52 248
c18 83 66 289 143 617c-10 -5 -19 -13 -27 -23c-40 -51 -80 -100 -119 -147c-44 -53 -110 -125 -197 -217c-92 -97 -171 -189 -238 -276c-23 -30 -49 -51 -78 -63c-10 -4 -20 -6 -29 -6c-19 0 -36 8 -51 24c-19 17 -48 87 -86 209c-8 27 -15 47 -21 62
c-20 55 -38 110 -54 165c-15 53 -32 105 -51 157c-5 11 -10 26 -15 44c-19 57 -33 91 -40 102c-7 -25 -16 -61 -26 -106c-20 -94 -39 -177 -56 -250c-14 -58 -27 -117 -40 -176l-77 -365c-10 -43 -23 -88 -40 -137c-11 -31 -29 -58 -53 -79c-18 -17 -39 -25 -63 -25z" />
    <glyph glyph-name="N" unicode="N" horiz-adv-x="1459" 
d="M1115 -140c-41 0 -71 28 -90 85c-14 40 -26 81 -36 123c-24 101 -55 199 -94 292l-45 105c-45 106 -82 212 -113 317c-15 53 -40 123 -73 210s-51 130 -53 130c-4 0 -18 -56 -41 -169c-10 -45 -19 -91 -28 -137c-9 -55 -20 -111 -32 -166c-16 -77 -33 -154 -52 -230
c-17 -69 -32 -139 -47 -209l-42 -195c-13 -61 -37 -102 -73 -121c-17 -9 -33 -14 -50 -14c-10 0 -24 4 -42 11s-30 29 -37 66c-1 4 -1 9 -1 16c0 29 8 81 23 155c12 54 25 107 38 159c18 69 66 283 143 643c33 157 52 249 57 276c5 28 10 56 16 84s14 64 25 107
s26 77 47 102c23 28 47 42 70 42c81 0 170 -147 268 -440c8 -25 17 -49 28 -72c21 -46 37 -92 49 -139c7 -27 15 -52 24 -75c31 -83 62 -168 91 -255c45 -132 69 -198 71 -198c5 0 28 96 71 288c107 474 190 760 249 857c20 34 39 51 58 51c3 0 11 -2 23 -5
c13 -3 28 -18 47 -43c5 -7 10 -12 13 -13c6 -3 9 -13 9 -29c0 -19 -4 -48 -12 -85c-12 -57 -37 -153 -75 -287c-10 -35 -18 -63 -23 -84c-49 -195 -95 -389 -136 -584c-35 -149 -60 -257 -74 -323l-11 -58c-3 -23 -7 -45 -12 -68c-11 -49 -33 -83 -67 -103
c-20 -11 -40 -17 -61 -17z" />
    <glyph glyph-name="O" unicode="O" horiz-adv-x="1162" 
d="M504 157h5c76 3 154 49 235 140c94 105 175 245 244 419c35 88 61 171 78 250c13 60 19 110 19 151c0 21 -2 39 -5 55c-8 37 -38 62 -89 74c-39 9 -72 14 -100 14c-13 0 -30 -2 -52 -7c-22 -4 -57 -30 -106 -79c-175 -174 -289 -387 -342 -638c-13 -61 -20 -116 -20 -164
c0 -58 10 -106 30 -144c25 -47 60 -71 103 -71zM463 -51c-49 0 -103 21 -161 62c-49 35 -84 76 -104 122c-23 53 -34 116 -34 191c0 65 9 138 26 220c9 41 26 103 53 186s76 185 146 308c13 22 37 57 73 106c105 145 218 244 339 299c44 20 89 30 134 30c32 0 76 -8 131 -24
c56 -15 107 -47 154 -94s71 -114 71 -199c0 -8 0 -16 -1 -24c-3 -51 -10 -105 -22 -162c-11 -49 -30 -116 -59 -199c-28 -83 -68 -176 -121 -279c-53 -102 -102 -184 -149 -247c-52 -69 -113 -130 -183 -183c-69 -52 -145 -87 -227 -105c-24 -5 -46 -8 -66 -8z" />
    <glyph glyph-name="P" unicode="P" horiz-adv-x="956" 
d="M524 697h2c29 3 68 15 118 37c50 23 89 43 116 62c109 75 173 156 191 241c5 25 8 50 8 74c0 49 -11 97 -34 144c-25 49 -61 74 -109 74c-10 0 -24 -1 -43 -2c-61 -5 -101 -16 -122 -32c-13 -10 -25 -43 -37 -100c-5 -25 -12 -61 -20 -108l-70 -325c-3 -15 -6 -26 -7 -35
c-1 -6 -1 -11 -1 -15c0 -10 3 -15 8 -15zM246 -102c-56 0 -84 26 -84 79l1 13c2 31 8 71 19 121l14 65c9 42 16 81 23 118c5 27 11 55 17 83c19 87 39 174 62 261c25 95 41 162 49 201c13 63 24 122 37 186c5 22 10 49 15 80c7 37 19 98 37 183c7 32 17 62 32 91
s44 55 87 76c100 49 196 74 287 74c33 0 76 -7 128 -20s100 -60 145 -143c36 -67 54 -136 54 -208c0 -32 -3 -64 -10 -97c-11 -53 -32 -108 -62 -164c-24 -45 -47 -80 -70 -105c-63 -72 -133 -131 -210 -178c-45 -27 -86 -48 -124 -62c-13 -5 -36 -13 -67 -22
c-97 -28 -150 -47 -160 -58c-13 -13 -25 -50 -38 -109c-16 -77 -30 -156 -41 -236c-4 -30 -9 -58 -14 -85c-4 -18 -9 -35 -14 -51c-11 -39 -32 -66 -61 -81c-17 -8 -34 -12 -52 -12z" />
    <glyph glyph-name="Q" unicode="Q" horiz-adv-x="1573" 
d="M653 80c48 0 98 7 149 21c95 25 144 49 149 71v2c0 18 -28 78 -83 180c-18 33 -37 63 -56 91c-34 49 -54 87 -61 114c-3 8 -4 16 -4 24c0 7 1 15 3 22c13 60 45 90 97 90c43 0 77 -16 102 -47c21 -25 43 -62 67 -110l91 -177c13 -27 25 -40 36 -40s28 15 51 45
c59 75 112 162 160 261c46 93 79 187 99 280c1 7 7 38 18 92c3 13 4 28 4 43c0 45 -12 95 -36 152c-59 139 -173 209 -343 209c-71 0 -136 -20 -195 -60c-78 -53 -162 -138 -251 -255c-57 -76 -110 -165 -158 -266c-52 -109 -89 -217 -112 -324c-11 -49 -16 -95 -16 -138
c0 -41 7 -90 22 -146c15 -55 57 -93 125 -114c45 -13 93 -20 142 -20zM1227 -192c-40 0 -75 25 -106 74c-15 25 -26 48 -32 67c-9 33 -24 49 -44 49c-18 0 -48 -11 -90 -34c-51 -28 -93 -47 -124 -56c-31 -10 -74 -18 -127 -24c-26 -3 -52 -4 -78 -4c-38 0 -76 3 -113 9
c-147 24 -246 79 -299 165c-36 59 -54 133 -54 222c0 41 4 84 11 131c5 33 11 67 18 101c51 241 155 468 311 683c131 180 287 311 466 393c57 26 103 39 139 39c27 0 69 -7 125 -20c65 -15 118 -31 157 -46c40 -15 79 -39 116 -74c71 -65 119 -138 144 -219
c17 -55 26 -114 26 -179c0 -59 -7 -122 -22 -189c-19 -89 -50 -184 -94 -283c-43 -99 -97 -193 -162 -282c-26 -36 -56 -72 -91 -107c-15 -15 -31 -32 -49 -52c-11 -12 -16 -16 -17 -19v-3c0 -2 0 -4 1 -7c9 -23 22 -49 40 -77c24 -36 42 -73 53 -111c4 -11 6 -22 6 -33
c0 -6 -1 -12 -2 -18c-5 -19 -15 -38 -32 -55c-27 -27 -52 -41 -77 -41z" />
    <glyph glyph-name="R" unicode="R" horiz-adv-x="1199" 
d="M517 718c35 12 70 22 105 30c19 5 50 15 94 32c16 5 25 8 26 8c1 1 3 1 4 2s41 24 118 68c74 42 124 73 151 94c41 31 78 72 112 121c29 41 47 80 55 118c3 12 4 25 4 38c0 30 -8 67 -23 110s-67 73 -154 88c-7 1 -15 2 -24 2c-60 0 -127 -7 -200 -21
c-43 -9 -72 -20 -89 -33c-16 -13 -42 -102 -77 -267l-10 -51c-9 -43 -25 -99 -46 -168c-19 -59 -34 -116 -46 -171zM204 -194c-37 0 -61 8 -72 24c-5 7 -7 20 -7 40c0 51 15 146 45 287c11 49 28 120 51 212c39 153 76 285 111 397c41 131 69 230 83 297l25 120
c35 162 72 269 113 322c35 47 122 82 259 103c88 13 156 20 204 20c11 0 34 -1 69 -2c36 -1 80 -16 133 -45c16 -9 36 -24 61 -45s41 -38 50 -53c41 -71 62 -142 62 -213c0 -25 -3 -51 -8 -76c-8 -36 -21 -73 -39 -112c-27 -55 -54 -100 -82 -134c-27 -34 -63 -71 -108 -112
c-29 -27 -86 -66 -171 -119c-33 -21 -65 -41 -96 -62c5 -50 26 -131 63 -244c7 -17 27 -65 34 -101c25 -128 55 -214 90 -259c21 -26 31 -50 31 -72c0 -5 -1 -10 -2 -15l-1 -4c-20 -73 -64 -110 -133 -110c-49 0 -90 50 -124 149c-14 37 -29 90 -46 160
c-13 50 -27 101 -43 152c-5 15 -11 38 -19 69c-31 121 -53 182 -65 182c-17 0 -49 -7 -98 -22c-65 -19 -103 -34 -114 -44c-18 -16 -49 -126 -92 -331c-11 -49 -18 -91 -22 -125c-3 -33 -9 -69 -17 -106c-19 -85 -61 -128 -125 -128z" />
    <glyph glyph-name="S" unicode="S" horiz-adv-x="1269" 
d="M529 -288c-48 0 -107 8 -177 23c-174 37 -268 130 -282 281c-1 14 -2 28 -2 41c0 32 3 63 10 93c19 91 58 151 115 178c15 7 30 11 45 11s29 -4 43 -12c23 -13 34 -31 34 -54c0 -5 0 -9 -1 -14c-13 -30 -25 -75 -38 -135c-3 -15 -5 -28 -5 -41c0 -70 44 -118 131 -145
c56 -17 110 -26 161 -26c41 0 81 8 122 23c93 35 172 85 237 150c48 49 79 106 92 171c5 21 7 42 7 64v8c-2 73 -19 129 -50 166s-75 72 -132 105c-40 23 -77 40 -110 49c-49 13 -83 27 -104 43c-7 5 -15 9 -24 14c-61 31 -106 78 -133 141c-23 54 -35 109 -35 164
c0 28 3 56 9 85c9 38 16 68 21 90c47 221 189 383 427 486c76 33 149 50 220 50c3 0 23 -1 61 -2s83 -21 135 -60s85 -97 98 -175c1 -9 2 -19 2 -28c0 -13 -1 -27 -4 -41c-3 -15 -10 -36 -21 -64s-37 -48 -79 -59l-18 -1c-17 0 -35 6 -54 19s-29 29 -31 49
c-5 52 -12 89 -21 112c-14 31 -51 47 -111 47c-63 0 -126 -20 -191 -60s-121 -96 -168 -168c-32 -48 -53 -97 -64 -148c-3 -11 -6 -36 -11 -73c-1 -5 -1 -10 -1 -15c0 -34 13 -73 40 -116c39 -60 109 -87 180 -110c52 -16 94 -33 127 -51c29 -17 60 -39 93 -66
c101 -82 153 -193 156 -334v-9c0 -35 -4 -70 -11 -106c-17 -76 -48 -148 -94 -216c-59 -85 -132 -156 -219 -212c-127 -81 -252 -122 -375 -122z" />
    <glyph glyph-name="T" unicode="T" horiz-adv-x="1065" 
d="M561 -68c-11 0 -24 2 -37 6c-24 7 -36 36 -36 89c0 42 8 98 23 169c27 130 84 356 170 677c11 44 21 88 30 131c21 95 36 190 45 285c-35 -1 -69 -4 -103 -7c-39 -3 -77 -5 -115 -5c-14 0 -37 1 -70 2c-32 1 -70 15 -113 42c-20 13 -30 28 -30 47c0 3 0 7 1 11
c8 39 34 67 79 84s126 26 245 27c60 1 124 2 191 5c114 5 223 7 326 7c157 0 262 -9 313 -28c27 -9 40 -31 40 -65c0 -11 -2 -24 -5 -38c-1 -6 -4 -17 -9 -32s-20 -27 -46 -37c-23 -8 -51 -12 -84 -12c-23 0 -55 1 -95 3c-108 5 -203 8 -284 8c-25 0 -39 -4 -43 -11
s-7 -17 -10 -30c-7 -30 -14 -69 -21 -116c-12 -83 -26 -164 -43 -241c-20 -95 -43 -190 -68 -283c-22 -82 -39 -152 -51 -210l-60 -297c-11 -52 -27 -120 -75 -160c-17 -14 -38 -21 -65 -21z" />
    <glyph glyph-name="U" unicode="U" horiz-adv-x="1220" 
d="M541 -81c-95 0 -172 27 -229 80c-55 51 -85 125 -89 222c-1 11 -1 21 -1 32c0 89 12 191 37 306c33 154 80 336 141 547l24 94c28 112 62 197 103 255c21 29 44 44 71 44c37 0 64 -20 81 -60c2 -5 3 -12 3 -21c0 -13 -2 -31 -7 -54c-14 -65 -46 -175 -96 -331
c-16 -48 -31 -98 -45 -150c-35 -124 -61 -227 -78 -309c-21 -99 -32 -184 -32 -257c0 -17 1 -34 2 -49c6 -99 57 -148 152 -148c61 0 117 25 168 74c91 88 169 226 236 415c51 141 108 337 171 586l15 65c3 17 6 33 9 48c3 20 6 41 11 62l5 22c11 46 31 77 62 92
c15 7 30 10 45 10c61 0 92 -34 92 -101c0 -5 0 -11 -1 -17c-2 -37 -8 -77 -17 -120c-12 -56 -34 -143 -67 -262c-83 -304 -176 -548 -280 -733c-107 -191 -248 -303 -424 -336c-21 -4 -41 -6 -62 -6z" />
    <glyph glyph-name="V" unicode="V" horiz-adv-x="1131" 
d="M522 -63c-17 0 -31 7 -42 20c-18 23 -33 144 -46 363c-3 58 -10 144 -19 257c-19 232 -35 383 -46 454c-11 74 -17 144 -17 211v21c1 13 3 27 7 43c2 9 5 24 10 43s16 39 32 59c17 20 38 30 64 30c48 -1 77 -33 87 -94c16 -104 26 -213 29 -327c8 -273 27 -490 57 -649
l13 11c7 7 31 49 72 124c66 120 152 260 257 419c79 121 139 217 180 288c69 117 119 194 151 229c23 25 51 38 83 38c24 0 45 -8 62 -24c10 -10 15 -24 15 -41c0 -7 -1 -16 -3 -25c-11 -50 -84 -179 -219 -386c-129 -199 -253 -400 -370 -603c-29 -49 -56 -98 -82 -149
c-66 -129 -113 -210 -140 -245c-22 -27 -52 -47 -89 -59c-17 -5 -33 -8 -46 -8z" />
    <glyph glyph-name="W" unicode="W" horiz-adv-x="1794" 
d="M1166 -51c-30 0 -51 12 -62 37c-22 51 -38 206 -49 465c-3 83 -5 146 -5 189v32c1 19 1 35 1 49c0 37 -2 55 -6 56c-16 -7 -147 -239 -392 -696c-19 -34 -38 -62 -58 -85c-25 -27 -62 -40 -113 -40c-59 0 -83 30 -84 118c-1 94 -4 188 -9 281c-5 94 -10 200 -13 317
c-1 17 -1 30 -1 39s0 15 1 18s1 9 1 18s0 20 -1 35c-1 32 -2 50 -5 53c-2 4 -3 52 -4 145l-3 104c-1 27 -1 53 -1 76c0 71 4 124 11 160c16 75 49 112 99 112c35 0 60 -16 74 -49c20 -47 30 -234 30 -561v-120c0 -64 2 -142 6 -235c3 -61 6 -92 9 -92c3 4 10 15 21 34
c97 164 191 328 283 492c15 28 31 55 51 95c17 34 35 68 56 103c43 70 89 105 138 105c9 0 19 -1 29 -4c33 -9 55 -25 66 -48c13 -27 19 -97 19 -209c0 -45 -1 -98 -3 -157c-1 -51 -2 -98 -2 -143c0 -120 6 -220 17 -301c44 57 89 128 135 212c33 60 103 174 211 343
c190 297 318 477 383 539c26 25 48 38 65 38c13 0 26 -6 39 -18c27 -23 41 -48 41 -75c0 -6 -1 -12 -2 -17c-5 -24 -23 -58 -53 -103c-256 -373 -436 -648 -540 -824l-112 -188c-70 -121 -127 -206 -172 -253c-30 -31 -62 -47 -96 -47z" />
    <glyph glyph-name="X" unicode="X" horiz-adv-x="1197" 
d="M170 -30h-10c-59 7 -88 33 -88 76c0 9 1 18 3 27c3 17 10 35 21 54c45 82 178 242 399 480c37 40 68 73 91 100c-11 27 -23 54 -36 80c-27 54 -50 112 -69 174c-16 52 -34 111 -53 176c-12 39 -18 74 -18 105c0 14 1 27 4 40c1 3 3 11 7 26s19 31 46 48
c20 12 38 18 54 18s33 -8 52 -25s35 -44 48 -83c14 -39 23 -71 28 -97c14 -62 27 -112 40 -149c31 -93 51 -139 60 -139c4 0 36 29 96 87c66 65 128 123 187 176c69 62 137 127 203 196c73 77 130 115 171 115c17 0 32 -7 47 -22c17 -19 26 -39 26 -60c0 -5 -1 -11 -2 -17
c-8 -38 -43 -86 -104 -143c-26 -24 -51 -49 -76 -74c-88 -88 -188 -183 -300 -284c-59 -54 -117 -108 -175 -162c20 -50 33 -84 38 -101c12 -40 28 -76 49 -109c29 -48 58 -96 86 -145c18 -31 49 -81 94 -149c17 -27 27 -58 28 -92c-1 -7 -1 -13 -2 -19
c-6 -26 -25 -49 -57 -68c-21 -13 -40 -19 -57 -19c-32 0 -62 21 -91 63c-33 47 -63 95 -92 145c-22 40 -46 79 -72 117c-21 33 -43 78 -65 137c-7 19 -15 39 -24 61c-6 0 -62 -58 -167 -175c-108 -119 -178 -209 -210 -270c-14 -27 -30 -51 -49 -72c-15 -18 -36 -27 -61 -27
z" />
    <glyph glyph-name="Y" unicode="Y" horiz-adv-x="1013" 
d="M573 -56c-4 0 -14 1 -31 3c-16 1 -28 18 -37 49c-4 14 -6 30 -6 48c0 22 3 47 9 76c11 51 21 96 32 136c31 113 60 224 89 335c3 16 9 33 12 46c1 7 3 16 4 26v2c0 9 -4 20 -13 32c-20 30 -47 81 -80 152c-27 61 -57 119 -90 176c-81 143 -122 246 -122 311
c0 9 1 18 2 25c5 27 19 52 42 76c25 26 49 39 71 39c37 0 66 -25 85 -74c12 -29 23 -57 33 -86c15 -42 32 -84 53 -125c65 -131 100 -202 104 -213c12 -33 25 -50 38 -50c5 3 47 50 127 139l110 123c15 16 32 35 51 57c34 41 70 81 109 121c57 60 104 90 141 90
c34 0 54 -15 60 -45c3 -12 4 -24 4 -35c0 -9 -1 -18 -3 -26c-1 -7 -5 -18 -11 -33c-15 -36 -106 -140 -272 -311c-125 -130 -197 -220 -214 -271c-12 -35 -23 -60 -30 -91c-27 -115 -56 -231 -88 -346c-14 -53 -26 -104 -37 -154l-15 -75l-7 -29c-7 -33 -24 -58 -51 -75
c-23 -15 -46 -23 -69 -23z" />
    <glyph glyph-name="Z" unicode="Z" horiz-adv-x="1220" 
d="M191 -14c-9 0 -30 1 -64 2s-64 19 -91 54c-15 20 -23 38 -23 54c0 3 0 7 1 10c3 15 11 33 25 52c7 9 14 20 22 33c19 31 79 90 178 175c39 33 159 149 362 348c16 16 32 31 47 44c44 39 105 99 184 178c59 59 104 104 135 133c87 82 140 137 159 164
c-51 -5 -112 -14 -181 -26c-103 -17 -187 -26 -253 -26c-37 0 -78 3 -123 10s-74 31 -85 71c-2 8 -3 15 -3 22c0 6 1 12 2 17c11 56 90 84 235 84h70c27 0 53 2 80 5c28 4 73 8 100 12c171 26 275 39 312 39c61 0 100 -17 119 -51c12 -22 18 -44 18 -65c0 -9 -1 -17 -3 -26
c-11 -53 -94 -148 -247 -287c-41 -37 -104 -98 -190 -185c-55 -55 -111 -109 -167 -163c-76 -74 -151 -148 -225 -222c-73 -73 -126 -124 -159 -152c-59 -50 -89 -78 -90 -85v-1c0 -3 6 -5 18 -5c70 1 142 5 216 12c51 5 102 8 151 11c41 2 132 11 273 28c8 1 26 1 54 1
c21 0 44 -2 71 -7c27 -4 45 -24 56 -59c4 -11 6 -22 6 -32c0 -5 -1 -11 -2 -16c-10 -46 -63 -75 -159 -87c-137 -17 -275 -30 -414 -37c-125 -6 -215 -12 -268 -19c-48 -5 -97 -8 -147 -8z" />
    <glyph glyph-name="bracketleft" unicode="[" horiz-adv-x="727" 
d="M276 -253c-91 0 -152 14 -183 42c-26 23 -39 55 -39 94l1 14c2 27 6 58 13 91l4 15c141 615 223 976 246 1085l35 168c13 63 29 124 47 183c14 47 36 81 66 103c47 34 115 51 206 51c15 0 39 1 71 4c22 2 44 3 65 3c25 0 53 -2 86 -7s57 -27 73 -68c5 -10 7 -21 7 -32
c0 -5 -1 -11 -2 -17c-2 -9 -6 -18 -13 -26c-22 -29 -43 -47 -62 -55c-14 -5 -30 -8 -48 -8l-38 1c-41 1 -81 2 -122 2h-24c-15 0 -30 0 -44 -1s-26 -6 -35 -15s-24 -61 -45 -158c-15 -73 -29 -141 -42 -205l-24 -114c-113 -479 -181 -768 -202 -869c-5 -24 -8 -42 -8 -54
c0 -7 2 -14 5 -19c4 -5 28 -8 73 -8c21 0 60 2 117 5c17 1 29 2 37 2c51 -2 85 -21 100 -57c5 -11 8 -22 8 -33c0 -5 -1 -10 -2 -15c-4 -19 -17 -38 -40 -56c-37 -31 -133 -46 -287 -46z" />
    <glyph glyph-name="backslash" unicode="\" horiz-adv-x="740" 
d="M716 -148c-14 0 -27 4 -39 11c-22 13 -36 33 -43 60c-11 49 -19 101 -24 157c-3 40 -8 78 -15 115c-50 283 -113 561 -190 834c-5 20 -14 45 -25 75c-44 124 -66 219 -66 284c0 15 1 29 4 42c3 16 9 30 18 42c31 45 60 68 85 68c7 0 13 -2 20 -5c30 -15 52 -46 67 -91
c139 -434 213 -716 222 -845c1 -15 4 -32 9 -49c5 -15 8 -30 11 -46c21 -139 44 -277 71 -414c5 -26 7 -51 7 -75c0 -22 -2 -43 -6 -62c-9 -43 -31 -74 -66 -91c-14 -7 -27 -10 -40 -10z" />
    <glyph glyph-name="bracketright" unicode="]" horiz-adv-x="728" 
d="M392 -252l-42 -1c-141 0 -229 10 -265 31l-15 12c-7 12 -11 24 -11 37c0 5 1 11 2 16c7 34 29 63 64 87c49 31 66 28 79 28c9 0 32 -2 70 -7c32 -4 61 -6 86 -6c47 0 76 7 87 20c8 13 16 39 24 76c8 39 16 85 25 140c16 88 38 202 66 342c25 129 50 257 74 385l76 344
c15 71 22 113 22 128v4c-6 4 -40 6 -101 6c-77 0 -124 0 -141 -1c-21 0 -41 2 -59 7c-27 7 -43 26 -49 58v7c0 7 1 14 2 21c3 13 8 25 15 38c13 23 32 40 55 51c47 17 106 26 177 26s130 -3 179 -8c53 -8 89 -25 107 -52c16 -23 24 -48 24 -76c0 -8 -3 -46 -15 -105
c-9 -35 -23 -103 -44 -203c-29 -137 -50 -243 -62 -317c-10 -59 -28 -150 -54 -273c-39 -218 -67 -363 -82 -435c-33 -159 -62 -256 -87 -291c-55 -64 -135 -89 -207 -89z" />
    <glyph glyph-name="asciicircum" unicode="^" horiz-adv-x="769" 
d="M826 1076c-57 0 -86 59 -103 150c-16 67 -35 111 -57 134c-25 -23 -69 -81 -134 -172c-44 -60 -88 -109 -141 -109c-39 3 -62 16 -71 37c-3 7 -4 16 -4 26c0 8 1 17 3 27s5 21 9 33c47 96 133 216 258 361c29 35 64 63 105 84c21 11 42 17 63 17c18 0 36 -4 53 -13
c26 -21 55 -101 87 -238c9 -37 17 -62 23 -77c21 -54 32 -100 32 -138c0 -13 -1 -24 -3 -35c0 -2 -2 -11 -6 -27c-3 -15 -23 -31 -59 -47c-26 -9 -44 -13 -55 -13z" />
    <glyph glyph-name="underscore" unicode="_" horiz-adv-x="1057" 
d="M164 -346h-28c-71 5 -110 29 -118 72c-1 5 -1 10 -1 15s0 9 1 14c5 26 26 51 63 74c31 15 72 25 125 28c44 3 89 4 135 4s83 1 110 4c20 1 40 2 59 2c111 3 187 5 228 5c53 0 96 -3 130 -10c48 -12 72 -36 72 -73c0 -7 -1 -14 -2 -21c-8 -36 -31 -64 -69 -84
c-36 -14 -160 -21 -371 -21c-45 0 -101 -1 -168 -4c-57 -3 -112 -5 -166 -5z" />
    <glyph glyph-name="grave" unicode="`" horiz-adv-x="425" 
d="M480 980c-25 0 -47 16 -68 47c-25 38 -49 88 -72 150c-5 13 -7 27 -7 42c0 11 1 23 4 35c0 2 2 11 7 28s22 31 53 43c7 3 16 5 25 5c24 0 44 -11 59 -34c21 -29 36 -54 44 -74c4 -13 10 -27 17 -40c25 -44 38 -82 38 -114c0 -8 -1 -16 -2 -23c-6 -27 -23 -46 -52 -56
c-17 -6 -32 -9 -46 -9z" />
    <glyph glyph-name="a" unicode="a" horiz-adv-x="1054" 
d="M347 194h4c15 0 55 36 121 107c52 57 98 108 137 155c14 17 30 34 47 52c38 39 59 69 64 90c2 9 3 18 3 26c0 29 -11 53 -34 72c-13 11 -27 16 -43 16c-9 0 -19 -2 -28 -7c-92 -41 -165 -132 -220 -272c-21 -52 -36 -104 -47 -157l-8 -40c-1 -7 -2 -14 -2 -20
c0 -9 2 -17 6 -22zM309 -14c-11 0 -21 1 -31 4c-73 16 -116 51 -129 104c-6 22 -9 46 -9 71c0 27 3 55 10 85c28 133 68 250 121 353c51 98 132 184 245 258c57 37 115 55 175 55s109 -23 148 -68c26 -31 47 -47 64 -47c4 0 8 1 11 3c21 11 43 28 65 53c25 27 50 47 75 59
c6 3 12 4 18 4c19 0 38 -14 55 -42c11 -17 16 -33 16 -48c0 -5 -1 -10 -2 -15c-3 -16 -15 -43 -34 -81c-39 -77 -69 -141 -90 -193c-21 -51 -38 -113 -53 -185c-9 -44 -15 -86 -18 -125c-4 -57 -8 -96 -12 -117c-3 -15 -8 -28 -13 -39c-23 -51 -56 -77 -98 -77
c-22 0 -43 9 -63 27c-19 18 -29 47 -29 88c0 6 0 12 1 19c3 55 11 114 24 179c3 10 4 18 4 23s-1 7 -4 7c-5 0 -35 -30 -89 -89c-60 -67 -109 -118 -146 -154c-77 -75 -148 -112 -212 -112z" />
    <glyph glyph-name="b" unicode="b" horiz-adv-x="1111" 
d="M563 158c17 0 40 7 70 20c87 40 160 90 218 150c37 38 60 83 71 134c5 21 7 42 7 62c0 43 -10 83 -31 121c-18 31 -46 47 -84 47c-40 0 -81 -14 -124 -41c-42 -27 -82 -61 -121 -102c-38 -41 -70 -78 -97 -112c-17 -22 -32 -50 -45 -85c-10 -26 -17 -49 -22 -70l-1 -19
v-2c0 -24 27 -50 82 -78c33 -17 59 -25 77 -25zM536 -46c-39 0 -80 16 -125 47c-27 19 -48 29 -61 29c-5 0 -13 -7 -25 -22c-27 -34 -56 -51 -86 -51c-15 0 -33 6 -52 18c-19 11 -29 35 -29 72c0 21 3 46 10 76c11 51 23 98 36 141c73 248 138 504 194 768
c51 239 93 388 125 447c26 47 58 71 95 71c35 0 59 -18 74 -53c3 -7 5 -18 5 -31c0 -18 -3 -41 -9 -70c-7 -34 -39 -162 -96 -384c-21 -81 -36 -146 -46 -195c-6 -28 -9 -46 -10 -54c30 16 60 34 90 53c47 29 98 52 154 67c29 9 56 13 83 13c23 0 45 -4 65 -11
c73 -26 127 -72 160 -138c28 -56 42 -117 42 -183c0 -35 -4 -71 -12 -109c-15 -70 -41 -131 -80 -183c-74 -101 -177 -186 -308 -254c-81 -43 -145 -64 -194 -64z" />
    <glyph glyph-name="c" unicode="c" horiz-adv-x="873" 
d="M493 -47c-71 0 -136 17 -196 51c-95 53 -143 136 -143 248c0 32 4 66 11 102c9 42 25 92 47 150c23 59 49 110 79 155c103 153 221 252 355 296c39 13 76 19 113 19c83 0 144 -26 185 -77c21 -28 32 -56 32 -83c0 -7 -1 -15 -2 -22c-3 -17 -12 -33 -25 -49
c-32 -36 -60 -54 -83 -54c-15 0 -30 7 -47 21c-25 20 -42 34 -53 42c-21 14 -39 21 -55 21c-31 0 -68 -15 -111 -46s-77 -61 -102 -92c-67 -80 -111 -167 -131 -262c-5 -25 -8 -48 -8 -69c0 -73 32 -121 97 -144c19 -7 38 -10 56 -10c33 0 75 13 126 40c48 25 84 37 109 37
c19 0 54 -4 69 -41c5 -13 8 -26 8 -38c0 -5 -1 -11 -2 -16c-7 -31 -28 -59 -65 -86c-85 -62 -173 -93 -264 -93z" />
    <glyph glyph-name="d" unicode="d" horiz-adv-x="960" 
d="M349 149c21 0 53 21 96 64c45 45 91 99 138 163l37 42c43 49 68 89 75 120c1 7 2 13 2 20c0 9 -1 18 -4 28c-10 34 -27 51 -50 51c-9 0 -27 -6 -52 -18s-59 -45 -104 -100c-45 -54 -83 -111 -115 -171c-25 -46 -40 -85 -47 -118c-2 -8 -3 -16 -3 -23v-5
c1 -35 10 -53 27 -53zM705 -71h-9c-41 0 -64 14 -71 42c-3 16 -5 33 -5 50c0 13 1 27 3 41s3 25 3 34c0 14 -3 21 -9 21c-16 0 -52 -28 -109 -85c-61 -61 -129 -91 -204 -91c-102 0 -162 49 -180 148c-5 23 -7 46 -7 70c0 27 3 55 9 83c20 94 70 195 149 303
c67 91 139 166 214 224c51 39 98 61 139 66c16 2 31 3 44 3c15 0 29 -1 41 -4c9 -1 17 -2 24 -2s14 1 19 4c13 7 29 51 48 134c39 170 72 285 97 344c30 69 69 103 117 103c46 -10 69 -41 69 -93c0 -16 -2 -33 -6 -52l-3 -11c-93 -361 -157 -628 -194 -801
c-25 -117 -40 -207 -43 -269c-4 -49 -10 -92 -17 -127c-7 -33 -20 -63 -37 -91s-44 -43 -82 -44z" />
    <glyph glyph-name="e" unicode="e" horiz-adv-x="998" 
d="M436 503c4 0 10 1 17 4c90 29 176 69 259 120c41 25 63 47 67 66c1 2 1 4 1 6c0 15 -13 22 -39 22c-13 0 -31 -3 -55 -9c-88 -23 -164 -75 -228 -157c-19 -23 -29 -38 -30 -43v-3c0 -4 3 -6 8 -6zM414 -44c-35 0 -70 6 -105 17c-51 17 -83 34 -97 51
c-49 63 -74 127 -75 194c0 27 3 56 10 87c9 43 24 90 46 139c28 65 55 119 82 162s67 91 121 142c101 98 217 156 347 173c12 1 24 2 35 2c40 0 80 -9 119 -28c39 -18 66 -51 80 -100c6 -21 9 -42 9 -63c0 -14 -1 -28 -4 -41c-18 -85 -89 -165 -214 -242
c-131 -80 -246 -127 -346 -142c-17 -3 -38 -7 -63 -12c-7 -1 -12 -8 -15 -19c-1 -5 -1 -11 -1 -18c2 -49 22 -79 59 -91c19 -6 39 -9 62 -9c15 0 30 2 46 5c58 11 108 27 151 50c46 25 100 58 161 101c35 25 64 37 85 37c1 0 6 0 17 -1c11 0 27 -12 50 -36
c15 -17 22 -34 22 -51c0 -4 0 -8 -1 -13c-11 -51 -81 -112 -209 -181c-79 -43 -158 -74 -236 -94c-47 -13 -92 -19 -136 -19z" />
    <glyph glyph-name="f" unicode="f" horiz-adv-x="791" 
d="M359 -110c-20 0 -36 7 -47 21l-2 1l-1 -1h-6c-13 0 -20 16 -20 48c0 8 0 17 1 26c5 72 17 153 36 243c2 9 6 21 11 38c9 34 16 63 21 87s8 43 8 58c0 21 -5 32 -15 35c-7 1 -14 2 -22 2c-21 0 -50 -5 -79 -5c-39 0 -80 12 -95 27c-4 4 -6 11 -6 20c0 6 1 13 3 21
c14 67 42 107 85 120c30 9 61 13 92 13c27 0 51 4 70 11c29 11 46 68 66 151c13 51 30 108 51 170c53 148 140 257 262 328c41 23 81 35 118 35c19 0 46 -5 81 -16c35 -10 55 -46 60 -108c1 -6 1 -11 1 -16c0 -11 -1 -20 -3 -27c-7 -33 -28 -51 -62 -52h-18
c-20 0 -45 1 -75 2h-7c-42 0 -76 -17 -103 -51c-43 -55 -79 -142 -108 -259c-1 -5 -7 -24 -18 -58c-3 -7 -5 -15 -7 -23l-1 -16v-2c0 -7 5 -11 14 -11s25 2 48 6c33 6 56 9 67 9c65 0 103 -22 113 -67c1 -5 2 -11 2 -17c0 -5 -1 -11 -2 -17c-5 -22 -19 -43 -42 -63
c-45 -40 -102 -44 -153 -44c-39 -1 -69 -8 -90 -22c-13 -9 -27 -43 -40 -104c-15 -72 -26 -140 -32 -203c-4 -41 -11 -83 -20 -128c-2 -10 -7 -31 -15 -64c-7 -33 -28 -61 -62 -84c-14 -9 -34 -14 -59 -14z" />
    <glyph glyph-name="g" unicode="g" horiz-adv-x="985" 
d="M377 183c29 0 97 70 203 211c64 85 101 149 110 194c1 7 2 13 2 19v6c0 41 -16 62 -48 62c-11 0 -23 -3 -37 -8c-43 -17 -85 -52 -126 -105s-75 -111 -101 -172c-15 -33 -25 -64 -30 -91c-4 -17 -6 -33 -6 -48c0 -5 0 -11 1 -16c4 -35 15 -52 32 -52zM192 -600
c-43 0 -85 13 -124 40s-65 59 -76 97c-3 8 -4 16 -4 24c0 5 1 10 2 15c4 18 15 37 33 58s40 31 67 31c29 0 57 -11 86 -32c36 -26 68 -39 97 -39c6 0 18 2 37 5s52 29 97 77c85 91 162 236 231 433c7 17 11 33 14 47c1 3 1 5 1 7c0 5 -2 7 -6 7c-6 0 -29 -21 -70 -62
c-37 -39 -75 -70 -113 -95c-34 -23 -75 -34 -124 -34c-87 0 -144 28 -172 85c-19 38 -29 82 -29 133c0 33 4 68 12 106c25 116 86 238 183 366c59 77 125 136 198 176c49 27 89 41 119 41c24 0 50 -3 78 -10c24 -5 39 -8 44 -8c21 0 43 16 66 48c29 41 60 62 95 62
c43 -7 67 -26 71 -57c1 -7 1 -14 1 -21c0 -16 -2 -33 -6 -52c-19 -83 -38 -164 -55 -245l-57 -277c-15 -69 -32 -140 -53 -214c-20 -74 -54 -166 -103 -277c-81 -181 -184 -309 -309 -382c-41 -24 -75 -39 -103 -44c-31 -6 -74 -9 -128 -9z" />
    <glyph glyph-name="h" unicode="h" horiz-adv-x="1092" 
d="M244 -53c-51 0 -76 30 -76 89c0 32 22 151 63 344c31 148 68 296 109 444c21 74 40 148 59 222c28 105 57 210 88 314l2 7c29 107 64 174 105 201c9 6 20 9 32 9c21 0 43 -12 66 -36c13 -13 19 -34 19 -61c0 -17 -2 -37 -7 -59c-11 -54 -21 -93 -29 -117
c-25 -75 -51 -159 -76 -250c-32 -113 -53 -192 -62 -236c-3 -16 -5 -29 -6 -39c37 36 73 74 112 110c33 30 74 59 123 88s99 48 148 58c13 3 26 4 39 4c31 0 58 -10 80 -29c32 -28 53 -64 62 -107c5 -25 8 -50 8 -77c0 -26 -3 -53 -8 -82l-15 -78c-7 -30 -14 -59 -22 -87
c-31 -109 -59 -219 -82 -329c-7 -36 -12 -66 -15 -91c-3 -27 -8 -55 -14 -84c-17 -78 -61 -117 -132 -117c-36 0 -58 10 -66 29c-3 8 -5 21 -5 39c0 46 12 124 35 235c27 128 49 217 66 267c18 55 32 105 41 148c7 31 10 57 10 77c0 38 -11 57 -34 57
c-44 0 -101 -42 -170 -125c-59 -71 -113 -146 -163 -227s-85 -144 -104 -190c-12 -29 -21 -57 -27 -85l-13 -65c-5 -25 -12 -49 -21 -72c-21 -53 -69 -99 -120 -99z" />
    <glyph glyph-name="i" unicode="i" horiz-adv-x="520" 
d="M235 -79c-39 0 -63 15 -73 45c-5 15 -8 34 -8 56c0 27 4 59 12 96c30 142 64 284 101 426c9 32 16 62 23 90c28 118 54 203 77 255c24 52 58 78 101 78c26 0 47 -13 64 -40c10 -16 15 -37 15 -62c0 -18 -2 -38 -7 -60c-11 -55 -27 -110 -46 -167
c-23 -69 -49 -171 -78 -305c-7 -31 -13 -62 -18 -92c-7 -34 -14 -68 -21 -103l-11 -52c-5 -25 -14 -52 -26 -79c-25 -57 -60 -86 -105 -86zM509 1110l-21 1c-38 8 -57 30 -57 67c0 9 1 20 4 31c9 44 33 74 70 90c19 8 38 12 56 12c6 0 16 -1 31 -4c15 -2 26 -14 33 -35
c5 -13 8 -26 8 -39c0 -7 -1 -15 -3 -22c-4 -21 -14 -40 -31 -58c-27 -29 -57 -43 -90 -43z" />
    <glyph glyph-name="j" unicode="j" horiz-adv-x="545" 
d="M-156 -605c-29 0 -63 5 -102 16c-88 22 -132 67 -132 135v5c0 7 1 14 2 21c5 26 21 48 46 67c20 14 39 21 57 21c21 0 48 -10 81 -29c37 -21 70 -32 100 -32c25 0 53 10 83 31c67 43 110 87 131 132c16 33 29 71 38 115l8 37c65 315 103 509 115 583c9 61 22 127 37 197
c29 140 69 210 136 210c16 0 32 -4 49 -13c23 -13 35 -41 35 -83c0 -11 -1 -24 -3 -38c-20 -145 -52 -324 -97 -535c-12 -56 -23 -114 -36 -177c-11 -53 -25 -115 -44 -188c-18 -73 -45 -141 -81 -202c-39 -69 -92 -127 -159 -174s-137 -79 -212 -94c-17 -3 -35 -5 -52 -5z
M469 1052c-23 0 -42 7 -56 21c-12 12 -18 27 -18 44c0 7 1 14 2 21l5 12c15 41 39 71 70 88c23 13 44 19 64 19c8 0 21 -2 38 -7c18 -4 29 -22 34 -55c1 -4 1 -8 1 -11c0 -6 -1 -12 -2 -18c-13 -60 -51 -97 -114 -111c-9 -2 -17 -3 -24 -3z" />
    <glyph glyph-name="k" unicode="k" horiz-adv-x="936" 
d="M766 -34c-20 0 -37 5 -51 14c-40 28 -79 132 -118 311c-5 21 -9 32 -14 32c-11 0 -57 -54 -139 -163c-89 -121 -157 -182 -203 -182c-41 0 -69 15 -85 45c-2 4 -3 11 -3 20c0 16 3 39 9 69c15 72 44 187 87 346c65 240 111 403 138 489c9 27 17 54 25 82
c23 77 47 150 71 231c19 65 39 128 60 188c13 35 31 64 54 87c15 15 33 23 53 23c11 0 23 -3 36 -8c26 -10 42 -25 48 -46c3 -9 4 -20 4 -32c0 -15 -2 -32 -6 -51c-22 -103 -52 -206 -90 -310c-43 -120 -105 -332 -184 -636l-4 -16c1 0 8 7 20 20c26 30 83 89 171 177
c37 37 69 68 94 95c21 24 46 49 75 76c51 48 93 72 128 72c13 0 26 -4 37 -11c27 -18 41 -39 41 -62c0 -5 -1 -10 -2 -15c-8 -37 -35 -78 -81 -123c-109 -107 -165 -167 -168 -178c-1 -3 -1 -8 -1 -13c0 -31 13 -92 40 -181c6 -21 16 -50 29 -85c23 -63 37 -106 40 -129v-8
c0 -11 -1 -21 -3 -31c-13 -65 -49 -97 -108 -97z" />
    <glyph glyph-name="l" unicode="l" horiz-adv-x="537" 
d="M256 -99c-21 0 -40 10 -57 31s-25 54 -25 97c0 5 1 22 2 50s11 83 28 166c13 62 23 105 28 129c21 81 40 162 58 244c43 189 87 370 132 543c31 120 63 203 95 248c26 36 53 54 80 54c2 0 11 -1 26 -3c16 -1 30 -18 43 -51c3 -7 4 -17 4 -30c0 -22 -4 -52 -12 -91
c-12 -55 -33 -137 -63 -244c-65 -233 -123 -470 -174 -710c-18 -83 -30 -153 -35 -208c-3 -36 -8 -67 -13 -92l-5 -19c-13 -57 -40 -93 -81 -108c-11 -4 -21 -6 -31 -6z" />
    <glyph glyph-name="m" unicode="m" horiz-adv-x="1364" 
d="M1084 -67c-37 0 -61 12 -72 37c-3 7 -5 18 -5 33c0 29 6 73 19 133c15 72 41 172 78 300c17 60 31 115 42 166c5 26 11 56 16 90c2 12 3 23 3 33c0 18 -3 33 -9 45c-4 7 -10 10 -17 10c-12 0 -29 -9 -51 -26c-41 -33 -78 -68 -111 -105c-33 -36 -64 -84 -91 -143
s-54 -143 -81 -250c-8 -39 -11 -80 -19 -119c-5 -24 -14 -52 -26 -84c-14 -36 -49 -54 -104 -54c-52 0 -78 25 -78 75v11c4 49 12 100 23 154c15 69 30 135 47 198s36 145 57 244c3 16 4 30 4 42c0 17 -3 31 -8 41c-3 6 -7 9 -13 9c-5 0 -11 -3 -18 -8
c-90 -61 -206 -222 -250 -425c-7 -32 -11 -77 -22 -122c-7 -31 -17 -70 -30 -115s-37 -79 -73 -102c-14 -9 -30 -14 -48 -14c-26 0 -47 5 -64 16c-15 9 -23 32 -23 67c0 27 4 61 13 103l9 46c16 73 30 134 43 183c17 64 32 130 47 199c3 17 5 29 6 36c12 56 25 108 39 157
c23 87 57 143 102 169c9 5 17 8 26 8c10 0 20 -3 29 -10c19 -13 30 -27 34 -43c3 -13 5 -28 5 -47c0 -6 0 -13 -1 -20c27 39 63 72 106 101c44 29 83 43 118 43c42 0 78 -18 109 -53s51 -72 60 -111c1 -7 4 -11 8 -11s9 3 15 10c45 47 89 85 130 113c55 37 103 55 145 55
c11 0 21 -1 32 -4c91 -23 136 -95 136 -216c0 -43 -6 -92 -17 -147l-5 -24c-17 -81 -36 -154 -56 -221c-9 -33 -19 -73 -30 -120c-33 -141 -62 -233 -88 -275c-23 -38 -54 -57 -91 -58z" />
    <glyph glyph-name="n" unicode="n" horiz-adv-x="1084" 
d="M235 -90h-18c-41 5 -63 20 -68 45c-1 7 -2 15 -2 24c0 13 2 28 5 44c15 73 58 255 129 546c18 69 31 125 40 166c27 129 52 209 75 240c19 25 45 37 78 37c9 0 18 -2 26 -5c36 -15 55 -38 57 -67v-7c0 -16 -2 -33 -6 -52c-4 -20 -9 -37 -15 -52c-8 -20 -12 -32 -13 -35
c-1 -4 -1 -7 -1 -9c0 -3 1 -5 2 -5c9 0 33 23 72 68c74 85 151 140 232 164c21 7 43 10 64 10c49 0 95 -18 138 -55c49 -41 73 -102 73 -181v-6c-1 -60 -9 -122 -23 -185c-19 -91 -49 -191 -89 -298c-9 -25 -20 -56 -31 -93c-35 -115 -62 -188 -82 -220
c-25 -40 -58 -60 -98 -60c-47 0 -71 29 -71 88c0 20 3 43 8 70c12 55 38 134 77 239c40 105 69 199 87 284c9 45 17 89 22 133c1 9 2 18 2 26c0 43 -16 65 -47 65c-8 0 -17 -2 -27 -6c-63 -23 -126 -76 -187 -159s-114 -171 -161 -264s-77 -168 -91 -224
c-14 -55 -27 -106 -40 -152c-19 -63 -58 -114 -117 -114z" />
    <glyph glyph-name="o" unicode="o" horiz-adv-x="872" 
d="M402 179c27 0 60 17 100 50c41 34 81 82 120 143s65 120 78 177l10 47c1 4 1 8 1 12c0 25 -16 49 -48 71c-15 10 -30 15 -45 15c-65 0 -136 -78 -212 -233c-27 -55 -46 -109 -57 -164c-3 -15 -5 -29 -5 -42c0 -29 9 -51 27 -65c9 -7 20 -10 31 -11zM354 -22
c-45 0 -88 12 -129 36s-66 67 -75 130c-3 23 -5 46 -5 69c0 32 3 64 10 97c15 71 44 149 86 236c30 61 67 120 110 177c88 116 180 174 277 174c13 0 25 -1 38 -3c73 -12 131 -40 174 -83c41 -43 62 -101 62 -176c0 -33 -4 -69 -12 -108c-15 -71 -48 -149 -98 -233
c-49 -84 -122 -162 -218 -235c-71 -54 -145 -81 -220 -81z" />
    <glyph glyph-name="p" unicode="p" horiz-adv-x="956" 
d="M427 209c9 0 19 2 31 5c93 22 173 72 240 149c19 22 38 52 57 89c14 27 24 52 29 77c2 10 4 26 6 47v4c0 19 -15 34 -44 45c-9 3 -18 4 -27 4c-56 0 -134 -54 -205 -138c-53 -65 -84 -122 -95 -171c-3 -13 -6 -25 -10 -37c-3 -9 -6 -18 -7 -26c-2 -8 -3 -16 -3 -23
c0 -8 -4 -25 28 -25zM138 -477c-52 0 -78 34 -78 101c0 25 3 54 10 87l18 82c29 139 63 279 100 421c32 122 51 199 58 230l23 115c9 46 22 91 37 134c9 28 26 52 51 73c17 15 34 22 53 22c11 0 24 -5 38 -15c19 -13 30 -35 32 -64c0 -15 3 -22 10 -22s30 17 67 50
c25 22 49 40 71 53c23 14 55 26 96 35c21 5 41 7 60 7c41 0 78 -12 111 -35c65 -46 98 -111 98 -194c0 -26 -3 -54 -10 -84c-11 -51 -32 -101 -61 -151c-121 -199 -272 -314 -455 -344c-34 -5 -56 -8 -66 -8c-35 0 -55 -5 -61 -16c-9 -15 -25 -74 -47 -176
c-8 -39 -14 -73 -17 -100c-3 -23 -6 -46 -10 -67c-12 -56 -36 -95 -73 -117c-18 -11 -36 -17 -55 -17z" />
    <glyph glyph-name="q" unicode="q" horiz-adv-x="1004" 
d="M357 170c13 0 33 12 59 37c35 33 94 103 177 209s135 180 158 221c9 17 16 33 19 48c2 9 3 18 3 25c0 18 -6 32 -17 43c-9 8 -21 12 -35 12c-22 0 -50 -11 -83 -32c-69 -45 -127 -108 -174 -188c-61 -102 -100 -193 -117 -274c-5 -27 -8 -49 -8 -65c0 -24 6 -36 18 -36z
M548 -804c-23 0 -43 10 -60 29c-10 11 -15 32 -15 62c0 13 1 27 3 43c5 48 16 117 35 206l129 613c1 6 2 11 2 15c0 6 -2 9 -5 9c-9 0 -25 -14 -50 -41c-97 -111 -182 -167 -256 -167c-29 0 -58 7 -86 22c-45 25 -76 56 -94 93c-11 23 -17 50 -17 81c0 18 2 38 6 59l9 42
c21 99 58 202 112 308s130 200 229 281c57 47 112 80 166 101c22 8 44 12 67 12c33 0 66 -9 99 -28c26 -15 45 -22 56 -22c22 0 16 18 73 75c25 25 48 38 71 38c4 0 13 -2 28 -5s24 -22 29 -56c1 -6 1 -12 1 -19c0 -15 -2 -33 -6 -54c-15 -71 -52 -185 -109 -341
c-72 -198 -136 -429 -192 -692c-43 -205 -69 -342 -76 -409c-4 -42 -10 -81 -17 -116c-15 -71 -47 -115 -94 -132c-13 -5 -26 -7 -38 -7z" />
    <glyph glyph-name="r" unicode="r" horiz-adv-x="895" 
d="M225 -99c-15 0 -32 4 -49 13s-26 24 -29 47c-1 3 -1 8 -1 13c0 25 6 65 18 122c33 153 81 340 144 562c8 30 20 76 35 137c35 139 64 226 88 261c19 26 47 39 85 39c28 0 47 -9 57 -26c11 -17 18 -33 21 -50c2 -12 5 -20 8 -23c14 1 27 5 38 13c20 13 33 24 38 32
c23 19 43 34 62 45c9 5 21 13 34 22c1 0 3 2 8 6c14 9 6 3 33 13c38 15 72 23 102 23c13 0 31 -2 52 -6c48 -8 87 -57 116 -146c15 -48 23 -84 23 -109c0 -6 0 -11 -1 -16c-4 -19 -15 -37 -32 -56c-21 -23 -48 -34 -81 -34c-14 0 -30 5 -49 14c-23 11 -32 41 -41 73
c-9 37 -22 71 -51 71c-33 0 -74 -21 -122 -62s-93 -88 -136 -141s-73 -97 -90 -134c-37 -81 -75 -210 -113 -388l-21 -102c-4 -19 -10 -46 -19 -79c-21 -89 -63 -134 -127 -134z" />
    <glyph glyph-name="s" unicode="s" horiz-adv-x="907" 
d="M395 -104c-24 0 -55 5 -93 16c-38 10 -80 38 -126 85c-20 21 -36 52 -49 94c-7 25 -11 50 -11 75c0 17 2 35 5 52c9 41 34 70 77 87c13 5 24 8 35 8c32 0 60 -32 84 -97c9 -22 19 -43 30 -63c20 -35 50 -53 90 -53c25 0 58 9 100 26c43 18 80 48 113 91
c14 17 23 35 27 54c1 7 2 14 2 21c0 20 -5 40 -16 60c-41 77 -113 110 -185 137c-63 23 -122 49 -154 105c-21 38 -32 79 -32 122c0 19 2 39 7 60c1 7 8 30 19 70c12 41 44 92 97 153c56 63 125 111 208 144c59 23 116 35 170 35c23 0 58 -4 105 -13c48 -8 85 -50 110 -125
c3 -10 5 -20 5 -30c0 -7 -1 -14 -2 -21c-14 -67 -54 -101 -121 -103c-21 0 -40 11 -55 32c-27 40 -60 60 -100 60c-9 0 -25 -3 -49 -8c-23 -5 -53 -21 -89 -50c-35 -28 -63 -60 -82 -95c-8 -15 -14 -29 -17 -42c-1 -6 -2 -12 -2 -18c0 -26 14 -47 41 -64
c42 -25 82 -46 120 -62c43 -18 83 -40 118 -67c36 -27 66 -69 89 -126c15 -38 23 -76 23 -114c0 -19 -2 -38 -6 -57c-3 -16 -13 -46 -30 -89c-16 -43 -55 -93 -118 -149c-63 -55 -133 -95 -211 -119c-47 -15 -89 -22 -127 -22z" />
    <glyph glyph-name="t" unicode="t" horiz-adv-x="965" 
d="M599 -12c-12 0 -20 2 -24 7c-72 0 -121 43 -142 100c-15 41 -22 83 -22 126c0 16 0 74 23 177c10 47 17 95 21 143c-65 0 -105 -7 -153 -7c-31 0 -59 4 -84 11c-24 7 -38 26 -42 56c-1 9 -2 16 -2 23s1 14 2 19c5 24 19 44 43 59c41 26 115 39 224 40c29 0 49 3 60 8
c24 10 54 77 91 200c17 57 40 114 69 171c22 43 53 65 92 65c35 0 61 -15 77 -45c5 -9 7 -21 7 -36c0 -13 -2 -29 -6 -48c-7 -33 -20 -73 -38 -120c-35 -94 -54 -146 -56 -157v-2c0 -8 10 -12 30 -12c47 0 72 2 100 2c15 0 33 0 54 -1c22 -1 39 -6 52 -17
c27 -22 41 -47 41 -76c0 -7 -1 -15 -3 -23c-11 -56 -77 -84 -196 -84h-10c-51 0 -96 -4 -135 -12c-16 -41 -30 -90 -43 -149c-10 -47 -15 -87 -15 -120c0 -17 1 -32 4 -45c5 -31 18 -46 39 -46c23 0 60 21 111 62c42 35 76 52 102 52c33 0 54 -18 64 -55c3 -10 4 -20 4 -31
c0 -7 -1 -15 -2 -22c-2 -8 -5 -16 -8 -23c-27 -57 -71 -101 -131 -131c-73 -37 -139 -57 -198 -59z" />
    <glyph glyph-name="u" unicode="u" horiz-adv-x="937" 
d="M753 -28c-14 0 -29 5 -44 14c-25 17 -42 61 -50 134c-3 33 -8 49 -16 49c-7 0 -23 -14 -50 -41c-76 -78 -148 -117 -217 -117h-37c-23 1 -57 30 -100 89c-37 49 -55 112 -55 189c0 43 6 91 17 143c13 61 29 121 48 180c3 11 7 24 11 40c39 168 92 252 159 252
c37 0 61 -17 70 -50c5 -18 8 -37 8 -56c0 -15 -2 -31 -5 -46c-5 -25 -19 -72 -41 -139c-24 -75 -41 -138 -52 -187c-7 -36 -11 -69 -11 -100c0 -14 1 -27 2 -40c5 -37 15 -56 30 -56c25 0 63 41 113 123c34 55 64 110 90 163c33 68 55 115 66 141c75 178 139 267 194 267
c8 0 16 -2 23 -5c32 -14 50 -34 55 -59c2 -8 3 -17 3 -26c0 -13 -2 -26 -5 -40c-4 -17 -15 -54 -32 -112c-21 -67 -38 -131 -51 -193l-14 -63c-5 -24 -7 -57 -7 -98c0 -23 1 -48 2 -76c1 -16 4 -35 9 -56c8 -33 12 -66 12 -100c0 -7 0 -14 -1 -21l-3 -19
c-7 -31 -27 -54 -61 -69c-23 -10 -43 -15 -60 -15z" />
    <glyph glyph-name="v" unicode="v" horiz-adv-x="920" 
d="M418 -72c-22 0 -41 7 -58 22c-30 29 -51 121 -64 275c-3 31 -7 62 -12 93c-32 189 -48 330 -48 423c0 35 2 64 7 85c7 31 26 56 58 73c19 11 35 16 50 16c17 0 35 -9 52 -26c28 -28 45 -102 52 -223c9 -167 26 -298 52 -394c25 31 47 63 66 97c90 153 145 247 166 280
c7 11 15 25 22 40c18 32 38 66 61 101c50 76 99 114 147 114c53 0 79 -21 79 -62c0 -9 -1 -18 -3 -28c-7 -32 -23 -70 -50 -113c-139 -221 -220 -353 -244 -395c-87 -149 -152 -251 -196 -304c-27 -33 -59 -56 -98 -68c-14 -4 -27 -6 -39 -6z" />
    <glyph glyph-name="w" unicode="w" horiz-adv-x="1283" 
d="M344 -24c-17 0 -32 4 -47 11c-51 27 -84 63 -98 109c-11 37 -16 78 -16 123c0 11 0 23 1 35c4 45 8 65 14 107c4 29 10 61 18 98c33 155 70 278 111 371c29 63 69 95 120 95c47 -8 70 -36 70 -83c0 -13 -2 -27 -5 -42c-6 -29 -23 -86 -50 -173
c-31 -103 -53 -180 -64 -231c-9 -43 -14 -82 -16 -119v-17c0 -31 5 -46 14 -46c1 0 5 1 12 3c8 2 24 22 48 59c76 120 129 244 185 388c13 35 32 77 57 125c37 74 82 111 136 111c43 0 68 -16 74 -49c3 -14 4 -28 4 -43c0 -17 -2 -34 -5 -52l-17 -83
c-11 -53 -26 -104 -35 -153c-5 -25 -11 -56 -18 -93c-3 -23 -5 -49 -5 -78c0 -19 1 -40 2 -63c5 -65 16 -97 34 -97c1 0 7 2 18 5s30 28 56 73c47 84 94 193 140 328c13 37 26 73 40 110c3 5 5 11 6 17c12 34 28 71 47 110c20 39 45 67 75 83c13 6 25 9 38 9
c11 0 26 -3 45 -8c29 -9 43 -29 43 -59c0 -7 -1 -16 -3 -25c-7 -35 -26 -91 -56 -167c-33 -85 -53 -138 -62 -159c-5 -11 -9 -23 -13 -36c-21 -59 -45 -121 -74 -185c-68 -151 -158 -247 -269 -286c-23 -8 -39 -12 -50 -12c-15 0 -26 11 -55 16c-93 16 -131 55 -146 147
c-5 33 -10 50 -17 50c-3 0 -7 -3 -13 -10c-66 -82 -44 -88 -142 -161c-27 -21 -57 -37 -89 -46c-15 -5 -29 -7 -43 -7z" />
    <glyph glyph-name="x" unicode="x" horiz-adv-x="873" 
d="M189 -61c-9 0 -18 1 -27 4c-34 12 -51 33 -51 64c0 6 1 13 2 20c8 37 25 72 52 105l172 217c20 25 37 45 52 59c24 25 38 45 41 61c1 5 1 10 1 15c0 16 -4 40 -13 71c-8 31 -16 54 -23 69c-8 18 -18 27 -31 27c-5 0 -12 -1 -19 -2c-10 -3 -23 -4 -40 -4
c-11 0 -24 2 -38 6c-33 9 -49 24 -50 45c0 7 1 13 2 20c4 17 12 37 25 59c21 37 50 66 87 86c28 15 56 23 85 23c9 0 17 -1 26 -3c46 -13 77 -31 93 -52c17 -21 29 -45 37 -72c9 -27 22 -57 41 -89c23 8 58 39 105 93c73 83 129 125 168 125c19 0 37 -8 54 -24
c20 -19 30 -39 30 -59c0 -4 0 -8 -1 -13c-7 -32 -33 -71 -78 -117l-158 -154c-29 -27 -44 -47 -47 -60c-1 -3 -1 -7 -1 -12c0 -16 5 -39 14 -70l91 -290c3 -11 5 -22 5 -32c0 -7 -1 -13 -2 -19c-5 -25 -21 -48 -46 -69c-21 -17 -42 -25 -62 -25c-12 0 -22 1 -30 4
c-5 1 -8 2 -11 2h-2c-22 0 -42 23 -59 68c-7 19 -22 72 -44 159c-14 53 -26 80 -36 82c-26 -19 -63 -65 -112 -138c-79 -120 -147 -180 -202 -180z" />
    <glyph glyph-name="y" unicode="y" horiz-adv-x="904" 
d="M309 -444h-18c-59 0 -113 11 -163 34c-36 16 -63 42 -81 77c-7 14 -11 28 -11 43c0 7 1 13 2 20c4 17 13 34 26 51c24 32 47 48 70 48c25 0 53 -11 85 -33c43 -29 79 -43 109 -43c21 0 44 6 68 19c79 41 107 98 127 177c11 47 32 142 62 283c3 11 4 19 4 24
c0 6 -2 9 -5 9s-9 -4 -16 -11c-21 -21 -45 -40 -72 -57c-36 -23 -71 -34 -104 -34c-47 0 -89 20 -125 59c-38 41 -57 105 -57 191c0 55 8 119 23 192c19 89 42 167 70 234c23 58 59 87 107 87c50 0 75 -33 75 -99c0 -26 -4 -57 -12 -94c-13 -57 -35 -115 -47 -171
c-7 -36 -11 -71 -11 -105v-8c0 -53 9 -79 27 -79c3 0 11 2 24 7s35 30 65 75c31 45 59 90 84 137c26 47 43 79 51 96c10 19 19 41 28 66c35 96 86 159 137 159c7 0 19 -2 38 -7s33 -22 42 -52c2 -6 3 -14 3 -25c0 -31 -8 -83 -23 -154c-11 -51 -42 -176 -92 -375
c-23 -92 -42 -178 -59 -259l-9 -44c-15 -66 -36 -131 -64 -196c-27 -65 -83 -124 -167 -179c-62 -40 -126 -61 -191 -63z" />
    <glyph glyph-name="z" unicode="z" horiz-adv-x="944" 
d="M295 -27c-19 0 -41 1 -68 3s-52 16 -76 42c-28 29 -42 59 -42 90c0 6 1 12 2 19c10 47 53 102 129 166c175 147 322 275 440 385c-30 3 -61 4 -92 4s-60 -2 -87 -2c-41 0 -105 -7 -150 -7c-73 0 -109 24 -109 73c0 8 1 16 3 25c2 7 7 20 14 37s26 34 55 51
c24 15 85 22 182 22c38 0 69 -1 94 -2h49c51 0 100 4 149 12c38 7 74 10 108 10c40 0 69 -14 87 -41c11 -17 16 -36 16 -57c0 -10 -1 -20 -3 -31c-13 -57 -87 -143 -223 -259c-237 -198 -361 -306 -371 -324c7 -5 33 -8 78 -8c23 0 99 4 227 13c36 3 61 4 75 4
c27 0 56 -3 85 -10c30 -7 47 -33 51 -79v-8c0 -6 0 -11 -1 -16c-13 -60 -79 -94 -155 -98c-91 -4 -181 -7 -271 -8c-69 -1 -115 -3 -138 -4c-20 -1 -39 -2 -58 -2z" />
    <glyph glyph-name="braceleft" unicode="{" horiz-adv-x="821" 
d="M494 -286c-21 0 -51 0 -115 36c-92 52 -138 158 -138 319c0 59 6 126 19 201c6 37 9 70 9 97c0 49 -10 82 -30 98c-21 17 -37 45 -48 83c-1 4 -1 8 -1 13s0 10 1 15c5 24 24 73 63 100c35 25 63 41 84 50c15 6 28 13 39 20c15 12 27 39 36 81c5 24 10 58 15 101
c8 65 19 129 32 191c1 7 6 29 15 66s32 92 71 165c30 55 72 111 125 166c61 64 126 98 195 101c21 0 38 -8 52 -23c10 -11 15 -24 15 -41c0 -7 -1 -15 -3 -23c-9 -45 -39 -71 -78 -100c-23 -17 -47 -38 -73 -64c-57 -58 -98 -146 -123 -265c-7 -33 -13 -77 -20 -134
c-10 -80 -17 -131 -22 -154c-14 -64 -41 -119 -81 -164c-18 -20 -41 -42 -69 -66c-4 -3 -7 -7 -8 -12c-1 -3 -1 -7 -1 -11c0 -12 3 -29 9 -50c9 -35 14 -66 14 -92v-9c-1 -31 -6 -70 -13 -119c-10 -67 -15 -126 -15 -177s5 -94 15 -130c11 -37 26 -58 45 -63
c7 -2 14 -3 22 -3c13 0 29 2 46 7c25 6 44 9 57 9c24 0 45 -6 62 -19c15 -11 23 -27 23 -47c0 -7 -1 -14 -3 -22c-7 -35 -26 -64 -56 -85c-45 -31 -100 -46 -167 -46z" />
    <glyph glyph-name="bar" unicode="|" horiz-adv-x="345" 
d="M120 -291c-11 0 -22 2 -33 6c-29 11 -46 31 -49 62v8c0 34 14 118 42 252c18 86 39 182 64 289c12 50 21 87 26 111c23 111 45 221 66 331s47 234 76 371l37 169c26 123 50 212 73 269c13 30 33 54 61 73c16 11 31 16 46 16c12 0 23 -4 34 -11c28 -19 42 -42 43 -71
c0 -18 -2 -39 -7 -62c-38 -151 -73 -301 -104 -450c-21 -97 -56 -267 -105 -510c-39 -183 -70 -330 -95 -440l-16 -81c-7 -40 -14 -81 -23 -123c-3 -10 -8 -31 -15 -62c-7 -32 -20 -63 -40 -94c-23 -35 -50 -53 -81 -53z" />
    <glyph glyph-name="braceright" unicode="}" horiz-adv-x="823" 
d="M233 -278c-2 0 -10 1 -25 2c-14 1 -25 15 -33 42c-3 11 -4 21 -4 30c0 6 1 12 2 18c7 34 39 72 94 115c79 61 130 131 155 212c9 31 17 63 24 95c11 49 19 100 24 151c7 68 14 118 21 151c11 50 33 97 66 140c19 24 39 43 62 58c18 11 28 22 30 32c1 2 1 4 1 6
c0 11 -4 27 -11 49c-9 29 -14 60 -14 94c0 24 2 49 7 76c14 88 21 163 21 226c0 41 -3 77 -9 108c-8 43 -23 70 -45 82c-11 7 -27 10 -48 10c-15 0 -33 -2 -52 -5c-11 -2 -22 -3 -32 -3c-18 0 -37 4 -57 11c-17 7 -25 22 -25 46c0 9 1 20 4 32c8 38 28 67 60 88
c41 26 93 39 154 39c70 0 124 -20 163 -59c61 -61 91 -170 91 -327c0 -16 0 -32 -1 -49c-1 -43 -5 -83 -12 -119c-8 -44 -12 -80 -12 -109c0 -25 3 -44 9 -57c7 -15 16 -28 27 -38c12 -9 24 -26 35 -49c9 -18 13 -33 13 -46c0 -3 0 -7 -1 -10c-13 -53 -54 -96 -122 -131
c-31 -15 -60 -36 -85 -63c-6 -7 -12 -22 -17 -47c-11 -53 -24 -130 -37 -231c-5 -37 -9 -61 -11 -71c-16 -74 -45 -151 -88 -231c-43 -81 -98 -149 -165 -204c-21 -17 -47 -33 -78 -46c-28 -12 -54 -18 -79 -18z" />
    <glyph glyph-name="asciitilde" unicode="~" horiz-adv-x="1183" 
d="M934 534c-13 0 -40 3 -80 9c-47 8 -108 41 -183 98c-68 51 -124 77 -168 77c-11 0 -23 -2 -34 -5c-33 -11 -61 -25 -84 -42c-31 -22 -57 -33 -80 -33c-21 0 -44 12 -71 36c-9 8 -14 17 -14 28c0 3 0 7 1 10c1 7 4 15 8 24c25 51 59 92 104 121c59 39 131 59 215 59
s153 -28 229 -87c30 -23 65 -45 105 -66c35 -19 64 -28 87 -28c25 0 55 13 90 39c57 42 103 63 139 63c17 0 32 -4 45 -12c21 -13 31 -32 31 -56c0 -7 -1 -15 -3 -23c-1 -5 -5 -19 -13 -44c-8 -24 -54 -60 -137 -109c-67 -39 -130 -59 -187 -59z" />
    <glyph glyph-name="exclamdown" unicode="&#xa1;" horiz-adv-x="511" 
d="M353 477c48 0 72 -29 72 -88c0 -21 -3 -45 -9 -73c-7 -32 -15 -64 -24 -96c-11 -39 -20 -77 -29 -116c-45 -192 -90 -384 -135 -575l-69 -304c-11 -50 -24 -98 -39 -143c-19 -55 -49 -90 -91 -107c-13 -5 -25 -8 -36 -8c-25 0 -44 14 -57 41c-5 10 -7 25 -7 46
c0 37 8 91 23 164s53 224 113 452c55 210 103 410 144 601c12 58 24 104 37 137s39 55 78 65c10 3 20 4 29 4zM458 886c22 0 41 -9 57 -28c19 -21 28 -43 28 -68c0 -7 -1 -13 -2 -20c-5 -23 -20 -46 -45 -67c-29 -25 -57 -37 -84 -37c-7 0 -21 2 -42 6c-21 5 -36 23 -47 54
c-2 7 -3 14 -3 21c0 6 1 12 2 18c5 21 17 44 38 67c32 36 65 54 98 54z" />
    <glyph glyph-name="cent" unicode="&#xa2;" horiz-adv-x="936" 
d="M431 192l33 93c5 13 10 26 16 38c6 15 11 28 14 41c19 69 72 195 158 378c-7 -5 -15 -10 -22 -15c-43 -31 -77 -61 -102 -92c-67 -80 -111 -167 -131 -262c-5 -25 -8 -48 -8 -69c0 -48 14 -85 42 -112zM567 152c28 5 62 17 101 38c48 25 84 37 109 37c19 0 54 -4 69 -41
c5 -13 8 -26 8 -38c0 -5 -1 -11 -2 -16c-7 -31 -28 -59 -65 -86c-85 -62 -173 -93 -264 -93c-9 0 -17 0 -25 1c-12 -38 -25 -74 -39 -108c-9 -23 -24 -41 -43 -55c-15 -11 -31 -16 -46 -16c-6 0 -12 1 -17 2c-25 8 -38 29 -38 63c0 13 2 28 6 45c4 19 10 40 19 61
c5 15 11 29 16 43c-10 5 -20 10 -29 15c-95 53 -143 136 -143 248c0 32 4 66 11 102c9 42 25 92 47 150c23 59 49 110 79 155c103 153 222 252 355 296c30 10 59 16 87 18c15 30 31 61 47 94c19 39 41 67 68 84c7 5 15 7 23 8c17 0 33 -14 50 -41c4 -8 6 -18 6 -31
c0 -10 -1 -21 -4 -34c-6 -28 -18 -64 -37 -107c23 -12 42 -28 58 -49c21 -28 32 -56 32 -83c0 -7 -1 -15 -2 -22c-3 -17 -12 -33 -25 -49c-32 -36 -60 -54 -83 -54c-15 0 -30 7 -47 21c-14 11 -26 21 -35 28c-89 -194 -172 -389 -247 -586z" />
    <glyph glyph-name="sterling" unicode="&#xa3;" horiz-adv-x="1104" 
d="M348 -15c-21 0 -47 1 -79 3c-31 2 -59 13 -83 34c-25 22 -38 45 -38 70c0 5 1 11 2 16c5 21 26 47 64 80c19 17 44 38 74 65c65 60 107 130 124 211c5 25 9 52 12 79c-77 1 -130 5 -161 13c-43 11 -64 31 -64 61c0 5 1 10 2 16c11 54 68 82 169 84l54 1l-4 36
c-5 37 -7 75 -7 114c0 78 9 159 27 243c10 46 31 91 64 134c53 72 115 122 184 151s133 44 191 44c83 0 159 -23 230 -69c63 -40 95 -92 95 -155c0 -15 -2 -30 -5 -46c-4 -17 -13 -32 -27 -45c-25 -22 -47 -33 -67 -33c-40 0 -75 21 -105 64c-39 55 -90 82 -154 82
c-12 0 -25 -1 -40 -4c-59 -11 -101 -30 -124 -55s-38 -53 -45 -82c-6 -28 -9 -61 -9 -100c0 -49 5 -107 14 -173c5 -37 9 -71 11 -103c39 2 79 3 121 3c15 0 40 -1 75 -2s68 -10 97 -27c17 -11 26 -26 26 -47c0 -6 -1 -12 -2 -18c-2 -10 -7 -19 -14 -28
c-21 -24 -43 -39 -66 -46c-23 -6 -104 -10 -244 -12l-2 -8c-13 -60 -37 -123 -73 -189c-36 -65 -70 -114 -101 -146v-1c0 -8 24 -12 73 -12c32 0 95 3 189 10c48 3 103 5 164 5c105 0 157 -27 157 -81c0 -7 -1 -14 -2 -21c-13 -64 -71 -99 -174 -104c-33 -1 -64 -2 -95 -2
c-68 0 -113 0 -134 -1c-132 -6 -232 -9 -300 -9z" />
    <glyph glyph-name="currency" unicode="&#xa4;" horiz-adv-x="1438" 
d="M682 419c27 0 60 17 100 50c41 34 81 82 120 143s65 120 78 177l10 47c1 4 1 8 1 12c0 25 -16 49 -48 71c-15 10 -30 15 -45 15c-65 0 -136 -78 -212 -233c-27 -55 -46 -109 -57 -164c-3 -15 -5 -29 -5 -42c0 -29 9 -51 27 -65c9 -7 20 -10 31 -11zM1163 60
c-15 0 -29 5 -42 14c-40 29 -112 118 -216 266c-17 -14 -34 -28 -51 -41c-71 -54 -145 -81 -221 -81c-44 0 -86 12 -127 36c-15 9 -27 20 -38 33c-40 -34 -80 -65 -121 -94c-35 -24 -69 -36 -102 -36c-23 0 -40 9 -49 26c-13 19 -20 38 -20 57c0 5 1 10 2 15
c5 23 22 47 50 70c29 23 57 47 86 70c39 31 76 64 113 98c2 19 5 38 9 57c20 95 58 191 113 288c-87 115 -138 190 -152 226c-1 3 -2 8 -2 14c0 11 2 25 6 42c11 49 31 73 61 73c12 0 22 1 29 4c3 1 6 1 9 1c7 0 15 -2 24 -7c35 -16 72 -48 111 -97l50 -67
c72 73 147 110 224 110c12 0 24 -1 37 -3c53 -9 97 -25 134 -50l34 31c114 111 187 166 220 166c11 0 29 -4 52 -11c14 -4 24 -11 31 -20c9 -12 14 -25 14 -39c0 -5 -1 -11 -2 -17c-3 -11 -7 -23 -14 -35c-13 -23 -40 -54 -82 -93c-48 -44 -99 -90 -154 -137
c3 -17 4 -34 4 -52c0 -34 -4 -71 -13 -110c-18 -85 -56 -171 -113 -258c74 -95 131 -171 170 -228c29 -42 44 -80 44 -114c0 -7 -1 -15 -2 -22c-5 -22 -16 -40 -34 -55c-27 -20 -51 -30 -72 -30z" />
    <glyph glyph-name="yen" unicode="&#xa5;" horiz-adv-x="1128" 
d="M577 790h2c-9 18 -19 38 -29 59c-27 61 -57 119 -90 176c-82 144 -123 248 -123 312c0 9 1 17 2 24c6 27 20 52 43 76c25 26 49 39 71 39c37 0 66 -25 85 -74c12 -29 23 -57 33 -86c15 -42 32 -84 53 -125c65 -131 100 -202 104 -213c12 -33 25 -50 38 -50
c4 3 46 50 127 139l110 123c15 16 32 35 51 57c34 41 70 81 109 121c58 60 105 90 142 90c33 0 53 -15 59 -45c3 -12 4 -24 4 -35c0 -9 -1 -18 -3 -26c-1 -7 -5 -18 -12 -33c-15 -36 -105 -140 -271 -311c-85 -88 -145 -158 -180 -209h54c50 0 91 -3 124 -9
c47 -10 71 -31 71 -64c0 -5 -1 -10 -2 -16c-7 -31 -29 -54 -66 -69c-27 -11 -110 -17 -250 -19l-24 -96h39c16 0 43 -1 81 -2c39 -1 74 -10 105 -27c19 -11 29 -27 29 -48c0 -5 -1 -11 -2 -17c-2 -10 -7 -19 -14 -28c-22 -24 -45 -39 -69 -45c-23 -6 -94 -10 -215 -12
c-4 -16 -8 -32 -12 -47c-15 -53 -27 -104 -38 -154l-15 -75l-7 -29c-7 -33 -24 -58 -51 -75c-23 -15 -46 -23 -69 -23c-4 0 -14 1 -31 3c-16 1 -28 18 -37 49c-4 14 -6 30 -6 48c0 22 3 47 9 76c11 51 21 96 32 136c9 30 17 60 24 89h-63c-96 0 -162 4 -198 13
c-47 11 -71 32 -71 63c0 5 1 9 2 14c12 54 73 82 182 84l81 1c47 0 80 0 101 -1h12c6 24 12 48 19 72c1 8 3 16 6 24l2 4c-21 -1 -42 -2 -65 -3c-42 -1 -84 -2 -126 -2h-57c-68 4 -107 24 -116 60c-1 5 -1 9 -1 13s0 8 1 12c5 22 25 42 60 61c27 15 66 23 117 26
c43 3 86 4 129 4z" />
    <glyph glyph-name="section" unicode="&#xa7;" horiz-adv-x="907" 
d="M273 -343c-23 0 -58 4 -106 13c-47 8 -84 50 -109 125c-3 10 -5 20 -5 31c0 7 1 13 2 20c15 67 55 101 121 103c22 0 40 -11 55 -32c27 -40 61 -60 101 -60c9 0 25 3 48 8c24 5 54 21 89 50c36 28 63 60 82 95c9 15 14 29 17 42c1 6 2 12 2 18c0 26 -14 47 -41 64
s-60 34 -100 52c-58 26 -105 52 -140 78s-64 68 -87 126c-15 38 -23 76 -23 113c0 19 2 38 6 57c3 16 13 46 30 89s56 93 119 149c21 19 44 36 67 52c-6 7 -12 16 -17 25c-21 38 -32 79 -32 122c0 19 2 39 7 60c1 7 8 30 19 70c12 41 44 92 97 153c55 63 125 111 208 144
c59 23 116 35 170 35c23 0 58 -4 105 -13c48 -8 85 -50 110 -125c3 -10 5 -20 5 -31c0 -7 -1 -13 -2 -20c-14 -67 -54 -101 -121 -103c-22 0 -40 11 -55 32c-27 40 -60 60 -100 60c-9 0 -25 -3 -49 -8s-54 -21 -90 -50c-35 -28 -62 -60 -81 -95c-9 -15 -14 -29 -17 -42
c-1 -6 -2 -12 -2 -18c0 -26 14 -47 41 -64s59 -33 96 -50c62 -28 109 -54 142 -79c36 -27 66 -69 89 -126c15 -38 23 -76 23 -114c0 -19 -2 -38 -6 -57c-3 -16 -13 -46 -30 -89s-56 -93 -118 -148c-22 -19 -45 -37 -68 -53c6 -7 12 -16 17 -25c21 -38 32 -79 32 -122
c0 -19 -2 -39 -6 -60c-2 -7 -9 -30 -20 -70c-11 -41 -44 -92 -97 -153c-55 -63 -124 -111 -207 -144c-60 -23 -117 -35 -171 -35zM509 382c23 2 53 11 88 26c42 17 80 47 113 90c13 17 22 35 26 54c2 8 3 16 3 23c0 19 -5 39 -16 58c-21 39 -48 68 -81 88l-25 13
c-23 -2 -53 -10 -88 -25c-42 -18 -80 -48 -113 -91c-13 -17 -22 -35 -26 -54c-2 -7 -3 -15 -3 -23c0 -19 6 -39 17 -58c20 -39 47 -68 81 -87c8 -5 16 -10 24 -14z" />
    <glyph glyph-name="dieresis" unicode="&#xa8;" horiz-adv-x="453" 
d="M311 1016l-21 1c-38 8 -57 30 -57 67c0 9 1 20 4 31c9 44 33 74 70 90c19 8 38 12 56 12c6 0 16 -1 31 -4c15 -2 26 -14 33 -35c5 -13 8 -26 8 -39c0 -7 -1 -15 -3 -22c-4 -21 -14 -40 -31 -58c-27 -29 -57 -43 -90 -43zM569 1016l-21 1c-38 8 -57 30 -57 67
c0 9 1 20 4 31c9 44 33 74 70 90c19 8 38 12 56 12c6 0 16 -1 31 -4c15 -2 26 -14 33 -35c5 -13 8 -26 8 -39c0 -7 -1 -15 -3 -22c-4 -21 -14 -40 -31 -58c-27 -29 -57 -43 -90 -43z" />
    <glyph glyph-name="copyright" unicode="&#xa9;" horiz-adv-x="1509" 
d="M808 93c19 0 40 2 63 6c159 25 281 94 368 206c39 51 78 121 117 211s66 170 81 239c17 83 26 149 26 196c1 47 -4 92 -14 135c-13 60 -47 106 -102 139c-70 41 -143 69 -218 83s-131 21 -168 21c-43 0 -82 -6 -116 -18c-115 -41 -214 -116 -296 -227
c-32 -43 -51 -70 -57 -81c-52 -99 -85 -180 -98 -242c-16 -85 -24 -149 -25 -191v-8c0 -141 34 -248 101 -323c30 -33 79 -65 146 -94c80 -35 144 -52 192 -52zM847 314c-58 0 -112 14 -161 41c-78 43 -117 111 -117 202c0 27 3 55 10 85c7 34 20 75 38 122
c19 48 40 90 65 127c84 125 181 205 290 241c31 11 62 16 92 16c67 0 118 -21 151 -63c18 -23 27 -45 27 -68c0 -6 -1 -12 -2 -18c-3 -13 -10 -27 -21 -40c-26 -29 -48 -44 -67 -44c-12 0 -25 6 -39 17c-20 17 -34 28 -43 35c-17 11 -32 17 -45 17c-25 0 -56 -13 -91 -38
s-62 -50 -83 -75c-55 -65 -90 -137 -107 -214c-4 -21 -6 -39 -6 -56c0 -60 26 -99 78 -118c16 -5 31 -8 46 -8c27 0 61 11 103 32c39 21 69 31 89 31c16 0 45 -3 57 -34c4 -11 6 -22 6 -31c0 -5 0 -9 -1 -13c-5 -25 -23 -49 -54 -70c-69 -51 -141 -76 -215 -76zM775 -51
c-70 0 -152 21 -246 62c-81 35 -143 76 -184 122c-88 97 -132 232 -132 403v8c1 49 10 119 27 210c17 79 54 173 112 284c12 22 36 57 73 106c107 145 238 244 393 299c57 20 117 30 181 30c45 0 110 -8 193 -24c84 -15 166 -47 246 -94c87 -51 141 -126 162 -223
c11 -49 17 -100 17 -153v-50c0 -29 -10 -89 -29 -178c-16 -78 -46 -166 -89 -265c-43 -98 -88 -178 -136 -241c-53 -69 -122 -130 -206 -183c-84 -52 -181 -87 -292 -105c-32 -5 -62 -8 -90 -8z" />
    <glyph glyph-name="guillemotleft" unicode="&#xab;" horiz-adv-x="1070" 
d="M356 53c-11 0 -21 2 -31 7c-27 9 -47 30 -62 62c-24 49 -38 114 -70 177l-40 103c-5 13 -7 26 -7 39c0 7 1 14 2 21c4 20 14 40 31 60l84 102c57 63 99 128 144 177c28 32 58 53 89 62c12 5 23 7 34 7c16 0 30 -4 42 -13c21 -17 32 -33 32 -50c0 -3 0 -5 -1 -8
c-1 -4 -2 -8 -5 -12c-17 -35 -39 -68 -68 -101c-17 -19 -41 -48 -72 -87c-24 -31 -49 -61 -74 -89c-15 -17 -28 -33 -40 -48c5 -15 12 -31 20 -48c13 -29 25 -59 36 -90c13 -39 25 -68 34 -87c15 -33 24 -66 26 -101v-4c0 -3 0 -5 -1 -8c-4 -19 -22 -39 -55 -58
c-16 -9 -32 -13 -48 -13zM693 53c-11 0 -21 2 -31 7c-27 9 -47 30 -62 62c-24 49 -38 114 -69 177l-40 103c-5 13 -8 27 -8 40c0 7 1 13 2 20c5 20 15 40 31 60l84 102c57 63 99 128 144 177c29 32 58 53 89 62c12 5 23 7 34 7c16 0 30 -4 42 -13c21 -17 32 -33 32 -50
c0 -3 0 -5 -1 -8c-1 -4 -2 -8 -5 -12c-17 -35 -39 -68 -68 -101c-17 -19 -41 -48 -72 -87c-24 -31 -49 -61 -74 -89c-15 -17 -28 -33 -40 -48c5 -15 12 -31 20 -48c13 -29 25 -59 36 -90c13 -39 25 -68 34 -87c15 -33 24 -66 26 -101v-4c0 -3 0 -5 -1 -8
c-4 -19 -22 -39 -55 -58c-16 -9 -32 -13 -48 -13z" />
    <glyph glyph-name="registered" unicode="&#xae;" horiz-adv-x="1509" 
d="M809 93c18 0 39 2 62 6c159 25 281 94 368 206c39 51 77 121 116 211s66 170 81 239c18 83 27 149 27 196c1 47 -4 92 -13 135c-13 60 -48 106 -103 139c-70 41 -143 69 -218 83s-131 21 -168 21c-43 0 -82 -6 -116 -18c-115 -41 -214 -116 -297 -227
c-31 -43 -50 -70 -56 -81c-51 -97 -82 -177 -95 -238c-17 -81 -26 -155 -26 -221c0 -130 33 -232 100 -305c29 -33 78 -65 146 -94c79 -35 143 -52 192 -52zM775 -51c-70 0 -152 21 -246 62c-210 91 -315 260 -315 507c0 73 9 153 28 240c17 78 54 171 112 280
c11 22 35 57 71 106c107 145 239 244 394 299c56 20 116 30 180 30c45 0 110 -8 193 -24c84 -15 166 -47 246 -94c87 -51 142 -126 163 -223c11 -51 17 -105 16 -162c0 -57 -9 -130 -28 -219c-17 -78 -47 -166 -90 -265c-43 -98 -88 -178 -136 -241
c-53 -69 -122 -130 -206 -183c-83 -52 -180 -87 -291 -105c-33 -5 -63 -8 -91 -8zM607 258c-42 0 -65 12 -70 36c-1 5 -1 11 -1 18c0 11 1 23 4 36c13 59 47 204 104 437c14 56 24 100 31 133c22 104 42 168 61 192c15 20 35 30 62 30c7 0 14 -1 20 -4c29 -12 45 -30 46 -54
c1 -3 1 -7 1 -11c0 -11 -2 -23 -5 -36c-3 -16 -7 -30 -12 -41c-7 -17 -10 -26 -11 -29s-1 -5 -1 -7c0 -3 1 -4 2 -4c7 0 27 18 58 55c59 68 121 112 185 131c17 5 35 8 52 8c39 0 75 -15 110 -44c38 -33 57 -80 57 -141v-9c0 -16 -2 -31 -5 -46c-17 -78 -68 -147 -154 -206
c-41 -29 -79 -53 -114 -74c11 -35 19 -59 24 -72c41 -115 61 -189 61 -224c0 -5 0 -9 -1 -12c-5 -25 -22 -38 -51 -38c-49 0 -95 47 -136 142c-16 37 -35 92 -57 165c-3 9 -5 19 -5 28c0 7 1 15 3 23c11 50 40 89 88 116c116 66 179 121 188 165c1 7 1 14 1 21
c0 35 -12 52 -37 52c-6 0 -13 -2 -22 -5c-50 -19 -100 -61 -149 -128c-49 -66 -92 -136 -129 -211s-62 -134 -73 -179s-21 -85 -32 -122c-15 -51 -46 -91 -93 -91z" />
    <glyph glyph-name="overscore" unicode="&#xaf;" horiz-adv-x="780" 
d="M322 1069c-22 0 -47 3 -76 8s-45 31 -48 76c0 6 1 12 2 18c5 23 18 43 39 60c29 23 68 37 115 42c37 4 76 6 118 6c65 0 151 11 240 14c55 1 96 4 125 7c21 2 41 3 60 3c22 0 47 -3 76 -8s45 -31 48 -76c0 -6 -1 -12 -2 -18c-5 -23 -18 -43 -39 -60
c-29 -23 -68 -37 -115 -42c-37 -4 -76 -6 -118 -6c-65 0 -151 -11 -240 -14c-55 -1 -96 -4 -125 -7c-21 -2 -41 -3 -60 -3z" />
    <glyph glyph-name="degree" unicode="&#xb0;" horiz-adv-x="580" 
d="M472 911c-37 0 -73 11 -109 34c-46 30 -69 73 -69 128c0 17 2 35 6 54c3 17 11 42 24 73s37 66 72 103s76 65 122 82c33 13 66 20 97 20c11 0 31 -2 58 -7c27 -4 52 -25 73 -63c20 -36 30 -72 30 -109c0 -14 -1 -28 -4 -42c-1 -5 -5 -22 -13 -52s-38 -70 -91 -121
c-70 -67 -135 -100 -196 -100zM512 1091h14c8 1 22 12 42 33c7 8 14 20 21 35c5 10 9 19 11 28c1 5 1 12 2 21c0 12 -10 18 -29 18c-48 0 -87 -35 -95 -74c-1 -7 -2 -13 -2 -18c0 -20 11 -43 36 -43z" />
    <glyph glyph-name="plusminus" unicode="&#xb1;" horiz-adv-x="1438" 
d="M650 -98c-50 2 -75 24 -76 67c0 18 1 36 3 54c-112 -6 -180 -10 -205 -13c-57 -7 -113 -10 -169 -10c-34 0 -68 2 -102 5c-29 3 -54 14 -75 32c-13 12 -20 27 -20 44c0 5 1 11 2 17c16 69 57 104 123 104l101 -1c63 0 126 3 190 9c42 4 108 9 198 14
c43 182 73 293 88 333c5 11 8 21 10 30c1 5 1 9 1 14s-1 12 -3 20c-1 8 -20 12 -55 12c-53 -1 -106 -4 -159 -10c-57 -7 -113 -10 -169 -10c-34 0 -68 2 -102 5c-29 3 -54 14 -75 32c-13 12 -19 27 -19 46c0 6 1 13 2 20c18 66 59 99 122 99l101 -1c63 0 126 3 190 9
c61 6 104 9 131 9c53 0 83 4 90 11c4 4 17 52 38 145c41 183 71 297 91 341c4 7 12 16 23 27c36 34 65 51 87 51c8 0 15 -4 22 -13c13 -16 27 -15 34 -46c3 -13 4 -27 4 -44c0 -32 -5 -71 -15 -117c-15 -70 -35 -152 -62 -247c-12 -41 -19 -65 -21 -73c-1 -3 -1 -7 -2 -12
v-1c0 -5 5 -8 16 -8l19 1c14 2 32 3 55 4c23 0 52 3 71 3c36 0 72 2 109 6c22 2 46 4 72 5c18 1 35 2 50 3c35 4 68 6 101 6c65 0 104 -6 118 -18c7 -6 14 -22 23 -49c3 -8 4 -16 4 -24c0 -5 -1 -10 -2 -15c-7 -34 -30 -60 -68 -77c-25 -11 -63 -19 -115 -22
s-101 -6 -148 -7c-179 -3 -296 -11 -351 -22c-16 -35 -39 -125 -70 -268l-31 -139c111 5 170 8 177 8c36 0 73 2 110 6c22 2 46 4 72 5c18 1 35 2 50 3c34 4 67 6 100 6c65 0 104 -6 119 -18c7 -6 14 -22 22 -49c3 -9 4 -17 4 -25c0 -5 0 -9 -1 -14c-7 -34 -30 -60 -68 -77
c-25 -11 -63 -19 -115 -22s-102 -6 -149 -7c-143 -6 -267 -12 -371 -17c-21 -61 -49 -101 -86 -120c-13 -7 -26 -10 -39 -10z" />
    <glyph glyph-name="acute" unicode="&#xb4;" horiz-adv-x="425" 
d="M362 980c-15 0 -29 3 -43 9c-19 8 -29 22 -29 41c0 5 1 10 2 15c8 37 39 82 93 137c13 13 25 27 36 40c15 20 40 45 73 74c27 23 52 34 75 34c9 0 17 -2 24 -5c23 -11 34 -23 34 -38c0 -4 -4 -29 -4 -33c-6 -28 -19 -54 -38 -77c-50 -62 -95 -112 -136 -150
c-33 -31 -62 -47 -87 -47z" />
    <glyph glyph-name="mu" unicode="&#xb5;" horiz-adv-x="937" 
d="M159 -291c-11 0 -22 1 -33 3c-31 5 -50 14 -56 28c-2 4 -3 11 -3 21c0 21 5 54 14 99c9 39 19 84 32 133c6 23 10 40 12 51c21 103 35 198 62 323c22 105 43 186 62 245c3 11 7 24 12 40c39 168 91 252 158 252c37 0 61 -16 70 -49c5 -19 8 -38 8 -57
c0 -15 -2 -31 -5 -46c-5 -25 -19 -72 -41 -139c-24 -75 -41 -138 -51 -187c-8 -35 -12 -67 -12 -98c0 -15 1 -29 3 -42c4 -37 14 -56 29 -56c25 0 63 41 113 123c34 55 64 110 90 163c33 68 56 115 67 141c73 178 138 267 193 267c7 0 15 -2 23 -5c32 -14 50 -34 55 -59
c2 -8 3 -17 3 -26c0 -13 -2 -26 -5 -40c-4 -17 -15 -54 -32 -112c-21 -67 -42 -152 -64 -256c-5 -23 -8 -55 -8 -95c0 -23 1 -50 3 -79c1 -16 4 -35 9 -56c7 -33 11 -63 11 -92c0 -17 -1 -33 -4 -48c-7 -31 -27 -54 -61 -69c-23 -10 -43 -15 -60 -15c-14 0 -29 5 -44 14
c-26 17 -42 61 -49 134c-3 33 -9 49 -17 49c-7 0 -23 -14 -50 -41c-77 -78 -149 -117 -217 -117l-37 1c-7 0 -16 3 -25 9c-11 -48 -20 -89 -27 -122l-7 -37c-2 -19 -5 -38 -9 -57c-1 -5 -4 -14 -7 -28c-7 -29 -42 -68 -105 -68z" />
    <glyph glyph-name="paragraph" unicode="&#xb6;" horiz-adv-x="1087" 
d="M1163 1374h-40c-33 -132 -63 -263 -90 -393c-19 -90 -52 -249 -98 -476c-36 -171 -66 -307 -89 -410l-15 -76c-6 -37 -13 -76 -21 -115c-2 -9 -6 -29 -13 -58c-7 -30 -20 -59 -39 -88c-23 -33 -50 -49 -81 -49c-11 0 -22 2 -33 6c-29 10 -46 29 -50 57c-1 3 -1 6 -1 10
c0 34 13 112 39 233c17 81 38 171 61 270c11 47 19 81 24 104c21 103 42 206 61 309c20 103 44 218 71 346l34 158c15 71 30 129 44 176l-132 -3c-9 0 -17 0 -26 -1c-33 -131 -63 -261 -90 -390c-19 -91 -52 -250 -97 -477c-37 -172 -67 -309 -90 -412l-15 -76
c-6 -37 -13 -76 -21 -115c-2 -9 -6 -29 -13 -58s-20 -58 -39 -87c-23 -33 -50 -50 -81 -50c-11 0 -22 2 -33 6c-29 10 -46 29 -50 58c-1 3 -1 6 -1 10c0 33 13 111 39 233c17 80 38 170 61 270c11 47 19 81 24 104c21 103 42 206 62 309s43 219 70 347
c-117 22 -176 84 -176 186c0 22 3 46 8 72c38 177 157 265 356 265c49 0 134 1 257 4c93 0 167 -1 222 -2l41 1c21 2 42 3 63 3c5 0 16 0 32 -1c16 0 30 -7 42 -20c10 -11 15 -25 15 -43c0 -8 -1 -17 -3 -27c-2 -11 -5 -22 -10 -34c-13 -32 -28 -53 -45 -63
c-16 -9 -61 -13 -134 -13z" />
    <glyph glyph-name="middot" unicode="&#xb7;" horiz-adv-x="508" 
d="M287 643c-21 0 -42 6 -63 17c-32 18 -50 40 -54 66c-1 5 -1 10 -1 15c0 10 1 21 4 33c13 61 42 105 88 130c31 17 62 26 95 26c2 0 12 0 30 -1s36 -13 55 -36c17 -19 25 -41 25 -66c0 -8 -1 -16 -3 -25s-9 -28 -20 -56c-11 -27 -39 -54 -83 -81c-23 -15 -48 -22 -73 -22z
" />
    <glyph glyph-name="middot" unicode="&#x2219;" horiz-adv-x="508" 
d="M287 643c-21 0 -42 6 -63 17c-32 18 -50 40 -54 66c-1 5 -1 10 -1 15c0 10 1 21 4 33c13 61 42 105 88 130c31 17 62 26 95 26c2 0 12 0 30 -1s36 -13 55 -36c17 -19 25 -41 25 -66c0 -8 -1 -16 -3 -25s-9 -28 -20 -56c-11 -27 -39 -54 -83 -81c-23 -15 -48 -22 -73 -22z
" />
    <glyph glyph-name="cedilla" unicode="&#xb8;" horiz-adv-x="466" 
d="M72 -132c9 41 43 81 104 120s105 58 131 58c29 0 44 -10 44 -30c0 -3 0 -7 -1 -10c-5 -21 -21 -42 -49 -63c-27 -21 -43 -42 -48 -62c-1 -4 -1 -8 -1 -12c0 -21 9 -43 28 -67c17 -21 26 -45 26 -72c0 -9 -1 -18 -3 -28c-9 -42 -42 -82 -98 -121
c-55 -39 -101 -59 -138 -59c-29 0 -44 10 -44 29c0 3 0 7 1 10c6 27 23 49 52 66s46 36 50 57c1 4 1 8 1 12c0 21 -10 43 -31 67c-18 22 -27 47 -27 74c0 10 1 20 3 31z" />
    <glyph glyph-name="guillemotright" unicode="&#xbb;" horiz-adv-x="1070" 
d="M149 53c-16 0 -30 4 -42 13c-21 17 -32 33 -32 50c0 3 0 5 1 8c1 4 3 8 5 12c17 35 39 68 68 101c17 19 41 48 72 87c24 31 49 61 74 90c15 17 28 33 40 48c-5 15 -12 31 -20 48c-13 28 -25 58 -36 89c-13 39 -25 68 -34 87c-15 33 -24 66 -26 101c0 4 0 8 1 12
c4 19 22 39 55 58c16 9 32 13 48 13c11 0 21 -2 32 -7c26 -9 46 -30 61 -62c24 -49 38 -114 70 -177l40 -102c5 -13 7 -26 7 -39c0 -7 -1 -14 -2 -21c-4 -20 -14 -40 -31 -60l-84 -103c-57 -63 -99 -128 -144 -177c-28 -32 -57 -53 -88 -62c-13 -5 -24 -7 -35 -7zM486 53
c-16 0 -30 4 -42 13c-21 17 -32 33 -32 50c0 3 0 5 1 8c1 4 3 8 5 12c17 35 39 68 68 101c17 19 41 48 72 87c24 31 49 61 74 90c15 17 28 33 40 48c-5 15 -12 31 -20 48c-13 28 -25 58 -36 89c-13 39 -25 68 -34 87c-15 33 -24 66 -26 101c0 4 0 8 1 12c4 19 22 39 55 58
c16 9 32 13 48 13c11 0 21 -2 32 -7c27 -9 47 -30 61 -62c24 -49 38 -114 70 -177l40 -102c5 -13 8 -25 8 -38c0 -7 -1 -15 -3 -22c-4 -20 -14 -40 -30 -60l-84 -103c-59 -63 -100 -128 -145 -177c-28 -32 -57 -53 -88 -62c-13 -5 -24 -7 -35 -7z" />
    <glyph glyph-name="onequarter" unicode="&#xbc;" horiz-adv-x="1932" 
d="M262 525c-27 0 -51 4 -70 11c-23 9 -34 27 -34 52c0 7 1 14 2 21c9 43 42 68 97 75c21 2 39 3 55 3c9 0 14 0 15 1s4 13 9 35c9 53 32 168 70 345l29 125c-12 -4 -24 -6 -36 -6c-8 0 -37 -3 -49 28c-2 6 -3 12 -3 18c0 3 0 7 1 10c6 29 38 65 95 110c13 9 21 17 25 22
c29 30 61 45 96 45c22 0 41 -7 58 -20c15 -13 23 -31 23 -56c0 -5 0 -10 -1 -16c-1 -20 -4 -38 -7 -55c-5 -25 -16 -66 -32 -123c-16 -63 -31 -129 -45 -196l-18 -91l-22 -103c-5 -23 -9 -44 -10 -63c1 -1 5 -1 14 -1c11 0 34 3 70 9c9 2 17 3 26 3c18 0 35 -5 51 -14
c16 -10 24 -25 24 -46c0 -6 -1 -12 -2 -19c-13 -62 -70 -93 -170 -93c-94 0 -155 -2 -183 -5c-23 -3 -49 -5 -78 -6zM457 -168c-9 0 -17 2 -26 5c-36 11 -54 34 -54 67c0 7 1 15 3 24c8 39 46 102 113 191c78 103 135 175 171 218c22 26 43 52 64 79
c111 145 274 335 489 570c67 73 121 133 162 181c36 42 73 83 111 124c71 76 125 114 161 114c23 0 40 -13 50 -40c8 -20 12 -37 12 -51c0 -5 -1 -10 -2 -15c0 -1 -1 -7 -4 -16c-2 -9 -14 -28 -37 -56c-86 -105 -179 -210 -279 -313c-152 -157 -315 -347 -489 -570
c-32 -41 -65 -82 -99 -123c-89 -108 -149 -189 -182 -242c-60 -98 -115 -147 -164 -147zM1696 0c-47 0 -71 26 -71 79c0 16 2 34 6 55c11 47 32 125 64 233c-21 -1 -65 -5 -133 -13c-71 -9 -132 -13 -182 -13c-21 0 -40 2 -59 7c-50 12 -75 35 -75 70c0 6 1 12 2 19
c7 33 38 80 93 143c145 161 235 265 271 314c21 27 44 54 71 81s57 40 92 40c51 0 77 -16 77 -48c0 -5 -1 -10 -2 -16c-1 -7 -4 -13 -8 -20c-43 -85 -140 -192 -285 -347c-38 -41 -61 -68 -70 -81c23 0 38 3 89 7l161 15c9 30 31 111 66 242c25 94 45 154 62 181
c27 43 58 65 93 65c47 0 71 -24 71 -73c0 -13 -2 -29 -5 -46c-5 -24 -11 -47 -18 -68c-13 -39 -26 -85 -41 -137c-9 -33 -18 -66 -29 -99c-8 -27 -14 -48 -18 -64h4c8 0 25 -6 52 -19c21 -10 32 -26 32 -48c0 -6 -1 -12 -2 -18c-2 -9 -11 -22 -26 -39s-28 -26 -41 -28
s-34 -3 -65 -4c-23 -107 -40 -184 -51 -229c-23 -94 -64 -141 -125 -141z" />
    <glyph glyph-name="onehalf" unicode="&#xbd;" horiz-adv-x="1846" 
d="M262 525c-27 0 -51 4 -70 11c-23 9 -34 27 -34 52c0 7 1 14 2 21c9 43 42 68 97 75c21 2 39 3 55 3c9 0 14 0 15 1s4 13 9 35c9 53 32 168 70 345l29 125c-12 -4 -24 -6 -36 -6c-8 0 -37 -3 -49 28c-2 6 -3 12 -3 18c0 3 0 7 1 10c6 29 38 65 95 110c13 9 21 17 25 22
c29 30 61 45 96 45c22 0 41 -7 58 -20c15 -13 23 -31 23 -56c0 -5 0 -10 -1 -16c-1 -20 -4 -38 -7 -55c-5 -25 -16 -66 -32 -123c-16 -63 -31 -129 -45 -196l-18 -91l-22 -103c-5 -23 -9 -44 -10 -63c1 -1 5 -1 14 -1c11 0 34 3 70 9c9 2 17 3 26 3c18 0 35 -5 51 -14
c16 -10 24 -25 24 -46c0 -6 -1 -12 -2 -19c-13 -62 -70 -93 -170 -93c-94 0 -155 -2 -183 -5c-23 -3 -49 -5 -78 -6zM457 -168c-9 0 -17 2 -26 5c-36 11 -54 34 -54 67c0 7 1 15 3 24c8 39 46 102 113 191c78 103 135 175 171 218c22 26 43 52 64 79
c111 145 274 335 489 570c67 73 121 133 162 181c36 42 73 83 111 124c71 76 125 114 161 114c23 0 40 -13 50 -40c8 -20 12 -37 12 -51c0 -5 -1 -10 -2 -15c0 -1 -1 -7 -4 -16c-2 -9 -14 -28 -37 -56c-86 -105 -179 -210 -279 -313c-152 -157 -315 -347 -489 -570
c-32 -41 -65 -82 -99 -123c-89 -108 -149 -189 -182 -242c-60 -98 -115 -147 -164 -147zM1331 0c-14 0 -33 1 -57 2c-23 1 -45 10 -65 25c-21 17 -31 35 -31 54c0 5 0 9 1 13c1 5 4 14 11 29c11 25 77 88 196 188c103 85 196 169 280 292c25 35 39 63 44 84c1 4 1 8 1 13
c0 9 -3 18 -8 27c-5 10 -22 18 -51 23c-6 1 -12 2 -18 2c-33 0 -67 -14 -101 -41c-37 -31 -72 -47 -107 -47c-21 0 -39 9 -54 28c-6 9 -9 18 -9 29c0 4 0 8 1 12c15 57 58 103 129 136c62 29 122 44 181 44c42 0 84 -10 125 -29c42 -19 72 -53 89 -100c7 -18 10 -36 10 -55
c0 -12 -1 -24 -4 -36c0 -3 -4 -37 -41 -100c-62 -107 -160 -219 -294 -337l-108 -95c3 1 7 1 12 1c21 0 61 2 122 6c31 2 67 3 108 3c84 0 126 -22 126 -65c0 -5 -1 -10 -2 -16c-11 -51 -58 -79 -142 -83l-63 -1l-66 1c-89 -5 -161 -7 -215 -7z" />
    <glyph glyph-name="threequarters" unicode="&#xbe;" horiz-adv-x="2143" 
d="M442 525c-139 0 -222 14 -251 41c-13 12 -20 27 -20 44c0 5 1 11 2 16c1 6 4 13 7 20c20 40 52 60 96 60c11 0 21 -1 31 -3c57 -12 110 -18 158 -18c40 0 80 5 119 15c47 11 190 70 198 121c1 2 1 4 1 5c0 11 -7 22 -21 33c-30 23 -63 36 -98 38c-15 1 -31 2 -47 2
c-25 0 -50 -1 -76 -4c-33 -3 -62 -5 -87 -5c-11 0 -28 1 -51 3c-22 2 -39 14 -51 35c-6 11 -9 21 -9 30c0 3 0 7 1 10c8 38 58 75 149 112c80 33 138 71 174 116c15 19 24 35 27 48c1 1 1 3 1 5c0 3 -1 7 -3 12c-4 9 -22 13 -53 13c-63 0 -111 -17 -143 -52
c-39 -43 -77 -64 -112 -64c-15 0 -29 4 -40 11c-20 14 -30 31 -30 51c0 4 0 8 1 13c7 30 25 59 54 88c77 75 176 113 297 113h60c37 -1 74 -20 111 -59c30 -31 45 -63 45 -97c0 -9 -1 -17 -3 -26c0 -1 -3 -13 -9 -36c-5 -22 -27 -55 -65 -98c-28 -31 -49 -52 -62 -63
c97 -21 164 -60 201 -118c17 -25 25 -52 25 -79c0 -11 -1 -22 -4 -33c-11 -51 -39 -96 -84 -136s-98 -73 -158 -99c-97 -43 -190 -65 -281 -65zM668 -168c-9 0 -17 2 -26 5c-36 11 -54 34 -54 67c0 7 1 15 3 24c8 39 46 102 113 191c78 103 135 175 171 218
c22 26 43 52 64 79c111 145 274 335 489 570c67 73 121 133 162 181c36 42 73 83 111 124c71 76 125 114 161 114c23 0 40 -13 50 -40c8 -20 12 -37 12 -51c0 -5 -1 -10 -2 -15c0 -1 -1 -7 -4 -16c-2 -9 -14 -28 -37 -56c-86 -105 -179 -210 -279 -313
c-152 -157 -315 -347 -489 -570c-32 -41 -65 -82 -99 -123c-89 -108 -149 -189 -182 -242c-60 -98 -115 -147 -164 -147zM1907 0c-47 0 -71 26 -71 79c0 16 2 34 6 55c11 47 32 125 64 233c-21 -1 -65 -5 -133 -13c-71 -9 -132 -13 -182 -13c-21 0 -40 2 -59 7
c-50 12 -75 35 -75 70c0 6 1 12 2 19c7 33 38 80 93 143c145 161 235 265 271 314c21 27 44 54 71 81s57 40 92 40c51 0 77 -16 77 -48c0 -5 -1 -10 -2 -16c-1 -7 -4 -13 -8 -20c-43 -85 -140 -192 -285 -347c-38 -41 -61 -68 -70 -81c23 0 38 3 89 7l161 15
c9 30 31 111 66 242c25 94 45 154 62 181c27 43 58 65 93 65c47 0 71 -24 71 -73c0 -13 -2 -29 -5 -46c-5 -24 -11 -47 -18 -68c-13 -39 -26 -85 -41 -137c-9 -33 -18 -66 -29 -99c-8 -27 -14 -48 -18 -64h4c8 0 25 -6 52 -19c21 -10 32 -26 32 -48c0 -6 -1 -12 -2 -18
c-2 -9 -11 -22 -26 -39s-28 -26 -41 -28s-34 -3 -65 -4c-23 -107 -40 -184 -51 -229c-23 -94 -64 -141 -125 -141z" />
    <glyph glyph-name="questiondown" unicode="&#xbf;" horiz-adv-x="640" 
d="M661 496c26 0 44 -4 53 -11c17 -12 26 -34 26 -66c0 -17 -2 -36 -7 -58c-1 -5 -5 -19 -12 -44c-6 -25 -18 -60 -35 -106s-32 -82 -44 -108c-25 -56 -52 -101 -81 -134c-29 -34 -69 -69 -122 -106c-44 -30 -87 -63 -129 -99c-42 -37 -71 -76 -87 -117c-3 -5 -4 -11 -5 -17
c-1 -7 -2 -14 -2 -21c0 -28 13 -56 39 -85c20 -22 41 -33 62 -33c6 0 17 2 33 6c16 3 40 20 73 49c16 14 32 21 48 21c29 0 53 -15 72 -44c4 -5 7 -9 10 -12c5 -6 7 -13 7 -20c0 -3 0 -6 -1 -9l-4 -13c-44 -120 -134 -180 -270 -180c-49 0 -93 12 -132 36
c-54 32 -95 76 -122 132c-15 33 -23 68 -23 105c0 21 2 42 7 64c17 82 60 157 129 224c75 74 152 139 230 196c34 25 60 52 77 81c23 39 42 93 59 162l3 13c19 84 51 198 148 194zM743 886c5 0 19 -2 40 -7c21 -4 40 -24 57 -61c5 -13 8 -26 8 -40c0 -7 -1 -15 -2 -23
c-3 -17 -13 -34 -28 -51c-37 -39 -71 -59 -102 -59c-6 0 -19 2 -40 7s-37 26 -48 62c-4 11 -6 23 -6 35c0 8 1 16 3 25c3 17 11 34 24 51c31 41 62 61 94 61z" />
    <glyph glyph-name="Agrave" unicode="&#xc0;" 
d="M534 530c11 0 58 4 141 11c11 1 30 2 55 2c39 0 79 -4 114 -4c22 0 43 1 64 3c9 1 19 -3 23 14c5 22 7 56 7 102c0 43 -2 97 -6 161c-3 36 -4 72 -4 107c0 14 0 28 1 42c1 21 1 41 1 62s0 41 -1 62c-1 10 -1 15 -1 16c-10 0 -75 -85 -194 -256c-9 -13 -46 -66 -113 -159
c-69 -96 -104 -150 -107 -161c1 -1 8 -2 20 -2zM86 -19c-3 0 -12 2 -26 5c-13 3 -26 16 -37 39c-7 15 -11 31 -11 49c0 9 1 19 3 29c10 46 71 148 182 306l128 185c144 208 291 412 442 612c11 15 24 30 38 46c18 20 33 38 45 55c66 95 127 143 184 143c28 0 55 -15 81 -45
c22 -26 33 -66 33 -119c0 -54 -2 -104 -6 -149c-6 -62 -9 -125 -9 -190c0 -41 1 -83 4 -125c1 -31 4 -134 8 -311c2 -68 3 -128 3 -179c0 -110 -4 -184 -12 -221c-2 -7 -6 -19 -11 -37s-16 -37 -33 -57s-41 -30 -72 -30c-35 0 -58 12 -70 36c-9 19 -14 48 -14 85
c0 23 2 48 5 77l5 53c1 9 1 17 1 25c0 32 -7 54 -20 65s-61 17 -146 17c-65 0 -145 -4 -241 -11l-40 -2c-67 -1 -112 -10 -133 -27c-27 -21 -57 -61 -91 -119c-20 -32 -41 -64 -62 -95c-49 -73 -92 -110 -128 -110zM1061 1599c-25 0 -47 16 -68 47c-25 38 -49 88 -72 150
c-5 14 -8 29 -8 44c0 11 1 22 4 33c1 2 3 11 7 28c5 17 22 31 53 43c7 3 16 5 25 5c24 0 44 -11 60 -34c21 -29 36 -54 43 -74c5 -13 11 -27 18 -40c25 -44 38 -82 38 -115c0 -8 -1 -15 -2 -22c-6 -27 -23 -46 -52 -56c-17 -6 -32 -9 -46 -9z" />
    <glyph glyph-name="Aacute" unicode="&#xc1;" 
d="M534 530c11 0 58 4 141 11c11 1 30 2 55 2c39 0 79 -4 114 -4c22 0 43 1 64 3c9 1 19 -3 23 14c5 22 7 56 7 102c0 43 -2 97 -6 161c-3 36 -4 72 -4 107c0 14 0 28 1 42c1 21 1 41 1 62s0 41 -1 62c-1 10 -1 15 -1 16c-10 0 -75 -85 -194 -256c-9 -13 -46 -66 -113 -159
c-69 -96 -104 -150 -107 -161c1 -1 8 -2 20 -2zM86 -19c-3 0 -12 2 -26 5c-13 3 -26 16 -37 39c-7 15 -11 31 -11 49c0 9 1 19 3 29c10 46 71 148 182 306l128 185c144 208 291 412 442 612c11 15 24 30 38 46c18 20 33 38 45 55c66 95 127 143 184 143c28 0 55 -15 81 -45
c22 -26 33 -66 33 -119c0 -54 -2 -104 -6 -149c-6 -62 -9 -125 -9 -190c0 -41 1 -83 4 -125c1 -31 4 -134 8 -311c2 -68 3 -128 3 -179c0 -110 -4 -184 -12 -221c-2 -7 -6 -19 -11 -37s-16 -37 -33 -57s-41 -30 -72 -30c-35 0 -58 12 -70 36c-9 19 -14 48 -14 85
c0 23 2 48 5 77l5 53c1 9 1 17 1 25c0 32 -7 54 -20 65s-61 17 -146 17c-65 0 -145 -4 -241 -11l-40 -2c-67 -1 -112 -10 -133 -27c-27 -21 -57 -61 -91 -119c-20 -32 -41 -64 -62 -95c-49 -73 -92 -110 -128 -110zM1073 1558c-15 0 -29 3 -43 9c-19 8 -29 22 -29 41
c0 5 1 10 2 15c8 37 39 82 93 137c14 13 26 27 36 40c15 20 40 45 73 74c27 23 52 34 75 34c9 0 17 -2 24 -5c23 -11 34 -23 34 -38c0 -4 -4 -29 -4 -33c-6 -28 -19 -54 -38 -77c-50 -62 -95 -112 -136 -150c-33 -31 -62 -47 -87 -47z" />
    <glyph glyph-name="Acircumflex" unicode="&#xc2;" 
d="M534 530c11 0 58 4 141 11c11 1 30 2 55 2c39 0 79 -4 114 -4c22 0 43 1 64 3c9 1 19 -3 23 14c5 22 7 56 7 102c0 43 -2 97 -6 161c-3 36 -4 72 -4 107c0 14 0 28 1 42c1 21 1 41 1 62s0 41 -1 62c-1 10 -1 15 -1 16c-10 0 -75 -85 -194 -256c-9 -13 -46 -66 -113 -159
c-69 -96 -104 -150 -107 -161c1 -1 8 -2 20 -2zM86 -19c-3 0 -12 2 -26 5c-13 3 -26 16 -37 39c-7 15 -11 31 -11 49c0 9 1 19 3 29c10 46 71 148 182 306l128 185c144 208 291 412 442 612c11 15 24 30 38 46c18 20 33 38 45 55c66 95 127 143 184 143c28 0 55 -15 81 -45
c22 -26 33 -66 33 -119c0 -54 -2 -104 -6 -149c-6 -62 -9 -125 -9 -190c0 -41 1 -83 4 -125c1 -31 4 -134 8 -311c2 -68 3 -128 3 -179c0 -110 -4 -184 -12 -221c-2 -7 -6 -19 -11 -37s-16 -37 -33 -57s-41 -30 -72 -30c-35 0 -58 12 -70 36c-9 19 -14 48 -14 85
c0 23 2 48 5 77l5 53c1 9 1 17 1 25c0 32 -7 54 -20 65s-61 17 -146 17c-65 0 -145 -4 -241 -11l-40 -2c-67 -1 -112 -10 -133 -27c-27 -21 -57 -61 -91 -119c-20 -32 -41 -64 -62 -95c-49 -73 -92 -110 -128 -110zM1234 1569c-49 0 -88 70 -125 159
c-76 -89 -143 -159 -192 -159c-15 0 -29 3 -43 9c-19 8 -29 22 -29 41c0 5 1 10 2 15c7 35 38 81 93 137c13 13 25 27 35 40c16 20 41 45 74 74c26 23 51 34 76 34h48c25 0 45 -11 62 -34c21 -29 36 -54 43 -74c5 -13 11 -27 18 -40c25 -45 37 -84 37 -115
c0 -8 -1 -15 -2 -22c-6 -27 -23 -46 -51 -56c-17 -6 -32 -9 -46 -9z" />
    <glyph glyph-name="Atilde" unicode="&#xc3;" 
d="M534 530c11 0 58 4 141 11c11 1 30 2 55 2c39 0 79 -4 114 -4c22 0 43 1 64 3c9 1 19 -3 23 14c5 22 7 56 7 102c0 43 -2 97 -6 161c-3 36 -4 72 -4 107c0 14 0 28 1 42c1 21 1 41 1 62s0 41 -1 62c-1 10 -1 15 -1 16c-10 0 -75 -85 -194 -256c-9 -13 -46 -66 -113 -159
c-69 -96 -104 -150 -107 -161c1 -1 8 -2 20 -2zM86 -19c-3 0 -12 2 -26 5c-13 3 -26 16 -37 39c-7 15 -11 31 -11 49c0 9 1 19 3 29c10 46 71 148 182 306l128 185c144 208 291 412 442 612c11 15 24 30 38 46c18 20 33 38 45 55c66 95 127 143 184 143c28 0 55 -15 81 -45
c22 -26 33 -66 33 -119c0 -54 -2 -104 -6 -149c-6 -62 -9 -125 -9 -190c0 -41 1 -83 4 -125c1 -31 4 -134 8 -311c2 -68 3 -128 3 -179c0 -110 -4 -184 -12 -221c-2 -7 -6 -19 -11 -37s-16 -37 -33 -57s-41 -30 -72 -30c-35 0 -58 12 -70 36c-9 19 -14 48 -14 85
c0 23 2 48 5 77l5 53c1 9 1 17 1 25c0 32 -7 54 -20 65s-61 17 -146 17c-65 0 -145 -4 -241 -11l-40 -2c-67 -1 -112 -10 -133 -27c-27 -21 -57 -61 -91 -119c-20 -32 -41 -64 -62 -95c-49 -73 -92 -110 -128 -110zM1189 1556c-52 0 -94 16 -125 47s-62 47 -91 47
c-26 0 -53 -13 -81 -38c-27 -25 -58 -38 -93 -38c-27 0 -41 11 -41 34c0 5 1 11 2 17c7 37 41 79 101 126c61 47 118 71 172 71c49 0 88 -15 119 -44s61 -43 92 -43c26 0 55 12 87 35s62 35 89 35c28 0 42 -12 42 -35c0 -5 -1 -11 -2 -17c-5 -25 -39 -65 -100 -118
s-118 -79 -171 -79z" />
    <glyph glyph-name="Adieresis" unicode="&#xc4;" 
d="M534 530c11 0 58 4 141 11c11 1 30 2 55 2c39 0 79 -4 114 -4c22 0 43 1 64 3c9 1 19 -3 23 14c5 22 7 56 7 102c0 43 -2 97 -6 161c-3 36 -4 72 -4 107c0 14 0 28 1 42c1 21 1 41 1 62s0 41 -1 62c-1 10 -1 15 -1 16c-10 0 -75 -85 -194 -256c-9 -13 -46 -66 -113 -159
c-69 -96 -104 -150 -107 -161c1 -1 8 -2 20 -2zM86 -19c-3 0 -12 2 -26 5c-13 3 -26 16 -37 39c-7 15 -11 31 -11 49c0 9 1 19 3 29c10 46 71 148 182 306l128 185c144 208 291 412 442 612c11 15 24 30 38 46c18 20 33 38 45 55c66 95 127 143 184 143c28 0 55 -15 81 -45
c22 -26 33 -66 33 -119c0 -54 -2 -104 -6 -149c-6 -62 -9 -125 -9 -190c0 -41 1 -83 4 -125c1 -31 4 -134 8 -311c2 -68 3 -128 3 -179c0 -110 -4 -184 -12 -221c-2 -7 -6 -19 -11 -37s-16 -37 -33 -57s-41 -30 -72 -30c-35 0 -58 12 -70 36c-9 19 -14 48 -14 85
c0 23 2 48 5 77l5 53c1 9 1 17 1 25c0 32 -7 54 -20 65s-61 17 -146 17c-65 0 -145 -4 -241 -11l-40 -2c-67 -1 -112 -10 -133 -27c-27 -21 -57 -61 -91 -119c-20 -32 -41 -64 -62 -95c-49 -73 -92 -110 -128 -110zM951 1576l-21 1c-38 8 -57 30 -57 67c0 9 1 20 4 31
c9 44 33 74 70 90c19 8 38 12 56 12c6 0 16 -1 31 -4c15 -2 26 -14 33 -35c5 -13 8 -26 8 -39c0 -7 -1 -15 -3 -22c-4 -21 -14 -40 -31 -58c-27 -29 -57 -43 -90 -43zM1209 1576l-21 1c-38 8 -57 30 -57 67c0 9 1 20 4 31c9 44 33 74 70 90c19 8 38 12 56 12
c6 0 16 -1 31 -4c15 -2 26 -14 33 -35c5 -13 8 -26 8 -39c0 -7 -1 -15 -3 -22c-4 -21 -14 -40 -31 -58c-27 -29 -57 -43 -90 -43z" />
    <glyph glyph-name="Aring" unicode="&#xc5;" 
d="M534 530c11 0 58 4 141 11c11 1 30 2 55 2c39 0 79 -4 114 -4c22 0 43 1 64 3c9 1 19 -3 23 14c5 22 7 56 7 102c0 43 -2 97 -6 161c-3 36 -4 72 -4 107c0 14 0 28 1 42c1 21 1 41 1 62s0 41 -1 62c-1 10 -1 15 -1 16c-10 0 -75 -85 -194 -256c-9 -13 -46 -66 -113 -159
c-69 -96 -104 -150 -107 -161c1 -1 8 -2 20 -2zM86 -19c-3 0 -12 2 -26 5c-13 3 -26 16 -37 39c-7 15 -11 31 -11 49c0 9 1 19 3 29c10 46 71 148 182 306l128 185c144 208 291 412 442 612c11 15 24 30 38 46c18 20 33 38 45 55c66 95 127 143 184 143c28 0 55 -15 81 -45
c22 -26 33 -66 33 -119c0 -54 -2 -104 -6 -149c-6 -62 -9 -125 -9 -190c0 -41 1 -83 4 -125c1 -31 4 -134 8 -311c2 -68 3 -128 3 -179c0 -110 -4 -184 -12 -221c-2 -7 -6 -19 -11 -37s-16 -37 -33 -57s-41 -30 -72 -30c-35 0 -58 12 -70 36c-9 19 -14 48 -14 85
c0 23 2 48 5 77l5 53c1 9 1 17 1 25c0 32 -7 54 -20 65s-61 17 -146 17c-65 0 -145 -4 -241 -11l-40 -2c-67 -1 -112 -10 -133 -27c-27 -21 -57 -61 -91 -119c-20 -32 -41 -64 -62 -95c-49 -73 -92 -110 -128 -110zM1085 1620h5c48 3 95 41 106 89c1 6 2 12 2 18
c0 33 -23 69 -71 69c-57 0 -96 -39 -105 -87c-1 -7 -2 -14 -2 -21c0 -31 20 -68 65 -68zM1061 1485c-62 0 -111 20 -146 61c-25 29 -38 65 -38 107c0 17 2 34 6 53c13 64 47 118 100 162s111 66 173 66s112 -21 151 -63c26 -29 39 -63 39 -102c0 -15 -2 -30 -5 -45
c-15 -69 -50 -127 -107 -173c-53 -44 -111 -66 -173 -66z" />
    <glyph glyph-name="AE" unicode="&#xc6;" horiz-adv-x="1867" 
d="M534 530c11 0 58 4 141 11c11 1 30 2 55 2c39 0 79 -4 114 -4c22 0 43 1 64 3c9 1 19 -3 23 14c5 22 7 56 7 102c0 43 -2 97 -6 161c-3 36 -4 72 -4 107c0 14 0 28 1 42c1 21 1 41 1 62s0 41 -1 62c-1 10 -1 15 -1 16c-9 0 -74 -85 -194 -256c-9 -13 -46 -66 -113 -159
c-69 -96 -104 -150 -107 -161c1 -1 8 -2 20 -2zM1099 -93c-53 0 -87 5 -101 16c-27 20 -31 44 -51 72c-9 13 -14 34 -14 61c0 13 1 28 3 45c0 19 4 64 11 137c1 7 1 14 1 21c0 34 -7 57 -20 68c-13 12 -62 18 -147 18c-65 0 -145 -4 -241 -11l-40 -2
c-67 -1 -112 -10 -133 -27c-27 -21 -57 -61 -91 -119c-20 -32 -41 -64 -62 -95c-49 -73 -92 -110 -128 -110c-3 0 -12 2 -26 5c-13 3 -26 16 -37 39c-7 15 -11 31 -11 49c0 9 1 19 3 29c10 46 71 148 182 306l128 185c144 208 291 412 442 612c11 15 24 30 38 46
c18 20 33 38 45 55c66 95 127 143 184 143c28 0 55 -15 81 -45c22 -26 33 -66 33 -119c0 -54 -2 -104 -6 -149c-6 -62 -9 -125 -9 -190c0 -41 1 -83 4 -125l2 -79c11 23 20 49 29 80c59 208 93 329 100 362c3 15 5 28 5 39c0 27 -8 46 -24 57c-8 5 -12 11 -12 19l1 5
c25 79 90 126 196 140l90 11c69 8 140 20 213 35c99 21 186 32 262 32c11 0 31 -1 61 -3c30 -1 51 -16 64 -43c7 -16 11 -31 11 -45c0 -7 -1 -13 -2 -19c-11 -50 -51 -80 -120 -90c-45 -7 -93 -11 -143 -14c-57 -3 -118 -9 -185 -18c-97 -14 -158 -28 -181 -41
s-56 -106 -97 -281c-5 -23 -17 -58 -35 -107c-11 -32 -20 -62 -26 -90c-1 -3 -1 -7 -2 -11v-1c0 -3 6 -5 17 -5c29 0 70 5 122 15c52 11 98 16 139 16c15 0 33 -1 56 -3s39 -10 50 -24c-1 -3 -1 -7 -1 -10c0 -7 1 -13 4 -20c4 -11 6 -21 6 -32c0 -7 -1 -13 -2 -20
c-1 -5 -5 -15 -10 -30s-20 -29 -46 -42c-21 -10 -91 -21 -210 -33c-103 -11 -165 -22 -184 -33c-17 -9 -36 -44 -57 -105c-37 -108 -67 -216 -90 -323c40 0 86 2 138 6c123 9 241 24 352 45c9 1 19 3 30 6c32 7 57 11 76 11c21 0 37 -5 49 -16c25 -22 38 -45 38 -70
c0 -5 0 -10 -1 -15c-12 -55 -62 -91 -149 -108c-57 -11 -122 -21 -193 -30c-51 -6 -91 -9 -118 -10s-53 -3 -79 -6c-82 -11 -143 -17 -182 -17z" />
    <glyph glyph-name="Ccedilla" unicode="&#xc7;" horiz-adv-x="1114" 
d="M465 -82c-77 22 -146 67 -206 135c-63 72 -95 159 -95 262v3c1 73 9 145 24 217c86 404 284 703 593 897c102 64 209 96 321 96c92 0 170 -27 235 -81c12 -10 23 -26 33 -47c7 -20 11 -37 11 -51c0 -5 0 -9 -1 -13c-3 -14 -12 -34 -27 -60s-38 -39 -69 -39
c-23 0 -50 12 -81 36c-43 32 -96 48 -157 48c-67 0 -133 -20 -197 -59c-111 -69 -200 -152 -265 -251c-93 -139 -155 -284 -188 -437c-7 -33 -15 -80 -24 -143c-3 -19 -4 -38 -4 -56c0 -41 7 -78 20 -113c42 -107 127 -161 255 -161c59 0 121 22 186 67c66 45 117 67 152 67
c9 0 41 3 58 -32c11 -21 16 -41 16 -60c0 -6 -1 -12 -2 -18c-5 -21 -22 -44 -52 -68c-100 -80 -209 -129 -326 -148c-15 -3 -30 -5 -44 -6c-17 -16 -28 -32 -31 -47c-1 -4 -1 -8 -1 -12c0 -21 9 -43 28 -67c17 -21 25 -45 25 -71c0 -9 -1 -19 -3 -29
c-9 -42 -41 -82 -97 -121c-55 -39 -101 -59 -138 -59c-29 0 -44 10 -44 29c0 3 0 7 1 10c6 27 23 49 52 66s45 36 50 57c1 4 1 8 1 11c0 21 -10 43 -31 68c-18 22 -27 47 -27 74c0 10 1 20 3 31c5 25 21 50 46 75z" />
    <glyph glyph-name="Egrave" unicode="&#xc8;" horiz-adv-x="1074" 
d="M307 -93c-54 0 -88 5 -102 16c-27 20 -31 44 -51 72c-9 13 -14 34 -14 61c0 25 4 55 11 92c6 28 15 61 27 100c19 66 33 109 41 129c22 55 35 91 39 110c1 3 1 6 1 9c0 19 -18 40 -34 47c-10 5 -15 14 -15 26c0 3 0 7 1 10c2 11 7 23 15 36c23 41 45 65 64 72
c23 9 40 23 50 44c13 25 24 56 35 92c59 208 93 329 100 362c3 15 5 28 5 39c0 27 -8 46 -24 57c-8 5 -12 11 -12 19l1 5c25 79 90 126 196 140l90 11c69 8 140 20 213 35c99 21 186 32 262 32c11 0 31 -1 61 -3c30 -1 51 -16 64 -43c7 -16 11 -31 11 -45
c0 -7 -1 -13 -2 -19c-11 -50 -51 -80 -120 -90c-45 -7 -93 -11 -143 -14c-57 -3 -118 -9 -185 -18c-97 -14 -158 -28 -181 -41s-56 -106 -97 -281c-5 -23 -17 -58 -35 -107c-11 -32 -20 -62 -26 -90c-1 -3 -1 -7 -2 -11v-1c0 -3 6 -5 17 -5c29 0 70 5 122 15
c52 11 98 16 139 16c15 0 33 -1 56 -3s39 -10 50 -24c-1 -3 -1 -7 -1 -10c0 -7 1 -13 4 -20c4 -11 6 -21 6 -32c0 -7 -1 -13 -2 -20c-1 -5 -5 -15 -10 -30s-20 -29 -46 -42c-21 -10 -91 -21 -210 -33c-103 -11 -165 -22 -184 -33c-17 -9 -36 -44 -57 -105
c-37 -108 -67 -216 -90 -323c40 0 86 2 138 6c123 9 241 24 352 45c9 1 19 3 30 6c32 7 57 11 76 11c21 0 37 -5 49 -16c25 -22 38 -45 38 -70c0 -5 0 -10 -1 -15c-12 -55 -62 -91 -149 -108c-57 -11 -122 -21 -193 -30c-51 -6 -91 -9 -118 -10s-53 -3 -79 -6
c-82 -11 -142 -17 -181 -17zM930 1667c-25 0 -47 16 -68 47c-25 38 -49 88 -72 150c-5 14 -8 29 -8 44c0 11 1 22 4 33c1 2 3 11 7 28c5 17 22 31 53 43c7 3 16 5 25 5c24 0 44 -11 60 -34c21 -29 35 -54 43 -74c5 -13 11 -27 18 -40c25 -43 37 -81 37 -114
c0 -8 -1 -16 -2 -23c-5 -27 -22 -46 -51 -56c-17 -6 -32 -9 -46 -9z" />
    <glyph glyph-name="Eacute" unicode="&#xc9;" horiz-adv-x="1074" 
d="M307 -93c-54 0 -88 5 -102 16c-27 20 -31 44 -51 72c-9 13 -14 34 -14 61c0 25 4 55 11 92c6 28 15 61 27 100c19 66 33 109 41 129c22 55 35 91 39 110c1 3 1 6 1 9c0 19 -18 40 -34 47c-10 5 -15 14 -15 26c0 3 0 7 1 10c2 11 7 23 15 36c23 41 45 65 64 72
c23 9 40 23 50 44c13 25 24 56 35 92c59 208 93 329 100 362c3 15 5 28 5 39c0 27 -8 46 -24 57c-8 5 -12 11 -12 19l1 5c25 79 90 126 196 140l90 11c69 8 140 20 213 35c99 21 186 32 262 32c11 0 31 -1 61 -3c30 -1 51 -16 64 -43c7 -16 11 -31 11 -45
c0 -7 -1 -13 -2 -19c-11 -50 -51 -80 -120 -90c-45 -7 -93 -11 -143 -14c-57 -3 -118 -9 -185 -18c-97 -14 -158 -28 -181 -41s-56 -106 -97 -281c-5 -23 -17 -58 -35 -107c-11 -32 -20 -62 -26 -90c-1 -3 -1 -7 -2 -11v-1c0 -3 6 -5 17 -5c29 0 70 5 122 15
c52 11 98 16 139 16c15 0 33 -1 56 -3s39 -10 50 -24c-1 -3 -1 -7 -1 -10c0 -7 1 -13 4 -20c4 -11 6 -21 6 -32c0 -7 -1 -13 -2 -20c-1 -5 -5 -15 -10 -30s-20 -29 -46 -42c-21 -10 -91 -21 -210 -33c-103 -11 -165 -22 -184 -33c-17 -9 -36 -44 -57 -105
c-37 -108 -67 -216 -90 -323c40 0 86 2 138 6c123 9 241 24 352 45c9 1 19 3 30 6c32 7 57 11 76 11c21 0 37 -5 49 -16c25 -22 38 -45 38 -70c0 -5 0 -10 -1 -15c-12 -55 -62 -91 -149 -108c-57 -11 -122 -21 -193 -30c-51 -6 -91 -9 -118 -10s-53 -3 -79 -6
c-82 -11 -142 -17 -181 -17zM907 1667c-15 0 -29 3 -43 9c-19 8 -29 22 -29 41c0 5 1 10 2 15c8 37 39 82 93 137c13 13 25 27 35 40c16 20 41 45 74 74c26 23 51 34 74 34c9 0 17 -2 24 -5c23 -11 35 -23 35 -38c0 -4 -4 -29 -5 -33c-6 -28 -18 -54 -37 -77
c-50 -62 -95 -112 -136 -150c-33 -31 -62 -47 -87 -47z" />
    <glyph glyph-name="Ecircumflex" unicode="&#xca;" horiz-adv-x="1074" 
d="M307 -93c-54 0 -88 5 -102 16c-27 20 -31 44 -51 72c-9 13 -14 34 -14 61c0 25 4 55 11 92c6 28 15 61 27 100c19 66 33 109 41 129c22 55 35 91 39 110c1 3 1 6 1 9c0 19 -18 40 -34 47c-10 5 -15 14 -15 26c0 3 0 7 1 10c2 11 7 23 15 36c23 41 45 65 64 72
c23 9 40 23 50 44c13 25 24 56 35 92c59 208 93 329 100 362c3 15 5 28 5 39c0 27 -8 46 -24 57c-8 5 -12 11 -12 19l1 5c25 79 90 126 196 140l90 11c69 8 140 20 213 35c99 21 186 32 262 32c11 0 31 -1 61 -3c30 -1 51 -16 64 -43c7 -16 11 -31 11 -45
c0 -7 -1 -13 -2 -19c-11 -50 -51 -80 -120 -90c-45 -7 -93 -11 -143 -14c-57 -3 -118 -9 -185 -18c-97 -14 -158 -28 -181 -41s-56 -106 -97 -281c-5 -23 -17 -58 -35 -107c-11 -32 -20 -62 -26 -90c-1 -3 -1 -7 -2 -11v-1c0 -3 6 -5 17 -5c29 0 70 5 122 15
c52 11 98 16 139 16c15 0 33 -1 56 -3s39 -10 50 -24c-1 -3 -1 -7 -1 -10c0 -7 1 -13 4 -20c4 -11 6 -21 6 -32c0 -7 -1 -13 -2 -20c-1 -5 -5 -15 -10 -30s-20 -29 -46 -42c-21 -10 -91 -21 -210 -33c-103 -11 -165 -22 -184 -33c-17 -9 -36 -44 -57 -105
c-37 -108 -67 -216 -90 -323c40 0 86 2 138 6c123 9 241 24 352 45c9 1 19 3 30 6c32 7 57 11 76 11c21 0 37 -5 49 -16c25 -22 38 -45 38 -70c0 -5 0 -10 -1 -15c-12 -55 -62 -91 -149 -108c-57 -11 -122 -21 -193 -30c-51 -6 -91 -9 -118 -10s-53 -3 -79 -6
c-82 -11 -142 -17 -181 -17zM1077 1667c-49 0 -88 70 -125 159c-75 -89 -143 -159 -192 -159c-15 0 -29 3 -43 9c-19 8 -29 22 -29 41c0 5 1 10 2 15c7 35 38 81 93 137c14 13 26 27 36 40c15 20 40 45 73 74c27 23 52 34 77 34h48c25 0 45 -11 61 -34c21 -29 36 -54 43 -74
c5 -13 11 -27 18 -40c25 -45 37 -84 37 -115c0 -8 -1 -15 -2 -22c-6 -27 -23 -46 -51 -56c-17 -6 -32 -9 -46 -9z" />
    <glyph glyph-name="Edieresis" unicode="&#xcb;" horiz-adv-x="1074" 
d="M307 -93c-54 0 -88 5 -102 16c-27 20 -31 44 -51 72c-9 13 -14 34 -14 61c0 25 4 55 11 92c6 28 15 61 27 100c19 66 33 109 41 129c22 55 35 91 39 110c1 3 1 6 1 9c0 19 -18 40 -34 47c-10 5 -15 14 -15 26c0 3 0 7 1 10c2 11 7 23 15 36c23 41 45 65 64 72
c23 9 40 23 50 44c13 25 24 56 35 92c59 208 93 329 100 362c3 15 5 28 5 39c0 27 -8 46 -24 57c-8 5 -12 11 -12 19l1 5c25 79 90 126 196 140l90 11c69 8 140 20 213 35c99 21 186 32 262 32c11 0 31 -1 61 -3c30 -1 51 -16 64 -43c7 -16 11 -31 11 -45
c0 -7 -1 -13 -2 -19c-11 -50 -51 -80 -120 -90c-45 -7 -93 -11 -143 -14c-57 -3 -118 -9 -185 -18c-97 -14 -158 -28 -181 -41s-56 -106 -97 -281c-5 -23 -17 -58 -35 -107c-11 -32 -20 -62 -26 -90c-1 -3 -1 -7 -2 -11v-1c0 -3 6 -5 17 -5c29 0 70 5 122 15
c52 11 98 16 139 16c15 0 33 -1 56 -3s39 -10 50 -24c-1 -3 -1 -7 -1 -10c0 -7 1 -13 4 -20c4 -11 6 -21 6 -32c0 -7 -1 -13 -2 -20c-1 -5 -5 -15 -10 -30s-20 -29 -46 -42c-21 -10 -91 -21 -210 -33c-103 -11 -165 -22 -184 -33c-17 -9 -36 -44 -57 -105
c-37 -108 -67 -216 -90 -323c40 0 86 2 138 6c123 9 241 24 352 45c9 1 19 3 30 6c32 7 57 11 76 11c21 0 37 -5 49 -16c25 -22 38 -45 38 -70c0 -5 0 -10 -1 -15c-12 -55 -62 -91 -149 -108c-57 -11 -122 -21 -193 -30c-51 -6 -91 -9 -118 -10s-53 -3 -79 -6
c-82 -11 -142 -17 -181 -17zM795 1703l-21 1c-38 8 -57 30 -57 67c0 9 1 20 4 31c9 44 33 74 70 90c19 8 37 12 55 12c6 0 16 -1 31 -4c15 -2 27 -14 34 -35c5 -14 7 -27 7 -40c0 -7 -1 -14 -2 -21c-5 -21 -15 -40 -31 -58c-27 -29 -57 -43 -90 -43zM1053 1703l-21 1
c-38 8 -57 30 -57 67c0 9 1 20 4 31c9 44 33 74 70 90c19 8 37 12 55 12c6 0 16 -1 31 -4c15 -2 27 -14 34 -35c5 -14 7 -27 7 -40c0 -7 -1 -14 -2 -21c-5 -21 -15 -40 -31 -58c-27 -29 -57 -43 -90 -43z" />
    <glyph glyph-name="Igrave" unicode="&#xcc;" horiz-adv-x="832" 
d="M180 -169h-66c-42 2 -69 26 -82 72c-2 8 -3 16 -3 24c0 6 1 12 2 18c2 9 6 18 12 26c36 51 88 55 140 55c19 0 36 1 50 4c31 6 52 26 62 61c5 15 8 29 11 42l72 351c30 143 66 285 108 424c32 105 63 223 93 353c4 17 6 32 6 45c0 15 -3 26 -8 35c-7 12 -22 18 -46 18
c-15 0 -29 -2 -44 -2s-31 2 -48 7c-16 5 -26 23 -29 54v6c0 4 0 8 1 13c7 29 16 51 29 66l18 15c23 20 80 37 172 51c95 14 180 21 254 21c88 0 132 -12 141 -60c2 -7 3 -14 3 -21s-1 -15 -3 -22c-2 -10 -6 -20 -13 -30c-25 -37 -52 -58 -81 -63c-19 -3 -36 -5 -53 -5l-41 1
c-24 0 -41 -19 -51 -56c-39 -184 -83 -363 -132 -536c-26 -92 -61 -235 -104 -429c-7 -34 -17 -72 -28 -115c-8 -32 -15 -63 -22 -92c-7 -37 -13 -73 -17 -107c23 -5 49 -7 78 -7c22 0 46 1 71 4c32 3 62 4 89 4c29 0 54 -8 75 -24c15 -11 22 -28 22 -50c0 -9 -1 -18 -3 -28
c-14 -65 -80 -99 -199 -102c-38 -1 -112 -5 -221 -12c-62 -4 -134 -7 -215 -9zM800 1667c-25 0 -47 16 -68 47c-25 38 -49 88 -72 150c-5 14 -8 29 -8 44c0 11 1 22 4 33c1 2 3 11 7 28c5 17 22 31 53 43c7 3 16 5 25 5c24 0 44 -11 60 -34c21 -29 35 -54 43 -74
c5 -13 11 -27 18 -40c25 -43 37 -81 37 -114c0 -8 -1 -16 -2 -23c-5 -27 -22 -46 -51 -56c-17 -6 -32 -9 -46 -9z" />
    <glyph glyph-name="Iacute" unicode="&#xcd;" horiz-adv-x="832" 
d="M180 -169h-66c-42 2 -69 26 -82 72c-2 8 -3 16 -3 24c0 6 1 12 2 18c2 9 6 18 12 26c36 51 88 55 140 55c19 0 36 1 50 4c31 6 52 26 62 61c5 15 8 29 11 42l72 351c30 143 66 285 108 424c32 105 63 223 93 353c4 17 6 32 6 45c0 15 -3 26 -8 35c-7 12 -22 18 -46 18
c-15 0 -29 -2 -44 -2s-31 2 -48 7c-16 5 -26 23 -29 54v6c0 4 0 8 1 13c7 29 16 51 29 66l18 15c23 20 80 37 172 51c95 14 180 21 254 21c88 0 132 -12 141 -60c2 -7 3 -14 3 -21s-1 -15 -3 -22c-2 -10 -6 -20 -13 -30c-25 -37 -52 -58 -81 -63c-19 -3 -36 -5 -53 -5l-41 1
c-24 0 -41 -19 -51 -56c-39 -184 -83 -363 -132 -536c-26 -92 -61 -235 -104 -429c-7 -34 -17 -72 -28 -115c-8 -32 -15 -63 -22 -92c-7 -37 -13 -73 -17 -107c23 -5 49 -7 78 -7c22 0 46 1 71 4c32 3 62 4 89 4c29 0 54 -8 75 -24c15 -11 22 -28 22 -50c0 -9 -1 -18 -3 -28
c-14 -65 -80 -99 -199 -102c-38 -1 -112 -5 -221 -12c-62 -4 -134 -7 -215 -9zM777 1667c-15 0 -29 3 -43 9c-19 8 -29 22 -29 41c0 5 1 10 2 15c8 37 39 82 93 137c13 13 25 27 35 40c16 20 41 45 74 74c26 23 51 34 74 34c9 0 17 -2 24 -5c23 -11 35 -23 35 -38
c0 -4 -4 -29 -5 -33c-6 -28 -18 -54 -37 -77c-50 -62 -95 -112 -136 -150c-33 -31 -62 -47 -87 -47z" />
    <glyph glyph-name="Icircumflex" unicode="&#xce;" horiz-adv-x="832" 
d="M180 -169h-66c-42 2 -69 26 -82 72c-2 8 -3 16 -3 24c0 6 1 12 2 18c2 9 6 18 12 26c36 51 88 55 140 55c19 0 36 1 50 4c31 6 52 26 62 61c5 15 8 29 11 42l72 351c30 143 66 285 108 424c32 105 63 223 93 353c4 17 6 32 6 45c0 15 -3 26 -8 35c-7 12 -22 18 -46 18
c-15 0 -29 -2 -44 -2s-31 2 -48 7c-16 5 -26 23 -29 54v6c0 4 0 8 1 13c7 29 16 51 29 66l18 15c23 20 80 37 172 51c95 14 180 21 254 21c88 0 132 -12 141 -60c2 -7 3 -14 3 -21s-1 -15 -3 -22c-2 -10 -6 -20 -13 -30c-25 -37 -52 -58 -81 -63c-19 -3 -36 -5 -53 -5l-41 1
c-24 0 -41 -19 -51 -56c-39 -184 -83 -363 -132 -536c-26 -92 -61 -235 -104 -429c-7 -34 -17 -72 -28 -115c-8 -32 -15 -63 -22 -92c-7 -37 -13 -73 -17 -107c23 -5 49 -7 78 -7c22 0 46 1 71 4c32 3 62 4 89 4c29 0 54 -8 75 -24c15 -11 22 -28 22 -50c0 -9 -1 -18 -3 -28
c-14 -65 -80 -99 -199 -102c-38 -1 -112 -5 -221 -12c-62 -4 -134 -7 -215 -9zM947 1667c-49 0 -88 70 -125 159c-75 -89 -143 -159 -192 -159c-15 0 -29 3 -43 9c-19 8 -29 22 -29 41c0 5 1 10 2 15c7 35 38 81 93 137c14 13 26 27 36 40c15 20 40 45 73 74
c27 23 52 34 77 34h48c25 0 45 -11 61 -34c21 -29 36 -54 43 -74c5 -13 11 -27 18 -40c25 -45 37 -84 37 -115c0 -8 -1 -15 -2 -22c-6 -27 -23 -46 -51 -56c-17 -6 -32 -9 -46 -9z" />
    <glyph glyph-name="Idieresis" unicode="&#xcf;" horiz-adv-x="832" 
d="M180 -169h-66c-42 2 -69 26 -82 72c-2 8 -3 16 -3 24c0 6 1 12 2 18c2 9 6 18 12 26c36 51 88 55 140 55c19 0 36 1 50 4c31 6 52 26 62 61c5 15 8 29 11 42l72 351c30 143 66 285 108 424c32 105 63 223 93 353c4 17 6 32 6 45c0 15 -3 26 -8 35c-7 12 -22 18 -46 18
c-15 0 -29 -2 -44 -2s-31 2 -48 7c-16 5 -26 23 -29 54v6c0 4 0 8 1 13c7 29 16 51 29 66l18 15c23 20 80 37 172 51c95 14 180 21 254 21c88 0 132 -12 141 -60c2 -7 3 -14 3 -21s-1 -15 -3 -22c-2 -10 -6 -20 -13 -30c-25 -37 -52 -58 -81 -63c-19 -3 -36 -5 -53 -5l-41 1
c-24 0 -41 -19 -51 -56c-39 -184 -83 -363 -132 -536c-26 -92 -61 -235 -104 -429c-7 -34 -17 -72 -28 -115c-8 -32 -15 -63 -22 -92c-7 -37 -13 -73 -17 -107c23 -5 49 -7 78 -7c22 0 46 1 71 4c32 3 62 4 89 4c29 0 54 -8 75 -24c15 -11 22 -28 22 -50c0 -9 -1 -18 -3 -28
c-14 -65 -80 -99 -199 -102c-38 -1 -112 -5 -221 -12c-62 -4 -134 -7 -215 -9zM665 1703l-21 1c-38 8 -57 30 -57 67c0 9 1 20 4 31c9 44 33 74 70 90c19 8 37 12 55 12c6 0 16 -1 31 -4c15 -2 27 -14 34 -35c5 -14 7 -27 7 -40c0 -7 -1 -14 -2 -21c-5 -21 -15 -40 -31 -58
c-27 -29 -57 -43 -90 -43zM923 1703l-21 1c-38 8 -57 30 -57 67c0 9 1 20 4 31c9 44 33 74 70 90c19 8 37 12 55 12c6 0 16 -1 31 -4c15 -2 27 -14 34 -35c5 -14 7 -27 7 -40c0 -7 -1 -14 -2 -21c-5 -21 -15 -40 -31 -58c-27 -29 -57 -43 -90 -43z" />
    <glyph glyph-name="Eth" unicode="&#xd0;" horiz-adv-x="1277" 
d="M353 812c12 48 22 93 31 134l38 184c13 62 27 124 42 187c14 60 34 111 61 154c23 39 68 68 135 86c70 19 136 28 197 28c51 0 113 -10 185 -29s145 -70 220 -154c38 -42 63 -84 75 -126c24 -83 36 -166 36 -251c0 -64 -7 -128 -21 -193c-24 -111 -70 -231 -137 -360
c-46 -88 -97 -163 -154 -224c-161 -171 -373 -296 -634 -376c-62 -19 -113 -28 -152 -28c-35 0 -64 12 -87 35s-35 48 -37 75v7c0 22 3 47 9 76c45 213 91 402 137 569c-12 -1 -24 -1 -36 -1l-20 1c-50 5 -77 29 -80 72v7c0 7 1 15 2 22c6 26 22 51 49 74c23 15 54 25 91 28
c17 1 33 2 50 3zM555 820c59 3 101 4 126 4c38 0 69 -3 92 -10c31 -11 47 -33 47 -66c0 -9 -1 -18 -3 -28c-8 -37 -26 -65 -54 -84c-26 -14 -112 -21 -259 -21c-9 -38 -19 -76 -30 -115c-62 -233 -97 -368 -105 -404c-1 -5 -1 -9 -1 -12v-6c1 -9 8 -14 22 -14h6
c53 5 118 26 195 65s140 76 189 110c67 47 126 103 177 169c94 123 156 257 187 403c5 25 13 69 23 134c3 20 4 40 4 60c0 47 -7 96 -22 147c-20 65 -44 113 -99 153c-74 54 -159 81 -255 81c-33 0 -60 -7 -82 -20c-25 -15 -41 -37 -50 -65c-7 -20 -13 -39 -17 -58
c-9 -49 -19 -98 -29 -147c-19 -92 -40 -184 -62 -276z" />
    <glyph glyph-name="Ntilde" unicode="&#xd1;" horiz-adv-x="1459" 
d="M1115 -140c-41 0 -71 28 -90 85c-14 40 -26 81 -36 123c-24 101 -55 199 -94 292l-45 105c-45 106 -82 212 -113 317c-15 53 -40 123 -73 210s-51 130 -53 130c-4 0 -18 -56 -41 -169c-10 -45 -19 -91 -28 -137c-9 -55 -20 -111 -32 -166c-16 -77 -33 -154 -52 -230
c-17 -69 -32 -139 -47 -209l-42 -195c-13 -61 -37 -102 -73 -121c-17 -9 -33 -14 -50 -14c-10 0 -24 4 -42 11s-30 29 -37 66c-1 4 -1 9 -1 16c0 29 8 81 23 155c12 54 25 107 38 159c18 69 66 283 143 643c33 157 52 249 57 276c5 28 10 56 16 84s14 64 25 107
s26 77 47 102c23 28 47 42 70 42c81 0 170 -147 268 -440c8 -25 17 -49 28 -72c21 -46 37 -92 49 -139c7 -27 15 -52 24 -75c31 -83 62 -168 91 -255c45 -132 69 -198 71 -198c5 0 28 96 71 288c107 474 190 760 249 857c20 34 39 51 58 51c3 0 11 -2 23 -5
c13 -3 28 -18 47 -43c5 -7 10 -12 13 -13c6 -3 9 -13 9 -29c0 -19 -4 -48 -12 -85c-12 -57 -37 -153 -75 -287c-10 -35 -18 -63 -23 -84c-49 -195 -95 -389 -136 -584c-35 -149 -60 -257 -74 -323l-11 -58c-3 -23 -7 -45 -12 -68c-11 -49 -33 -83 -67 -103
c-20 -11 -40 -17 -61 -17zM1186 1680c-52 0 -94 16 -125 47s-62 47 -91 47c-27 0 -54 -13 -81 -38s-58 -38 -93 -38c-28 0 -42 12 -42 35c0 5 1 10 2 16c8 37 42 79 102 126c61 47 118 71 172 71c49 0 88 -15 119 -44s61 -43 92 -43c26 0 55 12 86 35c32 23 62 35 89 35
c29 0 43 -12 43 -36c0 -5 -1 -10 -2 -16c-6 -25 -39 -65 -100 -118s-118 -79 -171 -79z" />
    <glyph glyph-name="Ograve" unicode="&#xd2;" horiz-adv-x="1162" 
d="M504 157h5c76 3 154 49 235 140c94 105 175 245 244 419c35 88 61 171 78 250c13 60 19 110 19 151c0 21 -2 39 -5 55c-8 37 -38 62 -89 74c-39 9 -72 14 -100 14c-13 0 -30 -2 -52 -7c-22 -4 -57 -30 -106 -79c-175 -174 -289 -387 -342 -638c-13 -61 -20 -116 -20 -164
c0 -58 10 -106 30 -144c25 -47 60 -71 103 -71zM463 -51c-49 0 -103 21 -161 62c-49 35 -84 76 -104 122c-23 53 -34 116 -34 191c0 65 9 138 26 220c9 41 26 103 53 186s76 185 146 308c13 22 37 57 73 106c105 145 218 244 339 299c44 20 89 30 134 30c32 0 76 -8 131 -24
c56 -15 107 -47 154 -94s71 -114 71 -199c0 -8 0 -16 -1 -24c-3 -51 -10 -105 -22 -162c-11 -49 -30 -116 -59 -199c-28 -83 -68 -176 -121 -279c-53 -102 -102 -184 -149 -247c-52 -69 -113 -130 -183 -183c-69 -52 -145 -87 -227 -105c-24 -5 -46 -8 -66 -8zM934 1667
c-25 0 -47 16 -68 47c-25 38 -49 88 -72 150c-5 14 -8 29 -8 44c0 11 1 22 4 33c1 2 3 11 7 28c5 17 22 31 53 43c7 3 16 5 25 5c24 0 44 -11 60 -34c21 -29 35 -54 43 -74c5 -13 11 -27 18 -40c25 -43 37 -81 37 -114c0 -8 -1 -16 -2 -23c-5 -27 -22 -46 -51 -56
c-17 -6 -32 -9 -46 -9z" />
    <glyph glyph-name="Oacute" unicode="&#xd3;" horiz-adv-x="1162" 
d="M504 157h5c76 3 154 49 235 140c94 105 175 245 244 419c35 88 61 171 78 250c13 60 19 110 19 151c0 21 -2 39 -5 55c-8 37 -38 62 -89 74c-39 9 -72 14 -100 14c-13 0 -30 -2 -52 -7c-22 -4 -57 -30 -106 -79c-175 -174 -289 -387 -342 -638c-13 -61 -20 -116 -20 -164
c0 -58 10 -106 30 -144c25 -47 60 -71 103 -71zM463 -51c-49 0 -103 21 -161 62c-49 35 -84 76 -104 122c-23 53 -34 116 -34 191c0 65 9 138 26 220c9 41 26 103 53 186s76 185 146 308c13 22 37 57 73 106c105 145 218 244 339 299c44 20 89 30 134 30c32 0 76 -8 131 -24
c56 -15 107 -47 154 -94s71 -114 71 -199c0 -8 0 -16 -1 -24c-3 -51 -10 -105 -22 -162c-11 -49 -30 -116 -59 -199c-28 -83 -68 -176 -121 -279c-53 -102 -102 -184 -149 -247c-52 -69 -113 -130 -183 -183c-69 -52 -145 -87 -227 -105c-24 -5 -46 -8 -66 -8zM911 1667
c-15 0 -29 3 -43 9c-19 8 -29 22 -29 41c0 5 1 10 2 15c8 37 39 82 93 137c13 13 25 27 35 40c16 20 41 45 74 74c26 23 51 34 74 34c9 0 17 -2 24 -5c23 -11 35 -23 35 -38c0 -4 -4 -29 -5 -33c-6 -28 -18 -54 -37 -77c-50 -62 -95 -112 -136 -150c-33 -31 -62 -47 -87 -47
z" />
    <glyph glyph-name="Ocircumflex" unicode="&#xd4;" horiz-adv-x="1162" 
d="M504 157h5c76 3 154 49 235 140c94 105 175 245 244 419c35 88 61 171 78 250c13 60 19 110 19 151c0 21 -2 39 -5 55c-8 37 -38 62 -89 74c-39 9 -72 14 -100 14c-13 0 -30 -2 -52 -7c-22 -4 -57 -30 -106 -79c-175 -174 -289 -387 -342 -638c-13 -61 -20 -116 -20 -164
c0 -58 10 -106 30 -144c25 -47 60 -71 103 -71zM463 -51c-49 0 -103 21 -161 62c-49 35 -84 76 -104 122c-23 53 -34 116 -34 191c0 65 9 138 26 220c9 41 26 103 53 186s76 185 146 308c13 22 37 57 73 106c105 145 218 244 339 299c44 20 89 30 134 30c32 0 76 -8 131 -24
c56 -15 107 -47 154 -94s71 -114 71 -199c0 -8 0 -16 -1 -24c-3 -51 -10 -105 -22 -162c-11 -49 -30 -116 -59 -199c-28 -83 -68 -176 -121 -279c-53 -102 -102 -184 -149 -247c-52 -69 -113 -130 -183 -183c-69 -52 -145 -87 -227 -105c-24 -5 -46 -8 -66 -8zM1081 1667
c-49 0 -88 70 -125 159c-75 -89 -143 -159 -192 -159c-15 0 -29 3 -43 9c-19 8 -29 22 -29 41c0 5 1 10 2 15c7 35 38 81 93 137c14 13 26 27 36 40c15 20 40 45 73 74c27 23 52 34 77 34h48c25 0 45 -11 61 -34c21 -29 36 -54 43 -74c5 -13 11 -27 18 -40
c25 -45 37 -84 37 -115c0 -8 -1 -15 -2 -22c-6 -27 -23 -46 -51 -56c-17 -6 -32 -9 -46 -9z" />
    <glyph glyph-name="Otilde" unicode="&#xd5;" horiz-adv-x="1162" 
d="M504 157h5c76 3 154 49 235 140c94 105 175 245 244 419c35 88 61 171 78 250c13 60 19 110 19 151c0 21 -2 39 -5 55c-8 37 -38 62 -89 74c-39 9 -72 14 -100 14c-13 0 -30 -2 -52 -7c-22 -4 -57 -30 -106 -79c-175 -174 -289 -387 -342 -638c-13 -61 -20 -116 -20 -164
c0 -58 10 -106 30 -144c25 -47 60 -71 103 -71zM463 -51c-49 0 -103 21 -161 62c-49 35 -84 76 -104 122c-23 53 -34 116 -34 191c0 65 9 138 26 220c9 41 26 103 53 186s76 185 146 308c13 22 37 57 73 106c105 145 218 244 339 299c44 20 89 30 134 30c32 0 76 -8 131 -24
c56 -15 107 -47 154 -94s71 -114 71 -199c0 -8 0 -16 -1 -24c-3 -51 -10 -105 -22 -162c-11 -49 -30 -116 -59 -199c-28 -83 -68 -176 -121 -279c-53 -102 -102 -184 -149 -247c-52 -69 -113 -130 -183 -183c-69 -52 -145 -87 -227 -105c-24 -5 -46 -8 -66 -8zM1033 1680
c-52 0 -94 16 -125 47s-62 47 -91 47c-27 0 -54 -13 -81 -38s-58 -38 -93 -38c-28 0 -42 12 -42 35c0 5 1 10 2 16c8 37 42 79 102 126c61 47 118 71 172 71c49 0 88 -15 119 -44s61 -43 92 -43c26 0 55 12 86 35c32 23 62 35 89 35c29 0 43 -12 43 -36c0 -5 -1 -10 -2 -16
c-6 -25 -39 -65 -100 -118s-118 -79 -171 -79z" />
    <glyph glyph-name="Odieresis" unicode="&#xd6;" horiz-adv-x="1162" 
d="M504 157h5c76 3 154 49 235 140c94 105 175 245 244 419c35 88 61 171 78 250c13 60 19 110 19 151c0 21 -2 39 -5 55c-8 37 -38 62 -89 74c-39 9 -72 14 -100 14c-13 0 -30 -2 -52 -7c-22 -4 -57 -30 -106 -79c-175 -174 -289 -387 -342 -638c-13 -61 -20 -116 -20 -164
c0 -58 10 -106 30 -144c25 -47 60 -71 103 -71zM463 -51c-49 0 -103 21 -161 62c-49 35 -84 76 -104 122c-23 53 -34 116 -34 191c0 65 9 138 26 220c9 41 26 103 53 186s76 185 146 308c13 22 37 57 73 106c105 145 218 244 339 299c44 20 89 30 134 30c32 0 76 -8 131 -24
c56 -15 107 -47 154 -94s71 -114 71 -199c0 -8 0 -16 -1 -24c-3 -51 -10 -105 -22 -162c-11 -49 -30 -116 -59 -199c-28 -83 -68 -176 -121 -279c-53 -102 -102 -184 -149 -247c-52 -69 -113 -130 -183 -183c-69 -52 -145 -87 -227 -105c-24 -5 -46 -8 -66 -8zM799 1703
l-21 1c-38 8 -57 30 -57 67c0 9 1 20 4 31c9 44 33 74 70 90c19 8 37 12 55 12c6 0 16 -1 31 -4c15 -2 27 -14 34 -35c5 -14 7 -27 7 -40c0 -7 -1 -14 -2 -21c-5 -21 -15 -40 -31 -58c-27 -29 -57 -43 -90 -43zM1057 1703l-21 1c-38 8 -57 30 -57 67c0 9 1 20 4 31
c9 44 33 74 70 90c19 8 37 12 55 12c6 0 16 -1 31 -4c15 -2 27 -14 34 -35c5 -14 7 -27 7 -40c0 -7 -1 -14 -2 -21c-5 -21 -15 -40 -31 -58c-27 -29 -57 -43 -90 -43z" />
    <glyph glyph-name="multiply" unicode="&#xd7;" horiz-adv-x="1438" 
d="M1163 60c-15 0 -29 5 -42 14c-49 37 -150 167 -301 390c-8 12 -14 23 -18 33c-13 27 -27 41 -42 41c-21 0 -82 -50 -185 -150c-73 -75 -149 -140 -228 -195c-35 -24 -69 -36 -101 -36c-24 0 -41 9 -50 26c-13 19 -20 38 -20 57c0 5 1 10 2 15c5 23 22 47 50 70
s57 47 86 70c54 44 106 90 157 139c47 46 82 79 105 98c44 35 67 58 69 69c0 7 -25 43 -74 108c-101 131 -159 216 -174 255c-1 3 -2 8 -2 14c0 11 2 25 6 42c10 49 30 73 61 73c12 0 22 1 29 4c3 1 5 1 8 1c7 0 16 -2 25 -7c71 -32 147 -135 240 -279c27 -43 43 -65 48 -65
c4 0 9 3 16 8c33 31 53 50 59 55c20 16 42 39 58 52c31 25 61 52 89 80c18 17 45 42 80 73c114 111 188 166 221 166c11 0 28 -4 51 -11c14 -4 24 -11 31 -20c9 -12 14 -25 14 -39c0 -5 -1 -11 -2 -17c-3 -11 -7 -23 -14 -35c-13 -23 -40 -54 -82 -93s-83 -75 -122 -109
c-151 -129 -246 -215 -285 -260c13 -31 59 -98 139 -199c76 -99 130 -171 162 -217c29 -41 44 -79 44 -112c0 -9 -1 -17 -3 -24c-5 -22 -16 -40 -33 -55c-27 -20 -51 -30 -72 -30z" />
    <glyph glyph-name="Oslash" unicode="&#xd8;" horiz-adv-x="1162" 
d="M213 -148c-13 0 -25 3 -37 10c-21 13 -31 33 -31 60c0 9 1 20 4 31c9 40 31 89 66 147c-35 55 -52 127 -52 218c0 66 9 141 27 226c9 41 26 103 53 186s76 185 147 308c13 22 37 57 72 106c105 145 218 244 339 299c44 20 89 30 134 30c41 0 94 -11 159 -33
c35 47 72 79 109 95c7 3 14 5 21 5c25 0 44 -23 57 -68c2 -6 3 -12 3 -19s-1 -15 -3 -23c-5 -25 -19 -58 -42 -97c35 -45 52 -104 52 -177c0 -8 0 -16 -1 -24c-3 -51 -10 -105 -22 -162c-11 -49 -30 -116 -59 -199c-28 -83 -68 -176 -121 -279c-53 -102 -102 -184 -149 -247
c-52 -69 -113 -130 -183 -183c-69 -52 -145 -87 -227 -105c-24 -5 -46 -8 -66 -8c-33 0 -68 9 -105 28l-33 -54c-18 -27 -41 -47 -69 -60c-15 -7 -29 -11 -43 -11zM372 372v-13c28 48 56 96 84 145c9 16 19 31 30 46c12 17 22 34 29 49c55 109 202 327 441 654
c-24 5 -46 7 -65 7c-13 0 -30 -2 -52 -7c-22 -4 -57 -30 -106 -79c-175 -174 -289 -387 -342 -638c-13 -61 -19 -116 -19 -164zM509 157c76 3 154 49 235 140c94 105 175 245 244 419c35 88 61 171 78 250c12 57 18 105 19 144l-61 -81c-193 -273 -375 -551 -546 -834
l-16 -29c13 -6 28 -9 47 -9z" />
    <glyph glyph-name="Ugrave" unicode="&#xd9;" horiz-adv-x="1220" 
d="M541 -81c-95 0 -172 27 -229 80c-55 51 -85 125 -89 222c-1 11 -1 21 -1 32c0 89 12 191 37 306c33 154 80 336 141 547l24 94c28 112 62 197 103 255c21 29 44 44 71 44c37 0 64 -20 81 -60c2 -5 3 -12 3 -21c0 -13 -2 -31 -7 -54c-14 -65 -46 -175 -96 -331
c-16 -48 -31 -98 -45 -150c-35 -124 -61 -227 -78 -309c-21 -99 -32 -184 -32 -257c0 -17 1 -34 2 -49c6 -99 57 -148 152 -148c61 0 117 25 168 74c91 88 169 226 236 415c51 141 108 337 171 586l15 65c3 17 6 33 9 48c3 20 6 41 11 62l5 22c11 46 31 77 62 92
c15 7 30 10 45 10c61 0 92 -34 92 -101c0 -5 0 -11 -1 -17c-2 -37 -8 -77 -17 -120c-12 -56 -34 -143 -67 -262c-83 -304 -176 -548 -280 -733c-107 -191 -248 -303 -424 -336c-21 -4 -41 -6 -62 -6zM972 1586c-25 0 -47 16 -68 47c-25 38 -49 88 -72 150c-5 14 -8 29 -8 44
c0 11 1 22 4 33c1 2 3 11 7 28c5 17 22 31 53 43c7 3 16 5 25 5c24 0 44 -11 60 -34c21 -29 36 -54 43 -74c5 -13 11 -27 18 -40c25 -44 38 -82 38 -115c0 -8 -1 -15 -2 -22c-6 -27 -23 -46 -52 -56c-17 -6 -32 -9 -46 -9z" />
    <glyph glyph-name="Uacute" unicode="&#xda;" horiz-adv-x="1220" 
d="M541 -81c-95 0 -172 27 -229 80c-55 51 -85 125 -89 222c-1 11 -1 21 -1 32c0 89 12 191 37 306c33 154 80 336 141 547l24 94c28 112 62 197 103 255c21 29 44 44 71 44c37 0 64 -20 81 -60c2 -5 3 -12 3 -21c0 -13 -2 -31 -7 -54c-14 -65 -46 -175 -96 -331
c-16 -48 -31 -98 -45 -150c-35 -124 -61 -227 -78 -309c-21 -99 -32 -184 -32 -257c0 -17 1 -34 2 -49c6 -99 57 -148 152 -148c61 0 117 25 168 74c91 88 169 226 236 415c51 141 108 337 171 586l15 65c3 17 6 33 9 48c3 20 6 41 11 62l5 22c11 46 31 77 62 92
c15 7 30 10 45 10c61 0 92 -34 92 -101c0 -5 0 -11 -1 -17c-2 -37 -8 -77 -17 -120c-12 -56 -34 -143 -67 -262c-83 -304 -176 -548 -280 -733c-107 -191 -248 -303 -424 -336c-21 -4 -41 -6 -62 -6zM958 1627c-15 0 -29 3 -43 9c-19 8 -29 22 -29 41c0 5 1 10 2 15
c8 37 39 82 93 137c13 13 25 27 35 40c16 20 41 45 74 74c26 23 51 34 74 34c9 0 17 -2 24 -5c23 -11 35 -23 35 -38c0 -4 -4 -29 -5 -33c-6 -28 -18 -54 -37 -77c-50 -62 -95 -112 -136 -150c-33 -31 -62 -47 -87 -47z" />
    <glyph glyph-name="Ucircumflex" unicode="&#xdb;" horiz-adv-x="1220" 
d="M541 -81c-95 0 -172 27 -229 80c-55 51 -85 125 -89 222c-1 11 -1 21 -1 32c0 89 12 191 37 306c33 154 80 336 141 547l24 94c28 112 62 197 103 255c21 29 44 44 71 44c37 0 64 -20 81 -60c2 -5 3 -12 3 -21c0 -13 -2 -31 -7 -54c-14 -65 -46 -175 -96 -331
c-16 -48 -31 -98 -45 -150c-35 -124 -61 -227 -78 -309c-21 -99 -32 -184 -32 -257c0 -17 1 -34 2 -49c6 -99 57 -148 152 -148c61 0 117 25 168 74c91 88 169 226 236 415c51 141 108 337 171 586l15 65c3 17 6 33 9 48c3 20 6 41 11 62l5 22c11 46 31 77 62 92
c15 7 30 10 45 10c61 0 92 -34 92 -101c0 -5 0 -11 -1 -17c-2 -37 -8 -77 -17 -120c-12 -56 -34 -143 -67 -262c-83 -304 -176 -548 -280 -733c-107 -191 -248 -303 -424 -336c-21 -4 -41 -6 -62 -6zM1137 1667c-49 0 -88 70 -125 159c-76 -89 -143 -159 -192 -159
c-15 0 -29 3 -43 9c-19 8 -29 22 -29 41c0 5 1 10 2 15c7 35 38 81 93 137c13 13 25 27 35 40c16 20 41 45 74 74c26 23 51 34 76 34h48c25 0 45 -11 62 -34c21 -29 36 -54 43 -74c5 -13 11 -27 18 -40c25 -45 37 -84 37 -115c0 -8 -1 -15 -2 -22c-6 -27 -23 -46 -51 -56
c-17 -6 -32 -9 -46 -9z" />
    <glyph glyph-name="Udieresis" unicode="&#xdc;" horiz-adv-x="1220" 
d="M541 -81c-95 0 -172 27 -229 80c-55 51 -85 125 -89 222c-1 11 -1 21 -1 32c0 89 12 191 37 306c33 154 80 336 141 547l24 94c28 112 62 197 103 255c21 29 44 44 71 44c37 0 64 -20 81 -60c2 -5 3 -12 3 -21c0 -13 -2 -31 -7 -54c-14 -65 -46 -175 -96 -331
c-16 -48 -31 -98 -45 -150c-35 -124 -61 -227 -78 -309c-21 -99 -32 -184 -32 -257c0 -17 1 -34 2 -49c6 -99 57 -148 152 -148c61 0 117 25 168 74c91 88 169 226 236 415c51 141 108 337 171 586l15 65c3 17 6 33 9 48c3 20 6 41 11 62l5 22c11 46 31 77 62 92
c15 7 30 10 45 10c61 0 92 -34 92 -101c0 -5 0 -11 -1 -17c-2 -37 -8 -77 -17 -120c-12 -56 -34 -143 -67 -262c-83 -304 -176 -548 -280 -733c-107 -191 -248 -303 -424 -336c-21 -4 -41 -6 -62 -6zM854 1703l-21 1c-38 8 -57 30 -57 67c0 9 1 20 4 31c9 44 33 74 70 90
c19 8 38 12 56 12c6 0 16 -1 31 -4c15 -2 26 -14 33 -35c5 -13 8 -26 8 -39c0 -7 -1 -15 -3 -22c-4 -21 -14 -40 -31 -58c-27 -29 -57 -43 -90 -43zM1112 1703l-21 1c-38 8 -57 30 -57 67c0 9 1 20 4 31c9 44 33 74 70 90c19 8 38 12 56 12c6 0 16 -1 31 -4
c15 -2 26 -14 33 -35c5 -13 8 -26 8 -39c0 -7 -1 -15 -3 -22c-4 -21 -14 -40 -31 -58c-27 -29 -57 -43 -90 -43z" />
    <glyph glyph-name="Yacute" unicode="&#xdd;" horiz-adv-x="1013" 
d="M573 -56c-4 0 -14 1 -31 3c-16 1 -28 18 -37 49c-4 14 -6 30 -6 48c0 22 3 47 9 76c11 51 21 96 32 136c31 113 60 224 89 335c3 16 9 33 12 46c1 7 3 16 4 26v2c0 9 -4 20 -13 32c-20 30 -47 81 -80 152c-27 61 -57 119 -90 176c-81 143 -122 246 -122 311
c0 9 1 18 2 25c5 27 19 52 42 76c25 26 49 39 71 39c37 0 66 -25 85 -74c12 -29 23 -57 33 -86c15 -42 32 -84 53 -125c65 -131 100 -202 104 -213c12 -33 25 -50 38 -50c5 3 47 50 127 139l110 123c15 16 32 35 51 57c34 41 70 81 109 121c57 60 104 90 141 90
c34 0 54 -15 60 -45c3 -12 4 -24 4 -35c0 -9 -1 -18 -3 -26c-1 -7 -5 -18 -11 -33c-15 -36 -106 -140 -272 -311c-125 -130 -197 -220 -214 -271c-12 -35 -23 -60 -30 -91c-27 -115 -56 -231 -88 -346c-14 -53 -26 -104 -37 -154l-15 -75l-7 -29c-7 -33 -24 -58 -51 -75
c-23 -15 -46 -23 -69 -23zM909 1667c-15 0 -29 3 -43 9c-19 8 -29 22 -29 41c0 5 1 10 2 15c8 37 39 82 93 137c13 13 25 27 36 40c15 20 40 45 73 74c27 23 52 34 75 34c9 0 16 -2 23 -5c23 -11 35 -23 35 -38c0 -4 -4 -29 -5 -33c-6 -28 -18 -54 -37 -77
c-50 -62 -95 -112 -136 -150c-33 -31 -62 -47 -87 -47z" />
    <glyph glyph-name="Thorn" unicode="&#xde;" horiz-adv-x="956" 
d="M484 497c28 3 67 15 117 37c51 23 90 43 117 62c109 75 173 156 191 241c5 24 8 48 8 72c0 50 -12 99 -35 146c-24 49 -60 74 -108 74c-10 0 -24 -1 -43 -2c-61 -5 -101 -16 -122 -32c-13 -10 -25 -43 -38 -100l-52 -258l-38 -175c-3 -15 -5 -26 -6 -35
c-1 -5 -1 -10 -1 -14c0 -11 3 -16 10 -16zM204 -302c-56 0 -84 27 -84 81v11c2 31 11 82 26 154c13 63 24 113 31 150c5 27 11 55 17 83c18 87 38 174 61 261c25 95 41 162 50 201c13 63 23 122 36 186c5 22 10 49 15 80c24 135 41 228 52 277c10 45 22 99 36 163
c15 71 28 122 39 153c22 61 63 92 123 92c18 0 33 -4 46 -12c19 -13 28 -33 28 -61c0 -6 0 -13 -1 -20c-1 -16 -4 -33 -8 -51c-5 -25 -18 -73 -37 -143c56 17 111 26 165 26c33 0 76 -7 128 -20s101 -60 146 -143c35 -66 53 -135 53 -208c0 -31 -3 -64 -10 -97
c-11 -53 -32 -108 -62 -164c-23 -45 -46 -80 -69 -105c-64 -72 -134 -131 -210 -178c-45 -27 -87 -48 -124 -62c-14 -5 -37 -13 -68 -22c-97 -28 -150 -47 -159 -58c-13 -13 -25 -50 -38 -109c-17 -77 -30 -156 -41 -236c-4 -30 -9 -58 -15 -85c-3 -18 -8 -35 -13 -51
c-12 -39 -33 -66 -62 -81c-16 -8 -33 -12 -51 -12z" />
    <glyph glyph-name="germandbls" unicode="&#xdf;" horiz-adv-x="1359" 
d="M851 1122c-32 0 -61 -17 -87 -51c-75 -127 -141 -327 -199 -601c-27 -126 -43 -223 -50 -290c-4 -41 -11 -83 -20 -128c-2 -10 -7 -31 -15 -64c-7 -33 -28 -61 -62 -84c-14 -9 -34 -14 -59 -14c-20 0 -36 7 -47 21l-2 1l-1 -1h-6c-13 0 -20 16 -20 48c0 8 0 17 1 26
c5 72 17 153 36 243c2 9 6 21 11 38c9 34 16 63 21 87s8 43 8 58c0 21 -5 32 -15 35c-7 1 -14 2 -22 2c-21 0 -50 -5 -79 -5c-39 0 -80 12 -95 27c-4 4 -6 11 -6 20c0 6 1 13 3 21c14 67 42 107 85 120c30 9 61 13 92 13c27 0 51 4 70 11c29 11 46 68 66 151
c13 51 30 108 51 170c53 148 140 257 262 328c41 23 81 35 118 35c87 0 150 -26 190 -77c29 -37 43 -80 43 -129c0 -21 -2 -42 -7 -64c-11 -54 -39 -105 -83 -152c-43 -47 -70 -92 -79 -134c-1 -6 -2 -12 -2 -18c0 -26 14 -47 41 -64c42 -25 82 -46 120 -62
c43 -18 83 -40 118 -67c36 -27 66 -69 89 -126c15 -38 23 -76 23 -114c0 -19 -2 -38 -6 -57c-3 -16 -13 -46 -30 -89c-16 -43 -55 -93 -118 -149c-63 -55 -133 -95 -211 -119c-47 -15 -89 -22 -127 -22c-24 0 -55 5 -93 16c-38 10 -80 38 -126 85c-20 21 -36 52 -49 94
c-7 25 -11 50 -11 75c0 17 2 35 5 52c9 41 34 70 77 87c13 5 24 8 35 8c32 0 60 -32 84 -97c9 -22 19 -43 30 -63c20 -35 50 -53 90 -53c25 0 58 9 100 26c43 18 80 48 113 91c14 17 23 35 27 54c1 7 2 14 2 21c0 20 -5 40 -16 60c-41 77 -113 110 -185 137
c-63 23 -122 49 -154 105c-21 38 -32 79 -32 122c0 19 2 39 7 60c9 41 35 89 80 146s71 100 78 131c1 7 2 14 2 20c0 33 -21 49 -64 49z" />
    <glyph glyph-name="agrave" unicode="&#xe0;" horiz-adv-x="1054" 
d="M347 194h4c15 0 55 36 121 107c52 57 98 108 137 155c14 17 30 34 47 52c38 39 59 69 64 90c2 9 3 18 3 26c0 29 -11 53 -34 72c-13 11 -27 16 -43 16c-9 0 -19 -2 -28 -7c-92 -41 -165 -132 -220 -272c-21 -52 -36 -104 -47 -157l-8 -40c-1 -7 -2 -14 -2 -20
c0 -9 2 -17 6 -22zM309 -14c-11 0 -21 1 -31 4c-73 16 -116 51 -129 104c-6 22 -9 46 -9 71c0 27 3 55 10 85c28 133 68 250 121 353c51 98 132 184 245 258c57 37 115 55 175 55s109 -23 148 -68c26 -31 47 -47 64 -47c4 0 8 1 11 3c21 11 43 28 65 53c25 27 50 47 75 59
c6 3 12 4 18 4c19 0 38 -14 55 -42c11 -17 16 -33 16 -48c0 -5 -1 -10 -2 -15c-3 -16 -15 -43 -34 -81c-39 -77 -69 -141 -90 -193c-21 -51 -38 -113 -53 -185c-9 -44 -15 -86 -18 -125c-4 -57 -8 -96 -12 -117c-3 -15 -8 -28 -13 -39c-23 -51 -56 -77 -98 -77
c-22 0 -43 9 -63 27c-19 18 -29 47 -29 88c0 6 0 12 1 19c3 55 11 114 24 179c3 10 4 18 4 23s-1 7 -4 7c-5 0 -35 -30 -89 -89c-60 -67 -109 -118 -146 -154c-77 -75 -148 -112 -212 -112zM752 980c-25 0 -47 16 -68 47c-25 38 -49 88 -72 150c-5 14 -7 29 -7 45
c0 10 1 21 3 32c1 2 3 11 8 28s22 31 53 43c7 3 16 5 25 5c23 0 43 -11 59 -34c21 -29 36 -54 44 -74c4 -13 10 -27 17 -40c25 -44 38 -82 38 -114c0 -8 -1 -16 -2 -23c-6 -27 -23 -46 -52 -56c-17 -6 -32 -9 -46 -9z" />
    <glyph glyph-name="aacute" unicode="&#xe1;" horiz-adv-x="1054" 
d="M347 194h4c15 0 55 36 121 107c52 57 98 108 137 155c14 17 30 34 47 52c38 39 59 69 64 90c2 9 3 18 3 26c0 29 -11 53 -34 72c-13 11 -27 16 -43 16c-9 0 -19 -2 -28 -7c-92 -41 -165 -132 -220 -272c-21 -52 -36 -104 -47 -157l-8 -40c-1 -7 -2 -14 -2 -20
c0 -9 2 -17 6 -22zM309 -14c-11 0 -21 1 -31 4c-73 16 -116 51 -129 104c-6 22 -9 46 -9 71c0 27 3 55 10 85c28 133 68 250 121 353c51 98 132 184 245 258c57 37 115 55 175 55s109 -23 148 -68c26 -31 47 -47 64 -47c4 0 8 1 11 3c21 11 43 28 65 53c25 27 50 47 75 59
c6 3 12 4 18 4c19 0 38 -14 55 -42c11 -17 16 -33 16 -48c0 -5 -1 -10 -2 -15c-3 -16 -15 -43 -34 -81c-39 -77 -69 -141 -90 -193c-21 -51 -38 -113 -53 -185c-9 -44 -15 -86 -18 -125c-4 -57 -8 -96 -12 -117c-3 -15 -8 -28 -13 -39c-23 -51 -56 -77 -98 -77
c-22 0 -43 9 -63 27c-19 18 -29 47 -29 88c0 6 0 12 1 19c3 55 11 114 24 179c3 10 4 18 4 23s-1 7 -4 7c-5 0 -35 -30 -89 -89c-60 -67 -109 -118 -146 -154c-77 -75 -148 -112 -212 -112zM730 980c-15 0 -29 3 -44 9c-19 8 -28 22 -28 42c0 4 0 9 1 14c8 37 39 82 93 137
c14 13 26 27 36 40c15 20 40 45 74 74c26 23 51 34 74 34c9 0 17 -2 24 -5c23 -11 34 -23 34 -38c0 -4 -4 -29 -4 -33c-6 -28 -19 -54 -38 -77c-49 -62 -94 -112 -135 -150c-33 -31 -62 -47 -87 -47z" />
    <glyph glyph-name="acircumflex" unicode="&#xe2;" horiz-adv-x="1054" 
d="M347 194h4c15 0 55 36 121 107c52 57 98 108 137 155c14 17 30 34 47 52c38 39 59 69 64 90c2 9 3 18 3 26c0 29 -11 53 -34 72c-13 11 -27 16 -43 16c-9 0 -19 -2 -28 -7c-92 -41 -165 -132 -220 -272c-21 -52 -36 -104 -47 -157l-8 -40c-1 -7 -2 -14 -2 -20
c0 -9 2 -17 6 -22zM309 -14c-11 0 -21 1 -31 4c-73 16 -116 51 -129 104c-6 22 -9 46 -9 71c0 27 3 55 10 85c28 133 68 250 121 353c51 98 132 184 245 258c57 37 115 55 175 55s109 -23 148 -68c26 -31 47 -47 64 -47c4 0 8 1 11 3c21 11 43 28 65 53c25 27 50 47 75 59
c6 3 12 4 18 4c19 0 38 -14 55 -42c11 -17 16 -33 16 -48c0 -5 -1 -10 -2 -15c-3 -16 -15 -43 -34 -81c-39 -77 -69 -141 -90 -193c-21 -51 -38 -113 -53 -185c-9 -44 -15 -86 -18 -125c-4 -57 -8 -96 -12 -117c-3 -15 -8 -28 -13 -39c-23 -51 -56 -77 -98 -77
c-22 0 -43 9 -63 27c-19 18 -29 47 -29 88c0 6 0 12 1 19c3 55 11 114 24 179c3 10 4 18 4 23s-1 7 -4 7c-5 0 -35 -30 -89 -89c-60 -67 -109 -118 -146 -154c-77 -75 -148 -112 -212 -112zM900 980c-49 0 -88 70 -125 159c-76 -89 -143 -159 -192 -159c-15 0 -29 3 -43 9
c-19 8 -29 22 -29 41c0 5 1 10 2 15c7 35 38 81 93 137c13 13 25 27 35 40c16 20 41 45 74 74c26 23 51 34 76 34h48c25 0 45 -11 62 -34c21 -29 36 -54 43 -74c5 -13 11 -27 18 -40c25 -45 37 -84 37 -115c0 -8 -1 -15 -2 -22c-6 -27 -23 -46 -51 -56c-17 -6 -32 -9 -46 -9
z" />
    <glyph glyph-name="atilde" unicode="&#xe3;" horiz-adv-x="1054" 
d="M347 194h4c15 0 55 36 121 107c52 57 98 108 137 155c14 17 30 34 47 52c38 39 59 69 64 90c2 9 3 18 3 26c0 29 -11 53 -34 72c-13 11 -27 16 -43 16c-9 0 -19 -2 -28 -7c-92 -41 -165 -132 -220 -272c-21 -52 -36 -104 -47 -157l-8 -40c-1 -7 -2 -14 -2 -20
c0 -9 2 -17 6 -22zM309 -14c-11 0 -21 1 -31 4c-73 16 -116 51 -129 104c-6 22 -9 46 -9 71c0 27 3 55 10 85c28 133 68 250 121 353c51 98 132 184 245 258c57 37 115 55 175 55s109 -23 148 -68c26 -31 47 -47 64 -47c4 0 8 1 11 3c21 11 43 28 65 53c25 27 50 47 75 59
c6 3 12 4 18 4c19 0 38 -14 55 -42c11 -17 16 -33 16 -48c0 -5 -1 -10 -2 -15c-3 -16 -15 -43 -34 -81c-39 -77 -69 -141 -90 -193c-21 -51 -38 -113 -53 -185c-9 -44 -15 -86 -18 -125c-4 -57 -8 -96 -12 -117c-3 -15 -8 -28 -13 -39c-23 -51 -56 -77 -98 -77
c-22 0 -43 9 -63 27c-19 18 -29 47 -29 88c0 6 0 12 1 19c3 55 11 114 24 179c3 10 4 18 4 23s-1 7 -4 7c-5 0 -35 -30 -89 -89c-60 -67 -109 -118 -146 -154c-77 -75 -148 -112 -212 -112zM852 993c-52 0 -94 16 -125 47s-62 47 -91 47c-27 0 -54 -13 -82 -38
c-27 -25 -58 -38 -93 -38c-27 0 -41 11 -41 34c0 5 1 11 2 17c7 37 41 79 101 126c61 47 118 71 172 71c49 0 88 -15 119 -44s62 -43 93 -43c25 0 54 12 86 35s62 35 89 35c28 0 42 -12 42 -35c0 -5 -1 -11 -2 -17c-5 -25 -39 -65 -100 -118s-117 -79 -170 -79z" />
    <glyph glyph-name="adieresis" unicode="&#xe4;" horiz-adv-x="1054" 
d="M347 194h4c15 0 55 36 121 107c52 57 98 108 137 155c14 17 30 34 47 52c38 39 59 69 64 90c2 9 3 18 3 26c0 29 -11 53 -34 72c-13 11 -27 16 -43 16c-9 0 -19 -2 -28 -7c-92 -41 -165 -132 -220 -272c-21 -52 -36 -104 -47 -157l-8 -40c-1 -7 -2 -14 -2 -20
c0 -9 2 -17 6 -22zM309 -14c-11 0 -21 1 -31 4c-73 16 -116 51 -129 104c-6 22 -9 46 -9 71c0 27 3 55 10 85c28 133 68 250 121 353c51 98 132 184 245 258c57 37 115 55 175 55s109 -23 148 -68c26 -31 47 -47 64 -47c4 0 8 1 11 3c21 11 43 28 65 53c25 27 50 47 75 59
c6 3 12 4 18 4c19 0 38 -14 55 -42c11 -17 16 -33 16 -48c0 -5 -1 -10 -2 -15c-3 -16 -15 -43 -34 -81c-39 -77 -69 -141 -90 -193c-21 -51 -38 -113 -53 -185c-9 -44 -15 -86 -18 -125c-4 -57 -8 -96 -12 -117c-3 -15 -8 -28 -13 -39c-23 -51 -56 -77 -98 -77
c-22 0 -43 9 -63 27c-19 18 -29 47 -29 88c0 6 0 12 1 19c3 55 11 114 24 179c3 10 4 18 4 23s-1 7 -4 7c-5 0 -35 -30 -89 -89c-60 -67 -109 -118 -146 -154c-77 -75 -148 -112 -212 -112zM617 1016l-21 1c-38 8 -57 30 -57 67c0 9 1 20 4 31c9 44 33 74 70 90
c19 8 38 12 56 12c6 0 16 -1 31 -4c15 -2 26 -14 33 -35c5 -13 8 -26 8 -39c0 -7 -1 -15 -3 -22c-4 -21 -14 -40 -31 -58c-27 -29 -57 -43 -90 -43zM875 1016l-21 1c-38 8 -57 30 -57 67c0 9 1 20 4 31c9 44 33 74 70 90c19 8 38 12 56 12c6 0 16 -1 31 -4
c15 -2 26 -14 33 -35c5 -13 8 -26 8 -39c0 -7 -1 -15 -3 -22c-4 -21 -14 -40 -31 -58c-27 -29 -57 -43 -90 -43z" />
    <glyph glyph-name="aring" unicode="&#xe5;" horiz-adv-x="1054" 
d="M347 194h4c15 0 55 36 121 107c52 57 98 108 137 155c14 17 30 34 47 52c38 39 59 69 64 90c2 9 3 18 3 26c0 29 -11 53 -34 72c-13 11 -27 16 -43 16c-9 0 -19 -2 -28 -7c-92 -41 -165 -132 -220 -272c-21 -52 -36 -104 -47 -157l-8 -40c-1 -7 -2 -14 -2 -20
c0 -9 2 -17 6 -22zM309 -14c-11 0 -21 1 -31 4c-73 16 -116 51 -129 104c-6 22 -9 46 -9 71c0 27 3 55 10 85c28 133 68 250 121 353c51 98 132 184 245 258c57 37 115 55 175 55s109 -23 148 -68c26 -31 47 -47 64 -47c4 0 8 1 11 3c21 11 43 28 65 53c25 27 50 47 75 59
c6 3 12 4 18 4c19 0 38 -14 55 -42c11 -17 16 -33 16 -48c0 -5 -1 -10 -2 -15c-3 -16 -15 -43 -34 -81c-39 -77 -69 -141 -90 -193c-21 -51 -38 -113 -53 -185c-9 -44 -15 -86 -18 -125c-4 -57 -8 -96 -12 -117c-3 -15 -8 -28 -13 -39c-23 -51 -56 -77 -98 -77
c-22 0 -43 9 -63 27c-19 18 -29 47 -29 88c0 6 0 12 1 19c3 55 11 114 24 179c3 10 4 18 4 23s-1 7 -4 7c-5 0 -35 -30 -89 -89c-60 -67 -109 -118 -146 -154c-77 -75 -148 -112 -212 -112zM757 1091h5c49 3 95 41 106 89c1 7 2 13 2 20c0 31 -22 67 -70 67
c-57 0 -95 -39 -106 -87c-1 -7 -2 -14 -2 -21c0 -31 21 -68 65 -68zM734 956c-62 0 -111 20 -146 61c-25 29 -38 64 -38 106c0 17 2 35 6 54c13 64 47 118 100 162s111 66 173 66s112 -21 151 -63c26 -29 39 -63 39 -102c0 -15 -2 -30 -5 -45c-15 -69 -51 -127 -108 -173
c-53 -44 -110 -66 -172 -66z" />
    <glyph glyph-name="ae" unicode="&#xe6;" horiz-adv-x="1583" 
d="M347 194h4c15 0 55 36 121 107c52 57 98 108 137 155c14 17 30 34 48 52c37 39 58 69 63 90c2 9 3 18 3 26c0 29 -11 53 -34 72c-13 11 -27 16 -43 16c-9 0 -19 -2 -28 -7c-92 -41 -165 -132 -220 -272c-21 -52 -36 -104 -47 -157l-8 -40c-1 -7 -2 -14 -2 -20
c0 -9 2 -17 6 -22zM1022 503c4 0 10 1 17 4c89 29 176 69 259 120c40 25 62 47 66 66c1 2 1 4 1 6c0 15 -13 22 -38 22c-13 0 -31 -3 -55 -9c-88 -23 -164 -75 -228 -157c-19 -23 -29 -38 -30 -43v-3c0 -4 3 -6 8 -6zM732 305l4 20c-15 -15 -37 -39 -68 -73
c-61 -67 -110 -118 -147 -154c-77 -75 -148 -112 -212 -112c-11 0 -21 1 -31 4c-73 16 -116 51 -129 104c-6 22 -9 46 -9 71c0 27 3 55 10 85c28 133 68 250 121 353c51 98 133 184 246 258c56 37 114 55 174 55s109 -23 148 -68c26 -31 47 -47 64 -47c4 0 8 1 11 3
c21 11 43 28 65 53c25 27 50 47 75 59c6 3 12 4 19 4c27 0 49 -19 65 -58c59 31 123 50 190 59c12 1 24 2 35 2c40 0 80 -9 119 -28c39 -18 66 -51 80 -100c6 -21 9 -42 9 -63c0 -14 -1 -28 -4 -41c-18 -85 -89 -165 -214 -242c-131 -80 -246 -127 -346 -142
c-17 -3 -38 -7 -63 -12c-7 -1 -12 -8 -14 -19c-1 -3 -1 -7 -1 -12v-6c1 -49 21 -79 58 -91c19 -6 40 -9 63 -9c15 0 30 2 46 5c57 11 107 27 150 50c46 25 100 58 162 101c35 25 64 37 85 37h16c11 -1 27 -13 50 -37c15 -17 22 -34 22 -51c0 -4 0 -8 -1 -13
c-11 -51 -80 -112 -208 -181c-80 -43 -159 -74 -237 -94c-46 -13 -91 -19 -135 -19c-36 0 -71 6 -106 17c-50 17 -82 34 -97 51c-49 63 -74 127 -75 194c0 27 3 56 10 87z" />
    <glyph glyph-name="ccedilla" unicode="&#xe7;" horiz-adv-x="873" 
d="M369 -28c-25 8 -49 19 -72 32c-95 53 -143 136 -143 248c0 32 4 66 11 102c9 42 25 92 47 150c23 59 49 110 79 155c103 153 221 252 355 296c39 13 76 19 113 19c83 0 144 -26 185 -77c21 -28 32 -56 32 -83c0 -7 -1 -15 -2 -22c-3 -17 -12 -33 -25 -49
c-32 -36 -60 -54 -83 -54c-15 0 -30 7 -47 21c-25 20 -42 34 -53 42c-21 14 -39 21 -55 21c-31 0 -68 -15 -111 -46s-77 -61 -102 -92c-67 -80 -111 -167 -131 -262c-5 -25 -8 -48 -8 -69c0 -73 32 -121 97 -144c19 -7 38 -10 56 -10c33 0 75 13 126 40c48 25 84 37 109 37
c19 0 54 -4 69 -41c5 -13 8 -26 8 -38c0 -5 -1 -11 -2 -16c-7 -31 -28 -59 -65 -86c-73 -53 -149 -84 -226 -91c-37 -29 -58 -54 -62 -74c-1 -5 -2 -9 -2 -14c0 -20 9 -42 28 -65c17 -21 26 -45 26 -72c0 -9 -1 -18 -3 -28c-9 -42 -42 -82 -98 -121s-102 -59 -138 -59
c-29 0 -43 9 -43 28c0 3 0 7 1 11c5 27 22 49 51 66s45 36 50 57c1 4 1 8 1 11c0 21 -10 43 -31 68c-18 22 -27 47 -27 74c0 10 1 20 3 31c7 36 35 71 82 104z" />
    <glyph glyph-name="egrave" unicode="&#xe8;" horiz-adv-x="998" 
d="M436 503c4 0 10 1 17 4c90 29 176 69 259 120c41 25 63 47 67 66c1 2 1 4 1 6c0 15 -13 22 -39 22c-13 0 -31 -3 -55 -9c-88 -23 -164 -75 -228 -157c-19 -23 -29 -38 -30 -43v-3c0 -4 3 -6 8 -6zM414 -44c-35 0 -70 6 -105 17c-51 17 -83 34 -97 51
c-49 63 -74 127 -75 194c0 27 3 56 10 87c9 43 24 90 46 139c28 65 55 119 82 162s67 91 121 142c101 98 217 156 347 173c12 1 24 2 35 2c40 0 80 -9 119 -28c39 -18 66 -51 80 -100c6 -21 9 -42 9 -63c0 -14 -1 -28 -4 -41c-18 -85 -89 -165 -214 -242
c-131 -80 -246 -127 -346 -142c-17 -3 -38 -7 -63 -12c-7 -1 -12 -8 -15 -19c-1 -5 -1 -11 -1 -18c2 -49 22 -79 59 -91c19 -6 39 -9 62 -9c15 0 30 2 46 5c58 11 108 27 151 50c46 25 100 58 161 101c35 25 64 37 85 37c1 0 6 0 17 -1c11 0 27 -12 50 -36
c15 -17 22 -34 22 -51c0 -4 0 -8 -1 -13c-11 -51 -81 -112 -209 -181c-79 -43 -158 -74 -236 -94c-47 -13 -92 -19 -136 -19zM731 980c-25 0 -47 16 -68 47c-25 38 -49 88 -72 150c-5 13 -7 27 -7 42c0 11 1 23 4 35c0 2 2 11 7 28s22 31 53 43c7 3 16 5 25 5
c24 0 44 -11 59 -34c21 -29 36 -54 44 -74c4 -13 10 -27 17 -40c25 -44 38 -82 38 -114c0 -8 -1 -16 -2 -23c-6 -27 -23 -46 -52 -56c-17 -6 -32 -9 -46 -9z" />
    <glyph glyph-name="eacute" unicode="&#xe9;" horiz-adv-x="998" 
d="M436 503c4 0 10 1 17 4c90 29 176 69 259 120c41 25 63 47 67 66c1 2 1 4 1 6c0 15 -13 22 -39 22c-13 0 -31 -3 -55 -9c-88 -23 -164 -75 -228 -157c-19 -23 -29 -38 -30 -43v-3c0 -4 3 -6 8 -6zM414 -44c-35 0 -70 6 -105 17c-51 17 -83 34 -97 51
c-49 63 -74 127 -75 194c0 27 3 56 10 87c9 43 24 90 46 139c28 65 55 119 82 162s67 91 121 142c101 98 217 156 347 173c12 1 24 2 35 2c40 0 80 -9 119 -28c39 -18 66 -51 80 -100c6 -21 9 -42 9 -63c0 -14 -1 -28 -4 -41c-18 -85 -89 -165 -214 -242
c-131 -80 -246 -127 -346 -142c-17 -3 -38 -7 -63 -12c-7 -1 -12 -8 -15 -19c-1 -5 -1 -11 -1 -18c2 -49 22 -79 59 -91c19 -6 39 -9 62 -9c15 0 30 2 46 5c58 11 108 27 151 50c46 25 100 58 161 101c35 25 64 37 85 37c1 0 6 0 17 -1c11 0 27 -12 50 -36
c15 -17 22 -34 22 -51c0 -4 0 -8 -1 -13c-11 -51 -81 -112 -209 -181c-79 -43 -158 -74 -236 -94c-47 -13 -92 -19 -136 -19zM709 980c-15 0 -29 3 -43 9c-19 8 -29 22 -29 42c0 5 0 9 1 14c8 37 39 82 94 137c13 13 25 27 35 40c15 20 40 45 74 74c26 23 51 34 74 34
c9 0 17 -2 24 -5c23 -11 34 -23 34 -38c0 -4 -4 -29 -4 -33c-6 -28 -19 -54 -38 -77c-49 -62 -94 -112 -135 -150c-33 -31 -62 -47 -87 -47z" />
    <glyph glyph-name="ecircumflex" unicode="&#xea;" horiz-adv-x="998" 
d="M436 503c4 0 10 1 17 4c90 29 176 69 259 120c41 25 63 47 67 66c1 2 1 4 1 6c0 15 -13 22 -39 22c-13 0 -31 -3 -55 -9c-88 -23 -164 -75 -228 -157c-19 -23 -29 -38 -30 -43v-3c0 -4 3 -6 8 -6zM414 -44c-35 0 -70 6 -105 17c-51 17 -83 34 -97 51
c-49 63 -74 127 -75 194c0 27 3 56 10 87c9 43 24 90 46 139c28 65 55 119 82 162s67 91 121 142c101 98 217 156 347 173c12 1 24 2 35 2c40 0 80 -9 119 -28c39 -18 66 -51 80 -100c6 -21 9 -42 9 -63c0 -14 -1 -28 -4 -41c-18 -85 -89 -165 -214 -242
c-131 -80 -246 -127 -346 -142c-17 -3 -38 -7 -63 -12c-7 -1 -12 -8 -15 -19c-1 -5 -1 -11 -1 -18c2 -49 22 -79 59 -91c19 -6 39 -9 62 -9c15 0 30 2 46 5c58 11 108 27 151 50c46 25 100 58 161 101c35 25 64 37 85 37c1 0 6 0 17 -1c11 0 27 -12 50 -36
c15 -17 22 -34 22 -51c0 -4 0 -8 -1 -13c-11 -51 -81 -112 -209 -181c-79 -43 -158 -74 -236 -94c-47 -13 -92 -19 -136 -19zM879 980c-49 0 -88 70 -125 159c-76 -89 -143 -159 -192 -159c-15 0 -29 3 -43 9c-19 8 -29 22 -29 41c0 5 1 10 2 15c7 35 38 81 93 137
c13 13 25 27 35 40c16 20 41 45 74 74c26 23 51 34 76 34h48c25 0 45 -11 62 -34c21 -29 36 -54 43 -74c5 -13 11 -27 18 -40c25 -45 37 -84 37 -115c0 -8 -1 -15 -2 -22c-6 -27 -23 -46 -51 -56c-17 -6 -32 -9 -46 -9z" />
    <glyph glyph-name="edieresis" unicode="&#xeb;" horiz-adv-x="998" 
d="M436 503c4 0 10 1 17 4c90 29 176 69 259 120c41 25 63 47 67 66c1 2 1 4 1 6c0 15 -13 22 -39 22c-13 0 -31 -3 -55 -9c-88 -23 -164 -75 -228 -157c-19 -23 -29 -38 -30 -43v-3c0 -4 3 -6 8 -6zM414 -44c-35 0 -70 6 -105 17c-51 17 -83 34 -97 51
c-49 63 -74 127 -75 194c0 27 3 56 10 87c9 43 24 90 46 139c28 65 55 119 82 162s67 91 121 142c101 98 217 156 347 173c12 1 24 2 35 2c40 0 80 -9 119 -28c39 -18 66 -51 80 -100c6 -21 9 -42 9 -63c0 -14 -1 -28 -4 -41c-18 -85 -89 -165 -214 -242
c-131 -80 -246 -127 -346 -142c-17 -3 -38 -7 -63 -12c-7 -1 -12 -8 -15 -19c-1 -5 -1 -11 -1 -18c2 -49 22 -79 59 -91c19 -6 39 -9 62 -9c15 0 30 2 46 5c58 11 108 27 151 50c46 25 100 58 161 101c35 25 64 37 85 37c1 0 6 0 17 -1c11 0 27 -12 50 -36
c15 -17 22 -34 22 -51c0 -4 0 -8 -1 -13c-11 -51 -81 -112 -209 -181c-79 -43 -158 -74 -236 -94c-47 -13 -92 -19 -136 -19zM597 1016l-22 1c-38 8 -57 30 -57 67c0 9 1 20 4 31c9 44 33 74 70 90c19 8 38 12 56 12c6 0 16 -1 31 -4c15 -2 26 -14 34 -35c5 -14 7 -27 7 -40
c0 -7 -1 -14 -2 -21c-5 -21 -15 -40 -32 -58c-27 -29 -56 -43 -89 -43zM855 1016l-22 1c-38 8 -57 30 -57 67c0 9 1 20 4 31c9 44 33 74 70 90c19 8 38 12 56 12c6 0 16 -1 31 -4c15 -2 26 -14 34 -35c5 -14 7 -27 7 -40c0 -7 -1 -14 -2 -21c-5 -21 -15 -40 -32 -58
c-27 -29 -56 -43 -89 -43z" />
    <glyph glyph-name="igrave" unicode="&#xec;" horiz-adv-x="520" 
d="M235 -79c-39 0 -63 15 -73 45c-5 15 -8 34 -8 56c0 27 4 59 12 96c30 142 64 284 101 426c9 32 16 62 23 90c28 118 54 203 77 255c24 52 58 78 101 78c26 0 47 -13 64 -40c10 -16 15 -37 15 -62c0 -18 -2 -38 -7 -60c-11 -55 -27 -110 -46 -167
c-23 -69 -49 -171 -78 -305c-7 -31 -13 -62 -18 -92c-7 -34 -14 -68 -21 -103l-11 -52c-5 -25 -14 -52 -26 -79c-25 -57 -60 -86 -105 -86zM474 980c-25 0 -47 16 -68 47c-24 38 -48 88 -72 150c-5 13 -7 27 -7 42c0 11 1 23 4 35c0 2 2 11 7 28s22 31 53 43c7 3 16 5 25 5
c24 0 44 -11 60 -34c21 -29 35 -54 43 -74c5 -13 10 -27 17 -40c25 -44 38 -82 38 -114c0 -8 -1 -16 -2 -23c-5 -27 -23 -46 -52 -56c-17 -6 -32 -9 -46 -9z" />
    <glyph glyph-name="iacute" unicode="&#xed;" horiz-adv-x="520" 
d="M235 -79c-39 0 -63 15 -73 45c-5 15 -8 34 -8 56c0 27 4 59 12 96c30 142 64 284 101 426c9 32 16 62 23 90c28 118 54 203 77 255c24 52 58 78 101 78c26 0 47 -13 64 -40c10 -16 15 -37 15 -62c0 -18 -2 -38 -7 -60c-11 -55 -27 -110 -46 -167
c-23 -69 -49 -171 -78 -305c-7 -31 -13 -62 -18 -92c-7 -34 -14 -68 -21 -103l-11 -52c-5 -25 -14 -52 -26 -79c-25 -57 -60 -86 -105 -86zM452 980c-15 0 -29 3 -43 9c-19 8 -29 22 -29 41c0 5 1 10 2 15c7 37 38 82 93 137c13 13 25 27 35 40c16 20 41 45 74 74
c26 23 51 34 74 34c9 0 17 -2 24 -5c23 -11 35 -24 35 -39c0 -3 -4 -28 -5 -32c-6 -28 -18 -54 -37 -77c-50 -62 -95 -112 -136 -150c-33 -31 -62 -47 -87 -47z" />
    <glyph glyph-name="icircumflex" unicode="&#xee;" horiz-adv-x="520" 
d="M235 -79c-39 0 -63 15 -73 45c-5 15 -8 34 -8 56c0 27 4 59 12 96c30 142 64 284 101 426c9 32 16 62 23 90c28 118 54 203 77 255c24 52 58 78 101 78c26 0 47 -13 64 -40c10 -16 15 -37 15 -62c0 -18 -2 -38 -7 -60c-11 -55 -27 -110 -46 -167
c-23 -69 -49 -171 -78 -305c-7 -31 -13 -62 -18 -92c-7 -34 -14 -68 -21 -103l-11 -52c-5 -25 -14 -52 -26 -79c-25 -57 -60 -86 -105 -86zM622 980c-49 0 -88 70 -125 159c-76 -89 -143 -159 -192 -159c-15 0 -29 3 -43 9c-19 8 -29 22 -29 41c0 5 1 10 2 15
c7 35 38 81 93 137c13 13 25 27 35 40c16 20 41 45 74 74c27 23 52 34 77 34h48c25 0 45 -11 61 -34c21 -29 36 -54 43 -74c5 -13 11 -27 18 -40c25 -45 37 -84 37 -115c0 -8 -1 -15 -2 -22c-6 -27 -23 -46 -51 -56c-17 -6 -32 -9 -46 -9z" />
    <glyph glyph-name="idieresis" unicode="&#xef;" horiz-adv-x="520" 
d="M235 -79c-39 0 -63 15 -73 45c-5 15 -8 34 -8 56c0 27 4 59 12 96c30 142 64 284 101 426c9 32 16 62 23 90c28 118 54 203 77 255c24 52 58 78 101 78c26 0 47 -13 64 -40c10 -16 15 -37 15 -62c0 -18 -2 -38 -7 -60c-11 -55 -27 -110 -46 -167
c-23 -69 -49 -171 -78 -305c-7 -31 -13 -62 -18 -92c-7 -34 -14 -68 -21 -103l-11 -52c-5 -25 -14 -52 -26 -79c-25 -57 -60 -86 -105 -86zM340 1016l-21 1c-38 8 -57 31 -57 68c0 9 1 19 3 30c9 44 33 74 70 90c19 8 38 12 56 12c6 0 16 -1 31 -4c15 -2 27 -14 34 -35
c5 -14 7 -27 7 -40c0 -7 -1 -14 -2 -21c-5 -21 -15 -40 -32 -58c-26 -29 -56 -43 -89 -43zM598 1016l-21 1c-38 8 -57 31 -57 68c0 9 1 19 3 30c9 44 33 74 70 90c19 8 38 12 56 12c6 0 16 -1 31 -4c15 -2 27 -14 34 -35c5 -14 7 -27 7 -40c0 -7 -1 -14 -2 -21
c-5 -21 -15 -40 -32 -58c-26 -29 -56 -43 -89 -43z" />
    <glyph glyph-name="eth" unicode="&#xf0;" horiz-adv-x="960" 
d="M349 149c21 0 52 21 95 64c46 45 93 99 140 163l36 42c44 49 69 89 75 120c1 7 2 13 2 20c0 9 -1 18 -4 28c-10 34 -27 51 -50 51c-9 0 -27 -6 -52 -18s-59 -45 -104 -100c-45 -54 -83 -111 -115 -171c-25 -46 -40 -85 -47 -118c-2 -10 -3 -19 -3 -28
c1 -35 10 -53 27 -53zM705 -71h-9c-41 0 -64 14 -71 43c-3 16 -5 32 -5 49c0 13 1 27 3 41s3 25 3 34c0 14 -3 21 -9 21c-16 0 -52 -28 -109 -85c-61 -61 -129 -91 -204 -91c-102 0 -162 49 -180 148c-5 23 -7 46 -7 70c0 27 3 55 9 83c20 94 70 195 149 303
c67 91 139 166 214 224c51 39 98 61 139 66c16 2 31 3 44 3c15 0 29 -1 41 -4c9 -1 17 -2 24 -2s14 1 19 4c13 7 29 51 48 134l18 75c-36 -3 -58 -6 -67 -8c-23 -5 -45 -8 -68 -8c-28 0 -56 1 -69 30c-3 7 -5 15 -5 24c0 7 1 15 3 24c13 55 32 82 59 82l40 -1
c25 0 51 3 77 8c16 3 40 6 72 10c14 46 26 82 37 108c30 69 69 103 117 103c45 -10 68 -41 68 -92c0 -16 -2 -34 -6 -53c-3 -16 -7 -32 -11 -48c53 8 85 12 96 12c26 0 41 -5 46 -14c2 -5 3 -18 4 -39c1 -4 1 -8 1 -13c0 -6 -1 -12 -2 -18c-10 -47 -37 -73 -82 -78l-104 -10
c-67 -263 -115 -464 -144 -604c-25 -117 -40 -207 -43 -269c-4 -49 -10 -92 -17 -127c-7 -33 -20 -63 -37 -91s-44 -43 -82 -44z" />
    <glyph glyph-name="ntilde" unicode="&#xf1;" horiz-adv-x="1084" 
d="M235 -90h-18c-41 5 -63 20 -68 45c-1 7 -2 15 -2 24c0 13 2 28 5 44c15 73 58 255 129 546c18 69 31 125 40 166c27 129 52 209 75 240c19 25 45 37 78 37c9 0 18 -2 26 -5c36 -15 55 -38 57 -67v-7c0 -16 -2 -33 -6 -52c-4 -20 -9 -37 -15 -52c-8 -20 -12 -32 -13 -35
c-1 -4 -1 -7 -1 -9c0 -3 1 -5 2 -5c9 0 33 23 72 68c74 85 151 140 232 164c21 7 43 10 64 10c49 0 95 -18 138 -55c49 -41 73 -102 73 -181v-6c-1 -60 -9 -122 -23 -185c-19 -91 -49 -191 -89 -298c-9 -25 -20 -56 -31 -93c-35 -115 -62 -188 -82 -220
c-25 -40 -58 -60 -98 -60c-47 0 -71 29 -71 88c0 20 3 43 8 70c12 55 38 134 77 239c40 105 69 199 87 284c9 45 17 89 22 133c1 9 2 18 2 26c0 43 -16 65 -47 65c-8 0 -17 -2 -27 -6c-63 -23 -126 -76 -187 -159s-114 -171 -161 -264s-77 -168 -91 -224
c-14 -55 -27 -106 -40 -152c-19 -63 -58 -114 -117 -114zM889 1084c-52 0 -94 16 -125 47s-62 47 -91 47c-27 0 -54 -13 -81 -38s-59 -38 -94 -38c-27 0 -41 11 -41 34c0 5 1 11 2 17c8 37 42 79 102 126c61 47 118 71 172 71c49 0 88 -15 119 -44s61 -43 92 -43
c26 0 55 12 86 35c32 23 62 35 89 35c28 0 42 -12 42 -35c0 -5 -1 -11 -2 -17c-5 -25 -39 -65 -100 -118s-117 -79 -170 -79z" />
    <glyph glyph-name="ograve" unicode="&#xf2;" horiz-adv-x="872" 
d="M402 179c27 0 60 17 100 50c41 34 81 82 120 143s65 120 78 177l10 47c1 4 1 8 1 12c0 25 -16 49 -48 71c-15 10 -30 15 -45 15c-65 0 -136 -78 -212 -233c-27 -55 -46 -109 -57 -164c-3 -15 -5 -29 -5 -42c0 -29 9 -51 27 -65c9 -7 20 -10 31 -11zM354 -22
c-45 0 -88 12 -129 36s-66 67 -75 130c-3 23 -5 46 -5 69c0 32 3 64 10 97c15 71 44 149 86 236c30 61 67 120 110 177c88 116 180 174 277 174c13 0 25 -1 38 -3c73 -12 131 -40 174 -83c41 -43 62 -101 62 -176c0 -33 -4 -69 -12 -108c-15 -71 -48 -149 -98 -233
c-49 -84 -122 -162 -218 -235c-71 -54 -145 -81 -220 -81zM653 980c-25 0 -47 16 -68 47c-25 38 -49 88 -72 150c-5 14 -8 29 -8 44c0 11 1 22 4 33c1 2 3 11 8 28s22 31 52 43c8 3 17 5 26 5c23 0 43 -11 59 -34c21 -29 36 -54 44 -74c4 -13 10 -27 17 -40
c25 -44 38 -82 38 -114c0 -8 -1 -16 -2 -23c-6 -27 -23 -46 -52 -56c-17 -6 -32 -9 -46 -9z" />
    <glyph glyph-name="oacute" unicode="&#xf3;" horiz-adv-x="872" 
d="M402 179c27 0 60 17 100 50c41 34 81 82 120 143s65 120 78 177l10 47c1 4 1 8 1 12c0 25 -16 49 -48 71c-15 10 -30 15 -45 15c-65 0 -136 -78 -212 -233c-27 -55 -46 -109 -57 -164c-3 -15 -5 -29 -5 -42c0 -29 9 -51 27 -65c9 -7 20 -10 31 -11zM354 -22
c-45 0 -88 12 -129 36s-66 67 -75 130c-3 23 -5 46 -5 69c0 32 3 64 10 97c15 71 44 149 86 236c30 61 67 120 110 177c88 116 180 174 277 174c13 0 25 -1 38 -3c73 -12 131 -40 174 -83c41 -43 62 -101 62 -176c0 -33 -4 -69 -12 -108c-15 -71 -48 -149 -98 -233
c-49 -84 -122 -162 -218 -235c-71 -54 -145 -81 -220 -81zM630 980c-15 0 -29 3 -43 9c-19 8 -28 22 -28 42c0 4 0 9 1 14c8 37 39 82 93 137c14 13 26 27 36 40c15 20 40 45 74 74c26 23 51 34 74 34c9 0 17 -2 24 -5c23 -11 34 -23 34 -38c0 -4 -4 -29 -4 -33
c-6 -28 -19 -54 -38 -77c-49 -62 -95 -112 -136 -150c-33 -31 -62 -47 -87 -47z" />
    <glyph glyph-name="ocircumflex" unicode="&#xf4;" horiz-adv-x="872" 
d="M402 179c27 0 60 17 100 50c41 34 81 82 120 143s65 120 78 177l10 47c1 4 1 8 1 12c0 25 -16 49 -48 71c-15 10 -30 15 -45 15c-65 0 -136 -78 -212 -233c-27 -55 -46 -109 -57 -164c-3 -15 -5 -29 -5 -42c0 -29 9 -51 27 -65c9 -7 20 -10 31 -11zM354 -22
c-45 0 -88 12 -129 36s-66 67 -75 130c-3 23 -5 46 -5 69c0 32 3 64 10 97c15 71 44 149 86 236c30 61 67 120 110 177c88 116 180 174 277 174c13 0 25 -1 38 -3c73 -12 131 -40 174 -83c41 -43 62 -101 62 -176c0 -33 -4 -69 -12 -108c-15 -71 -48 -149 -98 -233
c-49 -84 -122 -162 -218 -235c-71 -54 -145 -81 -220 -81zM801 980c-49 0 -88 70 -125 159c-76 -89 -143 -159 -192 -159c-15 0 -29 3 -43 9c-19 8 -29 22 -29 41c0 5 1 10 2 15c7 35 38 81 93 137c13 13 25 27 35 40c16 20 41 45 74 74c26 23 51 34 76 34h48
c25 0 45 -11 62 -34c21 -29 36 -54 43 -74c5 -13 11 -27 18 -40c25 -45 37 -84 37 -115c0 -8 -1 -15 -2 -22c-6 -27 -23 -46 -51 -56c-17 -6 -32 -9 -46 -9z" />
    <glyph glyph-name="otilde" unicode="&#xf5;" horiz-adv-x="872" 
d="M402 179c27 0 60 17 100 50c41 34 81 82 120 143s65 120 78 177l10 47c1 4 1 8 1 12c0 25 -16 49 -48 71c-15 10 -30 15 -45 15c-65 0 -136 -78 -212 -233c-27 -55 -46 -109 -57 -164c-3 -15 -5 -29 -5 -42c0 -29 9 -51 27 -65c9 -7 20 -10 31 -11zM354 -22
c-45 0 -88 12 -129 36s-66 67 -75 130c-3 23 -5 46 -5 69c0 32 3 64 10 97c15 71 44 149 86 236c30 61 67 120 110 177c88 116 180 174 277 174c13 0 25 -1 38 -3c73 -12 131 -40 174 -83c41 -43 62 -101 62 -176c0 -33 -4 -69 -12 -108c-15 -71 -48 -149 -98 -233
c-49 -84 -122 -162 -218 -235c-71 -54 -145 -81 -220 -81zM753 993c-52 0 -94 16 -125 47s-62 47 -92 47c-26 0 -53 -13 -81 -38c-27 -25 -58 -38 -93 -38c-27 0 -41 11 -41 34c0 5 1 11 2 17c7 37 41 79 101 126c61 47 118 71 172 71c49 0 88 -15 119 -44s62 -43 93 -43
c25 0 54 12 86 35s62 35 89 35c28 0 42 -12 42 -35c0 -5 -1 -11 -2 -17c-5 -25 -39 -65 -100 -118s-117 -79 -170 -79z" />
    <glyph glyph-name="odieresis" unicode="&#xf6;" horiz-adv-x="872" 
d="M402 179c27 0 60 17 100 50c41 34 81 82 120 143s65 120 78 177l10 47c1 4 1 8 1 12c0 25 -16 49 -48 71c-15 10 -30 15 -45 15c-65 0 -136 -78 -212 -233c-27 -55 -46 -109 -57 -164c-3 -15 -5 -29 -5 -42c0 -29 9 -51 27 -65c9 -7 20 -10 31 -11zM354 -22
c-45 0 -88 12 -129 36s-66 67 -75 130c-3 23 -5 46 -5 69c0 32 3 64 10 97c15 71 44 149 86 236c30 61 67 120 110 177c88 116 180 174 277 174c13 0 25 -1 38 -3c73 -12 131 -40 174 -83c41 -43 62 -101 62 -176c0 -33 -4 -69 -12 -108c-15 -71 -48 -149 -98 -233
c-49 -84 -122 -162 -218 -235c-71 -54 -145 -81 -220 -81zM518 1016l-21 1c-38 8 -57 30 -57 67c0 9 1 20 4 31c9 44 33 74 70 90c19 8 38 12 56 12c6 0 16 -1 31 -4c15 -2 26 -14 33 -35c5 -13 8 -26 8 -39c0 -7 -1 -15 -3 -22c-4 -21 -14 -40 -31 -58
c-27 -29 -57 -43 -90 -43zM776 1016l-21 1c-38 8 -57 30 -57 67c0 9 1 20 4 31c9 44 33 74 70 90c19 8 38 12 56 12c6 0 16 -1 31 -4c15 -2 26 -14 33 -35c5 -13 8 -26 8 -39c0 -7 -1 -15 -3 -22c-4 -21 -14 -40 -31 -58c-27 -29 -57 -43 -90 -43z" />
    <glyph glyph-name="divide" unicode="&#xf7;" horiz-adv-x="1438" 
d="M333 613c-34 0 -68 2 -102 5c-29 3 -54 14 -75 32c-13 12 -20 27 -20 44c0 5 1 11 2 17c17 69 58 104 123 104l101 -1c63 0 126 3 190 9c61 6 170 13 329 20s243 11 252 11c36 0 72 2 109 6c22 2 46 4 72 5c18 1 35 2 50 3c35 4 68 6 101 6c65 0 104 -6 118 -18
c7 -6 14 -22 23 -49c3 -8 4 -16 4 -24c0 -5 -1 -10 -2 -15c-7 -34 -30 -60 -68 -77c-25 -11 -63 -19 -115 -22s-101 -6 -148 -7c-464 -20 -722 -33 -775 -39c-57 -7 -113 -10 -169 -10zM766 237c-25 0 -49 7 -73 20c-38 21 -59 46 -64 77c-1 6 -1 13 -1 20c0 11 1 24 4 37
c15 72 50 123 103 152c37 21 74 31 112 31c3 0 15 0 36 -1s43 -15 65 -42c19 -23 28 -48 28 -77c0 -9 -1 -19 -3 -30s-10 -33 -23 -66s-46 -65 -97 -96c-28 -17 -57 -25 -87 -25zM910 913c-25 0 -49 7 -74 20c-37 21 -58 46 -63 77c-1 7 -2 14 -2 22c0 11 1 22 4 35
c15 72 50 123 104 152c37 21 74 31 112 31c2 0 14 0 35 -1s43 -15 66 -42c19 -23 28 -48 28 -77c0 -9 -1 -19 -3 -30s-10 -33 -24 -66c-13 -33 -46 -65 -97 -96c-28 -17 -57 -25 -86 -25z" />
    <glyph glyph-name="oslash" unicode="&#xf8;" horiz-adv-x="872" 
d="M154 -212c-10 0 -19 3 -28 8c-16 9 -24 25 -24 47c0 7 1 14 2 22c7 31 22 67 47 106l43 70c-23 25 -37 59 -44 103c-3 21 -5 43 -5 65c0 33 4 67 11 101c15 71 43 149 85 236c31 61 67 120 110 177c88 116 181 174 278 174c32 0 67 -7 105 -20c31 43 65 88 100 135
c26 35 53 59 81 71c6 2 12 3 17 3c19 0 34 -17 44 -52c1 -5 2 -10 2 -15s-1 -11 -2 -17c-9 -43 -50 -112 -121 -208c32 -41 48 -93 48 -158c0 -33 -4 -70 -13 -109c-15 -71 -48 -149 -98 -233c-49 -84 -122 -162 -218 -235c-71 -54 -145 -81 -221 -81c-11 0 -23 1 -35 3
c-31 -59 -57 -105 -78 -138c-14 -21 -32 -36 -53 -47c-11 -5 -22 -8 -33 -8zM351 307l13 18c9 13 17 26 23 38c31 63 102 172 213 329c-60 -12 -125 -89 -194 -231c-25 -51 -43 -103 -55 -154zM442 189c60 28 120 89 181 183c39 61 65 120 77 177l10 47
c-93 -134 -182 -270 -268 -407z" />
    <glyph glyph-name="ugrave" unicode="&#xf9;" horiz-adv-x="937" 
d="M753 -28c-14 0 -29 5 -44 14c-25 17 -42 61 -50 134c-3 33 -8 49 -16 49c-7 0 -23 -14 -50 -41c-76 -78 -148 -117 -217 -117h-37c-23 1 -57 30 -100 89c-37 49 -55 112 -55 189c0 43 6 91 17 143c13 61 29 121 48 180c3 11 7 24 11 40c39 168 92 252 159 252
c37 0 61 -17 70 -50c5 -18 8 -37 8 -56c0 -15 -2 -31 -5 -46c-5 -25 -19 -72 -41 -139c-24 -75 -41 -138 -52 -187c-7 -36 -11 -69 -11 -100c0 -14 1 -27 2 -40c5 -37 15 -56 30 -56c25 0 63 41 113 123c34 55 64 110 90 163c33 68 55 115 66 141c75 178 139 267 194 267
c8 0 16 -2 23 -5c32 -14 50 -34 55 -59c2 -8 3 -17 3 -26c0 -13 -2 -26 -5 -40c-4 -17 -15 -54 -32 -112c-21 -67 -38 -131 -51 -193l-14 -63c-5 -24 -7 -57 -7 -98c0 -23 1 -48 2 -76c1 -16 4 -35 9 -56c8 -33 12 -66 12 -100c0 -7 0 -14 -1 -21l-3 -19
c-7 -31 -27 -54 -61 -69c-23 -10 -43 -15 -60 -15zM705 980c-25 0 -47 16 -68 47c-25 38 -49 88 -72 150c-5 14 -7 29 -7 45c0 10 1 21 3 32c1 2 3 11 8 28s22 31 53 43c7 3 16 5 25 5c24 0 44 -11 59 -34c21 -29 36 -54 44 -74c4 -13 10 -27 17 -40c25 -44 38 -82 38 -114
c0 -8 -1 -16 -2 -23c-6 -27 -23 -46 -52 -56c-17 -6 -32 -9 -46 -9z" />
    <glyph glyph-name="uacute" unicode="&#xfa;" horiz-adv-x="937" 
d="M753 -28c-14 0 -29 5 -44 14c-25 17 -42 61 -50 134c-3 33 -8 49 -16 49c-7 0 -23 -14 -50 -41c-76 -78 -148 -117 -217 -117h-37c-23 1 -57 30 -100 89c-37 49 -55 112 -55 189c0 43 6 91 17 143c13 61 29 121 48 180c3 11 7 24 11 40c39 168 92 252 159 252
c37 0 61 -17 70 -50c5 -18 8 -37 8 -56c0 -15 -2 -31 -5 -46c-5 -25 -19 -72 -41 -139c-24 -75 -41 -138 -52 -187c-7 -36 -11 -69 -11 -100c0 -14 1 -27 2 -40c5 -37 15 -56 30 -56c25 0 63 41 113 123c34 55 64 110 90 163c33 68 55 115 66 141c75 178 139 267 194 267
c8 0 16 -2 23 -5c32 -14 50 -34 55 -59c2 -8 3 -17 3 -26c0 -13 -2 -26 -5 -40c-4 -17 -15 -54 -32 -112c-21 -67 -38 -131 -51 -193l-14 -63c-5 -24 -7 -57 -7 -98c0 -23 1 -48 2 -76c1 -16 4 -35 9 -56c8 -33 12 -66 12 -100c0 -7 0 -14 -1 -21l-3 -19
c-7 -31 -27 -54 -61 -69c-23 -10 -43 -15 -60 -15zM683 980c-15 0 -29 3 -43 9c-19 8 -29 22 -29 42c0 5 0 9 1 14c8 37 39 82 94 137c13 13 25 27 35 40c15 20 40 45 74 74c26 23 51 34 74 34c9 0 17 -2 24 -5c23 -11 34 -23 34 -38c0 -4 -4 -29 -4 -33
c-6 -28 -19 -54 -38 -77c-49 -62 -94 -112 -135 -150c-33 -31 -62 -47 -87 -47z" />
    <glyph glyph-name="ucircumflex" unicode="&#xfb;" horiz-adv-x="937" 
d="M753 -28c-14 0 -29 5 -44 14c-25 17 -42 61 -50 134c-3 33 -8 49 -16 49c-7 0 -23 -14 -50 -41c-76 -78 -148 -117 -217 -117h-37c-23 1 -57 30 -100 89c-37 49 -55 112 -55 189c0 43 6 91 17 143c13 61 29 121 48 180c3 11 7 24 11 40c39 168 92 252 159 252
c37 0 61 -17 70 -50c5 -18 8 -37 8 -56c0 -15 -2 -31 -5 -46c-5 -25 -19 -72 -41 -139c-24 -75 -41 -138 -52 -187c-7 -36 -11 -69 -11 -100c0 -14 1 -27 2 -40c5 -37 15 -56 30 -56c25 0 63 41 113 123c34 55 64 110 90 163c33 68 55 115 66 141c75 178 139 267 194 267
c8 0 16 -2 23 -5c32 -14 50 -34 55 -59c2 -8 3 -17 3 -26c0 -13 -2 -26 -5 -40c-4 -17 -15 -54 -32 -112c-21 -67 -38 -131 -51 -193l-14 -63c-5 -24 -7 -57 -7 -98c0 -23 1 -48 2 -76c1 -16 4 -35 9 -56c8 -33 12 -66 12 -100c0 -7 0 -14 -1 -21l-3 -19
c-7 -31 -27 -54 -61 -69c-23 -10 -43 -15 -60 -15zM853 980c-49 0 -88 70 -125 159c-76 -89 -143 -159 -192 -159c-15 0 -29 3 -43 9c-19 8 -29 22 -29 41c0 5 1 10 2 15c7 35 38 81 93 137c13 13 25 27 35 40c16 20 41 45 74 74c26 23 51 34 76 34h48c25 0 45 -11 62 -34
c21 -29 36 -54 43 -74c5 -13 11 -27 18 -40c25 -45 37 -84 37 -115c0 -8 -1 -15 -2 -22c-6 -27 -23 -46 -51 -56c-17 -6 -32 -9 -46 -9z" />
    <glyph glyph-name="udieresis" unicode="&#xfc;" horiz-adv-x="937" 
d="M753 -28c-14 0 -29 5 -44 14c-25 17 -42 61 -50 134c-3 33 -8 49 -16 49c-7 0 -23 -14 -50 -41c-76 -78 -148 -117 -217 -117h-37c-23 1 -57 30 -100 89c-37 49 -55 112 -55 189c0 43 6 91 17 143c13 61 29 121 48 180c3 11 7 24 11 40c39 168 92 252 159 252
c37 0 61 -17 70 -50c5 -18 8 -37 8 -56c0 -15 -2 -31 -5 -46c-5 -25 -19 -72 -41 -139c-24 -75 -41 -138 -52 -187c-7 -36 -11 -69 -11 -100c0 -14 1 -27 2 -40c5 -37 15 -56 30 -56c25 0 63 41 113 123c34 55 64 110 90 163c33 68 55 115 66 141c75 178 139 267 194 267
c8 0 16 -2 23 -5c32 -14 50 -34 55 -59c2 -8 3 -17 3 -26c0 -13 -2 -26 -5 -40c-4 -17 -15 -54 -32 -112c-21 -67 -38 -131 -51 -193l-14 -63c-5 -24 -7 -57 -7 -98c0 -23 1 -48 2 -76c1 -16 4 -35 9 -56c8 -33 12 -66 12 -100c0 -7 0 -14 -1 -21l-3 -19
c-7 -31 -27 -54 -61 -69c-23 -10 -43 -15 -60 -15zM571 1016l-22 1c-38 8 -57 30 -57 67c0 9 1 20 4 31c9 44 33 74 70 90c19 8 38 12 56 12c6 0 16 -1 31 -4c15 -2 26 -14 34 -35c5 -14 7 -27 7 -40c0 -7 -1 -14 -2 -21c-5 -21 -15 -40 -32 -58c-27 -29 -56 -43 -89 -43z
M829 1016l-22 1c-38 8 -57 30 -57 67c0 9 1 20 4 31c9 44 33 74 70 90c19 8 38 12 56 12c6 0 16 -1 31 -4c15 -2 26 -14 34 -35c5 -14 7 -27 7 -40c0 -7 -1 -14 -2 -21c-5 -21 -15 -40 -32 -58c-27 -29 -56 -43 -89 -43z" />
    <glyph glyph-name="yacute" unicode="&#xfd;" horiz-adv-x="904" 
d="M309 -444h-18c-59 0 -113 11 -163 34c-36 16 -63 42 -81 77c-7 14 -11 28 -11 43c0 7 1 13 2 20c4 17 13 34 26 51c24 32 47 48 70 48c25 0 53 -11 85 -33c43 -29 79 -43 109 -43c21 0 44 6 68 19c79 41 107 98 127 177c11 47 32 142 62 283c3 11 4 19 4 24
c0 6 -2 9 -5 9s-9 -4 -16 -11c-21 -21 -45 -40 -72 -57c-36 -23 -71 -34 -104 -34c-47 0 -89 20 -125 59c-38 41 -57 105 -57 191c0 55 8 119 23 192c19 89 42 167 70 234c23 58 59 87 107 87c50 0 75 -33 75 -99c0 -26 -4 -57 -12 -94c-13 -57 -35 -115 -47 -171
c-7 -36 -11 -71 -11 -105v-8c0 -53 9 -79 27 -79c3 0 11 2 24 7s35 30 65 75c31 45 59 90 84 137c26 47 43 79 51 96c10 19 19 41 28 66c35 96 86 159 137 159c7 0 19 -2 38 -7s33 -22 42 -52c2 -6 3 -14 3 -25c0 -31 -8 -83 -23 -154c-11 -51 -42 -176 -92 -375
c-23 -92 -42 -178 -59 -259l-9 -44c-15 -66 -36 -131 -64 -196c-27 -65 -83 -124 -167 -179c-62 -40 -126 -61 -191 -63zM619 980c-15 0 -29 3 -43 9c-19 8 -29 22 -29 41c0 5 1 10 2 15c7 37 38 82 93 137c13 13 25 27 35 40c16 20 41 45 74 74c26 23 51 34 74 34
c9 0 17 -2 24 -5c23 -11 34 -23 34 -38c0 -4 -3 -29 -4 -33c-6 -28 -18 -54 -37 -77c-50 -62 -95 -112 -136 -150c-33 -31 -62 -47 -87 -47z" />
    <glyph glyph-name="thorn" unicode="&#xfe;" horiz-adv-x="956" 
d="M427 209c8 0 18 2 31 5c94 22 174 72 240 149c19 22 38 52 57 89c15 27 24 52 29 77c3 10 5 26 6 47v4c0 19 -15 34 -44 45c-8 3 -17 4 -26 4c-57 0 -135 -54 -206 -138c-53 -65 -84 -122 -95 -171c-3 -13 -6 -25 -10 -37c-3 -9 -6 -18 -7 -26c-2 -8 -3 -16 -3 -23
c0 -8 -4 -25 28 -25zM506 695c12 8 29 22 52 42c25 22 48 40 70 53c23 14 55 26 96 35c21 5 41 7 60 7c41 0 78 -12 111 -35c65 -45 97 -110 97 -194c0 -26 -3 -54 -10 -84c-11 -51 -31 -101 -61 -151c-120 -199 -272 -314 -455 -344c-33 -5 -55 -8 -65 -8
c-35 0 -55 -5 -61 -16c-9 -15 -25 -74 -46 -176c-9 -39 -15 -73 -18 -100c-3 -23 -6 -46 -11 -67c-12 -56 -36 -95 -72 -117c-17 -11 -36 -17 -55 -17c-52 0 -78 33 -78 100c0 25 4 54 11 88l17 82c29 139 62 279 99 421c32 122 51 199 58 230c76 311 130 528 163 653
c31 120 63 203 96 248c25 36 52 54 79 54c2 0 11 -1 26 -3c16 -1 31 -18 44 -51c3 -7 4 -16 4 -29c0 -22 -4 -53 -13 -92c-11 -55 -32 -137 -63 -244c-26 -95 -51 -190 -75 -285z" />
    <glyph glyph-name="ydieresis" unicode="&#xff;" horiz-adv-x="904" 
d="M309 -444h-18c-59 0 -113 11 -163 34c-36 16 -63 42 -81 77c-7 14 -11 28 -11 43c0 7 1 13 2 20c4 17 13 34 26 51c24 32 47 48 70 48c25 0 53 -11 85 -33c43 -29 79 -43 109 -43c21 0 44 6 68 19c79 41 107 98 127 177c11 47 32 142 62 283c3 11 4 19 4 24
c0 6 -2 9 -5 9s-9 -4 -16 -11c-21 -21 -45 -40 -72 -57c-36 -23 -71 -34 -104 -34c-47 0 -89 20 -125 59c-38 41 -57 105 -57 191c0 55 8 119 23 192c19 89 42 167 70 234c23 58 59 87 107 87c50 0 75 -33 75 -99c0 -26 -4 -57 -12 -94c-13 -57 -35 -115 -47 -171
c-7 -36 -11 -71 -11 -105v-8c0 -53 9 -79 27 -79c3 0 11 2 24 7s35 30 65 75c31 45 59 90 84 137c26 47 43 79 51 96c10 19 19 41 28 66c35 96 86 159 137 159c7 0 19 -2 38 -7s33 -22 42 -52c2 -6 3 -14 3 -25c0 -31 -8 -83 -23 -154c-11 -51 -42 -176 -92 -375
c-23 -92 -42 -178 -59 -259l-9 -44c-15 -66 -36 -131 -64 -196c-27 -65 -83 -124 -167 -179c-62 -40 -126 -61 -191 -63zM507 1016l-22 1c-37 8 -56 31 -56 68c0 9 1 19 3 30c9 44 33 74 70 90c19 8 38 12 56 12c6 0 16 -1 31 -4c15 -2 27 -14 34 -35c5 -14 7 -27 7 -40
c0 -7 -1 -14 -2 -21c-5 -21 -15 -40 -32 -58c-26 -29 -56 -43 -89 -43zM765 1016l-22 1c-37 8 -56 31 -56 68c0 9 1 19 3 30c9 44 33 74 70 90c19 8 38 12 56 12c6 0 16 -1 31 -4c15 -2 27 -14 34 -35c5 -14 7 -27 7 -40c0 -7 -1 -14 -2 -21c-5 -21 -15 -40 -32 -58
c-26 -29 -56 -43 -89 -43z" />
    <glyph glyph-name="dotlessi" unicode="&#x131;" horiz-adv-x="520" 
d="M235 -79c-39 0 -63 15 -73 45c-5 15 -8 34 -8 56c0 27 4 59 12 96c30 142 64 284 101 426c9 32 16 62 23 90c28 118 54 203 77 255c24 52 58 78 101 78c26 0 47 -13 64 -40c10 -16 15 -37 15 -62c0 -18 -2 -38 -7 -60c-11 -55 -27 -110 -46 -167
c-23 -69 -49 -171 -78 -305c-7 -31 -13 -62 -18 -92c-7 -34 -14 -68 -21 -103l-11 -52c-5 -25 -14 -52 -26 -79c-25 -57 -60 -86 -105 -86z" />
    <glyph glyph-name="circumflex" unicode="&#x2c6;" horiz-adv-x="624" 
d="M679 980c-49 0 -88 70 -125 159c-76 -89 -143 -159 -192 -159c-15 0 -29 3 -43 9c-19 8 -29 22 -29 41c0 5 1 10 2 15c7 35 38 81 93 137c13 13 25 27 36 40c15 20 40 45 73 74c27 23 52 34 77 34h48c25 0 45 -11 61 -34c21 -29 36 -54 43 -74c5 -13 11 -27 18 -40
c25 -45 37 -84 37 -115c0 -8 -1 -15 -2 -22c-6 -27 -23 -46 -51 -56c-17 -6 -32 -9 -46 -9z" />
    <glyph glyph-name="caron" unicode="&#x2c7;" horiz-adv-x="624" 
d="M436 1330c49 0 88 -70 125 -159c76 89 143 159 192 159c15 0 29 -3 43 -9c19 -8 29 -22 29 -41c0 -5 -1 -10 -2 -15c-7 -35 -38 -81 -93 -137c-13 -13 -25 -27 -36 -40c-15 -20 -40 -45 -73 -74c-27 -23 -52 -34 -77 -34h-48c-25 0 -45 11 -61 34c-21 29 -36 54 -43 74
c-5 13 -11 27 -18 40c-25 45 -37 84 -37 115c0 8 1 15 2 22c6 27 23 46 51 56c17 6 32 9 46 9z" />
    <glyph glyph-name="ring" unicode="&#x2da;" horiz-adv-x="594" 
d="M506 1016h5c48 3 95 41 106 89c1 7 2 13 2 19c0 32 -23 68 -71 68c-57 0 -94 -39 -105 -87c-1 -7 -2 -14 -2 -21c0 -31 20 -68 65 -68zM482 881c-62 0 -111 20 -146 61c-25 29 -38 65 -38 107c0 17 2 34 6 53c14 64 48 118 101 162s111 66 173 66s112 -21 150 -63
c27 -29 40 -63 40 -104c0 -13 -2 -28 -5 -43c-15 -69 -51 -127 -108 -173c-53 -44 -111 -66 -173 -66z" />
    <glyph glyph-name="tilde" unicode="&#x2dc;" horiz-adv-x="813" 
d="M726 993c-52 0 -94 16 -125 47s-62 47 -92 47c-26 0 -53 -13 -81 -38c-27 -25 -58 -38 -93 -38c-27 0 -41 11 -41 34c0 5 1 11 2 17c7 37 41 79 101 126c61 47 118 71 172 71c49 0 88 -15 119 -44s62 -43 93 -43c25 0 54 12 86 35s62 35 89 35c28 0 42 -12 42 -35
c0 -5 -1 -11 -2 -17c-5 -25 -39 -65 -100 -118s-117 -79 -170 -79z" />
    <glyph glyph-name="hungarumlaut" unicode="&#x2dd;" horiz-adv-x="1024" 
d="M219 980c-15 0 -29 3 -43 9c-19 8 -29 22 -29 41c0 5 1 10 2 15c8 37 39 82 93 137c13 13 25 27 36 40c15 20 40 45 73 74c27 23 52 34 75 34c9 0 17 -2 24 -5c23 -11 34 -23 34 -38c0 -4 -4 -29 -4 -33c-6 -28 -19 -54 -38 -77c-50 -62 -95 -112 -136 -150
c-33 -31 -62 -47 -87 -47zM505 980c-15 0 -29 3 -43 9c-19 8 -29 22 -29 41c0 5 1 10 2 15c8 37 39 82 93 137c13 13 25 27 36 40c15 20 40 45 73 74c27 23 52 34 75 34c9 0 17 -2 24 -5c23 -11 34 -23 34 -38c0 -4 -4 -29 -4 -33c-6 -28 -19 -54 -38 -77
c-50 -62 -95 -112 -136 -150c-33 -31 -62 -47 -87 -47z" />
    <glyph glyph-name="endash" unicode="&#x2013;" horiz-adv-x="1592" 
d="M319 379c-44 0 -95 3 -154 8s-96 31 -112 76c-1 3 -1 6 -1 9s0 6 1 9c5 23 27 43 66 60c53 23 127 37 220 42c73 4 151 6 235 6c131 0 300 11 477 14c109 1 192 4 249 7c41 2 80 3 118 3c44 0 95 -3 154 -8s97 -31 112 -76c1 -3 2 -7 2 -11c0 -2 0 -4 -1 -7
c-5 -23 -27 -43 -66 -60c-53 -23 -127 -37 -220 -42c-73 -4 -151 -6 -235 -6c-131 0 -300 -11 -477 -14c-109 -1 -192 -4 -249 -7c-41 -2 -80 -3 -119 -3z" />
    <glyph glyph-name="emdash" unicode="&#x2014;" horiz-adv-x="2183" 
d="M424 379c-60 0 -130 3 -211 8s-133 31 -158 76c-2 4 -3 8 -3 12c0 2 0 4 1 6c5 23 34 43 86 60c71 23 169 37 296 42c99 4 205 6 320 6c177 0 409 11 649 14c149 1 262 4 339 7c55 2 109 3 162 3c60 0 130 -3 211 -8s133 -31 158 -76c2 -4 3 -8 3 -12c0 -2 0 -4 -1 -6
c-5 -23 -34 -43 -86 -60c-71 -23 -169 -37 -296 -42c-99 -4 -205 -6 -320 -6c-177 0 -409 -11 -649 -14c-149 -1 -262 -4 -339 -7c-55 -2 -109 -3 -162 -3z" />
    <glyph glyph-name="quoteleft" unicode="&#x2018;" horiz-adv-x="358" 
d="M634 1536c19 0 39 -9 59 -27c14 -13 21 -31 21 -54c0 -9 -1 -19 -3 -30c-11 -51 -48 -123 -113 -216c-14 -21 -32 -52 -55 -94c-29 -58 -61 -106 -96 -143c-20 -7 -32 -27 -65 -27c-53 0 -79 26 -79 78v2c5 41 9 64 10 70c4 21 12 42 24 65c13 23 38 65 77 125
c9 13 18 29 28 48c21 37 44 74 71 112s55 66 86 83c11 5 23 8 35 8z" />
    <glyph glyph-name="quoteright" unicode="&#x2019;" horiz-adv-x="358" 
d="M382 945c-19 0 -39 9 -59 27c-15 13 -22 31 -22 55c0 9 1 18 3 29c11 51 49 123 113 216c15 21 33 52 55 94c30 58 62 106 97 143c20 7 31 27 64 27c53 0 79 -26 79 -78v-2c-5 -41 -8 -64 -9 -70c-5 -21 -13 -43 -26 -66c-12 -23 -37 -64 -75 -124
c-9 -13 -18 -29 -28 -48c-21 -37 -45 -74 -72 -112c-26 -38 -54 -66 -85 -83c-11 -5 -23 -8 -35 -8z" />
    <glyph glyph-name="quotesinglbase" unicode="&#x201a;" horiz-adv-x="310" 
d="M-32 -337c-19 0 -39 9 -59 27c-14 13 -21 31 -21 54c0 9 1 19 3 30c11 51 48 123 113 216c14 21 32 52 55 94c29 58 61 106 96 143c20 7 32 27 65 27c53 0 79 -26 79 -78v-2c-5 -41 -8 -64 -9 -70c-5 -21 -13 -43 -26 -66c-12 -23 -37 -64 -75 -124
c-9 -13 -19 -29 -28 -48c-21 -37 -45 -74 -72 -112c-26 -38 -55 -66 -86 -83c-11 -5 -23 -8 -35 -8z" />
    <glyph glyph-name="quotedblleft" unicode="&#x201c;" horiz-adv-x="818" 
d="M634 1536c19 0 39 -9 59 -27c14 -13 21 -31 21 -54c0 -9 -1 -19 -3 -30c-11 -51 -48 -123 -113 -216c-14 -21 -32 -52 -55 -94c-29 -58 -61 -106 -96 -143c-20 -7 -32 -27 -65 -27c-53 0 -79 26 -79 78v2c5 41 9 64 10 70c4 21 12 42 24 65c13 23 38 65 77 125
c9 13 18 29 28 48c21 37 44 74 71 112s55 66 86 83c11 5 23 8 35 8zM1094 1536c19 0 39 -9 59 -27c14 -13 21 -31 21 -54c0 -9 -1 -19 -3 -30c-11 -51 -48 -123 -113 -216c-14 -21 -32 -52 -55 -94c-29 -58 -61 -106 -96 -143c-20 -7 -32 -27 -65 -27c-53 0 -79 26 -79 78v2
c5 41 8 64 9 70c5 21 13 42 25 65c13 23 38 65 76 125c9 13 19 29 28 48c21 37 45 74 71 112c27 38 56 66 87 83c11 5 23 8 35 8z" />
    <glyph glyph-name="quotedblright" unicode="&#x201d;" horiz-adv-x="818" 
d="M382 945c-19 0 -39 9 -59 27c-15 13 -22 31 -22 55c0 9 1 18 3 29c11 51 49 123 113 216c15 21 33 52 55 94c30 58 62 106 97 143c20 7 31 27 64 27c53 0 79 -26 79 -78v-2c-5 -41 -8 -64 -9 -70c-5 -21 -13 -43 -26 -66c-12 -23 -37 -64 -75 -124
c-9 -13 -18 -29 -28 -48c-21 -37 -45 -74 -72 -112c-26 -38 -54 -66 -85 -83c-11 -5 -23 -8 -35 -8zM842 945c-19 0 -39 9 -60 27c-14 13 -21 31 -21 54c0 9 1 19 3 30c11 51 49 123 113 216c15 21 33 52 55 94c30 58 62 106 96 143c21 7 32 27 65 27c53 0 79 -26 79 -78v-2
c-5 -41 -8 -64 -9 -70c-5 -21 -13 -43 -26 -66c-12 -23 -37 -64 -75 -124c-9 -13 -18 -29 -28 -48c-21 -37 -45 -74 -72 -112c-26 -38 -55 -66 -86 -83c-11 -5 -22 -8 -34 -8z" />
    <glyph glyph-name="quotedblbase" unicode="&#x201e;" horiz-adv-x="818" 
d="M118 -295c-19 0 -39 9 -59 27c-14 13 -21 31 -21 54c0 9 1 19 3 30c11 51 48 123 113 216c14 21 32 52 55 94c29 58 61 106 96 143c20 7 32 27 65 27c53 0 79 -26 79 -78v-2c-5 -41 -9 -64 -10 -70c-4 -21 -12 -43 -25 -66c-12 -23 -37 -64 -75 -124
c-9 -13 -19 -29 -29 -48c-21 -37 -44 -74 -71 -112s-55 -66 -86 -83c-11 -5 -23 -8 -35 -8zM578 -295c-19 0 -39 9 -59 27c-15 13 -22 30 -22 53c0 9 1 20 4 31c11 51 48 123 112 216c15 21 33 52 55 94c30 58 62 106 97 143c20 7 32 27 65 27c53 0 79 -26 79 -78v-2
c-5 -41 -9 -64 -10 -70c-5 -21 -13 -43 -26 -66c-12 -23 -37 -64 -75 -124c-9 -13 -18 -29 -28 -48c-21 -37 -45 -74 -72 -112c-26 -38 -54 -66 -85 -83c-11 -5 -23 -8 -35 -8z" />
    <glyph glyph-name="dagger" unicode="&#x2020;" horiz-adv-x="1102" 
d="M473 -291c-15 0 -28 5 -39 16c-20 18 -30 41 -30 70v3c1 57 15 146 41 269l35 169c29 137 57 261 82 371s50 220 74 331c5 24 13 61 22 111l25 127c-53 -4 -85 -7 -98 -10c-35 -7 -70 -10 -105 -10c-21 0 -42 2 -63 5c-18 3 -33 14 -44 32c-6 10 -9 22 -9 36
c0 8 1 16 3 25c16 69 44 104 85 104l61 -1c39 0 78 3 118 9c21 3 53 7 94 11c27 122 47 196 60 221c16 31 41 51 76 62c13 4 24 6 35 6c31 0 51 -18 59 -53c3 -15 5 -31 5 -46s-2 -35 -7 -59s-8 -41 -10 -51c-5 -22 -10 -43 -15 -64l65 4c23 0 45 2 68 6c15 2 30 4 45 5
c11 1 22 2 32 3c21 4 42 6 62 6c40 0 64 -6 72 -18c3 -6 7 -22 10 -49c1 -6 1 -12 1 -17c0 -7 -1 -15 -2 -22c-7 -34 -24 -60 -49 -77c-16 -11 -40 -19 -73 -22l-276 -20c-21 -101 -47 -228 -79 -379c-55 -243 -92 -413 -113 -510c-31 -149 -60 -299 -87 -450
c-5 -23 -12 -44 -19 -62c-13 -29 -38 -52 -74 -71c-13 -7 -26 -11 -38 -11z" />
    <glyph glyph-name="daggerdbl" unicode="&#x2021;" horiz-adv-x="1102" 
d="M473 -291c-15 0 -28 5 -39 16c-20 18 -30 41 -30 70v3c1 42 9 102 23 180c-52 -5 -85 -8 -98 -10c-35 -7 -69 -10 -104 -10c-21 0 -42 2 -63 5c-18 3 -33 14 -44 32c-6 10 -9 22 -9 36c0 8 1 16 3 25c16 69 44 104 85 104l62 -1c39 0 77 3 116 9c22 3 53 7 93 11l12 57
c29 137 57 261 82 371s50 220 74 331c5 24 13 61 22 111l25 127c-52 -4 -85 -7 -98 -10c-35 -7 -70 -10 -105 -10c-21 0 -42 2 -63 5c-18 3 -33 14 -44 32c-6 10 -9 22 -9 36c0 8 1 16 3 25c16 69 44 104 85 104l61 -1c39 0 78 3 118 9c21 3 53 7 94 11
c27 122 47 196 60 221c16 31 41 51 76 62c13 4 24 6 35 6c31 0 51 -18 59 -53c3 -15 5 -31 5 -46s-2 -35 -7 -59s-8 -41 -10 -51c-5 -22 -10 -43 -15 -64l65 4c23 0 45 2 68 6c15 2 30 4 45 5c11 1 22 2 32 3c21 4 42 6 62 6c40 0 64 -6 72 -18c3 -6 7 -22 10 -49
c1 -6 1 -12 1 -17c0 -7 -1 -15 -2 -22c-7 -34 -24 -60 -49 -77c-16 -11 -40 -19 -72 -22l-277 -20c-21 -101 -47 -228 -79 -379c-55 -243 -92 -413 -113 -510l-22 -109l69 5c23 0 46 2 69 6c14 2 29 4 45 5c11 1 22 2 31 3c22 4 43 6 63 6c40 0 64 -6 72 -18
c3 -6 6 -22 9 -49c1 -6 1 -12 1 -17c0 -7 -1 -15 -2 -22c-7 -34 -23 -60 -48 -77c-17 -11 -41 -19 -74 -22l-274 -20l-26 -141c-5 -23 -12 -44 -19 -62c-13 -29 -38 -52 -74 -71c-13 -7 -26 -11 -38 -11z" />
    <glyph glyph-name="bullet" unicode="&#x2022;" horiz-adv-x="1024" 
d="M444 450c-49 0 -98 14 -146 41c-75 41 -118 93 -127 154c-2 13 -3 26 -3 40c0 23 3 47 8 73c31 143 99 244 206 303c73 41 147 62 223 62c4 0 27 -1 70 -3c43 -1 86 -29 130 -83c39 -47 58 -98 58 -155c0 -19 -2 -38 -7 -59s-20 -65 -47 -130s-91 -129 -193 -191
c-56 -35 -113 -52 -172 -52z" />
    <glyph glyph-name="ellipsis" unicode="&#x2026;" horiz-adv-x="2048" 
d="M162 -63c-25 0 -49 7 -73 21c-38 21 -59 46 -64 77c-1 6 -1 12 -1 19c0 12 1 25 4 38c15 71 49 122 103 152c37 21 74 31 112 31c2 0 14 0 35 -1s43 -15 66 -42c19 -23 28 -49 28 -77c0 -10 -1 -20 -3 -30c-2 -11 -10 -33 -24 -66c-13 -33 -46 -65 -97 -96
c-28 -17 -57 -26 -86 -26zM845 -63c-25 0 -49 7 -73 21c-38 21 -59 46 -64 77c-1 6 -1 12 -1 19c0 12 1 25 4 38c15 71 49 122 103 152c37 21 74 31 112 31c2 0 14 0 35 -1s43 -15 66 -42c19 -23 28 -49 28 -77c0 -10 -1 -20 -3 -30c-2 -11 -10 -33 -24 -66
c-13 -33 -46 -65 -97 -96c-28 -17 -57 -26 -86 -26zM1528 -63c-25 0 -49 7 -73 21c-38 21 -59 46 -64 77c-1 6 -1 12 -1 19c0 12 1 25 4 38c15 71 49 122 103 152c37 21 74 31 112 31c2 0 14 0 35 -1s43 -15 66 -42c19 -23 28 -49 28 -77c0 -10 -1 -20 -3 -30
c-2 -11 -10 -33 -24 -66c-13 -33 -46 -65 -97 -96c-28 -17 -57 -26 -86 -26z" />
    <glyph glyph-name="guilsinglleft" unicode="&#x2039;" horiz-adv-x="733" 
d="M356 53c-11 0 -21 2 -31 7c-27 9 -47 30 -62 62c-24 49 -38 114 -70 177l-40 103c-5 13 -7 26 -7 39c0 7 1 14 2 21c4 20 14 40 31 60l84 102c57 63 99 128 144 177c28 32 58 53 89 62c12 5 23 7 34 7c16 0 30 -4 42 -13c21 -17 32 -33 32 -50c0 -3 0 -5 -1 -8
c-1 -4 -2 -8 -5 -12c-17 -35 -39 -68 -68 -101c-17 -19 -41 -48 -72 -87c-24 -31 -49 -61 -74 -89c-15 -17 -28 -33 -40 -48c5 -15 12 -31 20 -48c13 -29 25 -59 36 -90c13 -39 25 -68 34 -87c15 -33 24 -66 26 -101v-4c0 -3 0 -5 -1 -8c-4 -19 -22 -39 -55 -58
c-16 -9 -32 -13 -48 -13z" />
    <glyph glyph-name="guilsinglright" unicode="&#x203a;" horiz-adv-x="733" 
d="M149 53c-16 0 -30 4 -42 13c-21 17 -32 33 -32 50c0 3 0 5 1 8c1 4 3 8 5 12c17 35 39 68 68 101c17 19 41 48 72 87c24 31 49 61 74 90c15 17 28 33 40 48c-5 15 -12 31 -20 48c-13 28 -25 58 -36 89c-13 39 -25 68 -34 87c-15 33 -24 66 -26 101c0 4 0 8 1 12
c4 19 22 39 55 58c16 9 32 13 48 13c11 0 21 -2 32 -7c26 -9 46 -30 61 -62c24 -49 38 -114 70 -177l40 -102c5 -13 7 -26 7 -39c0 -7 -1 -14 -2 -21c-4 -20 -14 -40 -31 -60l-84 -103c-57 -63 -99 -128 -144 -177c-28 -32 -57 -53 -88 -62c-13 -5 -24 -7 -35 -7z" />
    <glyph glyph-name="fraction" unicode="&#x2044;" horiz-adv-x="540" 
d="M-138 -168c-9 0 -17 2 -26 5c-36 11 -54 34 -54 67c0 7 1 15 3 24c8 39 46 102 113 191c78 103 135 175 171 218c22 26 43 52 64 79c111 145 274 335 489 570c67 73 121 133 162 181c36 42 73 83 111 124c71 76 125 114 161 114c23 0 40 -13 50 -40c8 -20 12 -37 12 -51
c0 -5 -1 -10 -2 -15c0 -1 -1 -7 -4 -16c-2 -9 -14 -28 -37 -56c-86 -105 -179 -210 -279 -313c-152 -157 -315 -347 -489 -570c-32 -41 -65 -82 -99 -123c-89 -108 -149 -189 -182 -242c-60 -98 -115 -147 -164 -147z" />
    <glyph glyph-name="fraction" unicode="&#x2215;" horiz-adv-x="540" 
d="M-138 -168c-9 0 -17 2 -26 5c-36 11 -54 34 -54 67c0 7 1 15 3 24c8 39 46 102 113 191c78 103 135 175 171 218c22 26 43 52 64 79c111 145 274 335 489 570c67 73 121 133 162 181c36 42 73 83 111 124c71 76 125 114 161 114c23 0 40 -13 50 -40c8 -20 12 -37 12 -51
c0 -5 -1 -10 -2 -15c0 -1 -1 -7 -4 -16c-2 -9 -14 -28 -37 -56c-86 -105 -179 -210 -279 -313c-152 -157 -315 -347 -489 -570c-32 -41 -65 -82 -99 -123c-89 -108 -149 -189 -182 -242c-60 -98 -115 -147 -164 -147z" />
    <glyph glyph-name="franc" unicode="&#x20a3;" horiz-adv-x="1073" 
d="M230 -114c-9 0 -23 -3 -39 24c-14 24 -21 48 -21 73c0 5 0 9 1 13c1 13 4 27 7 40c2 11 8 35 19 74c-22 -1 -43 -2 -64 -2c-58 0 -88 24 -91 72v7c0 8 1 15 2 22c6 27 22 51 47 74c21 15 49 25 84 28l70 5c26 123 48 217 67 284c37 139 73 277 108 416
c41 164 66 261 75 292c9 34 20 64 33 90c29 59 103 94 222 107c58 6 149 13 273 20c96 5 152 9 168 12c32 5 64 7 96 7c9 0 27 -1 53 -2s45 -17 58 -47c1 -2 1 -9 2 -20c1 -5 1 -11 1 -16c0 -11 0 -29 -3 -38c-17 -59 -107 -90 -268 -91c-23 0 -42 -1 -57 -2
c-17 -1 -42 -3 -74 -4c-161 -8 -260 -19 -297 -33c-9 -3 -17 -18 -23 -45l-11 -41c-23 -95 -41 -165 -55 -210c-17 -59 -31 -111 -41 -157c-5 -26 -8 -48 -8 -67v-11c12 -1 25 -1 38 -1c47 0 139 10 278 30c99 15 170 22 212 22c9 0 21 -1 36 -3c15 -1 26 -11 33 -30
s11 -37 11 -52c0 -7 -1 -14 -2 -20c-3 -17 -15 -34 -34 -53c-33 -32 -108 -54 -223 -65c-110 -10 -186 -16 -229 -19c-102 -4 -161 -16 -177 -37c-14 -18 -35 -87 -64 -208c39 1 66 2 82 2c34 0 62 -3 84 -10c29 -10 43 -31 43 -63c0 -9 -1 -19 -4 -30
c-7 -37 -24 -65 -51 -85c-21 -13 -88 -20 -200 -21c-3 -13 -5 -25 -6 -37c-4 -24 -9 -49 -14 -74c-5 -26 -12 -45 -19 -57c-25 -41 -52 -61 -81 -61c-32 0 -38 -2 -47 -2z" />
    </font>
</defs>
</svg>
