<svg width="221" height="99" viewBox="0 0 221 99" fill="none" xmlns="http://www.w3.org/2000/svg">
<path d="M1.904 30.672C1.56267 30.672 1.28533 30.5547 1.072 30.32C0.858667 30.0853 0.752 29.6693 0.752 29.072C0.752 28.624 0.890667 27.8987 1.168 26.896C1.46667 25.872 1.86133 24.6773 2.352 23.312C2.864 21.9467 3.42933 20.5067 4.048 18.992C4.688 17.456 5.34933 15.9307 6.032 14.416C6.71467 12.9013 7.38667 11.504 8.048 10.224C8.70933 8.92267 9.31733 7.824 9.872 6.928C10.4267 6.032 10.896 5.44533 11.28 5.168C11.728 4.848 12.144 4.688 12.528 4.688C12.7413 4.688 12.9547 4.70933 13.168 4.752C13.3813 4.79467 13.5627 4.86933 13.712 4.976C14.096 5.21067 14.4267 5.73333 14.704 6.544C15.0027 7.33333 15.2587 8.304 15.472 9.456C15.6853 10.5867 15.856 11.8027 15.984 13.104C16.1333 14.384 16.2613 15.6533 16.368 16.912C17.008 16.8267 17.5413 16.7627 17.968 16.72C18.3947 16.6773 18.704 16.656 18.896 16.656C19.6213 16.656 20.08 16.752 20.272 16.944C20.464 17.136 20.5707 17.36 20.592 17.616C20.6347 18 20.528 18.3413 20.272 18.64C20.016 18.9387 19.6533 19.1627 19.184 19.312C19.0347 19.3547 18.7147 19.4293 18.224 19.536C17.7547 19.6213 17.1893 19.728 16.528 19.856C16.5493 20.496 16.56 21.0933 16.56 21.648C16.5813 22.1813 16.592 22.64 16.592 23.024C16.592 24.9653 16.4747 26.4267 16.24 27.408C16.0053 28.368 15.7173 29.0187 15.376 29.36C15.0347 29.7013 14.704 29.872 14.384 29.872C14 29.872 13.7333 29.7653 13.584 29.552C13.4347 29.3173 13.36 28.9867 13.36 28.56V26.288C13.36 25.4987 13.3493 24.6027 13.328 23.6C13.328 22.576 13.3173 21.4987 13.296 20.368C12.0373 20.5813 10.7573 20.784 9.456 20.976C8.176 21.168 7.06667 21.3387 6.128 21.488C5.65867 22.704 5.25333 23.8027 4.912 24.784C4.57067 25.744 4.336 26.48 4.208 26.992C3.888 28.0587 3.6 28.8587 3.344 29.392C3.088 29.904 2.84267 30.2453 2.608 30.416C2.39467 30.5867 2.16 30.672 1.904 30.672ZM7.216 18.64C8.32533 18.384 9.38133 18.1493 10.384 17.936C11.408 17.7227 12.3467 17.5413 13.2 17.392C13.136 15.472 13.0187 13.6373 12.848 11.888C12.6987 10.1173 12.4747 8.72 12.176 7.696C11.7707 8.4 11.2907 9.33867 10.736 10.512C10.1813 11.6853 9.59467 12.9867 8.976 14.416C8.37867 15.824 7.792 17.232 7.216 18.64ZM27.9243 29.264C27.3056 29.264 26.7509 28.912 26.2603 28.208C25.7696 27.504 25.5243 26.5973 25.5243 25.488C25.5243 24.272 25.6843 22.9707 26.0043 21.584C26.3456 20.1973 26.7616 18.7893 27.2523 17.36C27.7429 15.9093 28.2229 14.512 28.6923 13.168C28.7989 12.8907 28.9483 12.688 29.1403 12.56C29.3536 12.4107 29.6736 12.336 30.1003 12.336C30.8683 12.336 31.2523 12.7093 31.2523 13.456C31.2523 13.6267 31.1669 14.0107 30.9963 14.608C30.8256 15.2053 30.6016 15.9413 30.3243 16.816C30.0683 17.6907 29.8016 18.64 29.5243 19.664C29.2469 20.6667 29.0016 21.68 28.7883 22.704C28.5749 23.728 28.4256 24.6773 28.3403 25.552C28.6816 25.1893 29.0656 24.6347 29.4923 23.888C29.9403 23.1413 30.4203 22.2987 30.9323 21.36C31.4443 20.4 31.9776 19.44 32.5323 18.48C33.0869 17.4987 33.6416 16.6027 34.1963 15.792C34.7723 14.96 35.3269 14.2987 35.8603 13.808C36.4149 13.296 36.9269 13.04 37.3963 13.04C38.0789 13.04 38.6549 13.2533 39.1243 13.68C39.6149 14.0853 39.9883 14.8107 40.2443 15.856C40.5216 16.88 40.6603 18.3307 40.6603 20.208C40.6603 21.2107 40.7563 22.1493 40.9483 23.024C41.1616 23.8987 41.4923 24.6027 41.9403 25.136C42.4096 25.648 43.0069 25.904 43.7323 25.904C44.8203 25.904 45.7909 25.712 46.6443 25.328C47.4976 24.9227 48.2336 24.4747 48.8523 23.984C49.4923 23.472 50.0256 23.024 50.4523 22.64C50.8789 22.2347 51.2096 22.032 51.4443 22.032C51.9349 22.032 52.1803 22.288 52.1803 22.8C52.1803 23.0133 52.0203 23.3547 51.7003 23.824C51.4016 24.272 50.9749 24.784 50.4203 25.36C49.8869 25.9147 49.2683 26.4587 48.5643 26.992C47.8816 27.504 47.1456 27.9307 46.3563 28.272C45.5883 28.6133 44.8096 28.784 44.0203 28.784C42.5483 28.784 41.3429 28.496 40.4043 27.92C39.4869 27.344 38.8043 26.3947 38.3563 25.072C37.9296 23.7493 37.7163 21.9787 37.7163 19.76C37.7163 18.544 37.6416 17.6587 37.4923 17.104C37.3643 16.528 37.1189 16.144 36.7563 15.952C36.5003 16.4 36.1696 17.04 35.7643 17.872C35.3589 18.6827 34.8896 19.5893 34.3563 20.592C33.8443 21.5947 33.3003 22.608 32.7243 23.632C32.1696 24.6347 31.6043 25.5627 31.0283 26.416C30.4523 27.2693 29.8976 27.9627 29.3643 28.496C28.8309 29.008 28.3509 29.264 27.9243 29.264ZM51.8238 30.832C51.0131 30.832 50.3411 30.4587 49.8078 29.712C49.2958 28.944 49.0398 27.952 49.0398 26.736C49.0398 25.6053 49.3171 24.4853 49.8718 23.376C50.4478 22.2667 51.2051 21.2 52.1438 20.176C53.0824 19.152 54.1064 18.2133 55.2158 17.36C56.3251 16.4853 57.4344 15.728 58.5438 15.088C59.6744 14.448 60.7091 13.9467 61.6478 13.584C62.5864 13.2213 63.3331 13.04 63.8878 13.04C64.1864 13.04 64.4318 13.104 64.6238 13.232C64.8158 13.3387 64.9118 13.5413 64.9118 13.84C64.9118 14.032 64.8371 14.2133 64.6878 14.384C64.7091 14.384 64.7304 14.384 64.7518 14.384C65.2211 14.384 65.4558 14.6613 65.4558 15.216C65.4558 15.408 65.3811 15.8027 65.2318 16.4C65.0824 16.976 64.9118 17.7013 64.7198 18.576C64.5278 19.4507 64.3571 20.4213 64.2078 21.488C64.0584 22.5333 63.9838 23.6 63.9838 24.688C63.9838 25.6053 64.3358 26.064 65.0398 26.064C65.8291 26.064 66.6291 25.8827 67.4398 25.52C68.2504 25.1573 69.0398 24.72 69.8078 24.208C70.5758 23.6747 71.2798 23.152 71.9198 22.64C72.5598 22.1067 73.1038 21.6587 73.5518 21.296C73.9998 20.9333 74.3198 20.752 74.5118 20.752C74.6824 20.752 74.8318 20.8053 74.9598 20.912C75.0878 21.0187 75.1518 21.1893 75.1518 21.424C75.1518 21.6373 74.9384 22.0213 74.5118 22.576C74.0851 23.1307 73.5198 23.76 72.8158 24.464C72.1118 25.168 71.3224 25.8507 70.4478 26.512C69.5731 27.1733 68.6771 27.7173 67.7598 28.144C66.8424 28.5707 65.9678 28.784 65.1358 28.784C64.4958 28.784 63.9091 28.592 63.3758 28.208C62.8638 27.8027 62.4478 27.12 62.1278 26.16C61.8291 25.2 61.6798 23.8773 61.6798 22.192V21.392C60.6344 23.12 59.5358 24.6987 58.3838 26.128C57.2531 27.5573 56.1224 28.6987 54.9918 29.552C53.8824 30.4053 52.8264 30.832 51.8238 30.832ZM63.2798 15.344C63.1731 15.3867 63.0238 15.4507 62.8318 15.536C61.8504 15.984 60.8264 16.5387 59.7598 17.2C58.7144 17.8613 57.6904 18.5973 56.6878 19.408C55.7064 20.2187 54.8211 21.0613 54.0318 21.936C53.2424 22.8107 52.6131 23.696 52.1438 24.592C51.6744 25.488 51.4398 26.3627 51.4398 27.216C51.4398 27.4933 51.4931 27.7067 51.5998 27.856C51.7278 28.0053 51.9411 28.08 52.2398 28.08C52.6664 28.08 53.2211 27.8133 53.9038 27.28C54.5864 26.7253 55.3331 26 56.1438 25.104C56.9758 24.208 57.8078 23.216 58.6398 22.128C59.4718 21.04 60.2611 19.9413 61.0078 18.832C61.7758 17.7227 62.4371 16.6987 62.9918 15.76C63.0771 15.6107 63.1731 15.472 63.2798 15.344ZM102.564 25.264C102.798 25.264 103.022 25.36 103.236 25.552C103.449 25.744 103.556 26.0533 103.556 26.48C103.556 26.8213 103.3 27.2267 102.788 27.696C102.276 28.144 101.614 28.5813 100.804 29.008C100.014 29.4347 99.1608 29.7867 98.2435 30.064C97.3262 30.3627 96.4622 30.512 95.6515 30.512C94.4995 30.512 93.4115 30.2133 92.3875 29.616C91.3848 29.0187 90.5635 28.1547 89.9235 27.024C89.2835 25.872 88.9635 24.4747 88.9635 22.832C88.9635 21.3813 89.2302 19.9307 89.7635 18.48C90.2968 17.0293 91.0008 15.632 91.8755 14.288C92.7715 12.944 93.7528 11.696 94.8195 10.544C95.9075 9.392 96.9955 8.38933 98.0835 7.536C99.1715 6.68267 100.185 6.02133 101.124 5.552C102.084 5.06133 102.873 4.816 103.492 4.816C103.918 4.816 104.26 4.976 104.516 5.296C104.793 5.59467 104.932 5.92533 104.932 6.288C104.932 6.50133 104.868 6.71467 104.74 6.928C104.633 7.14133 104.441 7.312 104.164 7.44C102.777 8.12267 101.369 8.99733 99.9395 10.064C98.5102 11.1307 97.1875 12.3467 95.9715 13.712C94.7555 15.056 93.7742 16.5173 93.0275 18.096C92.2808 19.6533 91.9075 21.296 91.9075 23.024C91.9075 24.5173 92.2595 25.6587 92.9635 26.448C93.6675 27.216 94.6275 27.6 95.8435 27.6C96.4835 27.6 97.1448 27.4827 97.8275 27.248C98.5315 27.0133 99.1928 26.7467 99.8115 26.448C100.452 26.128 101.006 25.8507 101.476 25.616C101.966 25.3813 102.329 25.264 102.564 25.264ZM115.911 31.28C114.269 31.28 112.978 30.7467 112.04 29.68C111.122 28.592 110.664 27.0773 110.664 25.136C110.664 23.9413 110.824 22.544 111.144 20.944C111.485 19.3227 111.912 17.616 112.424 15.824C112.957 14.0107 113.533 12.2187 114.152 10.448C114.77 8.67733 115.368 7.03467 115.944 5.52C116.541 3.984 117.064 2.704 117.512 1.68C117.768 1.104 118.13 0.815998 118.6 0.815998C119.24 0.815998 119.56 1.21066 119.56 2C119.56 2.256 119.442 2.77867 119.208 3.568C118.973 4.35733 118.664 5.33867 118.28 6.512C117.896 7.664 117.48 8.944 117.032 10.352C116.584 11.76 116.125 13.2107 115.656 14.704C115.208 16.176 114.792 17.6373 114.408 19.088C114.024 20.5173 113.714 21.8613 113.48 23.12C113.245 24.3787 113.128 25.456 113.128 26.352C113.128 26.928 113.277 27.3867 113.576 27.728C113.896 28.048 114.322 28.208 114.856 28.208C115.837 28.208 116.818 28.016 117.8 27.632C118.802 27.2267 119.762 26.736 120.68 26.16C121.597 25.5627 122.429 24.976 123.176 24.4C123.944 23.8027 124.594 23.312 125.128 22.928C125.661 22.5227 126.034 22.32 126.248 22.32C126.717 22.32 126.952 22.576 126.952 23.088C126.952 23.2587 126.781 23.5787 126.44 24.048C126.098 24.496 125.64 25.0293 125.064 25.648C124.488 26.2667 123.816 26.9067 123.048 27.568C122.301 28.208 121.512 28.816 120.68 29.392C119.869 29.9467 119.048 30.3947 118.216 30.736C117.405 31.0987 116.637 31.28 115.911 31.28ZM127.636 30.832C126.826 30.832 126.154 30.4587 125.62 29.712C125.108 28.944 124.852 27.952 124.852 26.736C124.852 25.6053 125.13 24.4853 125.684 23.376C126.26 22.2667 127.018 21.2 127.956 20.176C128.895 19.152 129.919 18.2133 131.028 17.36C132.138 16.4853 133.247 15.728 134.356 15.088C135.487 14.448 136.522 13.9467 137.46 13.584C138.399 13.2213 139.146 13.04 139.7 13.04C139.999 13.04 140.244 13.104 140.436 13.232C140.628 13.3387 140.724 13.5413 140.724 13.84C140.724 14.032 140.65 14.2133 140.5 14.384C140.522 14.384 140.543 14.384 140.564 14.384C141.034 14.384 141.268 14.6613 141.268 15.216C141.268 15.408 141.194 15.8027 141.044 16.4C140.895 16.976 140.724 17.7013 140.532 18.576C140.34 19.4507 140.17 20.4213 140.02 21.488C139.871 22.5333 139.796 23.6 139.796 24.688C139.796 25.6053 140.148 26.064 140.852 26.064C141.642 26.064 142.442 25.8827 143.252 25.52C144.063 25.1573 144.852 24.72 145.62 24.208C146.388 23.6747 147.092 23.152 147.732 22.64C148.372 22.1067 148.916 21.6587 149.364 21.296C149.812 20.9333 150.132 20.752 150.324 20.752C150.495 20.752 150.644 20.8053 150.772 20.912C150.9 21.0187 150.964 21.1893 150.964 21.424C150.964 21.6373 150.751 22.0213 150.324 22.576C149.898 23.1307 149.332 23.76 148.628 24.464C147.924 25.168 147.135 25.8507 146.26 26.512C145.386 27.1733 144.49 27.7173 143.572 28.144C142.655 28.5707 141.78 28.784 140.948 28.784C140.308 28.784 139.722 28.592 139.188 28.208C138.676 27.8027 138.26 27.12 137.94 26.16C137.642 25.2 137.492 23.8773 137.492 22.192V21.392C136.447 23.12 135.348 24.6987 134.196 26.128C133.066 27.5573 131.935 28.6987 130.804 29.552C129.695 30.4053 128.639 30.832 127.636 30.832ZM139.092 15.344C138.986 15.3867 138.836 15.4507 138.644 15.536C137.663 15.984 136.639 16.5387 135.572 17.2C134.527 17.8613 133.503 18.5973 132.5 19.408C131.519 20.2187 130.634 21.0613 129.844 21.936C129.055 22.8107 128.426 23.696 127.956 24.592C127.487 25.488 127.252 26.3627 127.252 27.216C127.252 27.4933 127.306 27.7067 127.412 27.856C127.54 28.0053 127.754 28.08 128.052 28.08C128.479 28.08 129.034 27.8133 129.716 27.28C130.399 26.7253 131.146 26 131.956 25.104C132.788 24.208 133.62 23.216 134.452 22.128C135.284 21.04 136.074 19.9413 136.82 18.832C137.588 17.7227 138.25 16.6987 138.804 15.76C138.89 15.6107 138.986 15.472 139.092 15.344ZM158.581 30.768C158.219 30.768 157.909 30.608 157.653 30.288C157.397 29.968 157.269 29.4987 157.269 28.88C157.269 28.1547 157.376 27.12 157.589 25.776C157.824 24.432 158.165 22.6507 158.613 20.432C158.037 21.7973 157.397 23.088 156.693 24.304C156.011 25.52 155.285 26.512 154.517 27.28C153.749 28.048 152.96 28.432 152.149 28.432C151.36 28.432 150.656 28.1227 150.037 27.504C149.44 26.8853 149.141 25.7973 149.141 24.24C149.141 23.3653 149.216 22.384 149.365 21.296C149.515 20.1867 149.707 19.088 149.941 18C150.176 16.912 150.411 15.9413 150.645 15.088C150.88 14.2133 151.093 13.5733 151.285 13.168C151.435 12.8267 151.584 12.6027 151.733 12.496C151.883 12.368 152.085 12.304 152.341 12.304C152.64 12.304 152.96 12.432 153.301 12.688C153.643 12.944 153.813 13.3707 153.813 13.968C153.813 14.1173 153.739 14.4693 153.589 15.024C153.461 15.5573 153.291 16.2187 153.077 17.008C152.885 17.776 152.683 18.608 152.469 19.504C152.256 20.4 152.075 21.296 151.925 22.192C151.797 23.088 151.733 23.9093 151.733 24.656C151.733 25.0613 151.776 25.392 151.861 25.648C151.947 25.904 152.16 26.032 152.501 26.032C152.8 26.032 153.173 25.7333 153.621 25.136C154.091 24.5387 154.592 23.7493 155.125 22.768C155.68 21.7653 156.245 20.656 156.821 19.44C157.419 18.224 157.995 16.976 158.549 15.696C159.125 14.416 159.648 13.2 160.117 12.048C160.288 11.664 160.469 11.4293 160.661 11.344C160.853 11.2373 161.067 11.184 161.301 11.184C161.685 11.184 162.027 11.344 162.325 11.664C162.645 11.9627 162.805 12.3573 162.805 12.848C162.805 13.168 162.741 13.7227 162.613 14.512C162.507 15.3013 162.347 16.2293 162.133 17.296C161.941 18.3413 161.717 19.4507 161.461 20.624C161.227 21.7973 160.992 22.96 160.757 24.112C160.523 25.2427 160.299 26.2773 160.085 27.216C159.893 28.1547 159.733 28.912 159.605 29.488C159.499 30.0213 159.349 30.3627 159.157 30.512C158.987 30.6827 158.795 30.768 158.581 30.768ZM179.069 13.904C179.645 12.5173 180.189 11.088 180.701 9.616C181.234 8.144 181.714 6.64 182.141 5.104C182.269 4.67733 182.461 4.336 182.717 4.08C182.994 3.80267 183.314 3.664 183.677 3.664C183.933 3.664 184.146 3.76 184.317 3.952C184.509 4.144 184.605 4.4 184.605 4.72C184.605 5.12533 184.445 5.82933 184.125 6.832C183.826 7.83467 183.442 9.104 182.973 10.64C182.525 12.176 182.066 13.9467 181.597 15.952C181.149 17.936 180.765 20.1333 180.445 22.544C180.146 24.9547 179.997 27.5253 179.997 30.256C179.997 30.8533 179.869 31.344 179.613 31.728C179.357 32.1333 179.048 32.336 178.685 32.336C178.472 32.336 178.269 32.2827 178.077 32.176C177.885 32.0693 177.714 31.8133 177.565 31.408C177.437 31.024 177.33 30.416 177.245 29.584C177.16 28.7307 177.117 27.5787 177.117 26.128C177.117 25.0187 177.181 23.8133 177.309 22.512C176.328 24.2827 175.261 25.8293 174.109 27.152C172.978 28.4533 171.88 29.456 170.813 30.16C169.768 30.864 168.872 31.216 168.125 31.216C167.208 31.216 166.461 30.9067 165.885 30.288C165.33 29.6907 165.053 28.7947 165.053 27.6C165.053 26.5547 165.298 25.4773 165.789 24.368C166.28 23.2587 166.93 22.1707 167.741 21.104C168.552 20.016 169.448 18.992 170.429 18.032C171.41 17.072 172.392 16.2293 173.373 15.504C174.376 14.7573 175.304 14.1813 176.157 13.776C177.01 13.3493 177.704 13.136 178.237 13.136C178.45 13.136 178.642 13.2107 178.813 13.36C178.984 13.5093 179.069 13.6907 179.069 13.904ZM178.653 14.896C178.504 15.0453 178.322 15.1947 178.109 15.344C177.896 15.4933 177.661 15.6533 177.405 15.824C176.466 16.4853 175.432 17.2533 174.301 18.128C173.192 18.9813 172.125 19.92 171.101 20.944C170.098 21.9467 169.277 23.0027 168.637 24.112C167.997 25.2213 167.677 26.3627 167.677 27.536C167.677 28.048 167.933 28.304 168.445 28.304C169.149 28.304 169.917 27.9733 170.749 27.312C171.602 26.6293 172.477 25.6907 173.373 24.496C174.269 23.28 175.165 21.8613 176.061 20.24C176.957 18.5973 177.821 16.816 178.653 14.896ZM187.918 30.16C187.513 30.16 187.15 30.0107 186.83 29.712C186.51 29.392 186.35 28.9013 186.35 28.24C186.35 27.7707 186.414 27.12 186.542 26.288C186.67 25.4347 186.841 24.5067 187.054 23.504C187.267 22.5013 187.491 21.5093 187.726 20.528C187.982 19.5253 188.238 18.6293 188.494 17.84C188.75 17.0507 188.974 16.464 189.166 16.08C189.337 15.7813 189.497 15.5893 189.646 15.504C189.817 15.4187 189.977 15.376 190.126 15.376C190.425 15.376 190.681 15.472 190.894 15.664C191.129 15.856 191.246 16.2293 191.246 16.784C191.246 17.104 191.182 17.6373 191.054 18.384C190.947 19.1093 190.798 19.9627 190.606 20.944C190.435 21.904 190.243 22.896 190.03 23.92C189.838 24.9227 189.646 25.8827 189.454 26.8C189.262 27.7173 189.113 28.4853 189.006 29.104C188.921 29.4453 188.771 29.712 188.558 29.904C188.366 30.0747 188.153 30.16 187.918 30.16ZM191.054 12.464C190.563 12.464 190.094 12.3147 189.646 12.016C189.219 11.7173 189.006 11.2373 189.006 10.576C189.006 10.0213 189.134 9.57333 189.39 9.232C189.667 8.89067 189.987 8.64533 190.35 8.496C190.734 8.32533 191.065 8.24 191.342 8.24C191.619 8.24 191.929 8.304 192.27 8.432C192.633 8.53867 192.942 8.752 193.198 9.072C193.454 9.37067 193.582 9.81867 193.582 10.416C193.582 10.8213 193.443 11.184 193.166 11.504C192.889 11.8027 192.547 12.0373 192.142 12.208C191.758 12.3787 191.395 12.464 191.054 12.464ZM197.168 30.832C196.357 30.832 195.685 30.4587 195.152 29.712C194.64 28.944 194.384 27.952 194.384 26.736C194.384 25.6053 194.661 24.4853 195.216 23.376C195.792 22.2667 196.549 21.2 197.488 20.176C198.426 19.152 199.45 18.2133 200.56 17.36C201.669 16.4853 202.778 15.728 203.888 15.088C205.018 14.448 206.053 13.9467 206.992 13.584C207.93 13.2213 208.677 13.04 209.232 13.04C209.53 13.04 209.776 13.104 209.968 13.232C210.16 13.3387 210.256 13.5413 210.256 13.84C210.256 14.032 210.181 14.2133 210.032 14.384C210.053 14.384 210.074 14.384 210.096 14.384C210.565 14.384 210.8 14.6613 210.8 15.216C210.8 15.408 210.725 15.8027 210.576 16.4C210.426 16.976 210.256 17.7013 210.064 18.576C209.872 19.4507 209.701 20.4213 209.552 21.488C209.402 22.5333 209.328 23.6 209.328 24.688C209.328 25.6053 209.68 26.064 210.384 26.064C211.173 26.064 211.973 25.8827 212.784 25.52C213.594 25.1573 214.384 24.72 215.152 24.208C215.92 23.6747 216.624 23.152 217.264 22.64C217.904 22.1067 218.448 21.6587 218.896 21.296C219.344 20.9333 219.664 20.752 219.856 20.752C220.026 20.752 220.176 20.8053 220.304 20.912C220.432 21.0187 220.496 21.1893 220.496 21.424C220.496 21.6373 220.282 22.0213 219.856 22.576C219.429 23.1307 218.864 23.76 218.16 24.464C217.456 25.168 216.666 25.8507 215.792 26.512C214.917 27.1733 214.021 27.7173 213.104 28.144C212.186 28.5707 211.312 28.784 210.48 28.784C209.84 28.784 209.253 28.592 208.72 28.208C208.208 27.8027 207.792 27.12 207.472 26.16C207.173 25.2 207.024 23.8773 207.024 22.192V21.392C205.978 23.12 204.88 24.6987 203.728 26.128C202.597 27.5573 201.466 28.6987 200.336 29.552C199.226 30.4053 198.17 30.832 197.168 30.832ZM208.624 15.344C208.517 15.3867 208.368 15.4507 208.176 15.536C207.194 15.984 206.17 16.5387 205.104 17.2C204.058 17.8613 203.034 18.5973 202.032 19.408C201.05 20.2187 200.165 21.0613 199.376 21.936C198.586 22.8107 197.957 23.696 197.488 24.592C197.018 25.488 196.784 26.3627 196.784 27.216C196.784 27.4933 196.837 27.7067 196.944 27.856C197.072 28.0053 197.285 28.08 197.584 28.08C198.01 28.08 198.565 27.8133 199.248 27.28C199.93 26.7253 200.677 26 201.488 25.104C202.32 24.208 203.152 23.216 203.984 22.128C204.816 21.04 205.605 19.9413 206.352 18.832C207.12 17.7227 207.781 16.6987 208.336 15.76C208.421 15.6107 208.517 15.472 208.624 15.344ZM3.92 89.648C3.62133 89.648 3.344 89.5627 3.088 89.392C2.85333 89.2213 2.672 88.88 2.544 88.368C2.416 87.8347 2.352 87.056 2.352 86.032C2.352 83.8987 2.55467 81.7867 2.96 79.696C3.36533 77.6053 3.94133 75.6427 4.688 73.808C5.43467 71.952 6.32 70.32 7.344 68.912C8.38933 67.4827 9.54133 66.3627 10.8 65.552C12.08 64.7413 13.4347 64.336 14.864 64.336C16.4213 64.336 17.648 64.816 18.544 65.776C19.44 66.7147 19.888 68.0587 19.888 69.808C19.888 71.4293 19.4293 72.7733 18.512 73.84C17.616 74.9067 16.368 75.44 14.768 75.44C14.4907 75.44 14.192 75.4187 13.872 75.376C13.552 75.312 13.2213 75.2267 12.88 75.12C14.1813 77.296 15.4827 79.184 16.784 80.784C18.0853 82.384 19.408 83.824 20.752 85.104C22.1173 86.3627 23.504 87.5787 24.912 88.752C25.1253 88.944 25.2853 89.136 25.392 89.328C25.4987 89.4987 25.552 89.7013 25.552 89.936C25.552 90.2987 25.4667 90.5653 25.296 90.736C25.1467 90.9067 24.8267 90.992 24.336 90.992C23.8027 90.992 23.1413 90.7573 22.352 90.288C21.584 89.8187 20.7413 89.1787 19.824 88.368C18.9067 87.5573 17.9787 86.64 17.04 85.616C16.1013 84.592 15.1947 83.5253 14.32 82.416C13.4667 81.2853 12.6987 80.1867 12.016 79.12C11.3333 78.032 10.7893 77.0293 10.384 76.112C10 75.1947 9.808 74.416 9.808 73.776C9.808 73.3493 9.91467 73.0187 10.128 72.784C10.3413 72.528 10.6293 72.4 10.992 72.4C11.4613 72.4 11.888 72.464 12.272 72.592C12.6773 72.72 13.104 72.784 13.552 72.784C14.7253 72.784 15.6533 72.4853 16.336 71.888C17.04 71.2693 17.392 70.256 17.392 68.848C17.392 67.6107 16.56 66.992 14.896 66.992C13.744 66.992 12.6347 67.4507 11.568 68.368C10.5013 69.264 9.52 70.5547 8.624 72.24C7.74933 73.9253 7.024 75.952 6.448 78.32C5.872 80.6667 5.49867 83.2907 5.328 86.192C5.28533 87.1947 5.18933 87.9413 5.04 88.432C4.912 88.9227 4.752 89.2533 4.56 89.424C4.38933 89.5733 4.176 89.648 3.92 89.648ZM34.182 90.32C32.9233 90.32 31.9313 89.84 31.206 88.88C30.4807 87.92 30.118 86.672 30.118 85.136C30.118 84.5813 30.1927 83.9947 30.342 83.376C30.5127 82.736 30.726 82.16 30.982 81.648C30.8327 81.4987 30.7153 81.296 30.63 81.04C30.5447 80.7627 30.502 80.4213 30.502 80.016C30.502 78.7573 30.7153 77.6053 31.142 76.56C31.5687 75.5147 32.134 74.608 32.838 73.84C33.542 73.0507 34.3207 72.4427 35.174 72.016C36.0487 71.5893 36.934 71.376 37.83 71.376C39.302 71.376 40.4967 71.9093 41.414 72.976C42.3313 74.0213 42.79 75.6213 42.79 77.776C42.79 78.9067 42.6193 80.0587 42.278 81.232C41.958 82.4053 41.51 83.536 40.934 84.624C40.3793 85.712 39.7287 86.6827 38.982 87.536C38.2567 88.3893 37.478 89.072 36.646 89.584C35.8353 90.0747 35.014 90.32 34.182 90.32ZM33.094 80.56C33.222 80.7307 33.286 80.9547 33.286 81.232C33.286 81.552 33.222 81.872 33.094 82.192C32.9873 82.512 32.87 82.9493 32.742 83.504C32.614 84.0587 32.55 84.848 32.55 85.872C32.55 86.896 32.9553 87.408 33.766 87.408C34.662 87.408 35.494 87.056 36.262 86.352C37.03 85.6267 37.7127 84.6987 38.31 83.568C38.9073 82.4373 39.366 81.232 39.686 79.952C40.0273 78.6507 40.198 77.424 40.198 76.272C40.198 75.5253 40.0593 75.0027 39.782 74.704C39.5047 74.384 39.0033 74.224 38.278 74.224C37.5313 74.224 36.7527 74.48 35.942 74.992C35.1527 75.4827 34.4913 76.1547 33.958 77.008C33.4247 77.8613 33.158 78.8213 33.158 79.888C33.158 80.1227 33.1367 80.3467 33.094 80.56ZM58.7878 73.904C59.3638 72.5173 59.9078 71.088 60.4198 69.616C60.9531 68.144 61.4331 66.64 61.8598 65.104C61.9878 64.6773 62.1798 64.336 62.4358 64.08C62.7131 63.8027 63.0331 63.664 63.3958 63.664C63.6518 63.664 63.8651 63.76 64.0358 63.952C64.2278 64.144 64.3238 64.4 64.3238 64.72C64.3238 65.1253 64.1638 65.8293 63.8438 66.832C63.5451 67.8347 63.1611 69.104 62.6918 70.64C62.2438 72.176 61.7851 73.9467 61.3158 75.952C60.8678 77.936 60.4838 80.1333 60.1638 82.544C59.8651 84.9547 59.7158 87.5253 59.7158 90.256C59.7158 90.8533 59.5878 91.344 59.3318 91.728C59.0758 92.1333 58.7664 92.336 58.4038 92.336C58.1904 92.336 57.9878 92.2827 57.7958 92.176C57.6038 92.0693 57.4331 91.8133 57.2838 91.408C57.1558 91.024 57.0491 90.416 56.9638 89.584C56.8784 88.7307 56.8358 87.5787 56.8358 86.128C56.8358 85.0187 56.8998 83.8133 57.0278 82.512C56.0464 84.2827 54.9798 85.8293 53.8278 87.152C52.6971 88.4533 51.5984 89.456 50.5318 90.16C49.4864 90.864 48.5904 91.216 47.8438 91.216C46.9264 91.216 46.1798 90.9067 45.6038 90.288C45.0491 89.6907 44.7718 88.7947 44.7718 87.6C44.7718 86.5547 45.0171 85.4773 45.5078 84.368C45.9984 83.2587 46.6491 82.1707 47.4598 81.104C48.2704 80.016 49.1664 78.992 50.1478 78.032C51.1291 77.072 52.1104 76.2293 53.0918 75.504C54.0944 74.7573 55.0224 74.1813 55.8758 73.776C56.7291 73.3493 57.4224 73.136 57.9558 73.136C58.1691 73.136 58.3611 73.2107 58.5318 73.36C58.7024 73.5093 58.7878 73.6907 58.7878 73.904ZM58.3718 74.896C58.2224 75.0453 58.0411 75.1947 57.8278 75.344C57.6144 75.4933 57.3798 75.6533 57.1238 75.824C56.1851 76.4853 55.1504 77.2533 54.0198 78.128C52.9104 78.9813 51.8438 79.92 50.8198 80.944C49.8171 81.9467 48.9958 83.0027 48.3558 84.112C47.7158 85.2213 47.3958 86.3627 47.3958 87.536C47.3958 88.048 47.6518 88.304 48.1638 88.304C48.8678 88.304 49.6358 87.9733 50.4678 87.312C51.3211 86.6293 52.1958 85.6907 53.0918 84.496C53.9878 83.28 54.8838 81.8613 55.7798 80.24C56.6758 78.5973 57.5398 76.816 58.3718 74.896ZM67.5245 90.608C67.1832 90.608 66.8952 90.4693 66.6605 90.192C66.4258 89.9147 66.3085 89.5307 66.3085 89.04C66.3085 88.6773 66.3832 88.08 66.5325 87.248C66.7032 86.3947 66.8845 85.4027 67.0765 84.272C67.2898 83.1413 67.4712 81.968 67.6205 80.752C67.7698 79.5147 67.8445 78.3307 67.8445 77.2C67.8445 76.6453 67.9832 76.24 68.2605 75.984C68.5592 75.7067 68.8898 75.568 69.2525 75.568C69.5938 75.568 69.8498 75.7813 70.0205 76.208C70.1912 76.6347 70.2232 77.488 70.1165 78.768C71.0978 76.592 72.1752 74.8427 73.3485 73.52C74.5432 72.176 75.7272 71.216 76.9005 70.64C78.0738 70.0427 79.1298 69.744 80.0685 69.744C80.6872 69.744 81.1352 69.872 81.4125 70.128C81.7112 70.3627 81.8605 70.6293 81.8605 70.928C81.8605 71.3333 81.6898 71.6533 81.3485 71.888C81.0285 72.1013 80.4632 72.3573 79.6525 72.656C78.7138 73.0187 77.8498 73.4453 77.0605 73.936C76.2925 74.4053 75.5565 75.024 74.8525 75.792C74.1698 76.56 73.4978 77.5413 72.8365 78.736C72.1752 79.9093 71.5138 81.36 70.8525 83.088C70.1912 84.816 69.4872 86.896 68.7405 89.328C68.6125 89.7973 68.4418 90.128 68.2285 90.32C68.0365 90.512 67.8018 90.608 67.5245 90.608ZM83.2618 90.16C82.8564 90.16 82.4938 90.0107 82.1738 89.712C81.8538 89.392 81.6938 88.9013 81.6938 88.24C81.6938 87.7707 81.7578 87.12 81.8858 86.288C82.0138 85.4347 82.1844 84.5067 82.3978 83.504C82.6111 82.5013 82.8351 81.5093 83.0698 80.528C83.3258 79.5253 83.5818 78.6293 83.8378 77.84C84.0938 77.0507 84.3178 76.464 84.5098 76.08C84.6804 75.7813 84.8404 75.5893 84.9898 75.504C85.1604 75.4187 85.3204 75.376 85.4698 75.376C85.7684 75.376 86.0244 75.472 86.2378 75.664C86.4724 75.856 86.5898 76.2293 86.5898 76.784C86.5898 77.104 86.5258 77.6373 86.3978 78.384C86.2911 79.1093 86.1418 79.9627 85.9498 80.944C85.7791 81.904 85.5871 82.896 85.3738 83.92C85.1818 84.9227 84.9898 85.8827 84.7977 86.8C84.6058 87.7173 84.4564 88.4853 84.3498 89.104C84.2644 89.4453 84.1151 89.712 83.9018 89.904C83.7098 90.0747 83.4964 90.16 83.2618 90.16ZM86.3978 72.464C85.9071 72.464 85.4378 72.3147 84.9898 72.016C84.5631 71.7173 84.3498 71.2373 84.3498 70.576C84.3498 70.0213 84.4778 69.5733 84.7338 69.232C85.0111 68.8907 85.3311 68.6453 85.6938 68.496C86.0778 68.3253 86.4084 68.24 86.6858 68.24C86.9631 68.24 87.2724 68.304 87.6138 68.432C87.9764 68.5387 88.2858 68.752 88.5417 69.072C88.7978 69.3707 88.9258 69.8187 88.9258 70.416C88.9258 70.8213 88.7871 71.184 88.5098 71.504C88.2324 71.8027 87.8911 72.0373 87.4858 72.208C87.1018 72.3787 86.7391 72.464 86.3978 72.464ZM92.675 98.448C91.0323 98.448 89.827 98.288 89.059 97.968C88.291 97.648 87.907 97.2213 87.907 96.688C87.907 96.3467 88.0137 96.0693 88.227 95.856C88.4617 95.6427 88.7497 95.536 89.091 95.536C89.4537 95.536 89.9763 95.5893 90.659 95.696C91.3417 95.824 92.0137 95.888 92.675 95.888C94.8723 95.888 96.675 95.2373 98.083 93.936C99.491 92.6347 100.568 90.64 101.315 87.952C102.062 85.2427 102.563 81.7867 102.819 77.584C102.179 78.8853 101.454 80.1867 100.643 81.488C99.8537 82.768 99.0003 83.9413 98.083 85.008C97.187 86.0533 96.259 86.896 95.299 87.536C94.339 88.176 93.3897 88.496 92.451 88.496C91.555 88.496 90.8937 88.272 90.467 87.824C90.0617 87.376 89.859 86.64 89.859 85.616C89.859 84.6987 90.115 83.728 90.627 82.704C91.139 81.6587 91.8217 80.6133 92.675 79.568C93.5283 78.5227 94.467 77.5307 95.491 76.592C96.515 75.632 97.539 74.7893 98.563 74.064C99.6083 73.3173 100.579 72.7307 101.475 72.304C102.371 71.8773 103.096 71.664 103.651 71.664C104.206 71.664 104.632 71.856 104.931 72.24C105.23 72.624 105.379 73.3493 105.379 74.416C105.379 76.912 105.294 79.344 105.123 81.712C104.974 84.0587 104.664 86.2453 104.195 88.272C103.726 90.2987 103.022 92.0693 102.083 93.584C101.166 95.12 99.939 96.3147 98.403 97.168C96.867 98.0213 94.9577 98.448 92.675 98.448ZM102.243 74.448C101.176 75.1307 100.078 75.8987 98.947 76.752C97.8163 77.6053 96.7603 78.512 95.779 79.472C94.819 80.432 94.0403 81.424 93.443 82.448C92.8457 83.472 92.547 84.496 92.547 85.52C92.547 85.84 92.7497 86 93.155 86C93.475 86 93.9123 85.7547 94.467 85.264C95.043 84.752 95.683 84.08 96.387 83.248C97.091 82.3947 97.8057 81.4667 98.531 80.464C99.2777 79.44 99.971 78.4053 100.611 77.36C101.251 76.3147 101.795 75.344 102.243 74.448ZM120.831 90.768C120.469 90.768 120.159 90.608 119.903 90.288C119.647 89.968 119.519 89.4987 119.519 88.88C119.519 88.1547 119.626 87.12 119.839 85.776C120.074 84.432 120.415 82.6507 120.863 80.432C120.287 81.7973 119.647 83.088 118.943 84.304C118.261 85.52 117.535 86.512 116.767 87.28C115.999 88.048 115.21 88.432 114.399 88.432C113.61 88.432 112.906 88.1227 112.287 87.504C111.69 86.8853 111.391 85.7973 111.391 84.24C111.391 83.3653 111.466 82.384 111.615 81.296C111.765 80.1867 111.957 79.088 112.191 78C112.426 76.912 112.661 75.9413 112.895 75.088C113.13 74.2133 113.343 73.5733 113.535 73.168C113.685 72.8267 113.834 72.6027 113.983 72.496C114.133 72.368 114.335 72.304 114.591 72.304C114.89 72.304 115.21 72.432 115.551 72.688C115.893 72.944 116.063 73.3707 116.063 73.968C116.063 74.1173 115.989 74.4693 115.839 75.024C115.711 75.5573 115.541 76.2187 115.327 77.008C115.135 77.776 114.933 78.608 114.719 79.504C114.506 80.4 114.325 81.296 114.175 82.192C114.047 83.088 113.983 83.9093 113.983 84.656C113.983 85.0613 114.026 85.392 114.111 85.648C114.197 85.904 114.41 86.032 114.751 86.032C115.05 86.032 115.423 85.7333 115.871 85.136C116.341 84.5387 116.842 83.7493 117.375 82.768C117.93 81.7653 118.495 80.656 119.071 79.44C119.669 78.224 120.245 76.976 120.799 75.696C121.375 74.416 121.898 73.2 122.367 72.048C122.538 71.664 122.719 71.4293 122.911 71.344C123.103 71.2373 123.317 71.184 123.551 71.184C123.935 71.184 124.277 71.344 124.575 71.664C124.895 71.9627 125.055 72.3573 125.055 72.848C125.055 73.168 124.991 73.7227 124.863 74.512C124.757 75.3013 124.597 76.2293 124.383 77.296C124.191 78.3413 123.967 79.4507 123.711 80.624C123.477 81.7973 123.242 82.96 123.007 84.112C122.773 85.2427 122.549 86.2773 122.335 87.216C122.143 88.1547 121.983 88.912 121.855 89.488C121.749 90.0213 121.599 90.3627 121.407 90.512C121.237 90.6827 121.045 90.768 120.831 90.768ZM141.81 76.208C141.81 76.8907 141.597 77.5627 141.17 78.224C140.744 78.864 140.178 79.4827 139.474 80.08C138.77 80.656 137.992 81.2 137.138 81.712C136.285 82.224 135.432 82.672 134.578 83.056C133.725 83.44 132.946 83.7493 132.242 83.984C132.072 84.816 131.986 85.552 131.986 86.192C131.986 86.5973 132.082 86.8853 132.274 87.056C132.466 87.2267 132.765 87.312 133.17 87.312C134.066 87.312 135.016 87.152 136.018 86.832C137.021 86.512 138.045 86.096 139.09 85.584C140.136 85.072 141.138 84.528 142.098 83.952C143.058 83.376 143.933 82.832 144.722 82.32C145.533 81.808 146.205 81.392 146.738 81.072C147.272 80.752 147.624 80.592 147.794 80.592C148.05 80.592 148.242 80.6773 148.37 80.848C148.52 80.9973 148.594 81.1787 148.594 81.392C148.594 81.5627 148.328 81.8933 147.794 82.384C147.282 82.8747 146.589 83.4507 145.714 84.112C144.84 84.752 143.858 85.4133 142.77 86.096C141.682 86.7787 140.552 87.4187 139.378 88.016C138.226 88.6133 137.106 89.0933 136.018 89.456C134.952 89.8187 133.992 90 133.138 90C132.029 90 131.165 89.584 130.546 88.752C129.928 87.92 129.618 86.6293 129.618 84.88C129.618 83.7067 129.768 82.5227 130.066 81.328C130.386 80.1333 130.813 78.992 131.346 77.904C131.901 76.7947 132.509 75.8133 133.17 74.96C133.853 74.0853 134.568 73.4027 135.314 72.912C136.061 72.4 136.786 72.144 137.49 72.144C138.834 72.144 139.89 72.5173 140.658 73.264C141.426 74.0107 141.81 74.992 141.81 76.208ZM132.914 81.52C133.576 81.1147 134.258 80.688 134.962 80.24C135.666 79.792 136.317 79.3333 136.914 78.864C137.512 78.3947 137.992 77.904 138.354 77.392C138.738 76.8587 138.93 76.3147 138.93 75.76C138.93 74.9707 138.504 74.576 137.65 74.576C137.117 74.576 136.552 74.9173 135.954 75.6C135.378 76.2613 134.824 77.1253 134.29 78.192C133.757 79.2587 133.298 80.368 132.914 81.52ZM150.74 90.704C150.271 90.704 149.908 90.5653 149.652 90.288C149.418 90.032 149.3 89.7333 149.3 89.392C149.3 89.0933 149.428 88.816 149.684 88.56C149.962 88.2827 150.335 88.0373 150.804 87.824C151.658 87.376 152.458 86.928 153.204 86.48C153.972 86.032 154.591 85.552 155.06 85.04C155.53 84.528 155.764 83.984 155.764 83.408C155.764 82.9173 155.604 82.544 155.284 82.288C154.964 82.0107 154.527 81.872 153.972 81.872C153.652 81.872 153.204 81.936 152.628 82.064C152.052 82.1707 151.423 82.2987 150.74 82.448C150.079 82.576 149.428 82.704 148.788 82.832C148.148 82.9387 147.604 82.992 147.156 82.992C146.346 82.992 145.738 82.8 145.332 82.416C144.927 82.0107 144.724 81.4667 144.724 80.784C144.724 80.4427 144.927 79.9307 145.332 79.248C145.738 78.5653 146.271 77.808 146.932 76.976C147.615 76.1227 148.362 75.2693 149.172 74.416C149.983 73.5627 150.804 72.7733 151.636 72.048C152.49 71.3227 153.279 70.736 154.004 70.288C154.751 69.84 155.37 69.616 155.86 69.616C156.351 69.616 156.724 69.776 156.98 70.096C157.236 70.416 157.364 70.8213 157.364 71.312C157.364 71.696 157.3 72.0267 157.172 72.304C157.044 72.56 156.778 72.7627 156.372 72.912C155.988 73.0613 155.391 73.1467 154.58 73.168C153.748 73.8293 152.863 74.5867 151.924 75.44C151.007 76.272 150.164 77.136 149.396 78.032C148.65 78.9067 148.106 79.7493 147.764 80.56C148.468 80.3253 149.322 80.1227 150.324 79.952C151.348 79.76 152.383 79.664 153.428 79.664C155.071 79.664 156.287 80.0373 157.076 80.784C157.887 81.5093 158.292 82.4693 158.292 83.664C158.292 84.432 158.047 85.232 157.556 86.064C157.087 86.8747 156.468 87.632 155.7 88.336C154.932 89.04 154.111 89.6053 153.236 90.032C152.362 90.48 151.53 90.704 150.74 90.704Z" fill="black"/>
</svg>
