<svg width="43" height="33" viewBox="0 0 43 33" fill="none" xmlns="http://www.w3.org/2000/svg">
<g id="envelope-regular 1" clip-path="url(#clip0_206_12)" filter="url(#filter0_d_206_12)">
<path id="Vector" d="M8.375 3.125C7.77344 3.125 7.28125 3.59375 7.28125 4.16667V5.60547L19.0732 14.8242C20.4883 15.931 22.5186 15.931 23.9336 14.8242L35.7188 5.60547V4.16667C35.7188 3.59375 35.2266 3.125 34.625 3.125H8.375ZM7.28125 9.64844V20.8333C7.28125 21.4062 7.77344 21.875 8.375 21.875H34.625C35.2266 21.875 35.7188 21.4062 35.7188 20.8333V9.64844L26.0117 17.2396C23.3867 19.2904 19.6064 19.2904 16.9883 17.2396L7.28125 9.64844ZM4 4.16667C4 1.86849 5.96191 0 8.375 0H34.625C37.0381 0 39 1.86849 39 4.16667V20.8333C39 23.1315 37.0381 25 34.625 25H8.375C5.96191 25 4 23.1315 4 20.8333V4.16667Z" fill="#FF5B4D"/>
</g>
<defs>
<filter id="filter0_d_206_12" x="0" y="0" width="43" height="33" filterUnits="userSpaceOnUse" color-interpolation-filters="sRGB">
<feFlood flood-opacity="0" result="BackgroundImageFix"/>
<feColorMatrix in="SourceAlpha" type="matrix" values="0 0 0 0 0 0 0 0 0 0 0 0 0 0 0 0 0 0 127 0" result="hardAlpha"/>
<feOffset dy="4"/>
<feGaussianBlur stdDeviation="2"/>
<feComposite in2="hardAlpha" operator="out"/>
<feColorMatrix type="matrix" values="0 0 0 0 0 0 0 0 0 0 0 0 0 0 0 0 0 0 0.25 0"/>
<feBlend mode="normal" in2="BackgroundImageFix" result="effect1_dropShadow_206_12"/>
<feBlend mode="normal" in="SourceGraphic" in2="effect1_dropShadow_206_12" result="shape"/>
</filter>
<clipPath id="clip0_206_12">
<rect width="35" height="25" fill="white" transform="translate(4)"/>
</clipPath>
</defs>
</svg>
