<svg width="40" height="35" viewBox="0 0 40 35" fill="none" xmlns="http://www.w3.org/2000/svg">
<g id="instagram 1" clip-path="url(#clip0_206_16)">
<path id="Vector" d="M20.0089 9.63867C14.3303 9.63867 9.74998 13.1455 9.74998 17.4932C9.74998 21.8408 14.3303 25.3477 20.0089 25.3477C25.6875 25.3477 30.2678 21.8408 30.2678 17.4932C30.2678 13.1455 25.6875 9.63867 20.0089 9.63867ZM20.0089 22.5996C16.3393 22.5996 13.3393 20.3096 13.3393 17.4932C13.3393 14.6768 16.3303 12.3867 20.0089 12.3867C23.6875 12.3867 26.6786 14.6768 26.6786 17.4932C26.6786 20.3096 23.6786 22.5996 20.0089 22.5996ZM33.0803 9.31738C33.0803 10.3359 32.0089 11.1494 30.6875 11.1494C29.3571 11.1494 28.2946 10.3291 28.2946 9.31738C28.2946 8.30566 29.3661 7.48535 30.6875 7.48535C32.0089 7.48535 33.0803 8.30566 33.0803 9.31738ZM39.875 11.1768C39.7232 8.72266 38.9911 6.54883 36.6428 4.75781C34.3036 2.9668 31.4643 2.40625 28.2589 2.2832C24.9553 2.13965 15.0536 2.13965 11.75 2.2832C8.55355 2.39941 5.71427 2.95996 3.36605 4.75098C1.01784 6.54199 0.294625 8.71582 0.133911 11.1699C-0.0535889 13.6992 -0.0535889 21.2803 0.133911 23.8096C0.285697 26.2637 1.01784 28.4375 3.36605 30.2285C5.71427 32.0195 8.54463 32.5801 11.75 32.7031C15.0536 32.8467 24.9553 32.8467 28.2589 32.7031C31.4643 32.5869 34.3036 32.0264 36.6428 30.2285C38.9821 28.4375 39.7143 26.2637 39.875 23.8096C40.0625 21.2803 40.0625 13.7061 39.875 11.1768ZM35.6071 26.5234C34.9107 27.8633 33.5625 28.8955 31.8036 29.4355C29.1696 30.2354 22.9196 30.0508 20.0089 30.0508C17.0982 30.0508 10.8393 30.2285 8.21427 29.4355C6.46427 28.9023 5.11605 27.8701 4.4107 26.5234C3.36605 24.5068 3.60713 19.7217 3.60713 17.4932C3.60713 15.2646 3.37498 10.4727 4.4107 8.46289C5.10713 7.12305 6.45534 6.09082 8.21427 5.55078C10.8482 4.75098 17.0982 4.93555 20.0089 4.93555C22.9196 4.93555 29.1786 4.75781 31.8036 5.55078C33.5536 6.08398 34.9018 7.11621 35.6071 8.46289C36.6518 10.4795 36.4107 15.2646 36.4107 17.4932C36.4107 19.7217 36.6518 24.5137 35.6071 26.5234Z" fill="#FF5B4D"/>
</g>
<defs>
<clipPath id="clip0_206_16">
<rect width="40" height="35" fill="white"/>
</clipPath>
</defs>
</svg>
