<svg width="35" height="31" viewBox="0 0 35 31" fill="none" xmlns="http://www.w3.org/2000/svg">
<path d="M32.5 0.1875H2.49219C1.11719 0.1875 0 1.17871 0 2.39551V28.6045C0 29.8213 1.11719 30.8125 2.49219 30.8125H32.5C33.875 30.8125 35 29.8213 35 28.6045V2.39551C35 1.17871 33.875 0.1875 32.5 0.1875ZM10.5781 26.4375H5.39062V11.8223H10.5859V26.4375H10.5781ZM7.98437 9.82617C6.32031 9.82617 4.97656 8.64355 4.97656 7.19434C4.97656 5.74512 6.32031 4.5625 7.98437 4.5625C9.64062 4.5625 10.9922 5.74512 10.9922 7.19434C10.9922 8.65039 9.64844 9.82617 7.98437 9.82617ZM30.0234 26.4375H24.8359V19.3281C24.8359 17.6328 24.7969 15.4521 22.1406 15.4521C19.4375 15.4521 19.0234 17.2979 19.0234 19.2051V26.4375H13.8359V11.8223H18.8125V13.8184H18.8828C19.5781 12.6699 21.2734 11.46 23.7969 11.46C29.0469 11.46 30.0234 14.4883 30.0234 18.4258V26.4375Z" fill="#FF5B4D"/>
</svg>
