<svg width="1136" height="100" viewBox="0 0 1136 100" fill="none" xmlns="http://www.w3.org/2000/svg">
<path d="M698.864 55.048C698.464 55.048 698.04 54.928 697.592 54.688C697.144 54.448 696.728 54.056 696.344 53.512C695.976 52.968 695.672 52.248 695.432 51.352C695.192 50.456 695.072 49.352 695.072 48.04C695.072 47 695.2 45.944 695.456 44.872C695.728 43.784 696.144 42.76 696.704 41.8C697.28 40.824 698.016 39.984 698.912 39.28C699.824 38.56 700.928 38.064 702.224 37.792C702.784 37.664 703.416 37.544 704.12 37.432C704.84 37.304 705.568 37.192 706.304 37.096C707.056 36.984 707.76 36.896 708.416 36.832C709.088 36.768 709.656 36.736 710.12 36.736C710.872 36.736 711.408 36.872 711.728 37.144C712.064 37.4 712.232 37.648 712.232 37.888C712.232 38.048 712.168 38.2 712.04 38.344C711.912 38.472 711.664 38.552 711.296 38.584C711.152 38.6 710.848 38.64 710.384 38.704C709.92 38.752 709.36 38.824 708.704 38.92C708.048 39.016 707.36 39.12 706.64 39.232C705.936 39.328 705.248 39.432 704.576 39.544C703.92 39.64 703.352 39.728 702.872 39.808C701.544 40.064 700.496 40.504 699.728 41.128C698.96 41.752 698.4 42.488 698.048 43.336C697.696 44.184 697.472 45.056 697.376 45.952C698.016 45.808 698.712 45.656 699.464 45.496C700.232 45.336 700.968 45.192 701.672 45.064C702.376 44.92 702.984 44.808 703.496 44.728C704.024 44.648 704.376 44.608 704.552 44.608C704.888 44.608 705.096 44.68 705.176 44.824C705.272 44.968 705.32 45.152 705.32 45.376C705.32 45.808 704.616 46.288 703.208 46.816C701.816 47.344 699.84 47.792 697.28 48.16C697.28 48.704 697.288 49.264 697.304 49.84C697.336 50.4 697.384 50.92 697.448 51.4C697.512 51.88 697.592 52.264 697.688 52.552C697.784 52.84 697.912 52.984 698.072 52.984C698.44 52.984 698.92 52.872 699.512 52.648C700.12 52.424 700.752 52.152 701.408 51.832C702.064 51.512 702.664 51.2 703.208 50.896C703.768 50.592 704.176 50.352 704.432 50.176C704.736 49.984 705.064 49.776 705.416 49.552C705.768 49.328 706.032 49.216 706.208 49.216C706.432 49.216 706.544 49.344 706.544 49.6C706.544 49.744 706.416 50.024 706.16 50.44C705.92 50.856 705.568 51.328 705.104 51.856C704.64 52.368 704.088 52.872 703.448 53.368C702.824 53.848 702.12 54.248 701.336 54.568C700.568 54.888 699.744 55.048 698.864 55.048ZM712.146 54.136C711.906 54.136 711.73 54.048 711.618 53.872C711.506 53.696 711.45 53.472 711.45 53.2C711.45 52.976 711.594 52.656 711.882 52.24C712.186 51.808 712.578 51.304 713.058 50.728C713.554 50.136 714.098 49.504 714.69 48.832C715.282 48.16 715.882 47.48 716.49 46.792C715.754 45.544 715.194 44.56 714.81 43.84C714.426 43.104 714.234 42.528 714.234 42.112C714.234 41.824 714.33 41.56 714.522 41.32C714.714 41.064 714.906 40.936 715.098 40.936C715.322 40.936 715.538 41.072 715.746 41.344C715.97 41.6 716.242 42.04 716.562 42.664C716.882 43.272 717.314 44.112 717.858 45.184C718.738 44.128 719.466 43.264 720.042 42.592C720.634 41.92 721.106 41.4 721.458 41.032C721.826 40.664 722.114 40.408 722.322 40.264C722.546 40.104 722.738 40.024 722.898 40.024C723.09 40.024 723.25 40.104 723.378 40.264C723.506 40.408 723.57 40.648 723.57 40.984C723.57 41.304 723.418 41.696 723.114 42.16C722.826 42.624 722.442 43.128 721.962 43.672C721.482 44.216 720.962 44.776 720.402 45.352C719.858 45.912 719.338 46.456 718.842 46.984C719.642 48.36 720.41 49.56 721.146 50.584C721.882 51.592 722.474 52.424 722.922 53.08C723.386 53.736 723.618 54.216 723.618 54.52C723.618 54.728 723.57 54.888 723.474 55C723.378 55.096 723.194 55.144 722.922 55.144C722.73 55.144 722.506 55.064 722.25 54.904C721.994 54.744 721.666 54.432 721.266 53.968C720.882 53.504 720.378 52.832 719.754 51.952C719.146 51.056 718.394 49.888 717.498 48.448C716.938 49.072 716.378 49.72 715.818 50.392C715.274 51.048 714.754 51.664 714.258 52.24C713.778 52.8 713.354 53.256 712.986 53.608C712.618 53.96 712.338 54.136 712.146 54.136ZM726.758 62.128C726.486 62.128 726.27 62.032 726.11 61.84C725.966 61.648 725.894 61.28 725.894 60.736C725.894 59.952 725.95 59.04 726.062 58C726.174 56.96 726.326 55.856 726.518 54.688C726.726 53.52 726.95 52.352 727.19 51.184C727.446 50.016 727.71 48.904 727.982 47.848C728.27 46.792 728.55 45.856 728.822 45.04C729.094 44.208 729.342 43.552 729.566 43.072C729.806 42.592 730.014 42.352 730.19 42.352C730.494 42.352 730.734 42.44 730.91 42.616C731.102 42.792 731.198 43.056 731.198 43.408C731.198 43.856 731.062 44.584 730.79 45.592C730.518 46.584 730.166 47.88 729.734 49.48C730.134 48.744 730.566 47.976 731.03 47.176C731.494 46.376 731.982 45.6 732.494 44.848C733.006 44.08 733.518 43.392 734.03 42.784C734.558 42.176 735.07 41.688 735.566 41.32C736.062 40.952 736.542 40.768 737.006 40.768C737.502 40.768 737.942 40.928 738.326 41.248C738.71 41.552 739.006 41.968 739.214 42.496C739.438 43.008 739.55 43.584 739.55 44.224C739.55 45.552 739.326 46.84 738.878 48.088C738.43 49.32 737.806 50.432 737.006 51.424C736.222 52.4 735.294 53.176 734.222 53.752C733.166 54.328 732.022 54.616 730.79 54.616C730.326 54.616 729.91 54.592 729.542 54.544C729.174 54.496 728.854 54.44 728.582 54.376C728.39 55.432 728.206 56.52 728.03 57.64C727.854 58.76 727.678 59.952 727.502 61.216C727.454 61.552 727.374 61.784 727.262 61.912C727.15 62.056 726.982 62.128 726.758 62.128ZM737.438 42.592C737.102 42.592 736.702 42.784 736.238 43.168C735.79 43.552 735.302 44.064 734.774 44.704C734.262 45.328 733.742 46.024 733.214 46.792C732.686 47.544 732.174 48.312 731.678 49.096C731.182 49.88 730.726 50.608 730.31 51.28C729.91 51.952 729.582 52.512 729.326 52.96C730.574 52.928 731.67 52.68 732.614 52.216C733.558 51.736 734.366 51.128 735.038 50.392C735.71 49.64 736.254 48.832 736.67 47.968C737.102 47.088 737.414 46.24 737.606 45.424C737.798 44.592 737.894 43.872 737.894 43.264C737.894 42.816 737.742 42.592 737.438 42.592ZM751.785 44.272C751.785 45.296 751.297 46.288 750.321 47.248C749.345 48.208 747.857 49.088 745.857 49.888C745.793 50.288 745.761 50.624 745.761 50.896C745.761 51.536 745.841 52 746.001 52.288C746.177 52.576 746.465 52.72 746.865 52.72C747.457 52.72 748.121 52.536 748.857 52.168C749.593 51.784 750.353 51.296 751.137 50.704C751.921 50.096 752.689 49.456 753.441 48.784C754.209 48.112 754.913 47.48 755.553 46.888C756.193 46.28 756.737 45.792 757.185 45.424C757.633 45.04 757.937 44.848 758.097 44.848C758.321 44.848 758.505 44.952 758.649 45.16C758.793 45.352 758.865 45.616 758.865 45.952C758.865 46.368 758.841 46.848 758.793 47.392C758.745 47.92 758.689 48.48 758.625 49.072C759.041 47.904 759.561 46.888 760.185 46.024C760.825 45.144 761.505 44.416 762.225 43.84C762.945 43.264 763.649 42.832 764.337 42.544C765.025 42.256 765.617 42.112 766.113 42.112C766.577 42.112 766.921 42.2 767.145 42.376C767.369 42.552 767.481 42.76 767.481 43C767.481 43.224 767.377 43.432 767.169 43.624C766.977 43.8 766.529 44.032 765.825 44.32C765.009 44.64 764.241 45.016 763.521 45.448C762.817 45.88 762.161 46.472 761.553 47.224C760.945 47.96 760.401 48.944 759.921 50.176C759.441 51.408 759.033 52.992 758.697 54.928C758.633 55.312 758.521 55.584 758.361 55.744C758.201 55.92 758.009 56.008 757.785 56.008C757.625 56.008 757.465 55.936 757.305 55.792C757.145 55.664 757.017 55.352 756.921 54.856C756.825 54.344 756.777 53.544 756.777 52.456C756.777 51.72 756.809 50.92 756.873 50.056C756.953 49.192 757.065 48.288 757.209 47.344C756.473 48.144 755.657 48.984 754.761 49.864C753.865 50.728 752.937 51.536 751.977 52.288C751.017 53.024 750.073 53.624 749.145 54.088C748.217 54.552 747.353 54.784 746.553 54.784C745.705 54.784 745.025 54.488 744.513 53.896C744.001 53.304 743.745 52.424 743.745 51.256C743.745 49.912 743.921 48.68 744.273 47.56C744.625 46.44 745.081 45.472 745.641 44.656C746.201 43.824 746.801 43.184 747.441 42.736C748.081 42.288 748.697 42.064 749.289 42.064C750.089 42.064 750.705 42.272 751.137 42.688C751.569 43.088 751.785 43.616 751.785 44.272ZM746.241 48.136C746.721 47.8 747.241 47.424 747.801 47.008C748.377 46.592 748.865 46.168 749.265 45.736C749.681 45.288 749.889 44.88 749.889 44.512C749.889 44.288 749.833 44.128 749.721 44.032C749.609 43.936 749.417 43.888 749.145 43.888C748.713 43.888 748.313 44.104 747.945 44.536C747.577 44.952 747.249 45.488 746.961 46.144C746.673 46.784 746.433 47.448 746.241 48.136ZM767.689 55.12C767.385 55.12 767.113 55.008 766.873 54.784C766.633 54.544 766.513 54.176 766.513 53.68C766.513 53.328 766.561 52.84 766.657 52.216C766.753 51.576 766.881 50.88 767.041 50.128C767.201 49.376 767.369 48.632 767.545 47.896C767.737 47.144 767.929 46.472 768.121 45.88C768.313 45.288 768.481 44.848 768.625 44.56C768.753 44.336 768.873 44.192 768.985 44.128C769.113 44.064 769.233 44.032 769.345 44.032C769.569 44.032 769.761 44.104 769.921 44.248C770.097 44.392 770.185 44.672 770.185 45.088C770.185 45.328 770.137 45.728 770.041 46.288C769.961 46.832 769.849 47.472 769.705 48.208C769.577 48.928 769.433 49.672 769.273 50.44C769.129 51.192 768.985 51.912 768.84 52.6C768.697 53.288 768.585 53.864 768.505 54.328C768.441 54.584 768.329 54.784 768.169 54.928C768.025 55.056 767.865 55.12 767.689 55.12ZM770.041 41.848C769.673 41.848 769.321 41.736 768.985 41.512C768.665 41.288 768.505 40.928 768.505 40.432C768.505 40.016 768.601 39.68 768.793 39.424C769.001 39.168 769.241 38.984 769.513 38.872C769.801 38.744 770.049 38.68 770.257 38.68C770.465 38.68 770.697 38.728 770.953 38.824C771.225 38.904 771.457 39.064 771.648 39.304C771.841 39.528 771.937 39.864 771.937 40.312C771.937 40.616 771.833 40.888 771.625 41.128C771.417 41.352 771.161 41.528 770.857 41.656C770.569 41.784 770.297 41.848 770.041 41.848ZM782.959 44.656C782.959 45.168 782.799 45.672 782.479 46.168C782.159 46.648 781.735 47.112 781.207 47.56C780.679 47.992 780.095 48.4 779.455 48.784C778.815 49.168 778.175 49.504 777.535 49.792C776.895 50.08 776.311 50.312 775.783 50.488C775.655 51.112 775.591 51.664 775.591 52.144C775.591 52.448 775.663 52.664 775.807 52.792C775.951 52.92 776.175 52.984 776.479 52.984C777.151 52.984 777.863 52.864 778.615 52.624C779.367 52.384 780.135 52.072 780.919 51.688C781.703 51.304 782.455 50.896 783.175 50.464C783.895 50.032 784.551 49.624 785.143 49.24C785.751 48.856 786.255 48.544 786.655 48.304C787.055 48.064 787.319 47.944 787.447 47.944C787.639 47.944 787.783 48.008 787.879 48.136C787.991 48.248 788.047 48.384 788.047 48.544C788.047 48.672 787.847 48.92 787.447 49.288C787.063 49.656 786.543 50.088 785.887 50.584C785.231 51.064 784.495 51.56 783.679 52.072C782.863 52.584 782.015 53.064 781.135 53.512C780.271 53.96 779.431 54.32 778.615 54.592C777.815 54.864 777.095 55 776.455 55C775.623 55 774.975 54.688 774.511 54.064C774.047 53.44 773.815 52.472 773.815 51.16C773.815 50.28 773.927 49.392 774.151 48.496C774.391 47.6 774.711 46.744 775.111 45.928C775.527 45.096 775.983 44.36 776.479 43.72C776.991 43.064 777.527 42.552 778.087 42.184C778.647 41.8 779.191 41.608 779.719 41.608C780.727 41.608 781.519 41.888 782.095 42.448C782.671 43.008 782.959 43.744 782.959 44.656ZM776.287 48.64C776.783 48.336 777.295 48.016 777.823 47.68C778.351 47.344 778.839 47 779.287 46.648C779.735 46.296 780.095 45.928 780.367 45.544C780.655 45.144 780.799 44.736 780.799 44.32C780.799 43.728 780.479 43.432 779.839 43.432C779.439 43.432 779.015 43.688 778.567 44.2C778.135 44.696 777.719 45.344 777.319 46.144C776.919 46.944 776.575 47.776 776.287 48.64ZM781.135 38.896C780.991 38.896 780.831 38.768 780.655 38.512C780.495 38.256 780.335 37.928 780.175 37.528C780.015 37.128 779.863 36.712 779.719 36.28C779.591 35.848 779.479 35.456 779.383 35.104C779.175 35.456 778.943 35.864 778.687 36.328C778.447 36.776 778.215 37.216 777.991 37.648C777.767 38.064 777.591 38.408 777.463 38.68C777.255 39.08 777.095 39.336 776.983 39.448C776.871 39.56 776.719 39.616 776.527 39.616C776.143 39.616 775.951 39.384 775.951 38.92C775.951 38.536 776.055 38.056 776.263 37.48C776.471 36.904 776.735 36.296 777.055 35.656C777.375 35.016 777.711 34.416 778.063 33.856C778.431 33.296 778.767 32.84 779.071 32.488C779.391 32.136 779.639 31.96 779.815 31.96C780.039 31.96 780.207 32.008 780.319 32.104C780.431 32.184 780.543 32.368 780.655 32.656C780.751 32.928 780.863 33.312 780.991 33.808C781.119 34.288 781.231 34.8 781.327 35.344C781.439 35.888 781.527 36.384 781.591 36.832C781.671 37.28 781.711 37.6 781.711 37.792C781.711 38.272 781.655 38.576 781.543 38.704C781.447 38.832 781.311 38.896 781.135 38.896ZM788.389 54.448C787.925 54.448 787.509 54.184 787.141 53.656C786.773 53.128 786.589 52.448 786.589 51.616C786.589 50.704 786.709 49.728 786.949 48.688C787.205 47.648 787.517 46.592 787.885 45.52C788.253 44.432 788.613 43.384 788.965 42.376C789.045 42.168 789.157 42.016 789.301 41.92C789.461 41.808 789.701 41.752 790.021 41.752C790.597 41.752 790.885 42.032 790.885 42.592C790.885 42.72 790.821 43.008 790.693 43.456C790.565 43.904 790.397 44.456 790.189 45.112C789.997 45.768 789.797 46.48 789.589 47.248C789.381 48 789.197 48.76 789.037 49.528C788.877 50.296 788.765 51.008 788.701 51.664C788.957 51.392 789.245 50.976 789.565 50.416C789.901 49.856 790.261 49.224 790.645 48.52C791.029 47.8 791.429 47.08 791.845 46.36C792.261 45.624 792.677 44.952 793.093 44.344C793.525 43.72 793.941 43.224 794.341 42.856C794.757 42.472 795.141 42.28 795.493 42.28C796.005 42.28 796.437 42.44 796.789 42.76C797.157 43.064 797.437 43.608 797.629 44.392C797.837 45.16 797.941 46.248 797.941 47.656C797.941 48.408 798.013 49.112 798.157 49.768C798.317 50.424 798.565 50.952 798.901 51.352C799.253 51.736 799.701 51.928 800.245 51.928C801.061 51.928 801.789 51.784 802.429 51.496C803.069 51.192 803.621 50.856 804.085 50.488C804.565 50.104 804.965 49.768 805.285 49.48C805.605 49.176 805.853 49.024 806.029 49.024C806.397 49.024 806.581 49.216 806.581 49.6C806.581 49.76 806.461 50.016 806.221 50.368C805.997 50.704 805.677 51.088 805.261 51.52C804.861 51.936 804.397 52.344 803.869 52.744C803.357 53.128 802.805 53.448 802.213 53.704C801.637 53.96 801.053 54.088 800.461 54.088C799.357 54.088 798.453 53.872 797.749 53.44C797.061 53.008 796.549 52.296 796.213 51.304C795.893 50.312 795.733 48.984 795.733 47.32C795.733 46.408 795.677 45.744 795.565 45.328C795.469 44.896 795.285 44.608 795.013 44.464C794.821 44.8 794.573 45.28 794.269 45.904C793.965 46.512 793.613 47.192 793.213 47.944C792.829 48.696 792.421 49.456 791.989 50.224C791.573 50.976 791.149 51.672 790.717 52.312C790.285 52.952 789.869 53.472 789.469 53.872C789.069 54.256 788.709 54.448 788.389 54.448ZM809.337 55.336C808.553 55.336 807.873 55.16 807.297 54.808C806.737 54.44 806.305 53.968 806.001 53.392C805.697 52.816 805.545 52.224 805.545 51.616C805.545 50.336 805.769 49.168 806.217 48.112C806.665 47.04 807.225 46.096 807.897 45.28C808.585 44.448 809.289 43.744 810.009 43.168C810.745 42.592 811.409 42.16 812.001 41.872C812.609 41.568 813.041 41.416 813.297 41.416C813.809 41.416 814.065 41.672 814.065 42.184C814.065 42.424 813.905 42.704 813.585 43.024C813.265 43.328 812.857 43.688 812.361 44.104C811.865 44.52 811.337 44.992 810.777 45.52C810.217 46.032 809.689 46.616 809.193 47.272C808.697 47.912 808.289 48.632 807.969 49.432C807.649 50.216 807.489 51.08 807.489 52.024C807.489 52.984 807.881 53.464 808.665 53.464C809.385 53.464 810.121 53.328 810.873 53.056C811.641 52.784 812.393 52.432 813.129 52C813.881 51.552 814.601 51.088 815.289 50.608C815.977 50.128 816.601 49.672 817.161 49.24C817.721 48.792 818.193 48.432 818.577 48.16C818.961 47.888 819.233 47.752 819.393 47.752C819.713 47.752 819.873 47.928 819.873 48.28C819.873 48.552 819.689 48.912 819.321 49.36C818.953 49.808 818.457 50.296 817.833 50.824C817.209 51.352 816.513 51.888 815.745 52.432C814.977 52.96 814.201 53.448 813.417 53.896C812.633 54.328 811.881 54.68 811.161 54.952C810.457 55.208 809.849 55.336 809.337 55.336ZM819.72 55.12C819.416 55.12 819.144 55.008 818.904 54.784C818.664 54.544 818.544 54.176 818.544 53.68C818.544 53.328 818.592 52.84 818.688 52.216C818.784 51.576 818.912 50.88 819.072 50.128C819.232 49.376 819.4 48.632 819.576 47.896C819.768 47.144 819.96 46.472 820.152 45.88C820.344 45.288 820.512 44.848 820.656 44.56C820.784 44.336 820.904 44.192 821.016 44.128C821.144 44.064 821.264 44.032 821.376 44.032C821.6 44.032 821.792 44.104 821.952 44.248C822.128 44.392 822.216 44.672 822.216 45.088C822.216 45.328 822.168 45.728 822.072 46.288C821.992 46.832 821.88 47.472 821.736 48.208C821.608 48.928 821.464 49.672 821.304 50.44C821.16 51.192 821.016 51.912 820.872 52.6C820.728 53.288 820.616 53.864 820.536 54.328C820.472 54.584 820.36 54.784 820.2 54.928C820.056 55.056 819.896 55.12 819.72 55.12ZM822.072 41.848C821.704 41.848 821.352 41.736 821.016 41.512C820.696 41.288 820.536 40.928 820.536 40.432C820.536 40.016 820.632 39.68 820.824 39.424C821.032 39.168 821.272 38.984 821.544 38.872C821.832 38.744 822.08 38.68 822.288 38.68C822.496 38.68 822.728 38.728 822.984 38.824C823.256 38.904 823.488 39.064 823.68 39.304C823.872 39.528 823.968 39.864 823.968 40.312C823.968 40.616 823.864 40.888 823.656 41.128C823.448 41.352 823.192 41.528 822.888 41.656C822.6 41.784 822.328 41.848 822.072 41.848ZM826.657 55.624C826.049 55.624 825.545 55.344 825.145 54.784C824.761 54.208 824.569 53.464 824.569 52.552C824.569 51.704 824.777 50.864 825.193 50.032C825.625 49.2 826.193 48.4 826.897 47.632C827.601 46.864 828.369 46.16 829.201 45.52C830.033 44.864 830.865 44.296 831.697 43.816C832.545 43.336 833.321 42.96 834.025 42.688C834.729 42.416 835.289 42.28 835.705 42.28C835.929 42.28 836.113 42.328 836.257 42.424C836.401 42.504 836.473 42.656 836.473 42.88C836.473 43.024 836.417 43.16 836.305 43.288C836.321 43.288 836.337 43.288 836.353 43.288C836.705 43.288 836.881 43.496 836.881 43.912C836.881 44.056 836.825 44.352 836.713 44.8C836.601 45.232 836.473 45.776 836.329 46.432C836.185 47.088 836.057 47.816 835.945 48.616C835.833 49.4 835.777 50.2 835.777 51.016C835.777 51.704 836.041 52.048 836.569 52.048C837.161 52.048 837.761 51.912 838.369 51.64C838.977 51.368 839.569 51.04 840.145 50.656C840.721 50.256 841.249 49.864 841.729 49.48C842.209 49.08 842.617 48.744 842.953 48.472C843.289 48.2 843.529 48.064 843.673 48.064C843.801 48.064 843.913 48.104 844.009 48.184C844.105 48.264 844.153 48.392 844.153 48.568C844.153 48.728 843.993 49.016 843.673 49.432C843.353 49.848 842.929 50.32 842.401 50.848C841.873 51.376 841.281 51.888 840.625 52.384C839.969 52.88 839.297 53.288 838.609 53.608C837.921 53.928 837.265 54.088 836.641 54.088C836.161 54.088 835.721 53.944 835.321 53.656C834.937 53.352 834.625 52.84 834.385 52.12C834.161 51.4 834.049 50.408 834.049 49.144V48.544C833.265 49.84 832.441 51.024 831.577 52.096C830.729 53.168 829.881 54.024 829.033 54.664C828.201 55.304 827.409 55.624 826.657 55.624ZM835.249 44.008C835.169 44.04 835.057 44.088 834.913 44.152C834.177 44.488 833.409 44.904 832.609 45.4C831.825 45.896 831.057 46.448 830.305 47.056C829.569 47.664 828.905 48.296 828.313 48.952C827.721 49.608 827.249 50.272 826.897 50.944C826.545 51.616 826.369 52.272 826.369 52.912C826.369 53.12 826.409 53.28 826.489 53.392C826.585 53.504 826.745 53.56 826.969 53.56C827.289 53.56 827.705 53.36 828.217 52.96C828.729 52.544 829.289 52 829.897 51.328C830.521 50.656 831.145 49.912 831.769 49.096C832.393 48.28 832.985 47.456 833.545 46.624C834.121 45.792 834.617 45.024 835.033 44.32C835.097 44.208 835.169 44.104 835.249 44.008Z" fill="#141414"/>
<path d="M879.944 55.048C879.608 55.048 879.32 54.848 879.08 54.448C878.84 54.048 878.72 53.248 878.72 52.048C878.72 50.944 878.8 49.56 878.96 47.896C879.136 46.216 879.392 44.36 879.728 42.328C879.904 41.4 880.232 40.632 880.712 40.024C881.208 39.416 881.848 38.904 882.632 38.488C883.432 38.072 884.368 37.704 885.44 37.384C886.512 37.064 887.616 36.776 888.752 36.52C889.904 36.248 890.984 36.032 891.992 35.872C893.016 35.696 893.856 35.608 894.512 35.608C894.976 35.608 895.328 35.704 895.568 35.896C895.808 36.088 895.928 36.288 895.928 36.496C895.928 36.688 895.872 36.856 895.76 37C895.664 37.128 895.472 37.232 895.184 37.312C894.976 37.376 894.536 37.488 893.864 37.648C893.208 37.792 892.4 37.968 891.44 38.176C890.496 38.384 889.496 38.608 888.44 38.848C887.384 39.072 886.36 39.304 885.368 39.544C884.232 39.864 883.408 40.272 882.896 40.768C882.4 41.248 882.072 41.928 881.912 42.808C881.88 43.032 881.832 43.36 881.768 43.792C882.216 43.616 882.776 43.424 883.448 43.216C884.12 43.008 884.808 42.808 885.512 42.616C886.216 42.424 886.864 42.272 887.456 42.16C888.048 42.032 888.488 41.968 888.776 41.968C888.984 41.968 889.2 42.096 889.424 42.352C889.664 42.608 889.784 42.872 889.784 43.144C889.784 43.272 889.744 43.4 889.664 43.528C889.584 43.64 889.448 43.728 889.256 43.792C889.144 43.824 888.864 43.904 888.416 44.032C887.984 44.144 887.456 44.288 886.832 44.464C886.224 44.64 885.584 44.832 884.912 45.04C884.24 45.232 883.6 45.416 882.992 45.592C882.4 45.768 881.904 45.92 881.504 46.048C881.424 46.816 881.336 47.616 881.24 48.448C881.144 49.28 881.056 50.072 880.976 50.824C880.912 51.56 880.856 52.192 880.808 52.72C880.76 53.232 880.736 53.56 880.736 53.704C880.736 54.6 880.472 55.048 879.944 55.048ZM897.168 55.24C896.224 55.24 895.48 54.88 894.936 54.16C894.392 53.44 894.12 52.504 894.12 51.352C894.12 50.936 894.176 50.496 894.288 50.032C894.416 49.552 894.576 49.12 894.768 48.736C894.656 48.624 894.568 48.472 894.504 48.28C894.44 48.072 894.408 47.816 894.408 47.512C894.408 46.568 894.568 45.704 894.888 44.92C895.208 44.136 895.632 43.456 896.16 42.88C896.688 42.288 897.272 41.832 897.912 41.512C898.568 41.192 899.232 41.032 899.904 41.032C901.008 41.032 901.904 41.432 902.592 42.232C903.28 43.016 903.624 44.216 903.624 45.832C903.624 46.68 903.496 47.544 903.24 48.424C903 49.304 902.664 50.152 902.232 50.968C901.816 51.784 901.328 52.512 900.768 53.152C900.224 53.792 899.64 54.304 899.016 54.688C898.408 55.056 897.792 55.24 897.168 55.24ZM896.352 47.92C896.448 48.048 896.496 48.216 896.496 48.424C896.496 48.664 896.448 48.904 896.352 49.144C896.272 49.384 896.184 49.712 896.088 50.128C895.992 50.544 895.944 51.136 895.944 51.904C895.944 52.672 896.248 53.056 896.856 53.056C897.528 53.056 898.152 52.792 898.728 52.264C899.304 51.72 899.816 51.024 900.264 50.176C900.712 49.328 901.056 48.424 901.296 47.464C901.552 46.488 901.68 45.568 901.68 44.704C901.68 44.144 901.576 43.752 901.368 43.528C901.16 43.288 900.784 43.168 900.24 43.168C899.68 43.168 899.096 43.36 898.488 43.744C897.896 44.112 897.4 44.616 897 45.256C896.6 45.896 896.4 46.616 896.4 47.416C896.4 47.592 896.384 47.76 896.352 47.92ZM907.081 55.456C906.825 55.456 906.609 55.352 906.433 55.144C906.257 54.936 906.169 54.648 906.169 54.28C906.169 54.008 906.225 53.56 906.337 52.936C906.465 52.296 906.601 51.552 906.745 50.704C906.905 49.856 907.041 48.976 907.153 48.064C907.265 47.136 907.321 46.248 907.321 45.4C907.321 44.984 907.425 44.68 907.633 44.488C907.857 44.28 908.105 44.176 908.377 44.176C908.633 44.176 908.825 44.336 908.953 44.656C909.081 44.976 909.105 45.616 909.025 46.576C909.761 44.944 910.569 43.632 911.449 42.64C912.345 41.632 913.233 40.912 914.113 40.48C914.993 40.032 915.785 39.808 916.489 39.808C916.953 39.808 917.289 39.904 917.497 40.096C917.721 40.272 917.833 40.472 917.833 40.696C917.833 41 917.705 41.24 917.449 41.416C917.209 41.576 916.785 41.768 916.177 41.992C915.473 42.264 914.825 42.584 914.233 42.952C913.657 43.304 913.105 43.768 912.577 44.344C912.065 44.92 911.561 45.656 911.065 46.552C910.569 47.432 910.073 48.52 909.577 49.816C909.081 51.112 908.553 52.672 907.993 54.496C907.897 54.848 907.769 55.096 907.609 55.24C907.465 55.384 907.289 55.456 907.081 55.456ZM935.418 54.28C935.402 54.536 935.298 54.744 935.106 54.904C934.914 55.064 934.69 55.144 934.434 55.144C934.146 55.144 933.906 55.048 933.714 54.856C933.522 54.664 933.426 54.368 933.426 53.968C933.426 52.928 933.474 51.8 933.57 50.584C933.666 49.352 933.786 48.136 933.93 46.936C934.074 45.72 934.218 44.6 934.362 43.576C933.834 44.328 933.258 45.16 932.634 46.072C932.026 46.984 931.402 47.888 930.762 48.784C930.122 49.68 929.498 50.504 928.89 51.256C928.282 51.992 927.73 52.592 927.234 53.056C926.738 53.504 926.33 53.728 926.01 53.728C925.418 53.728 924.906 53.496 924.474 53.032C924.042 52.552 923.826 51.952 923.826 51.232C923.826 50.944 923.858 50.552 923.922 50.056C923.986 49.544 924.058 49.008 924.138 48.448C924.218 47.888 924.29 47.368 924.354 46.888C924.418 46.392 924.45 46.024 924.45 45.784C924.45 45.56 924.426 45.368 924.378 45.208C924.346 45.032 924.266 44.944 924.138 44.944C923.946 44.944 923.682 45.16 923.346 45.592C923.01 46.008 922.634 46.544 922.218 47.2C921.818 47.856 921.402 48.552 920.97 49.288C920.554 50.024 920.162 50.72 919.794 51.376C919.426 52.016 919.114 52.52 918.858 52.888C918.65 53.24 918.458 53.496 918.282 53.656C918.106 53.816 917.89 53.896 917.634 53.896C917.33 53.896 917.05 53.736 916.794 53.416C916.554 53.096 916.434 52.704 916.434 52.24C916.434 51.968 916.482 51.544 916.578 50.968C916.674 50.376 916.794 49.728 916.938 49.024C917.098 48.32 917.25 47.632 917.394 46.96C917.554 46.272 917.69 45.688 917.802 45.208C917.93 44.664 918.09 44.296 918.282 44.104C918.474 43.912 918.682 43.816 918.906 43.816C919.21 43.816 919.45 43.928 919.626 44.152C919.818 44.36 919.914 44.688 919.914 45.136C919.914 45.216 919.866 45.432 919.77 45.784C919.674 46.12 919.554 46.536 919.41 47.032C919.282 47.512 919.138 48.016 918.978 48.544C918.834 49.072 918.714 49.56 918.618 50.008C918.97 49.416 919.338 48.776 919.722 48.088C920.122 47.4 920.522 46.72 920.922 46.048C921.322 45.36 921.722 44.736 922.122 44.176C922.522 43.6 922.914 43.144 923.298 42.808C923.682 42.472 924.05 42.304 924.402 42.304C924.818 42.304 925.202 42.432 925.554 42.688C925.922 42.944 926.218 43.288 926.442 43.72C926.666 44.152 926.778 44.632 926.778 45.16C926.778 45.528 926.714 46.048 926.586 46.72C926.458 47.376 926.322 48.088 926.178 48.856C926.05 49.624 925.97 50.352 925.938 51.04C925.938 51.2 925.986 51.28 926.082 51.28C926.162 51.28 926.258 51.224 926.37 51.112C926.834 50.6 927.346 49.984 927.906 49.264C928.466 48.528 929.034 47.752 929.61 46.936C930.202 46.12 930.786 45.32 931.362 44.536C931.938 43.736 932.474 43.016 932.97 42.376C933.482 41.72 933.93 41.2 934.314 40.816C934.714 40.432 935.026 40.24 935.25 40.24C935.73 40.24 936.098 40.376 936.354 40.648C936.61 40.92 936.738 41.376 936.738 42.016C936.738 42.528 936.698 43.192 936.618 44.008C936.554 44.824 936.466 45.712 936.354 46.672C936.258 47.632 936.146 48.6 936.018 49.576C935.906 50.536 935.794 51.432 935.682 52.264C935.57 53.08 935.482 53.752 935.418 54.28ZM941.266 55.624C940.658 55.624 940.154 55.344 939.754 54.784C939.37 54.208 939.178 53.464 939.178 52.552C939.178 51.704 939.386 50.864 939.802 50.032C940.234 49.2 940.802 48.4 941.506 47.632C942.21 46.864 942.978 46.16 943.81 45.52C944.642 44.864 945.474 44.296 946.306 43.816C947.154 43.336 947.93 42.96 948.634 42.688C949.338 42.416 949.898 42.28 950.314 42.28C950.538 42.28 950.722 42.328 950.866 42.424C951.01 42.504 951.082 42.656 951.082 42.88C951.082 43.024 951.026 43.16 950.914 43.288C950.93 43.288 950.946 43.288 950.962 43.288C951.314 43.288 951.49 43.496 951.49 43.912C951.49 44.056 951.434 44.352 951.322 44.8C951.21 45.232 951.082 45.776 950.938 46.432C950.794 47.088 950.666 47.816 950.554 48.616C950.442 49.4 950.386 50.2 950.386 51.016C950.386 51.704 950.65 52.048 951.178 52.048C951.77 52.048 952.37 51.912 952.978 51.64C953.586 51.368 954.178 51.04 954.754 50.656C955.33 50.256 955.858 49.864 956.338 49.48C956.818 49.08 957.226 48.744 957.562 48.472C957.898 48.2 958.138 48.064 958.282 48.064C958.41 48.064 958.522 48.104 958.618 48.184C958.714 48.264 958.762 48.392 958.762 48.568C958.762 48.728 958.602 49.016 958.282 49.432C957.962 49.848 957.538 50.32 957.01 50.848C956.482 51.376 955.89 51.888 955.234 52.384C954.578 52.88 953.906 53.288 953.218 53.608C952.53 53.928 951.874 54.088 951.25 54.088C950.77 54.088 950.33 53.944 949.93 53.656C949.546 53.352 949.234 52.84 948.994 52.12C948.77 51.4 948.658 50.408 948.658 49.144V48.544C947.874 49.84 947.05 51.024 946.186 52.096C945.338 53.168 944.49 54.024 943.642 54.664C942.81 55.304 942.018 55.624 941.266 55.624ZM949.858 44.008C949.778 44.04 949.666 44.088 949.522 44.152C948.786 44.488 948.018 44.904 947.218 45.4C946.434 45.896 945.666 46.448 944.914 47.056C944.178 47.664 943.514 48.296 942.922 48.952C942.33 49.608 941.858 50.272 941.506 50.944C941.154 51.616 940.978 52.272 940.978 52.912C940.978 53.12 941.018 53.28 941.098 53.392C941.194 53.504 941.354 53.56 941.578 53.56C941.898 53.56 942.314 53.36 942.826 52.96C943.338 52.544 943.898 52 944.506 51.328C945.13 50.656 945.754 49.912 946.378 49.096C947.002 48.28 947.594 47.456 948.154 46.624C948.73 45.792 949.226 45.024 949.642 44.32C949.706 44.208 949.778 44.104 949.858 44.008ZM961.142 55.336C960.358 55.336 959.678 55.16 959.102 54.808C958.542 54.44 958.11 53.968 957.806 53.392C957.502 52.816 957.35 52.224 957.35 51.616C957.35 50.336 957.574 49.168 958.022 48.112C958.47 47.04 959.03 46.096 959.702 45.28C960.39 44.448 961.094 43.744 961.814 43.168C962.55 42.592 963.214 42.16 963.806 41.872C964.414 41.568 964.846 41.416 965.102 41.416C965.614 41.416 965.87 41.672 965.87 42.184C965.87 42.424 965.71 42.704 965.39 43.024C965.07 43.328 964.662 43.688 964.166 44.104C963.67 44.52 963.142 44.992 962.582 45.52C962.022 46.032 961.494 46.616 960.998 47.272C960.502 47.912 960.094 48.632 959.774 49.432C959.454 50.216 959.294 51.08 959.294 52.024C959.294 52.984 959.686 53.464 960.47 53.464C961.19 53.464 961.926 53.328 962.678 53.056C963.446 52.784 964.198 52.432 964.934 52C965.686 51.552 966.406 51.088 967.094 50.608C967.782 50.128 968.406 49.672 968.966 49.24C969.526 48.792 969.998 48.432 970.382 48.16C970.766 47.888 971.038 47.752 971.198 47.752C971.518 47.752 971.678 47.928 971.678 48.28C971.678 48.552 971.494 48.912 971.126 49.36C970.758 49.808 970.262 50.296 969.638 50.824C969.014 51.352 968.318 51.888 967.55 52.432C966.782 52.96 966.006 53.448 965.222 53.896C964.438 54.328 963.686 54.68 962.966 54.952C962.262 55.208 961.654 55.336 961.142 55.336ZM960.83 63.736C960.542 63.736 960.302 63.632 960.11 63.424C959.918 63.232 959.822 62.976 959.822 62.656C959.822 62.224 960.03 61.752 960.446 61.24C960.862 60.728 961.318 60.056 961.814 59.224C962.102 58.728 962.342 58.24 962.534 57.76C962.742 57.28 962.95 56.88 963.158 56.56C963.366 56.256 963.622 56.104 963.926 56.104C964.118 56.104 964.278 56.176 964.406 56.32C964.55 56.48 964.622 56.696 964.622 56.968C964.622 57.288 964.534 57.704 964.358 58.216C964.198 58.744 963.974 59.304 963.686 59.896C963.414 60.488 963.118 61.056 962.798 61.6C962.478 62.16 962.166 62.648 961.862 63.064C961.702 63.256 961.542 63.416 961.382 63.544C961.222 63.672 961.038 63.736 960.83 63.736ZM971.782 55.624C971.174 55.624 970.67 55.344 970.27 54.784C969.886 54.208 969.694 53.464 969.694 52.552C969.694 51.704 969.902 50.864 970.318 50.032C970.75 49.2 971.318 48.4 972.022 47.632C972.726 46.864 973.494 46.16 974.326 45.52C975.158 44.864 975.99 44.296 976.822 43.816C977.67 43.336 978.446 42.96 979.15 42.688C979.854 42.416 980.414 42.28 980.83 42.28C981.054 42.28 981.238 42.328 981.382 42.424C981.526 42.504 981.598 42.656 981.598 42.88C981.598 43.024 981.542 43.16 981.43 43.288C981.446 43.288 981.462 43.288 981.478 43.288C981.83 43.288 982.006 43.496 982.006 43.912C982.006 44.056 981.95 44.352 981.838 44.8C981.726 45.232 981.598 45.776 981.454 46.432C981.31 47.088 981.182 47.816 981.07 48.616C980.958 49.4 980.902 50.2 980.902 51.016C980.902 51.704 981.166 52.048 981.694 52.048C982.286 52.048 982.886 51.912 983.494 51.64C984.102 51.368 984.694 51.04 985.27 50.656C985.846 50.256 986.374 49.864 986.854 49.48C987.334 49.08 987.742 48.744 988.078 48.472C988.414 48.2 988.654 48.064 988.798 48.064C988.926 48.064 989.038 48.104 989.134 48.184C989.23 48.264 989.278 48.392 989.278 48.568C989.278 48.728 989.118 49.016 988.798 49.432C988.478 49.848 988.054 50.32 987.526 50.848C986.998 51.376 986.406 51.888 985.75 52.384C985.094 52.88 984.422 53.288 983.734 53.608C983.046 53.928 982.39 54.088 981.766 54.088C981.286 54.088 980.846 53.944 980.446 53.656C980.062 53.352 979.75 52.84 979.51 52.12C979.286 51.4 979.174 50.408 979.174 49.144V48.544C978.39 49.84 977.566 51.024 976.702 52.096C975.854 53.168 975.006 54.024 974.158 54.664C973.326 55.304 972.534 55.624 971.782 55.624ZM980.374 44.008C980.294 44.04 980.182 44.088 980.038 44.152C979.302 44.488 978.534 44.904 977.734 45.4C976.95 45.896 976.182 46.448 975.43 47.056C974.694 47.664 974.03 48.296 973.438 48.952C972.846 49.608 972.374 50.272 972.022 50.944C971.67 51.616 971.494 52.272 971.494 52.912C971.494 53.12 971.534 53.28 971.614 53.392C971.71 53.504 971.87 53.56 972.094 53.56C972.414 53.56 972.83 53.36 973.342 52.96C973.854 52.544 974.414 52 975.022 51.328C975.646 50.656 976.27 49.912 976.894 49.096C977.518 48.28 978.11 47.456 978.67 46.624C979.246 45.792 979.742 45.024 980.158 44.32C980.222 44.208 980.294 44.104 980.374 44.008ZM980.398 40.816C979.998 40.816 979.67 40.648 979.414 40.312C979.158 39.976 979.03 39.48 979.03 38.824C979.03 38.424 979.03 38.008 979.03 37.576C979.03 37.128 979.03 36.744 979.03 36.424C978.806 36.792 978.558 37.232 978.286 37.744C978.03 38.256 977.83 38.68 977.686 39.016C977.51 39.464 977.35 39.76 977.206 39.904C977.062 40.048 976.91 40.12 976.75 40.12C976.606 40.12 976.486 40.064 976.39 39.952C976.31 39.824 976.27 39.576 976.27 39.208C976.27 38.584 976.39 37.968 976.63 37.36C976.87 36.736 977.166 36.176 977.518 35.68C977.886 35.168 978.262 34.76 978.646 34.456C979.03 34.152 979.366 34 979.654 34C979.878 34 980.054 34.056 980.182 34.168C980.326 34.28 980.43 34.568 980.494 35.032C980.574 35.48 980.614 36.216 980.614 37.24V38.8C980.854 38.448 981.11 37.984 981.382 37.408C981.67 36.832 981.942 36.256 982.198 35.68C982.47 35.088 982.71 34.6 982.918 34.216C983.11 33.848 983.286 33.6 983.446 33.472C983.606 33.328 983.766 33.256 983.926 33.256C984.502 33.256 984.79 33.536 984.79 34.096C984.79 34.144 984.718 34.344 984.574 34.696C984.43 35.048 984.238 35.48 983.998 35.992C983.758 36.488 983.486 37.016 983.182 37.576C982.878 38.136 982.558 38.664 982.222 39.16C981.902 39.64 981.582 40.04 981.262 40.36C980.958 40.664 980.67 40.816 980.398 40.816ZM991.176 55.24C990.232 55.24 989.488 54.88 988.944 54.16C988.4 53.44 988.128 52.504 988.128 51.352C988.128 50.936 988.184 50.496 988.296 50.032C988.424 49.552 988.584 49.12 988.776 48.736C988.664 48.624 988.576 48.472 988.512 48.28C988.448 48.072 988.416 47.816 988.416 47.512C988.416 46.568 988.576 45.704 988.896 44.92C989.216 44.136 989.64 43.456 990.168 42.88C990.696 42.288 991.28 41.832 991.92 41.512C992.576 41.192 993.24 41.032 993.912 41.032C995.016 41.032 995.912 41.432 996.6 42.232C997.288 43.016 997.632 44.216 997.632 45.832C997.632 46.68 997.504 47.544 997.248 48.424C997.008 49.304 996.672 50.152 996.24 50.968C995.824 51.784 995.336 52.512 994.776 53.152C994.232 53.792 993.648 54.304 993.024 54.688C992.416 55.056 991.8 55.24 991.176 55.24ZM990.36 47.92C990.456 48.048 990.504 48.216 990.504 48.424C990.504 48.664 990.456 48.904 990.36 49.144C990.28 49.384 990.192 49.712 990.096 50.128C990 50.544 989.952 51.136 989.952 51.904C989.952 52.672 990.256 53.056 990.864 53.056C991.536 53.056 992.16 52.792 992.736 52.264C993.312 51.72 993.824 51.024 994.272 50.176C994.72 49.328 995.064 48.424 995.304 47.464C995.56 46.488 995.688 45.568 995.688 44.704C995.688 44.144 995.584 43.752 995.376 43.528C995.168 43.288 994.792 43.168 994.248 43.168C993.688 43.168 993.104 43.36 992.496 43.744C991.904 44.112 991.408 44.616 991.008 45.256C990.608 45.896 990.408 46.616 990.408 47.416C990.408 47.592 990.392 47.76 990.36 47.92Z" fill="#141414"/>
<path d="M1051.03 51.448C1051.21 51.448 1051.38 51.52 1051.54 51.664C1051.7 51.808 1051.78 52.04 1051.78 52.36C1051.78 52.616 1051.58 52.92 1051.2 53.272C1050.82 53.608 1050.32 53.936 1049.71 54.256C1049.12 54.576 1048.48 54.84 1047.79 55.048C1047.1 55.272 1046.46 55.384 1045.85 55.384C1044.98 55.384 1044.17 55.16 1043.4 54.712C1042.65 54.264 1042.03 53.616 1041.55 52.768C1041.07 51.904 1040.83 50.856 1040.83 49.624C1040.83 48.536 1041.03 47.448 1041.43 46.36C1041.83 45.272 1042.36 44.224 1043.02 43.216C1043.69 42.208 1044.42 41.272 1045.22 40.408C1046.04 39.544 1046.86 38.792 1047.67 38.152C1048.49 37.512 1049.25 37.016 1049.95 36.664C1050.67 36.296 1051.26 36.112 1051.73 36.112C1052.05 36.112 1052.3 36.232 1052.5 36.472C1052.7 36.696 1052.81 36.944 1052.81 37.216C1052.81 37.376 1052.76 37.536 1052.66 37.696C1052.58 37.856 1052.44 37.984 1052.23 38.08C1051.19 38.592 1050.14 39.248 1049.06 40.048C1047.99 40.848 1047 41.76 1046.09 42.784C1045.18 43.792 1044.44 44.888 1043.88 46.072C1043.32 47.24 1043.04 48.472 1043.04 49.768C1043.04 50.888 1043.3 51.744 1043.83 52.336C1044.36 52.912 1045.08 53.2 1045.99 53.2C1046.47 53.2 1046.97 53.112 1047.48 52.936C1048.01 52.76 1048.5 52.56 1048.97 52.336C1049.45 52.096 1049.86 51.888 1050.22 51.712C1050.58 51.536 1050.86 51.448 1051.03 51.448ZM1071.81 55.864C1071.35 55.864 1071.02 55.712 1070.83 55.408C1070.64 55.104 1070.54 54.584 1070.54 53.848C1070.54 53.256 1070.61 52.52 1070.76 51.64C1070.92 50.76 1071.11 49.792 1071.33 48.736C1071.56 47.664 1071.79 46.56 1072.03 45.424C1071.05 46.752 1069.97 47.816 1068.79 48.616C1067.62 49.4 1066.33 49.912 1064.9 50.152C1064.57 50.936 1064.18 51.648 1063.75 52.288C1063.32 52.928 1062.85 53.44 1062.33 53.824C1061.82 54.208 1061.29 54.4 1060.73 54.4C1060.04 54.4 1059.45 54.12 1058.97 53.56C1058.51 53 1058.28 52.184 1058.28 51.112C1058.28 50.376 1058.37 49.72 1058.57 49.144C1058.76 48.552 1058.97 48.128 1059.21 47.872C1058.99 47.28 1058.88 46.6 1058.88 45.832C1058.88 44.888 1059.09 44.056 1059.53 43.336C1059.96 42.6 1060.53 42.032 1061.25 41.632C1061.97 41.216 1062.75 41.008 1063.58 41.008C1064.25 41.008 1064.85 41.32 1065.38 41.944C1065.91 42.568 1066.17 43.464 1066.17 44.632C1066.17 45.72 1065.98 46.928 1065.6 48.256C1066.48 47.92 1067.36 47.408 1068.24 46.72C1069.13 46.032 1070 45.208 1070.83 44.248C1071.66 43.288 1072.41 42.224 1073.09 41.056C1073.26 40.768 1073.51 40.624 1073.83 40.624C1074.12 40.624 1074.34 40.712 1074.5 40.888C1074.68 41.048 1074.77 41.272 1074.77 41.56C1074.77 41.64 1074.72 41.912 1074.62 42.376C1074.54 42.84 1074.43 43.432 1074.29 44.152C1074.16 44.872 1074.01 45.664 1073.85 46.528C1073.69 47.392 1073.53 48.264 1073.37 49.144C1073.23 50.024 1073.11 50.84 1073.01 51.592C1073.38 50.888 1073.8 50.12 1074.26 49.288C1074.73 48.456 1075.2 47.64 1075.68 46.84C1076.17 46.024 1076.65 45.28 1077.09 44.608C1077.56 43.936 1077.97 43.4 1078.32 43C1078.69 42.584 1078.97 42.376 1079.18 42.376C1079.57 42.376 1079.9 42.504 1080.19 42.76C1080.48 43.016 1080.62 43.28 1080.62 43.552C1080.62 43.92 1080.58 44.48 1080.5 45.232C1080.42 45.968 1080.33 46.8 1080.21 47.728C1080.1 48.656 1079.99 49.584 1079.88 50.512C1079.77 51.44 1079.67 52.28 1079.59 53.032C1079.51 53.784 1079.47 54.344 1079.47 54.712C1079.47 54.952 1079.37 55.168 1079.16 55.36C1078.95 55.552 1078.72 55.648 1078.46 55.648C1078.29 55.648 1078.13 55.592 1078.01 55.48C1077.89 55.384 1077.81 55.16 1077.74 54.808C1077.68 54.456 1077.65 53.912 1077.65 53.176C1077.65 52.456 1077.67 51.672 1077.72 50.824C1077.77 49.96 1077.83 49.104 1077.91 48.256C1078.01 47.392 1078.11 46.616 1078.22 45.928C1077.85 46.536 1077.43 47.264 1076.95 48.112C1076.49 48.96 1076 49.832 1075.49 50.728C1074.97 51.624 1074.48 52.464 1074 53.248C1073.52 54.032 1073.09 54.664 1072.7 55.144C1072.32 55.624 1072.02 55.864 1071.81 55.864ZM1063.49 48.64C1063.68 48.032 1063.83 47.384 1063.94 46.696C1064.07 45.992 1064.13 45.288 1064.13 44.584C1064.13 44.168 1064.05 43.832 1063.89 43.576C1063.73 43.32 1063.52 43.192 1063.25 43.192C1062.83 43.192 1062.42 43.312 1062.02 43.552C1061.62 43.776 1061.29 44.096 1061.01 44.512C1060.76 44.928 1060.63 45.424 1060.63 46C1060.63 46.72 1060.9 47.336 1061.45 47.848C1062.01 48.344 1062.69 48.608 1063.49 48.64ZM1062.84 50.296C1061.75 50.248 1060.87 49.928 1060.2 49.336C1060.17 49.544 1060.13 49.744 1060.1 49.936C1060.07 50.112 1060.05 50.288 1060.05 50.464C1060.05 50.96 1060.13 51.352 1060.29 51.64C1060.47 51.912 1060.73 52.048 1061.09 52.048C1061.37 52.048 1061.67 51.888 1061.97 51.568C1062.28 51.248 1062.57 50.824 1062.84 50.296ZM1082.36 47.32C1081.93 47.288 1081.73 47.008 1081.76 46.48C1081.77 46.352 1081.86 46.2 1082.02 46.024C1082.18 45.832 1082.37 45.728 1082.57 45.712C1083.07 45.664 1083.68 45.592 1084.4 45.496C1085.13 45.384 1085.94 45.256 1086.82 45.112C1086.98 44.328 1087.17 43.504 1087.4 42.64C1087.62 41.776 1087.87 40.936 1088.14 40.12C1088.41 39.288 1088.7 38.536 1089.01 37.864C1089.31 37.192 1089.63 36.664 1089.97 36.28C1090.14 36.104 1090.3 35.984 1090.45 35.92C1090.59 35.84 1090.72 35.8 1090.83 35.8C1091.05 35.8 1091.23 35.896 1091.36 36.088C1091.5 36.28 1091.57 36.496 1091.57 36.736C1091.57 36.864 1091.55 36.992 1091.5 37.12C1091.18 38.016 1090.84 39.12 1090.47 40.432C1090.1 41.744 1089.71 43.176 1089.29 44.728C1090.77 44.488 1092.24 44.232 1093.71 43.96C1095.18 43.688 1096.45 43.44 1097.5 43.216C1097.81 43.088 1098.04 43.112 1098.2 43.288C1098.37 43.464 1098.46 43.64 1098.46 43.816C1098.46 44.04 1098.4 44.208 1098.27 44.32C1098.16 44.432 1098.04 44.528 1097.91 44.608L1097.89 44.632C1097.57 44.76 1097.09 44.912 1096.45 45.088C1095.81 45.248 1095.07 45.424 1094.24 45.616C1093.41 45.792 1092.52 45.968 1091.57 46.144C1090.65 46.32 1089.73 46.48 1088.81 46.624C1088.45 48.032 1088.07 49.48 1087.69 50.968C1087.32 52.44 1086.95 53.888 1086.58 55.312C1086.42 55.888 1086.24 56.248 1086.03 56.392C1085.84 56.552 1085.63 56.632 1085.41 56.632C1085.15 56.632 1084.93 56.536 1084.73 56.344C1084.56 56.152 1084.53 55.76 1084.66 55.168L1086.41 46.984C1085.45 47.128 1084.61 47.232 1083.87 47.296C1083.15 47.36 1082.65 47.368 1082.36 47.32ZM1096.98 55.624C1096.37 55.624 1095.87 55.344 1095.47 54.784C1095.08 54.208 1094.89 53.464 1094.89 52.552C1094.89 51.704 1095.1 50.864 1095.51 50.032C1095.95 49.2 1096.51 48.4 1097.22 47.632C1097.92 46.864 1098.69 46.16 1099.52 45.52C1100.35 44.864 1101.19 44.296 1102.02 43.816C1102.87 43.336 1103.64 42.96 1104.35 42.688C1105.05 42.416 1105.61 42.28 1106.03 42.28C1106.25 42.28 1106.43 42.328 1106.58 42.424C1106.72 42.504 1106.79 42.656 1106.79 42.88C1106.79 43.024 1106.74 43.16 1106.63 43.288C1106.64 43.288 1106.66 43.288 1106.67 43.288C1107.03 43.288 1107.2 43.496 1107.2 43.912C1107.2 44.056 1107.15 44.352 1107.03 44.8C1106.92 45.232 1106.79 45.776 1106.65 46.432C1106.51 47.088 1106.38 47.816 1106.27 48.616C1106.15 49.4 1106.1 50.2 1106.1 51.016C1106.1 51.704 1106.36 52.048 1106.89 52.048C1107.48 52.048 1108.08 51.912 1108.69 51.64C1109.3 51.368 1109.89 51.04 1110.47 50.656C1111.04 50.256 1111.57 49.864 1112.05 49.48C1112.53 49.08 1112.94 48.744 1113.27 48.472C1113.61 48.2 1113.85 48.064 1113.99 48.064C1114.12 48.064 1114.23 48.104 1114.33 48.184C1114.43 48.264 1114.47 48.392 1114.47 48.568C1114.47 48.728 1114.31 49.016 1113.99 49.432C1113.67 49.848 1113.25 50.32 1112.72 50.848C1112.19 51.376 1111.6 51.888 1110.95 52.384C1110.29 52.88 1109.62 53.288 1108.93 53.608C1108.24 53.928 1107.59 54.088 1106.96 54.088C1106.48 54.088 1106.04 53.944 1105.64 53.656C1105.26 53.352 1104.95 52.84 1104.71 52.12C1104.48 51.4 1104.37 50.408 1104.37 49.144V48.544C1103.59 49.84 1102.76 51.024 1101.9 52.096C1101.05 53.168 1100.2 54.024 1099.35 54.664C1098.52 55.304 1097.73 55.624 1096.98 55.624ZM1105.57 44.008C1105.49 44.04 1105.38 44.088 1105.23 44.152C1104.5 44.488 1103.73 44.904 1102.93 45.4C1102.15 45.896 1101.38 46.448 1100.63 47.056C1099.89 47.664 1099.23 48.296 1098.63 48.952C1098.04 49.608 1097.57 50.272 1097.22 50.944C1096.87 51.616 1096.69 52.272 1096.69 52.912C1096.69 53.12 1096.73 53.28 1096.81 53.392C1096.91 53.504 1097.07 53.56 1097.29 53.56C1097.61 53.56 1098.03 53.36 1098.54 52.96C1099.05 52.544 1099.61 52 1100.22 51.328C1100.84 50.656 1101.47 49.912 1102.09 49.096C1102.71 48.28 1103.31 47.456 1103.87 46.624C1104.44 45.792 1104.94 45.024 1105.35 44.32C1105.42 44.208 1105.49 44.104 1105.57 44.008ZM1111.14 47.32C1110.71 47.288 1110.51 47.008 1110.54 46.48C1110.55 46.352 1110.64 46.2 1110.8 46.024C1110.96 45.832 1111.15 45.728 1111.35 45.712C1111.85 45.664 1112.46 45.592 1113.18 45.496C1113.91 45.384 1114.72 45.256 1115.6 45.112C1115.76 44.328 1115.95 43.504 1116.18 42.64C1116.4 41.776 1116.65 40.936 1116.92 40.12C1117.19 39.288 1117.48 38.536 1117.79 37.864C1118.09 37.192 1118.41 36.664 1118.75 36.28C1118.92 36.104 1119.08 35.984 1119.23 35.92C1119.37 35.84 1119.5 35.8 1119.61 35.8C1119.83 35.8 1120.01 35.896 1120.14 36.088C1120.28 36.28 1120.35 36.496 1120.35 36.736C1120.35 36.864 1120.33 36.992 1120.28 37.12C1119.96 38.016 1119.62 39.12 1119.25 40.432C1118.88 41.744 1118.49 43.176 1118.07 44.728C1119.55 44.488 1121.02 44.232 1122.49 43.96C1123.96 43.688 1125.23 43.44 1126.28 43.216C1126.59 43.088 1126.82 43.112 1126.98 43.288C1127.15 43.464 1127.24 43.64 1127.24 43.816C1127.24 44.04 1127.18 44.208 1127.05 44.32C1126.94 44.432 1126.82 44.528 1126.69 44.608L1126.67 44.632C1126.35 44.76 1125.87 44.912 1125.23 45.088C1124.59 45.248 1123.85 45.424 1123.02 45.616C1122.19 45.792 1121.3 45.968 1120.35 46.144C1119.43 46.32 1118.51 46.48 1117.59 46.624C1117.23 48.032 1116.85 49.48 1116.47 50.968C1116.1 52.44 1115.73 53.888 1115.36 55.312C1115.2 55.888 1115.02 56.248 1114.81 56.392C1114.62 56.552 1114.41 56.632 1114.19 56.632C1113.93 56.632 1113.71 56.536 1113.51 56.344C1113.34 56.152 1113.31 55.76 1113.44 55.168L1115.19 46.984C1114.23 47.128 1113.39 47.232 1112.65 47.296C1111.93 47.36 1111.43 47.368 1111.14 47.32ZM1127.83 55.24C1126.89 55.24 1126.14 54.88 1125.6 54.16C1125.06 53.44 1124.78 52.504 1124.78 51.352C1124.78 50.936 1124.84 50.496 1124.95 50.032C1125.08 49.552 1125.24 49.12 1125.43 48.736C1125.32 48.624 1125.23 48.472 1125.17 48.28C1125.1 48.072 1125.07 47.816 1125.07 47.512C1125.07 46.568 1125.23 45.704 1125.55 44.92C1125.87 44.136 1126.3 43.456 1126.82 42.88C1127.35 42.288 1127.94 41.832 1128.58 41.512C1129.23 41.192 1129.9 41.032 1130.57 41.032C1131.67 41.032 1132.57 41.432 1133.26 42.232C1133.94 43.016 1134.29 44.216 1134.29 45.832C1134.29 46.68 1134.16 47.544 1133.9 48.424C1133.66 49.304 1133.33 50.152 1132.9 50.968C1132.48 51.784 1131.99 52.512 1131.43 53.152C1130.89 53.792 1130.3 54.304 1129.68 54.688C1129.07 55.056 1128.46 55.24 1127.83 55.24ZM1127.02 47.92C1127.11 48.048 1127.16 48.216 1127.16 48.424C1127.16 48.664 1127.11 48.904 1127.02 49.144C1126.94 49.384 1126.85 49.712 1126.75 50.128C1126.66 50.544 1126.61 51.136 1126.61 51.904C1126.61 52.672 1126.91 53.056 1127.52 53.056C1128.19 53.056 1128.82 52.792 1129.39 52.264C1129.97 51.72 1130.48 51.024 1130.93 50.176C1131.38 49.328 1131.72 48.424 1131.96 47.464C1132.22 46.488 1132.34 45.568 1132.34 44.704C1132.34 44.144 1132.24 43.752 1132.03 43.528C1131.82 43.288 1131.45 43.168 1130.9 43.168C1130.34 43.168 1129.76 43.36 1129.15 43.744C1128.56 44.112 1128.06 44.616 1127.66 45.256C1127.26 45.896 1127.06 46.616 1127.06 47.416C1127.06 47.592 1127.05 47.76 1127.02 47.92Z" fill="#141414"/>
</svg>
