<svg width="35" height="30" viewBox="0 0 35 30" fill="none" xmlns="http://www.w3.org/2000/svg">
<g id="whatsapp 1">
<path id="Vector" d="M29.7578 5.68945C26.4844 3.22852 22.125 1.875 17.4922 1.875C7.92969 1.875 0.148437 7.71094 0.148437 14.8828C0.148437 17.1738 0.945313 19.4121 2.46094 21.3867L0 28.125L9.19531 26.3145C11.7266 27.3516 14.5781 27.8965 17.4844 27.8965H17.4922C27.0469 27.8965 35 22.0605 35 14.8887C35 11.4141 33.0312 8.15039 29.7578 5.68945ZM17.4922 25.7051C14.8984 25.7051 12.3594 25.1836 10.1484 24.1992L9.625 23.9648L4.17188 25.0371L5.625 21.0469L5.28125 20.6367C3.83594 18.9141 3.07813 16.9277 3.07813 14.8828C3.07813 8.92383 9.54687 4.07227 17.5 4.07227C21.3516 4.07227 24.9687 5.19727 27.6875 7.24219C30.4062 9.28711 32.0781 12 32.0703 14.8887C32.0703 20.8535 25.4375 25.7051 17.4922 25.7051ZM25.3984 17.6074C24.9688 17.4434 22.8359 16.6582 22.4375 16.5527C22.0391 16.4414 21.75 16.3887 21.4609 16.7168C21.1719 17.0449 20.3438 17.7715 20.0859 17.9941C19.8359 18.2109 19.5781 18.2402 19.1484 18.0762C16.6016 17.1211 14.9297 16.3711 13.25 14.209C12.8047 13.6348 13.6953 13.6758 14.5234 12.4336C14.6641 12.2168 14.5937 12.0293 14.4844 11.8652C14.375 11.7012 13.5078 10.1016 13.1484 9.45117C12.7969 8.81836 12.4375 8.90625 12.1719 8.89453C11.9219 8.88281 11.6328 8.88281 11.3437 8.88281C11.0547 8.88281 10.5859 8.96484 10.1875 9.28711C9.78906 9.61523 8.67188 10.4004 8.67188 12C8.67188 13.5996 10.2266 15.1465 10.4375 15.3633C10.6563 15.5801 13.4922 18.8613 17.8437 20.2734C20.5937 21.1641 21.6719 21.2402 23.0469 21.0879C23.8828 20.9941 25.6094 20.3027 25.9687 19.541C26.3281 18.7793 26.3281 18.1289 26.2188 17.9941C26.1172 17.8477 25.8281 17.7656 25.3984 17.6074Z" fill="#FF5B4D"/>
</g>
</svg>
